<?xml version="1.0" encoding="UTF-8" standalone="no"?>
<!-- Created with Inkscape (http://www.inkscape.org/) -->

<svg
   xmlns:dc="http://purl.org/dc/elements/1.1/"
   xmlns:cc="http://creativecommons.org/ns#"
   xmlns:rdf="http://www.w3.org/1999/02/22-rdf-syntax-ns#"
   xmlns:svg="http://www.w3.org/2000/svg"
   xmlns="http://www.w3.org/2000/svg"
   xmlns:sodipodi="http://sodipodi.sourceforge.net/DTD/sodipodi-0.dtd"
   xmlns:inkscape="http://www.inkscape.org/namespaces/inkscape"
   width="32.872627mm"
   height="31.852156mm"
   viewBox="0 0 32.872627 31.852156"
   version="1.1"
   id="svg69115"
   inkscape:version="0.92.2 (5c3e80d, 2017-08-06)"
   sodipodi:docname="emiia153.svg">
  <defs
     id="defs69109" />
  <sodipodi:namedview
     id="base"
     pagecolor="#ffffff"
     bordercolor="#666666"
     borderopacity="1.0"
     inkscape:pageopacity="0.0"
     inkscape:pageshadow="2"
     inkscape:zoom="1.979899"
     inkscape:cx="-27.512161"
     inkscape:cy="45.258475"
     inkscape:document-units="mm"
     inkscape:current-layer="layer1"
     showgrid="false"
     inkscape:window-width="1366"
     inkscape:window-height="745"
     inkscape:window-x="-8"
     inkscape:window-y="-8"
     inkscape:window-maximized="1"
     fit-margin-top="0"
     fit-margin-left="0"
     fit-margin-right="0"
     fit-margin-bottom="0" />
  <metadata
     id="metadata69112">
    <rdf:RDF>
      <cc:Work
         rdf:about="">
        <dc:format>image/svg+xml</dc:format>
        <dc:type
           rdf:resource="http://purl.org/dc/dcmitype/StillImage" />
        <dc:title />
      </cc:Work>
    </rdf:RDF>
  </metadata>
  <g
     inkscape:label="Layer 1"
     inkscape:groupmode="layer"
     id="layer1"
     transform="translate(-62.593819,-135.22023)">
    <path
       style="fill:none;fill-opacity:1;stroke:#3d85c6;stroke-width:0.47125095;stroke-linecap:round;stroke-linejoin:round;stroke-miterlimit:8.8648653;stroke-dasharray:none;stroke-dashoffset:0;stroke-opacity:1"
       d="m 85.155468,149.70498 c 0.0059,-0.14986 -0.366162,-0.85179 -0.60061,-1.01932 -0.234447,-0.16753 -0.435435,-0.24293 -0.435435,-0.24293 0,0 0.01365,-0.66093 -0.154572,-0.7229 -0.197218,-0.0728 -0.549008,0.60579 -0.549008,0.60579 0,0 -0.494104,0.31833 -0.762246,0.48586 -0.268142,0.16753 -0.57799,0.46913 -0.57799,0.46913 0,0 -1.641602,-0.0669 -2.244805,-0.10061 -0.602964,-0.0335 -2.261531,-0.26814 -3.233015,-0.20099 -0.610036,0.0422 -1.189439,-0.10061 -1.189439,-0.10061 0,0 -1.090475,-0.81691 -1.046883,-1.91799 0.02522,-0.63666 0.418706,-1.19768 0.845894,-1.19768 0.614985,0 0.678366,0.16753 0.678366,0.16753 0,0 0.131479,-0.39963 -0.09213,-0.64491 -0.343308,-0.377 -1.018374,-0.33459 -1.356969,-0.15905 -0.4524,0.23445 -1.122283,1.11404 -0.971481,2.34518 0.182139,1.48727 1.072097,2.17765 1.072097,2.17765 0,0 -0.216543,0.68944 -0.267907,1.23963 -0.05537,0.59165 0.01413,0.83765 -0.03346,0.80419 0,0 -0.569508,0.67012 -0.804191,0.8711 -0.23468,0.20099 -0.435433,1.10556 -0.569505,1.57469 -0.13407,0.46913 0.145148,0.89349 0.312674,0.89349 0.167529,0 0.238218,-0.65386 0.357447,-1.02733 0.245755,-0.77049 0.737036,-0.83764 1.13901,-0.97148 0.401976,-0.13407 0.83765,-0.16753 0.83765,-0.16753 0,0 -0.268142,0.73704 -0.234448,1.13901 0.03346,0.40198 1.139013,1.47408 1.139013,1.47408 h 0.737037 c 0,0 0.33506,-0.10061 0.167531,-0.36852 -0.167531,-0.26814 -0.569508,-0.26814 -0.569508,-0.26814 0,0 -0.569507,-0.50259 -0.536048,-0.70358 0.03346,-0.20099 0.46913,-0.53605 0.770496,-0.93803 0.301363,-0.40197 0.268142,-0.60296 0.268142,-0.60296 l 2.423406,0.0335 c 0,0 -0.01109,0.53605 -0.212297,1.34024 -0.200988,0.80395 0.06692,1.27308 0.06692,1.27308 h 0.770493 c 0,0 0.134072,-0.13407 0.03346,-0.3016 -0.100616,-0.16753 -0.268851,-0.21018 -0.268851,-0.21018 l 0.07893,-0.34825 0.792882,-1.48539 0.891606,-0.10061 c 0,0 0.580816,0.54712 1.317853,1.18378 0.737036,0.63666 1.507529,1.21725 1.507529,1.21725 l 0.792883,0.0111 c 0,0 0.193683,-0.14514 0.0893,-0.33506 -0.194154,-0.35367 -0.700278,-0.28039 -0.700278,-0.28039 0,0 -0.244817,-0.29854 -0.64915,-0.85862 -0.425537,-0.5893 -0.635011,-1.02992 -0.635011,-1.02992 0,0 -0.102261,-0.27686 -0.06856,-1.04736 0.03346,-0.77049 0,-1.0146 0,-1.0146 0,0 0.122992,-0.127 0.322099,-0.26979 0.199104,-0.14279 0.425304,-0.18214 0.44863,-0.19345 h 0.602967 c 2.64e-4,0 0.293822,-0.32658 0.299479,-0.47643 z"
       id="path16618"
       inkscape:connector-curvature="0" />
  </g>
</svg>
