<?xml version="1.0" encoding="UTF-8" standalone="no"?>
<!-- Created with Inkscape (http://www.inkscape.org/) -->

<svg
   xmlns:dc="http://purl.org/dc/elements/1.1/"
   xmlns:cc="http://creativecommons.org/ns#"
   xmlns:rdf="http://www.w3.org/1999/02/22-rdf-syntax-ns#"
   xmlns:svg="http://www.w3.org/2000/svg"
   xmlns="http://www.w3.org/2000/svg"
   xmlns:sodipodi="http://sodipodi.sourceforge.net/DTD/sodipodi-0.dtd"
   xmlns:inkscape="http://www.inkscape.org/namespaces/inkscape"
   width="96.774658mm"
   height="43.67997mm"
   viewBox="0 0 96.774659 43.679974"
   version="1.1"
   id="svg40794"
   inkscape:version="0.92.2 (5c3e80d, 2017-08-06)"
   sodipodi:docname="emiia111.svg">
  <defs
     id="defs40788">
    <clipPath
       id="clipEmfPath1"
       clipPathUnits="userSpaceOnUse">
      <path
         id="path3250"
         d="M -0.27328498,6.5621088 H 33.993094 V 40.972618 H -0.27328498 Z"
         inkscape:connector-curvature="0" />
    </clipPath>
    <pattern
       y="0"
       x="0"
       height="6"
       width="6"
       patternUnits="userSpaceOnUse"
       id="EMFhbasepattern" />
    <clipPath
       id="clipEmfPath1-6"
       clipPathUnits="userSpaceOnUse">
      <path
         id="path3355"
         d="M -0.27328498,-0.26725306 H 81.694308 V 82.007214 H -0.27328498 Z"
         inkscape:connector-curvature="0" />
    </clipPath>
    <pattern
       y="0"
       x="0"
       height="6"
       width="6"
       patternUnits="userSpaceOnUse"
       id="EMFhbasepattern-5" />
    <clipPath
       id="clipEmfPath1-4"
       clipPathUnits="userSpaceOnUse">
      <path
         id="path3373"
         d="M -1.1335304,-16.486988 H 81.664305 L 100.83536,100.0085 H -16.493019 Z"
         inkscape:connector-curvature="0" />
    </clipPath>
    <pattern
       y="0"
       x="0"
       height="6"
       width="6"
       patternUnits="userSpaceOnUse"
       id="EMFhbasepattern-4" />
    <pattern
       y="0"
       x="0"
       height="6"
       width="6"
       patternUnits="userSpaceOnUse"
       id="EMFhbasepattern-6" />
  </defs>
  <sodipodi:namedview
     id="base"
     pagecolor="#ffffff"
     bordercolor="#666666"
     borderopacity="1.0"
     inkscape:pageopacity="0.0"
     inkscape:pageshadow="2"
     inkscape:zoom="0.76015625"
     inkscape:cx="-157.75024"
     inkscape:cy="-87.37484"
     inkscape:document-units="mm"
     inkscape:current-layer="layer1"
     showgrid="false"
     fit-margin-top="0"
     fit-margin-left="0"
     fit-margin-right="0"
     fit-margin-bottom="0"
     inkscape:window-width="1366"
     inkscape:window-height="745"
     inkscape:window-x="-8"
     inkscape:window-y="-8"
     inkscape:window-maximized="1" />
  <metadata
     id="metadata40791">
    <rdf:RDF>
      <cc:Work
         rdf:about="">
        <dc:format>image/svg+xml</dc:format>
        <dc:type
           rdf:resource="http://purl.org/dc/dcmitype/StillImage" />
        <dc:title />
      </cc:Work>
    </rdf:RDF>
  </metadata>
  <g
     inkscape:label="Layer 1"
     inkscape:groupmode="layer"
     id="layer1"
     transform="translate(-52.465864,-84.664128)">
    <g
       aria-label="HI-TECH@MAIL.RU"
       style="font-style:normal;font-variant:normal;font-weight:normal;font-stretch:normal;font-size:12.69999981px;line-height:1.25;font-family:Orbitron;-inkscape-font-specification:Orbitron;letter-spacing:0px;word-spacing:0px;fill:#000000;fill-opacity:1;stroke:none;stroke-width:0.26458332"
       id="text883">
      <path
         d="m 55.315729,116.66057 q 0,-0.17053 0.118855,-0.28939 0.124024,-0.12402 0.294556,-0.12402 0.170532,0 0.289388,0.12402 0.124023,0.11886 0.124023,0.28939 v 3.30729 h 4.134115 v -3.30729 q 0,-0.17053 0.118856,-0.28939 0.124024,-0.12402 0.294556,-0.12402 0.170532,0 0.289388,0.12402 0.124023,0.11886 0.124023,0.28939 v 7.44141 q 0,0.17053 -0.124023,0.29455 -0.118856,0.11886 -0.289388,0.11886 -0.170532,0 -0.294556,-0.11886 -0.118856,-0.12402 -0.118856,-0.29455 v -3.30729 h -4.134115 v 3.30729 q 0,0.17053 -0.124023,0.29455 -0.118856,0.11886 -0.289388,0.11886 -0.170532,0 -0.294556,-0.11886 -0.118855,-0.12402 -0.118855,-0.29455 z"
         style="font-style:normal;font-variant:normal;font-weight:normal;font-stretch:normal;font-size:10.58333397px;font-family:Comfortaa;-inkscape-font-specification:Comfortaa;stroke-width:0.26458332"
         id="path2115" />
      <path
         d="m 62.343724,116.66057 q 0,-0.17053 0.118856,-0.28939 0.124023,-0.12402 0.294555,-0.12402 0.170533,0 0.289389,0.12402 0.124023,0.11886 0.124023,0.28939 v 7.44141 q 0,0.17053 -0.124023,0.29455 -0.118856,0.11886 -0.289389,0.11886 -0.170532,0 -0.294555,-0.11886 -0.118856,-0.12402 -0.118856,-0.29455 z"
         style="font-style:normal;font-variant:normal;font-weight:normal;font-stretch:normal;font-size:10.58333397px;font-family:Comfortaa;-inkscape-font-specification:Comfortaa;stroke-width:0.26458332"
         id="path2117" />
      <path
         d="m 64.824193,122.03492 q -0.170533,0 -0.294556,-0.11886 -0.118856,-0.12402 -0.118856,-0.29455 0,-0.17053 0.118856,-0.28939 0.124023,-0.12402 0.294556,-0.12402 h 2.480469 q 0.170532,0 0.289388,0.12402 0.124023,0.11886 0.124023,0.28939 0,0.17053 -0.124023,0.29455 -0.118856,0.11886 -0.289388,0.11886 z"
         style="font-style:normal;font-variant:normal;font-weight:normal;font-stretch:normal;font-size:10.58333397px;font-family:Comfortaa;-inkscape-font-specification:Comfortaa;stroke-width:0.26458332"
         id="path2119" />
      <path
         d="m 68.958308,117.07398 q -0.170532,0 -0.294556,-0.11885 -0.118856,-0.12403 -0.118856,-0.29456 0,-0.17053 0.118856,-0.28939 0.124024,-0.12402 0.294556,-0.12402 h 5.374349 q 0.170532,0 0.289388,0.12402 0.124024,0.11886 0.124024,0.28939 0,0.17053 -0.124024,0.29456 -0.118856,0.11885 -0.289388,0.11885 h -2.273763 v 7.028 q 0,0.17053 -0.124023,0.29455 -0.118856,0.11886 -0.289388,0.11886 -0.170533,0 -0.294556,-0.11886 -0.118856,-0.12402 -0.118856,-0.29455 v -7.028 z"
         style="font-style:normal;font-variant:normal;font-weight:normal;font-stretch:normal;font-size:10.58333397px;font-family:Comfortaa;-inkscape-font-specification:Comfortaa;stroke-width:0.26458332"
         id="path2121" />
      <path
         d="m 75.986302,116.24716 h 4.960938 q 0.170532,0 0.289388,0.12402 0.124023,0.11886 0.124023,0.28939 0,0.17053 -0.124023,0.29456 -0.118856,0.11885 -0.289388,0.11885 h -4.547526 v 2.89388 h 3.307291 q 0.170533,0 0.289388,0.12403 0.124024,0.11885 0.124024,0.28938 0,0.17054 -0.124024,0.29456 -0.118855,0.11886 -0.289388,0.11886 h -3.307291 v 2.89388 h 4.547526 q 0.170532,0 0.289388,0.12402 0.124023,0.11885 0.124023,0.28939 0,0.17053 -0.124023,0.29455 -0.118856,0.11886 -0.289388,0.11886 h -4.960938 q -0.170532,0 -0.294556,-0.11886 -0.118855,-0.12402 -0.118855,-0.29455 v -7.44141 q 0,-0.17053 0.118855,-0.28939 0.124024,-0.12402 0.294556,-0.12402 z"
         style="font-style:normal;font-variant:normal;font-weight:normal;font-stretch:normal;font-size:10.58333397px;font-family:Comfortaa;-inkscape-font-specification:Comfortaa;stroke-width:0.26458332"
         id="path2123" />
      <path
         d="m 87.964901,122.89275 q 0.170533,0 0.289388,0.12402 0.124024,0.11886 0.124024,0.28939 0,0.17053 -0.118856,0.28939 -1.152384,0.91984 -2.599325,0.91984 -1.71049,0 -2.924886,-1.20923 -1.209228,-1.2144 -1.209228,-2.92489 0,-1.71049 1.209228,-2.91971 1.214396,-1.2144 2.924886,-1.2144 1.477946,0 2.630331,0.94568 0.118856,0.12402 0.118856,0.29455 0,0.17054 -0.124024,0.29456 -0.118856,0.11885 -0.289388,0.11885 -0.170532,0 -0.294555,-0.12402 -0.873332,-0.7028 -2.04122,-0.7028 -1.369425,0 -2.340942,0.97152 -0.96635,0.96635 -0.96635,2.33577 0,1.36943 0.96635,2.34095 0.971517,0.96635 2.340942,0.96635 1.183391,0 2.067058,-0.72347 0.103353,-0.0724 0.237711,-0.0724 z"
         style="font-style:normal;font-variant:normal;font-weight:normal;font-stretch:normal;font-size:10.58333397px;font-family:Comfortaa;-inkscape-font-specification:Comfortaa;stroke-width:0.26458332"
         id="path2125" />
      <path
         d="m 89.174131,116.66057 q 0,-0.17053 0.118856,-0.28939 0.124023,-0.12402 0.294555,-0.12402 0.170533,0 0.289388,0.12402 0.124024,0.11886 0.124024,0.28939 v 3.30729 h 4.134115 v -3.30729 q 0,-0.17053 0.118855,-0.28939 0.124024,-0.12402 0.294556,-0.12402 0.170532,0 0.289388,0.12402 0.124024,0.11886 0.124024,0.28939 v 7.44141 q 0,0.17053 -0.124024,0.29455 -0.118856,0.11886 -0.289388,0.11886 -0.170532,0 -0.294556,-0.11886 -0.118855,-0.12402 -0.118855,-0.29455 v -3.30729 h -4.134115 v 3.30729 q 0,0.17053 -0.124024,0.29455 -0.118855,0.11886 -0.289388,0.11886 -0.170532,0 -0.294555,-0.11886 -0.118856,-0.12402 -0.118856,-0.29455 z"
         style="font-style:normal;font-variant:normal;font-weight:normal;font-stretch:normal;font-size:10.58333397px;font-family:Comfortaa;-inkscape-font-specification:Comfortaa;stroke-width:0.26458332"
         id="path2127" />
      <path
         d="m 101.16306,119.55445 q -0.85783,0 -1.462441,0.60461 -0.604614,0.60462 -0.604614,1.46245 0,0.85783 0.604614,1.46244 0.604611,0.60462 1.462441,0.60462 0.85783,0 1.46245,-0.60462 0.60461,-0.60461 0.60461,-1.46244 0,-0.85783 -0.60461,-1.46245 -0.60462,-0.60461 -1.46245,-0.60461 z m 2.06706,4.09794 q -0.86816,0.863 -2.06706,0.863 -1.198891,0 -2.046385,-0.8475 -0.847493,-0.84749 -0.847493,-2.04638 0,-1.1989 0.847493,-2.04639 0.847494,-0.84749 2.046385,-0.84749 1.1989,0 2.04639,0.84749 0.84749,0.84749 0.84749,2.04639 v 2.06706 q 0,0.41341 0.41341,0.41341 1.24024,0 1.24024,-2.48047 0,-1.88619 -1.33325,-3.21428 -1.32809,-1.33325 -3.21428,-1.33325 -1.886188,0 -3.21944,1.33325 -1.328084,1.32809 -1.328084,3.21428 0,1.88619 1.328084,3.21427 1.333252,1.33325 3.21944,1.33325 1.01286,0 1.87069,-0.3824 0.093,-0.0568 0.2067,-0.0568 0.17054,0 0.28939,0.11886 0.12403,0.12402 0.12403,0.29456 0,0.17053 -0.11886,0.28938 -0.0672,0.0672 -0.14469,0.0982 -1.01803,0.46509 -2.22726,0.46509 -2.227252,0 -3.803384,-1.57613 -1.570963,-1.57097 -1.570963,-3.79822 0,-2.22726 1.570963,-3.79822 1.576132,-1.57613 3.803384,-1.57613 2.22726,0 3.79822,1.57613 1.57613,1.57096 1.57613,3.79822 0,3.30729 -2.06706,3.30729 -1.24023,0 -1.24023,-1.27641 z"
         style="font-size:10.58333397px;fill:#a5abab;fill-opacity:1"
         id="path2129" />
      <path
         d="m 111.11595,124.26217 -2.92489,-5.84977 v 5.68958 q 0,0.17053 -0.12402,0.29455 -0.11886,0.11886 -0.28939,0.11886 -0.17053,0 -0.29456,-0.11886 -0.11885,-0.12402 -0.11885,-0.29455 v -7.44141 q 0,-0.17053 0.11885,-0.28939 0.12403,-0.12402 0.29456,-0.12402 0.24804,0 0.3669,0.21704 l 3.3538,6.71277 3.3538,-6.71277 q 0.11886,-0.21704 0.3669,-0.21704 0.17054,0 0.28939,0.12402 0.12403,0.11886 0.12403,0.28939 v 7.44141 q 0,0.17053 -0.12403,0.29455 -0.11885,0.11886 -0.28939,0.11886 -0.17053,0 -0.29455,-0.11886 -0.11886,-0.12402 -0.11886,-0.29455 v -5.68958 l -2.95072,5.90145 q -0.10852,0.20154 -0.35657,0.20154 -0.25838,0 -0.3824,-0.25322 z"
         style="font-style:normal;font-variant:normal;font-weight:normal;font-stretch:normal;font-size:10.58333397px;font-family:Comfortaa;-inkscape-font-specification:Comfortaa;stroke-width:0.26458332"
         id="path2131" />
      <path
         d="m 118.28347,121.62151 -1.02837,2.64066 q -0.031,0.0724 -0.0879,0.13436 -0.12402,0.11886 -0.29455,0.11886 -0.17053,0 -0.29456,-0.11886 -0.11885,-0.12402 -0.11885,-0.29455 0,-0.0982 0.0362,-0.1757 l 2.87321,-7.38973 q 0.031,-0.093 0.10852,-0.17054 0.11886,-0.11885 0.28939,-0.11885 0.17053,0 0.29455,0.11885 0.0724,0.0775 0.10336,0.17054 l 2.87321,7.38973 q 0.0362,0.0775 0.0362,0.1757 0,0.17053 -0.12402,0.29455 -0.11886,0.11886 -0.28939,0.11886 -0.17053,0 -0.28939,-0.11886 -0.062,-0.062 -0.093,-0.13436 l -1.02836,-2.64066 z m 2.64583,-0.82682 -1.16272,-2.99207 -1.16272,2.99207 z"
         style="font-style:normal;font-variant:normal;font-weight:normal;font-stretch:normal;font-size:10.58333397px;font-family:Comfortaa;-inkscape-font-specification:Comfortaa;stroke-width:0.26458332"
         id="path2133" />
      <path
         d="m 124.31411,116.66057 q 0,-0.17053 0.11885,-0.28939 0.12403,-0.12402 0.29456,-0.12402 0.17053,0 0.28939,0.12402 0.12402,0.11886 0.12402,0.28939 v 7.44141 q 0,0.17053 -0.12402,0.29455 -0.11886,0.11886 -0.28939,0.11886 -0.17053,0 -0.29456,-0.11886 -0.11885,-0.12402 -0.11885,-0.29455 z"
         style="font-style:normal;font-variant:normal;font-weight:normal;font-stretch:normal;font-size:10.58333397px;font-family:Comfortaa;-inkscape-font-specification:Comfortaa;stroke-width:0.26458332"
         id="path2135" />
      <path
         d="m 126.38117,116.66057 q 0,-0.17053 0.11885,-0.28939 0.12403,-0.12402 0.29456,-0.12402 0.17053,0 0.28939,0.12402 0.12402,0.11886 0.12402,0.28939 v 7.028 h 4.13411 q 0.17054,0 0.28939,0.12402 0.12403,0.11885 0.12403,0.28939 0,0.17053 -0.12403,0.29455 -0.11885,0.11886 -0.28939,0.11886 h -4.54752 q -0.17053,0 -0.29456,-0.11886 -0.11885,-0.12402 -0.11885,-0.29455 z"
         style="font-style:normal;font-variant:normal;font-weight:normal;font-stretch:normal;font-size:10.58333397px;font-family:Comfortaa;-inkscape-font-specification:Comfortaa;stroke-width:0.26458332"
         id="path2137" />
      <path
         d="m 133.82257,123.89527 q 0,0.25838 -0.18087,0.43925 -0.18086,0.18087 -0.43925,0.18087 -0.25838,0 -0.43924,-0.18087 -0.18087,-0.18087 -0.18087,-0.43925 0,-0.25838 0.18087,-0.43925 0.18086,-0.18087 0.43924,-0.18087 0.25839,0 0.43925,0.18087 0.18087,0.18087 0.18087,0.43925 z"
         style="font-size:10.58333397px;fill:#a5abab;fill-opacity:1"
         id="path2139" />
      <path
         d="m 135.47622,117.07398 v 3.30729 h 1.65364 q 0.6873,0 1.16789,-0.48059 0.48576,-0.48576 0.48576,-1.17305 0,-0.6873 -0.48576,-1.16789 -0.48059,-0.48576 -1.16789,-0.48576 z m -0.41342,-0.82682 h 2.06706 q 1.02836,0 1.75183,0.72864 0.72864,0.72347 0.72864,1.75183 0,1.02836 -0.72347,1.75183 -0.3359,0.3359 -0.72864,0.5116 l 1.79834,2.88354 q 0.0672,0.0982 0.0672,0.22738 0,0.17053 -0.12402,0.29455 -0.11886,0.11886 -0.28939,0.11886 -0.22221,0 -0.36173,-0.21187 l -1.93787,-3.10059 q -0.0879,0.005 -0.18087,0.005 h -1.65364 v 2.89388 q 0,0.17053 -0.12403,0.29455 -0.11885,0.11886 -0.28939,0.11886 -0.17053,0 -0.29455,-0.11886 -0.11886,-0.12402 -0.11886,-0.29455 v -7.44141 q 0,-0.17053 0.11886,-0.28939 0.12402,-0.12402 0.29455,-0.12402 z"
         style="font-size:10.58333397px;fill:#a5abab;fill-opacity:1"
         id="path2141" />
      <path
         d="m 140.85056,116.66057 q 0,-0.17053 0.11886,-0.28939 0.12402,-0.12402 0.29456,-0.12402 0.17053,0 0.28938,0.12402 0.12403,0.11886 0.12403,0.28939 v 4.96094 q 0,0.85783 0.60461,1.46244 0.60462,0.60462 1.46244,0.60462 0.85783,0 1.46245,-0.60462 0.60461,-0.60461 0.60461,-1.46244 v -4.96094 q 0,-0.17053 0.11886,-0.28939 0.12402,-0.12402 0.29455,-0.12402 0.17054,0 0.28939,0.12402 0.12403,0.11886 0.12403,0.28939 v 4.96094 q 0,1.19889 -0.8475,2.04638 -0.84749,0.8475 -2.04639,0.8475 -1.19889,0 -2.04638,-0.8475 -0.8475,-0.84749 -0.8475,-2.04638 z"
         style="font-size:10.58333397px;fill:#a5abab;fill-opacity:1"
         id="path2143" />
    </g>
  </g>
</svg>
