<?xml version="1.0" encoding="UTF-8" standalone="no"?>
<!-- Created with Inkscape (http://www.inkscape.org/) -->

<svg
   xmlns:dc="http://purl.org/dc/elements/1.1/"
   xmlns:cc="http://creativecommons.org/ns#"
   xmlns:rdf="http://www.w3.org/1999/02/22-rdf-syntax-ns#"
   xmlns:svg="http://www.w3.org/2000/svg"
   xmlns="http://www.w3.org/2000/svg"
   xmlns:sodipodi="http://sodipodi.sourceforge.net/DTD/sodipodi-0.dtd"
   xmlns:inkscape="http://www.inkscape.org/namespaces/inkscape"
   width="31.80201mm"
   height="4.8028998mm"
   viewBox="0 0 31.80201 4.8028998"
   version="1.1"
   id="svg8"
   inkscape:version="0.92.2 (5c3e80d, 2017-08-06)"
   sodipodi:docname="emiia133.svg">
  <defs
     id="defs2">
    <pattern
       y="0"
       x="0"
       height="6"
       width="6"
       patternUnits="userSpaceOnUse"
       id="EMFhbasepattern" />
    <pattern
       y="0"
       x="0"
       height="6"
       width="6"
       patternUnits="userSpaceOnUse"
       id="EMFhbasepattern-2" />
    <pattern
       y="0"
       x="0"
       height="6"
       width="6"
       patternUnits="userSpaceOnUse"
       id="EMFhbasepattern-0" />
  </defs>
  <sodipodi:namedview
     id="base"
     pagecolor="#ffffff"
     bordercolor="#666666"
     borderopacity="1.0"
     inkscape:pageopacity="0.0"
     inkscape:pageshadow="2"
     inkscape:zoom="3.959798"
     inkscape:cx="78.07067"
     inkscape:cy="-11.122322"
     inkscape:document-units="mm"
     inkscape:current-layer="layer1"
     showgrid="false"
     inkscape:window-width="1366"
     inkscape:window-height="745"
     inkscape:window-x="-8"
     inkscape:window-y="-8"
     inkscape:window-maximized="1"
     fit-margin-top="0"
     fit-margin-left="0"
     fit-margin-right="0"
     fit-margin-bottom="0" />
  <metadata
     id="metadata5">
    <rdf:RDF>
      <cc:Work
         rdf:about="">
        <dc:format>image/svg+xml</dc:format>
        <dc:type
           rdf:resource="http://purl.org/dc/dcmitype/StillImage" />
        <dc:title></dc:title>
      </cc:Work>
    </rdf:RDF>
  </metadata>
  <g
     inkscape:label="Layer 1"
     inkscape:groupmode="layer"
     id="layer1"
     transform="translate(-72.637147,-127.86002)">
    <g
       id="g863"
       transform="translate(1.6036172,9.0203466)"
       style="fill:#3682ff;fill-opacity:1">
      <path
         inkscape:connector-curvature="0"
         style="fill:#3682ff;fill-opacity:1;fill-rule:nonzero;stroke:none;stroke-width:0.26458332"
         d="m 71.03353,119.21062 v 3.46931 h 0.359457 v -3.14845 h 2.186699 v 3.14845 h 0.359457 v -3.46931 z m 5.052372,3.48937 c 0.758855,0 1.31801,-0.55148 1.31801,-1.32356 0,-0.77207 -0.559155,-1.32355 -1.31801,-1.32355 -0.758854,0 -1.31801,0.55148 -1.31801,1.32355 0,0.77208 0.559156,1.32356 1.31801,1.32356 z m 0,-0.31084 c -0.549171,0 -0.958553,-0.40107 -0.958553,-1.01272 0,-0.61164 0.409382,-1.01271 0.958553,-1.01271 0.559156,0 0.968538,0.40107 0.968538,1.01271 0,0.61165 -0.409382,1.01272 -0.968538,1.01272 z m 4.183684,-0.02 v -2.29617 h -1.917105 l -0.03994,0.87235 c -0.02995,0.70188 -0.08986,1.40377 -0.479277,1.42382 H 77.68349 v 0.94253 h 0.329503 v -0.6317 h 2.326488 v 0.6317 h 0.329502 v -0.94253 z m -1.627543,-1.40377 0.02996,-0.58156 h 1.248116 v 1.98533 h -1.627543 c 0.269593,-0.20054 0.319517,-0.81218 0.349472,-1.40377 z m 4.043895,-0.91245 c -0.429352,0 -0.788809,0.19051 -0.998493,0.53143 v -0.51138 h -0.339487 v 3.56959 h 0.349472 v -1.4539 c 0.219669,0.34091 0.579126,0.51137 0.988508,0.51137 0.738884,0 1.29804,-0.53143 1.29804,-1.32356 0,-0.79212 -0.559156,-1.32355 -1.29804,-1.32355 z m -0.01997,2.33627 c -0.559156,0 -0.968538,-0.40107 -0.968538,-1.01272 0,-0.60161 0.409382,-1.01271 0.968538,-1.01271 0.539186,0 0.958553,0.4111 0.958553,1.01271 0,0.61165 -0.419367,1.01272 -0.958553,1.01272 z m 3.135267,0.31084 c 0.758854,0 1.31801,-0.55148 1.31801,-1.32356 0,-0.77207 -0.559156,-1.32355 -1.31801,-1.32355 -0.758855,0 -1.318011,0.55148 -1.318011,1.32355 0,0.77208 0.559156,1.32356 1.318011,1.32356 z m 0,-0.31084 c -0.549171,0 -0.968538,-0.40107 -0.968538,-1.01272 0,-0.61164 0.419367,-1.01271 0.968538,-1.01271 0.559155,0 0.968538,0.40107 0.968538,1.01271 0,0.61165 -0.409383,1.01272 -0.968538,1.01272 z m 3.32498,-2.24603 c -0.489261,0 -0.878674,0.24065 -1.078372,0.64173 0.02996,-0.83224 0.369442,-1.20323 1.098342,-1.37369 l 1.098342,-0.25068 -0.05991,-0.32086 -1.168236,0.27073 c -0.878674,0.21057 -1.308026,0.75202 -1.308026,1.88506 0,1.06286 0.479277,1.71461 1.35795,1.71461 0.76884,0 1.308026,-0.53143 1.308026,-1.3035 0,-0.75202 -0.519216,-1.2634 -1.248116,-1.2634 z m -0.04992,2.27611 c -0.559156,0 -0.948568,-0.4111 -0.948568,-1.00269 0,-0.57153 0.389412,-0.96258 0.948568,-0.96258 0.559156,0 0.938583,0.39105 0.938583,0.96258 0,0.59159 -0.389412,1.00269 -0.938583,1.00269 z m 2.04691,0.2607 h 0.349473 v -1.15309 h 1.627542 v 1.15309 h 0.349473 v -2.607 h -0.349478 v 1.1531 h -1.627542 v -1.1531 H 91.1232 Z m 5.601544,-1.3035 c 0,-0.7821 -0.529202,-1.32355 -1.258101,-1.32355 -0.7289,0 -1.268086,0.55148 -1.268086,1.32355 0,0.77208 0.549171,1.32356 1.35795,1.32356 0.409382,0 0.76884,-0.14038 0.998493,-0.42113 l -0.189719,-0.23062 c -0.199698,0.23062 -0.479276,0.34091 -0.798794,0.34091 -0.569141,0 -0.978523,-0.36097 -1.018462,-0.90242 h 2.166729 c 0,-0.0401 0.01,-0.0802 0.01,-0.1103 z m -1.258106,-1.02274 c 0.509231,0 0.878673,0.36097 0.918613,0.87234 H 94.54803 c 0.03994,-0.51137 0.409382,-0.87234 0.918613,-0.87234 z m 4.303503,1.02274 c 0,-0.7821 -0.529201,-1.32355 -1.258102,-1.32355 -0.728898,0 -1.268084,0.55148 -1.268084,1.32355 0,0.77208 0.549172,1.32356 1.35795,1.32356 0.409382,0 0.76884,-0.14038 1.008478,-0.42113 l -0.1997,-0.23062 c -0.199699,0.23062 -0.479276,0.34091 -0.798792,0.34091 -0.559158,0 -0.978525,-0.36097 -1.018464,-0.90242 h 2.166729 c 0,-0.0401 0.01,-0.0802 0.01,-0.1103 z m -1.258102,-1.02274 c 0.509233,0 0.878674,0.36097 0.918615,0.87234 h -1.837227 c 0.04992,-0.51137 0.419367,-0.87234 0.918612,-0.87234 z"
         id="path848" />
      <path
         inkscape:connector-curvature="0"
         style="fill:#3682ff;fill-opacity:1;fill-rule:evenodd;stroke:none;stroke-width:0.26458332"
         d="m 101.82704,122.65988 c -0.0599,0.0602 -0.16974,0.0602 -0.22965,0 -0.0699,-0.0702 -0.0699,-0.18048 0,-0.24065 l 0.88866,-0.90242 -0.88866,-0.90242 c -0.0699,-0.0602 -0.0699,-0.17046 0,-0.24065 0.0599,-0.0602 0.16974,-0.0602 0.22965,0 l 0.9286,0.93251 c 0.0499,0.0602 0.0799,0.13035 0.0799,0.21056 0,0.0802 -0.03,0.16043 -0.0799,0.22059 z"
         id="path850" />
    </g>
  </g>
</svg>
