<?xml version="1.0" encoding="UTF-8" standalone="no"?>
<!-- Created with Inkscape (http://www.inkscape.org/) -->

<svg
   xmlns:dc="http://purl.org/dc/elements/1.1/"
   xmlns:cc="http://creativecommons.org/ns#"
   xmlns:rdf="http://www.w3.org/1999/02/22-rdf-syntax-ns#"
   xmlns:svg="http://www.w3.org/2000/svg"
   xmlns="http://www.w3.org/2000/svg"
   xmlns:sodipodi="http://sodipodi.sourceforge.net/DTD/sodipodi-0.dtd"
   xmlns:inkscape="http://www.inkscape.org/namespaces/inkscape"
   width="96.774658mm"
   height="43.67997mm"
   viewBox="0 0 96.774659 43.679974"
   version="1.1"
   id="svg40794"
   inkscape:version="0.92.2 (5c3e80d, 2017-08-06)"
   sodipodi:docname="emiia113.svg">
  <defs
     id="defs40788">
    <clipPath
       id="clipEmfPath1"
       clipPathUnits="userSpaceOnUse">
      <path
         id="path3250"
         d="M -0.27328498,6.5621088 H 33.993094 V 40.972618 H -0.27328498 Z"
         inkscape:connector-curvature="0" />
    </clipPath>
    <pattern
       y="0"
       x="0"
       height="6"
       width="6"
       patternUnits="userSpaceOnUse"
       id="EMFhbasepattern" />
    <clipPath
       id="clipEmfPath1-6"
       clipPathUnits="userSpaceOnUse">
      <path
         id="path3355"
         d="M -0.27328498,-0.26725306 H 81.694308 V 82.007214 H -0.27328498 Z"
         inkscape:connector-curvature="0" />
    </clipPath>
    <pattern
       y="0"
       x="0"
       height="6"
       width="6"
       patternUnits="userSpaceOnUse"
       id="EMFhbasepattern-5" />
    <clipPath
       id="clipEmfPath1-4"
       clipPathUnits="userSpaceOnUse">
      <path
         id="path3373"
         d="M -1.1335304,-16.486988 H 81.664305 L 100.83536,100.0085 H -16.493019 Z"
         inkscape:connector-curvature="0" />
    </clipPath>
    <pattern
       y="0"
       x="0"
       height="6"
       width="6"
       patternUnits="userSpaceOnUse"
       id="EMFhbasepattern-4" />
    <pattern
       y="0"
       x="0"
       height="6"
       width="6"
       patternUnits="userSpaceOnUse"
       id="EMFhbasepattern-6" />
    <pattern
       y="0"
       x="0"
       height="6"
       width="6"
       patternUnits="userSpaceOnUse"
       id="EMFhbasepattern-3" />
  </defs>
  <sodipodi:namedview
     id="base"
     pagecolor="#ffffff"
     bordercolor="#666666"
     borderopacity="1.0"
     inkscape:pageopacity="0.0"
     inkscape:pageshadow="2"
     inkscape:zoom="0.76015625"
     inkscape:cx="55.890658"
     inkscape:cy="-87.37484"
     inkscape:document-units="mm"
     inkscape:current-layer="layer1"
     showgrid="false"
     fit-margin-top="0"
     fit-margin-left="0"
     fit-margin-right="0"
     fit-margin-bottom="0"
     inkscape:window-width="1366"
     inkscape:window-height="745"
     inkscape:window-x="-8"
     inkscape:window-y="-8"
     inkscape:window-maximized="1" />
  <metadata
     id="metadata40791">
    <rdf:RDF>
      <cc:Work
         rdf:about="">
        <dc:format>image/svg+xml</dc:format>
        <dc:type
           rdf:resource="http://purl.org/dc/dcmitype/StillImage" />
        <dc:title></dc:title>
      </cc:Work>
    </rdf:RDF>
  </metadata>
  <g
     inkscape:label="Layer 1"
     inkscape:groupmode="layer"
     id="layer1"
     transform="translate(-52.465864,-84.664128)">
    <path
       id="path1543"
       d="m 79.977781,123.7448 0.12002,-5.17161 c 0.883783,-0.51499 2.116712,-1.019 3.044138,-1.49014 3.011405,-1.53395 6.241028,-3.28703 9.350633,-4.53611 4.680771,-1.87361 9.306978,-2.89259 14.085948,-0.83271 0.32733,0.14243 0.56737,0.21913 0.77468,0.46018 -0.96016,0.3068 -1.64754,0.51497 -2.43313,1.16141 -0.25095,0.20819 -0.41461,0.48211 -0.6001,0.60264 -0.14184,0.10955 -3.54604,0.69027 -4.08067,0.82176 -6.011897,1.44629 -11.674649,4.40463 -16.999163,7.3301 -0.829227,0.44924 -2.422217,1.36961 -3.262356,1.65448 z m 28.139179,-11.73474 c 1.06927,-6.07006 15.96263,-7.46157 21.82178,-8.2395 1.23293,-0.16435 2.6186,-0.44923 3.8188,-0.53688 0.17457,3.70339 0.491,2.9912 0.84014,5.20447 -8.58686,0.27391 -13.81317,-0.85463 -21.73448,2.95833 -0.32733,0.1534 -1.01472,0.61358 -1.24384,0.69028 -0.27277,0.0876 -1.15656,-0.1534 -1.60391,-0.17532 -0.68738,-0.0329 -1.23292,0.0438 -1.89849,0.0986 z m -43.829037,-9.88302 c 0.229128,-0.41635 0.294594,-0.35062 0.654654,-0.61358 l 1.745742,2.84876 c 2.967762,4.4375 6.197385,9.78441 9.143325,14.37532 l 2.804098,4.24029 c 0.261862,0.39445 0.676475,1.0409 0.992891,1.40249 0.512811,-0.12053 5.051741,-2.57487 5.848236,-3.01315 5.455445,-2.99121 11.554634,-5.83998 17.828391,-6.78226 1.75665,-0.26297 0.96016,0.0109 1.63663,-0.66837 0.74194,-0.76697 1.66937,-1.17238 3.0005,-1.42439 2.85865,-0.53688 3.21871,0.37254 3.88427,-0.0109 8.08497,-4.60185 14.15143,-3.34183 23.28384,-3.63766 0.0654,-0.33966 -0.56737,-2.1037 -0.63284,-2.76111 l 0.67647,0.86559 c 0.39279,0.59166 1.60391,2.49815 1.78939,2.9912 -6.55744,-0.0767 -14.71878,0.12052 -20.82887,2.20231 -3.89519,1.33673 -3.6006,3.30895 -10.15805,3.70339 -0.77467,0.0438 -1.53843,0.0438 -2.3131,0.0329 -2.4986,-0.0438 -10.136217,2.99122 -12.274752,3.88968 -2.171265,0.92037 -4.211601,1.9284 -6.306492,2.93643 -1.058357,0.51497 -2.051247,1.01899 -3.087782,1.54492 -0.840138,0.42731 -2.302198,1.28194 -3.06596,1.52299 -0.676475,-1.18332 -2.782276,-4.20742 -3.764257,-5.78521 -1.222019,-1.97223 -10.212591,-16.35849 -10.856334,-17.85957 z m 2.400396,-3.802002 c 0.981979,0.89845 9.928908,15.481932 11.194572,17.432242 0.338237,0.52593 1.767564,2.46527 1.800297,2.9693 0.04364,0.88749 -0.01093,3.91159 -0.152754,4.73335 -0.578277,-0.47115 -11.118195,-17.18026 -12.863937,-19.90851 -1.178376,-1.8517 -1.440237,-1.50108 -0.894693,-3.54999 0.174574,-0.668372 0.469168,-1.424382 0.916515,-1.676392 z m 0.436435,-0.27393 c 0.600099,-0.53688 1.789386,-1.24907 2.542237,-1.74213 6.513801,-4.31697 14.009581,-8.68872 20.85071,-2.79397 l 2.138532,2.11465 c 0.34915,0.3835 0.643743,0.76698 1.003804,1.12856 1.112909,1.16141 1.974866,2.24614 2.967766,3.330862 l 2.9132,3.38564 c 1.145637,1.23813 2.716807,3.21034 3.917007,4.50324 l 3.03323,3.21034 c -1.2002,-0.37253 -2.01852,-0.73411 -3.46966,-0.92037 -5.826417,-0.74506 -12.165643,2.34475 -17.141008,4.91959 -0.905604,0.47114 -5.237226,2.76111 -5.880969,2.91451 -1.11291,-1.24907 -9.383365,-14.80262 -11.238215,-17.58564 -0.381882,-0.580712 -1.440239,-1.950302 -1.636634,-2.465282 z m 23.534787,-5.00724 c 0.611011,-1.42438 2.651346,-3.03503 4.167962,-3.65957 4.80078,-1.99413 11.129097,-0.56975 16.289947,-1.3696 0.87287,-0.13148 0.7965,-0.31774 1.45116,0.1534 l 11.631,8.07515 c 0.67647,0.46018 8.28136,5.785182 9.16514,6.552152 -0.52372,0.27393 -6.35013,0.93133 -7.48486,1.08473 -4.36435,0.63549 -9.99437,1.47916 -13.86775,3.40755 -1.47296,0.73411 -2.7059,1.64352 -3.57876,2.90356 -0.37098,0.53688 -0.42553,0.93132 -0.72013,1.46821 -0.50189,-0.26297 -1.78937,-1.66544 -2.25855,-2.1585 l -4.20069,-4.6895 c -0.72012,-0.77792 -1.385677,-1.67638 -2.094887,-2.44336 z m 20.927079,-5.55509 c -3.94974,1.33672 -12.482047,-1.06281 -17.937494,2.01604 -2.182178,1.22717 -2.531328,2.35571 -3.382378,3.2213 -1.014711,-0.74506 -1.745741,-1.2929 -3.153245,-1.82979 -1.320218,-0.50401 -2.782277,-0.72314 -4.353444,-0.6574 -4.866257,0.19722 -10.136217,3.51713 -13.900474,6.09197 -0.534633,0.36158 -0.981979,0.64646 -1.494792,0.99707 -0.469168,0.3287 -1.091088,0.64645 -1.396593,1.10664 -0.97107,1.45725 -0.381882,2.213272 -1.134733,2.662492 -1.5057,0.87654 -0.905605,1.39151 -0.447347,2.14754 3.502397,5.74135 6.852039,11.37314 10.463543,17.04877 0.381882,0.61358 3.524217,5.57704 3.949742,6.0153 0.665565,-0.20818 2.400396,-1.18333 3.120514,-1.55587 5.040831,-2.58582 10.889068,-5.41268 16.268134,-7.13291 1.2002,-0.38349 2.433127,-0.7341 3.687877,-1.04089 1.59299,-0.37253 2.65135,-0.20819 4.27707,-0.3287 6.08828,-0.44924 6.78658,-2.28997 8.69598,-3.1446 5.06265,-2.24614 12.73301,-2.67346 18.26481,-2.75016 1.41842,-0.0219 3.22963,0.10957 4.58258,0 -0.90561,-1.90647 -3.26235,-5.12777 -3.31691,-5.23734 -0.3055,-0.64645 0.0873,-1.88456 -0.38188,-2.38858 -0.0873,-0.0986 -0.67647,-0.51496 -0.85105,-0.63549 -0.64374,-0.48209 -5.44452,-3.856792 -5.63,-4.108802 -0.62192,-0.29582 -1.44024,-0.95323 -2.02943,-1.36959 -0.65465,-0.47114 -1.2984,-0.8875 -1.96397,-1.35864 l -9.78707,-6.78225 c -0.33823,-0.23009 -0.65464,-0.47115 -0.97106,-0.69027 -0.54554,-0.39445 -0.42553,-0.39445 -1.17838,-0.29584 z"
       style="fill:#000000;fill-opacity:1;stroke:none;stroke-width:0.28911975"
       inkscape:connector-curvature="0" />
  </g>
</svg>
