<?xml version="1.0" encoding="UTF-8" standalone="no"?>
<!-- Created with Inkscape (http://www.inkscape.org/) -->

<svg
   xmlns:dc="http://purl.org/dc/elements/1.1/"
   xmlns:cc="http://creativecommons.org/ns#"
   xmlns:rdf="http://www.w3.org/1999/02/22-rdf-syntax-ns#"
   xmlns:svg="http://www.w3.org/2000/svg"
   xmlns="http://www.w3.org/2000/svg"
   xmlns:sodipodi="http://sodipodi.sourceforge.net/DTD/sodipodi-0.dtd"
   xmlns:inkscape="http://www.inkscape.org/namespaces/inkscape"
   width="33.003189mm"
   height="29.322901mm"
   viewBox="0 0 33.003189 29.322901"
   version="1.1"
   id="svg69115"
   inkscape:version="0.92.2 (5c3e80d, 2017-08-06)"
   sodipodi:docname="emiia153.svg">
  <defs
     id="defs69109" />
  <sodipodi:namedview
     id="base"
     pagecolor="#ffffff"
     bordercolor="#666666"
     borderopacity="1.0"
     inkscape:pageopacity="0.0"
     inkscape:pageshadow="2"
     inkscape:zoom="1.979899"
     inkscape:cx="0.64733568"
     inkscape:cy="64.300319"
     inkscape:document-units="mm"
     inkscape:current-layer="layer1"
     showgrid="false"
     inkscape:window-width="1366"
     inkscape:window-height="745"
     inkscape:window-x="-8"
     inkscape:window-y="-8"
     inkscape:window-maximized="1"
     fit-margin-top="0"
     fit-margin-left="0"
     fit-margin-right="0"
     fit-margin-bottom="0" />
  <metadata
     id="metadata69112">
    <rdf:RDF>
      <cc:Work
         rdf:about="">
        <dc:format>image/svg+xml</dc:format>
        <dc:type
           rdf:resource="http://purl.org/dc/dcmitype/StillImage" />
        <dc:title></dc:title>
      </cc:Work>
    </rdf:RDF>
  </metadata>
  <g
     inkscape:label="Layer 1"
     inkscape:groupmode="layer"
     id="layer1"
     transform="translate(-62.726692,-136.52323)">
    <path
       style="fill:none;fill-opacity:1;stroke:#3d85c6;stroke-width:0.3423132;stroke-linecap:round;stroke-linejoin:round;stroke-miterlimit:8.8648653;stroke-dasharray:none;stroke-dashoffset:0;stroke-opacity:1"
       d="m 88.856194,151.32448 c 0.0044,-0.10891 -0.266118,-0.61906 -0.436511,-0.74082 -0.170393,-0.12176 -0.316462,-0.17656 -0.316462,-0.17656 0,0 0.01,-0.48035 -0.112345,-0.52538 -0.143328,-0.0529 -0.399002,0.44028 -0.399002,0.44028 0,0 -0.359109,0.23135 -0.553988,0.35311 -0.194879,0.12176 -0.420071,0.34096 -0.420071,0.34096 0,0 -1.193082,-0.0486 -1.631483,-0.0731 -0.438219,-0.0243 -1.643633,-0.19488 -2.349685,-0.14607 -0.443365,0.0307 -0.864461,-0.0731 -0.864461,-0.0731 0,0 -0.792531,-0.59371 -0.760851,-1.39396 0.01832,-0.46271 0.304303,-0.87045 0.614776,-0.87045 0.446962,0 0.493025,0.12176 0.493025,0.12176 0,0 0.09556,-0.29043 -0.06694,-0.46871 -0.249511,-0.27399 -0.740138,-0.24317 -0.986219,-0.11559 -0.328795,0.17039 -0.81565,0.80966 -0.706051,1.70444 0.132375,1.08091 0.779173,1.58267 0.779173,1.58267 0,0 -0.157377,0.50107 -0.194705,0.90093 -0.04026,0.43001 0.01025,0.60879 -0.02435,0.58447 0,0 -0.413908,0.48703 -0.584469,0.6331 -0.17056,0.14608 -0.316468,0.80349 -0.413908,1.14445 -0.09744,0.34095 0.105492,0.64938 0.22725,0.64938 0.12175,0 0.173126,-0.47522 0.25978,-0.74665 0.178613,-0.55998 0.535665,-0.60878 0.827809,-0.70606 0.292151,-0.0974 0.608787,-0.12175 0.608787,-0.12175 0,0 -0.194879,0.53566 -0.170394,0.82781 0.02435,0.29215 0.827817,1.07133 0.827817,1.07133 h 0.535658 c 0,0 0.243515,-0.0731 0.121765,-0.26784 -0.121765,-0.19487 -0.413908,-0.19487 -0.413908,-0.19487 0,0 -0.413908,-0.36528 -0.38959,-0.51135 0.02435,-0.14608 0.340954,-0.38958 0.559983,-0.68174 0.219023,-0.29215 0.194879,-0.43822 0.194879,-0.43822 l 1.761278,0.0243 c 0,0 -0.0081,0.38959 -0.154288,0.97405 -0.146076,0.5843 0.04862,0.92525 0.04862,0.92525 h 0.559977 c 0,0 0.09744,-0.0974 0.02435,-0.21919 -0.07313,-0.12176 -0.195395,-0.15275 -0.195395,-0.15275 l 0.05734,-0.25311 0.576249,-1.07954 0.648004,-0.0731 c 0,0 0.422121,0.39763 0.957786,0.86034 0.535666,0.46271 1.095643,0.88467 1.095643,0.88467 l 0.576249,0.008 c 0,0 0.140762,-0.10548 0.0649,-0.24351 -0.141104,-0.25704 -0.508949,-0.20378 -0.508949,-0.20378 0,0 -0.177923,-0.21697 -0.471789,-0.62403 -0.309267,-0.42829 -0.461513,-0.74852 -0.461513,-0.74852 0,0 -0.07432,-0.20122 -0.04986,-0.7612 0.02435,-0.55998 0,-0.73739 0,-0.73739 0,0 0.08939,-0.0923 0.234096,-0.19608 0.144709,-0.10378 0.309107,-0.13238 0.326055,-0.1406 h 0.438227 c 1.89e-4,0 0.213542,-0.23735 0.217656,-0.34626 z"
       id="path16618"
       inkscape:connector-curvature="0" />
    <polyline
       id="polyline16686"
       points="   243.773,398.758 223.492,398.758 223.492,279.372 243.773,279.372  "
       style="fill:none;fill-opacity:1;stroke:#3d85c6;stroke-width:1.50239706;stroke-linecap:round;stroke-linejoin:round;stroke-miterlimit:8.8648653;stroke-dasharray:none;stroke-opacity:1"
       transform="matrix(0.17638479,0,0,0.17638479,34.28384,91.941869)" />
    <polyline
       id="polyline16688"
       points="   327.397,279.372 346.735,279.372 346.735,398.758 327.397,398.758  "
       style="fill:none;fill-opacity:1;stroke:#3d85c6;stroke-width:1.50239706;stroke-linecap:round;stroke-linejoin:round;stroke-miterlimit:8.8648653;stroke-dasharray:none;stroke-opacity:1"
       transform="matrix(0.17638479,0,0,0.17638479,34.28384,91.941869)" />
  </g>
</svg>
