<?xml version="1.0" encoding="UTF-8" standalone="no"?>
<!-- Created with Inkscape (http://www.inkscape.org/) -->

<svg
   xmlns:dc="http://purl.org/dc/elements/1.1/"
   xmlns:cc="http://creativecommons.org/ns#"
   xmlns:rdf="http://www.w3.org/1999/02/22-rdf-syntax-ns#"
   xmlns:svg="http://www.w3.org/2000/svg"
   xmlns="http://www.w3.org/2000/svg"
   xmlns:sodipodi="http://sodipodi.sourceforge.net/DTD/sodipodi-0.dtd"
   xmlns:inkscape="http://www.inkscape.org/namespaces/inkscape"
   width="61.32391mm"
   height="34.737659mm"
   viewBox="0 0 61.32391 34.73766"
   version="1.1"
   id="svg1181"
   inkscape:version="0.92.2 (5c3e80d, 2017-08-06)"
   sodipodi:docname="emiia142.svg"
   inkscape:export-filename="C:\Users\User1\Desktop\Бортник\emiia36.png"
   inkscape:export-xdpi="952.74695"
   inkscape:export-ydpi="952.74695">
  <sodipodi:namedview
     id="base"
     pagecolor="#ffffff"
     bordercolor="#666666"
     borderopacity="1.0"
     inkscape:pageopacity="0.0"
     inkscape:pageshadow="2"
     inkscape:zoom="1.4"
     inkscape:cx="38.813418"
     inkscape:cy="-1.3104093"
     inkscape:document-units="mm"
     inkscape:current-layer="layer1"
     showgrid="false"
     fit-margin-top="0"
     fit-margin-left="0"
     fit-margin-right="0"
     fit-margin-bottom="0"
     inkscape:window-width="1366"
     inkscape:window-height="745"
     inkscape:window-x="-8"
     inkscape:window-y="-8"
     inkscape:window-maximized="1" />
  <defs
     id="defs1175">
    <pattern
       y="0"
       x="0"
       height="6"
       width="6"
       patternUnits="userSpaceOnUse"
       id="EMFhbasepattern" />
    <pattern
       y="0"
       x="0"
       height="6"
       width="6"
       patternUnits="userSpaceOnUse"
       id="EMFhbasepattern-6" />
    <pattern
       y="0"
       x="0"
       height="6"
       width="6"
       patternUnits="userSpaceOnUse"
       id="EMFhbasepattern-1" />
    <pattern
       y="0"
       x="0"
       height="6"
       width="6"
       patternUnits="userSpaceOnUse"
       id="EMFhbasepattern-7" />
  </defs>
  <metadata
     id="metadata1178">
    <rdf:RDF>
      <cc:Work
         rdf:about="">
        <dc:format>image/svg+xml</dc:format>
        <dc:type
           rdf:resource="http://purl.org/dc/dcmitype/StillImage" />
        <dc:title />
      </cc:Work>
    </rdf:RDF>
  </metadata>
  <g
     inkscape:label="Layer 1"
     inkscape:groupmode="layer"
     id="layer1"
     transform="translate(-69.111859,-87.644943)">
    <rect
       style="fill:#ffffff;fill-opacity:1;stroke:#040506;stroke-width:0;stroke-linecap:round;stroke-linejoin:round;stroke-miterlimit:4;stroke-dasharray:none;stroke-opacity:1"
       id="rect4967"
       width="61.893597"
       height="35.435268"
       x="69.017365"
       y="87.608795" />
    <path
       id="path958"
       d="m 121.65043,109.1232 c -3.51689,0 -6.37303,2.8521 -6.37303,6.37307 0,3.51563 2.85614,6.37309 6.37303,6.37309 3.52222,0 6.37836,-2.85746 6.37836,-6.37309 0,-3.52097 -2.85614,-6.37307 -6.37836,-6.37307 z"
       style="fill:none;stroke:#000000;stroke-width:0.133;stroke-linecap:butt;stroke-linejoin:miter;stroke-miterlimit:4;stroke-dasharray:none;stroke-opacity:1"
       inkscape:connector-curvature="0" />
    <path
       id="path960"
       d="m 121.65043,109.1232 c -1.75844,0 -3.18651,1.42337 -3.18651,3.18385 0,1.7605 1.42807,3.18922 3.18651,3.18922 1.76378,0 3.19184,-1.42872 3.19184,-3.18922 0,-1.76048 -1.42806,-3.18385 -3.19184,-3.18385 z"
       style="fill:none;stroke:#000000;stroke-width:0.13321549px;stroke-linecap:butt;stroke-linejoin:miter;stroke-miterlimit:4;stroke-dasharray:none;stroke-opacity:1"
       inkscape:connector-curvature="0" />
    <path
       id="path962"
       d="m 116.06071,118.55172 h 11.18477"
       style="fill:none;stroke:#000000;stroke-width:0.13321549px;stroke-linecap:butt;stroke-linejoin:miter;stroke-miterlimit:4;stroke-dasharray:none;stroke-opacity:1"
       inkscape:connector-curvature="0" />
    <path
       id="path964"
       d="m 117.2323,109.17672 v 1.71232"
       style="fill:none;stroke:#000000;stroke-width:0.13321549px;stroke-linecap:round;stroke-linejoin:round;stroke-miterlimit:4;stroke-dasharray:none;stroke-opacity:1"
       inkscape:connector-curvature="0" />
    <path
       id="path966"
       d="m 126.11581,109.21417 v 1.71232"
       style="fill:none;stroke:#000000;stroke-width:0.13321549px;stroke-linecap:butt;stroke-linejoin:miter;stroke-miterlimit:4;stroke-dasharray:none;stroke-opacity:1"
       inkscape:connector-curvature="0" />
    <path
       id="path968"
       d="m 115.52715,110.85159 h 1.70515"
       style="fill:none;stroke:#000000;stroke-width:0.13321549px;stroke-linecap:round;stroke-linejoin:round;stroke-miterlimit:4;stroke-dasharray:none;stroke-opacity:1"
       inkscape:connector-curvature="0" />
    <path
       id="path970"
       d="m 126.11049,110.88904 h 1.70515"
       style="fill:none;stroke:#000000;stroke-width:0.13321549px;stroke-linecap:round;stroke-linejoin:round;stroke-miterlimit:4;stroke-dasharray:none;stroke-opacity:1"
       inkscape:connector-curvature="0" />
    <rect
       style="fill:#ffffff;fill-opacity:1;stroke-width:0.26458332"
       id="rect4618"
       width="2.5513394"
       height="1.1339285"
       x="54.276295"
       y="95.546295" />
    <line
       class="cls-1"
       x1="175.30981"
       y1="88.128113"
       x2="193.54755"
       y2="88.128113"
       id="line4702-0"
       style="stroke-width:0.26458332" />
    <line
       style="fill:none;stroke:#040506;stroke-width:0.10757601;stroke-miterlimit:4;stroke-dasharray:none;stroke-opacity:1"
       class="cls-1"
       x1="76.561668"
       y1="91.268227"
       x2="87.538177"
       y2="91.268227"
       id="line4688" />
    <line
       style="fill:none;stroke:#040506;stroke-width:0.10757601;stroke-miterlimit:4;stroke-dasharray:none;stroke-opacity:1"
       class="cls-1"
       x1="71.836952"
       y1="90.152756"
       x2="79.056519"
       y2="90.152756"
       id="line4690-3" />
    <path
       style="fill:none;stroke:#040506;stroke-width:0.10757601;stroke-miterlimit:4;stroke-dasharray:none;stroke-opacity:1"
       class="cls-1"
       d="m 74.568507,90.152764 a 0.878226,0.878226 0 1 1 1.756452,0"
       id="path4692"
       inkscape:connector-curvature="0" />
    <path
       style="fill:none;stroke:#040506;stroke-width:0.10757601;stroke-miterlimit:4;stroke-dasharray:none;stroke-opacity:1"
       class="cls-1"
       d="m 74.276289,90.152764 v 0.733159 a 1.1709675,1.1709675 0 0 0 2.341935,0 v -0.733159"
       id="path4694"
       inkscape:connector-curvature="0" />
    <line
       style="fill:none;stroke:#040506;stroke-width:0.10757601;stroke-linecap:round;stroke-linejoin:round;stroke-miterlimit:4;stroke-dasharray:none;stroke-opacity:1"
       class="cls-1"
       x1="71.836952"
       y1="90.152756"
       x2="79.056519"
       y2="90.152756"
       id="line4696-9" />
    <path
       style="fill:none;stroke:#040506;stroke-width:0.10757601;stroke-miterlimit:4;stroke-dasharray:none;stroke-opacity:1"
       class="cls-1"
       d="m 74.568507,90.152764 a 0.878226,0.878226 0 1 1 1.756452,0"
       id="path4698"
       inkscape:connector-curvature="0" />
    <path
       style="fill:none;stroke:#040506;stroke-width:0.10757601;stroke-miterlimit:4;stroke-dasharray:none;stroke-opacity:1"
       class="cls-1"
       d="m 74.276289,90.152764 v 0.733159 a 1.1709675,1.1709675 0 0 0 2.341935,0 v -0.733159"
       id="path4700"
       inkscape:connector-curvature="0" />
    <line
       style="fill:none;stroke:#040506;stroke-width:0.10757601;stroke-linecap:round;stroke-linejoin:round;stroke-miterlimit:4;stroke-dasharray:none;stroke-opacity:1"
       class="cls-1"
       x1="85.048576"
       y1="90.152756"
       x2="92.268135"
       y2="90.152756"
       id="line4702" />
    <path
       style="fill:none;stroke:#040506;stroke-width:0.10757601;stroke-miterlimit:4;stroke-dasharray:none;stroke-opacity:1"
       class="cls-1"
       d="m 87.779074,90.152764 a 0.87822563,0.87822563 0 1 1 1.756449,0"
       id="path4704"
       inkscape:connector-curvature="0" />
    <path
       style="fill:none;stroke:#040506;stroke-width:0.10757601;stroke-miterlimit:4;stroke-dasharray:none;stroke-opacity:1"
       class="cls-1"
       d="m 87.486855,90.152764 v 0.733159 a 1.170969,1.170969 0 0 0 2.341938,0 v -0.733159"
       id="path4706"
       inkscape:connector-curvature="0" />
    <path
       style="fill:none;stroke:#040506;stroke-width:0.10757601;stroke-miterlimit:4;stroke-dasharray:none;stroke-opacity:1"
       class="cls-1"
       d="m 85.321925,91.268214 c 0,1.686282 -1.177246,1.92299 -1.177246,1.92299 h -4.084774 c 0,0 -1.152115,-0.236708 -1.152115,-1.92299"
       id="path4708"
       inkscape:connector-curvature="0" />
    <circle
       style="fill:none;stroke:#040506;stroke-width:0.10757601;stroke-miterlimit:4;stroke-dasharray:none;stroke-opacity:1"
       class="cls-1"
       cx="82.11277"
       cy="95.321564"
       r="0.877702"
       id="circle4710" />
    <path
       style="fill:none;stroke:#040506;stroke-width:0.10757601;stroke-linecap:round;stroke-linejoin:round;stroke-miterlimit:4;stroke-dasharray:none;stroke-opacity:1"
       class="cls-1"
       d="m 84.50497,96.987254 a 3.1787892,3.1787892 0 0 1 -4.694341,0.09846"
       id="path4714"
       inkscape:connector-curvature="0" />
    <path
       style="fill:none;stroke:#040506;stroke-width:0.10757601;stroke-linecap:round;stroke-linejoin:round;stroke-miterlimit:4;stroke-dasharray:none;stroke-opacity:1"
       class="cls-1"
       d="m 85.564917,98.344298 a 4.5885587,4.5885587 0 0 1 -6.773386,0.142445"
       id="path4716"
       inkscape:connector-curvature="0" />
    <line
       style="fill:none;stroke:#040506;stroke-width:0.11192811;stroke-miterlimit:4;stroke-dasharray:none;stroke-opacity:1"
       class="cls-1"
       x1="82.11277"
       y1="93.152977"
       x2="82.11277"
       y2="94.405876"
       id="line4718" />
    <g
       id="g10015"
       transform="matrix(0,-1.1364214,1.1364214,0,17.61626,223.40064)"
       style="stroke-width:0.10735454;stroke-miterlimit:4;stroke-dasharray:none">
      <path
         inkscape:connector-curvature="0"
         id="path4714-3"
         d="m 116.24611,93.868271 a 3.9300489,3.9300489 0 0 1 -5.80378,0.12173"
         class="cls-1"
         style="fill:none;stroke:#040506;stroke-width:0.10735454;stroke-linecap:round;stroke-linejoin:round;stroke-miterlimit:4;stroke-dasharray:none;stroke-opacity:1" />
      <path
         inkscape:connector-curvature="0"
         id="path4716-2"
         d="m 117.55656,95.54603 a 5.6729963,5.6729963 0 0 1 -8.37418,0.17611"
         class="cls-1"
         style="fill:none;stroke:#040506;stroke-width:0.10735454;stroke-linecap:round;stroke-linejoin:round;stroke-miterlimit:4;stroke-dasharray:none;stroke-opacity:1" />
    </g>
    <g
       transform="matrix(0.15734895,0,0,0.15734895,55.498257,68.100614)"
       id="g14113"
       style="fill:#ffffff;fill-opacity:1;stroke:#000000;stroke-width:0.66509372;stroke-miterlimit:4;stroke-dasharray:none;stroke-opacity:1">
      <path
         inkscape:connector-curvature="0"
         style="fill:#ffffff;fill-opacity:1;stroke:#000000;stroke-width:0.66509372;stroke-miterlimit:4;stroke-dasharray:none;stroke-opacity:1"
         d="m 292.301,231.585 v 8.13 c -0.37,-0.07 -0.76,-0.1 -1.15,-0.1 h -12.06 v -8.03 z"
         id="path14075" />
      <g
         id="g14083"
         style="fill:#ffffff;fill-opacity:1;stroke:#000000;stroke-width:0.66509372;stroke-miterlimit:4;stroke-dasharray:none;stroke-opacity:1">
        <path
           inkscape:connector-curvature="0"
           style="fill:#ffffff;fill-opacity:1;stroke:#000000;stroke-width:0.66509372;stroke-miterlimit:4;stroke-dasharray:none;stroke-opacity:1"
           d="m 303.341,245.695 -2.44,17.39 c -0.03,0.19 -0.07,0.38 -0.13,0.56 l -1.09,-1.23 c -0.5,-0.57 -1.17,-0.92 -1.91,-1.05 l 0.8,-13.89 c 0.14,-2.41 -0.89,-4.61 -2.58,-6.06 0.68,-0.33 1.47,-0.51 2.3,-0.51 0.26,0 0.53,0.02 0.8,0.06 2.66,0.37 4.57,2.49 4.25,4.73 z"
           id="path14077" />
        <path
           inkscape:connector-curvature="0"
           style="fill:#ffffff;fill-opacity:1;stroke:#000000;stroke-width:0.66509372;stroke-miterlimit:4;stroke-dasharray:none;stroke-opacity:1"
           d="m 311.131,276.615 c 0,0.58 -0.13,1.19 -0.39,1.76 -1.11,0.49 -1.96,1.38 -2.42,2.46 -1.62,0.78 -3.48,0.57 -4.57,-0.66 l -6.86,-7.71 v -0.01 c 0.2,-0.59 0.31,-1.21 0.35,-1.86 l 0.24,-4.21 0.29,-5.02 c 0.74,0.13 1.41,0.48 1.91,1.05 l 1.09,1.23 9.53,10.71 c 0.56,0.63 0.83,1.43 0.83,2.26 z"
           id="path14079" />
        <path
           inkscape:connector-curvature="0"
           style="fill:#ffffff;fill-opacity:1;stroke:#000000;stroke-width:0.66509372;stroke-miterlimit:4;stroke-dasharray:none;stroke-opacity:1"
           d="m 313.761,287.205 c -2.51,0.62 -5.05,-0.9 -5.67,-3.4 -0.26,-1.03 -0.16,-2.06 0.23,-2.97 0.46,-1.08 1.31,-1.97 2.42,-2.46 0.23,-0.1 0.48,-0.19 0.74,-0.25 2.51,-0.62 5.05,0.9 5.68,3.4 0.63,2.51 -0.9,5.05 -3.4,5.68 z"
           id="path14081" />
      </g>
      <path
         inkscape:connector-curvature="0"
         style="fill:#ffffff;fill-opacity:1;stroke:#000000;stroke-width:0.66509372;stroke-miterlimit:4;stroke-dasharray:none;stroke-opacity:1"
         d="m 305.181,337.535 c 0,1.56 -1.27,2.83 -2.83,2.83 h -12.13 c -0.78,0 -1.49,-0.32 -2,-0.83 -0.51,-0.51 -0.83,-1.22 -0.83,-2 0,-1.56 1.27,-2.83 2.83,-2.83 h 0.64 c 0.37,0.34 0.79,0.63 1.27,0.86 0.7,0.33 1.44,0.49 2.18,0.49 1.26,0 2.49,-0.48 3.43,-1.35 h 4.61 c 0.78,0 1.49,0.32 2,0.83 0.51,0.51 0.83,1.22 0.83,2 z"
         id="path14085" />
      <path
         inkscape:connector-curvature="0"
         style="fill:#ffffff;fill-opacity:1;stroke:#000000;stroke-width:0.66509372;stroke-miterlimit:4;stroke-dasharray:none;stroke-opacity:1"
         d="m 308.241,313.495 -9.35,19.66 c -0.29,0.61 -0.68,1.13 -1.15,1.55 -0.94,0.87 -2.17,1.35 -3.43,1.35 -0.74,0 -1.48,-0.16 -2.18,-0.49 -0.48,-0.23 -0.9,-0.52 -1.27,-0.86 -1.59,-1.46 -2.11,-3.85 -1.14,-5.9 l 8.17,-17.19 c 1.4,2.76 4.73,3.98 7.6,2.71 1.6,-0.71 2.73,-2.05 3.2,-3.6 0.11,0.92 -0.03,1.88 -0.45,2.77 z"
         id="path14087" />
      <g
         id="g14091"
         style="fill:#ffffff;fill-opacity:1;stroke:#000000;stroke-width:0.66509372;stroke-miterlimit:4;stroke-dasharray:none;stroke-opacity:1">
        <path
           inkscape:connector-curvature="0"
           style="fill:#ffffff;fill-opacity:1;stroke:#000000;stroke-width:0.66509372;stroke-miterlimit:4;stroke-dasharray:none;stroke-opacity:1"
           d="m 308.971,308.965 c 0,0.6 -0.09,1.2 -0.28,1.76 -0.47,1.55 -1.6,2.89 -3.2,3.6 -2.87,1.27 -6.2,0.05 -7.6,-2.71 -0.05,-0.09 -0.09,-0.18 -0.13,-0.27 l -6.71,-15.14 h 0.25 c 2.59,0 4.75,-1.98 4.97,-4.57 l 0.57,-6.72 c 0.15,-1.81 -0.67,-3.45 -2.01,-4.44 1.5,0.5 2.78,1.61 3.47,3.16 l 10.17,22.96 c 0.34,0.77 0.5,1.58 0.5,2.37 z"
           id="path14089" />
      </g>
      <path
         inkscape:connector-curvature="0"
         style="fill:#ffffff;fill-opacity:1;stroke:#000000;stroke-width:0.66509372;stroke-miterlimit:4;stroke-dasharray:none;stroke-opacity:1"
         d="m 284.961,337.535 c 0,1.56 -1.26,2.83 -2.82,2.83 h -12.13 c -0.79,0 -1.49,-0.32 -2,-0.83 -0.51,-0.51 -0.83,-1.22 -0.83,-2 0,-1.56 1.26,-2.83 2.83,-2.83 h 0.18 c 0.37,0.34 0.79,0.63 1.27,0.86 0.7,0.33 1.44,0.49 2.18,0.49 1.26,0 2.49,-0.48 3.43,-1.35 h 5.07 c 0.78,0 1.48,0.32 2,0.83 0.5,0.51 0.82,1.22 0.82,2 z"
         id="path14093" />
      <path
         inkscape:connector-curvature="0"
         style="fill:#ffffff;fill-opacity:1;stroke:#000000;stroke-width:0.66509372;stroke-miterlimit:4;stroke-dasharray:none;stroke-opacity:1"
         d="m 296.841,284.915 -0.57,6.72 c -0.22,2.59 -2.38,4.57 -4.97,4.57 h -8.13 l -5.57,-12.57 c -0.83,-1.86 -2.5,-3.08 -4.37,-3.4 0.64,-0.4 1.37,-0.65 2.17,-0.71 l 0.09,0.1 c 1.09,1.22 2.95,1.44 4.57,0.66 -0.39,0.91 -0.49,1.94 -0.23,2.97 0.63,2.5 3.17,4.02 5.67,3.39 0.59,-0.15 1.13,-0.4 1.6,-0.74 v -0.01 c 1.32,-0.94 2.08,-2.55 1.92,-4.22 -0.02,-0.23 -0.06,-0.47 -0.12,-0.7 -0.14,-0.54 -0.36,-1.04 -0.66,-1.48 h 3.63 c 1.11,0 2.13,0.36 2.96,0.98 1.34,0.99 2.16,2.63 2.01,4.44 z"
         id="path14095" />
      <path
         inkscape:connector-curvature="0"
         style="fill:#ffffff;fill-opacity:1;stroke:#000000;stroke-width:0.66509372;stroke-miterlimit:4;stroke-dasharray:none;stroke-opacity:1"
         d="m 298.571,247.475 -0.8,13.89 -0.29,5.02 -0.24,4.21 c -0.04,0.65 -0.15,1.27 -0.35,1.86 v 0.01 c -0.97,2.99 -3.78,5.14 -7.07,5.14 h -4.24 c -0.74,-0.21 -1.55,-0.23 -2.36,-0.03 -0.03,0.01 -0.07,0.02 -0.1,0.03 h -0.55 c 0.2,-0.51 0.3,-1.03 0.3,-1.54 0,-0.84 -0.27,-1.64 -0.83,-2.27 l -9.53,-10.7 c 0.06,-0.18 0.1,-0.37 0.13,-0.56 l 2.44,-17.39 c 0.22,-1.54 -0.61,-3.02 -2.02,-3.92 1.27,-1.01 2.87,-1.61 4.62,-1.61 h 13.47 c 0.39,0 0.78,0.03 1.15,0.1 1.4,0.21 2.67,0.81 3.69,1.7 1.69,1.45 2.72,3.65 2.58,6.06 z"
         id="path14097" />
      <path
         inkscape:connector-curvature="0"
         style="fill:#ffffff;fill-opacity:1;stroke:#000000;stroke-width:0.66509372;stroke-miterlimit:4;stroke-dasharray:none;stroke-opacity:1"
         d="m 287.561,313.495 -9.34,19.66 c -0.29,0.61 -0.68,1.13 -1.15,1.55 -0.94,0.87 -2.17,1.35 -3.43,1.35 -0.74,0 -1.48,-0.16 -2.18,-0.49 -0.48,-0.23 -0.9,-0.52 -1.27,-0.86 -1.59,-1.46 -2.11,-3.84 -1.14,-5.9 l 8.16,-17.17 c 1.4,2.75 4.73,3.96 7.58,2.69 1.63,-0.72 2.76,-2.09 3.23,-3.67 0.12,0.94 -0.02,1.92 -0.46,2.84 z"
         id="path14099" />
      <path
         inkscape:connector-curvature="0"
         style="fill:#ffffff;fill-opacity:1;stroke:#000000;stroke-width:0.66509372;stroke-miterlimit:4;stroke-dasharray:none;stroke-opacity:1"
         d="m 288.271,308.965 c 0,0.58 -0.08,1.15 -0.25,1.69 -0.47,1.58 -1.6,2.95 -3.23,3.67 -2.85,1.27 -6.18,0.06 -7.58,-2.69 -0.05,-0.09 -0.1,-0.19 -0.14,-0.29 l -10.17,-22.96 c -0.34,-0.77 -0.5,-1.58 -0.5,-2.37 0,-2.25 1.29,-4.39 3.48,-5.36 1.09,-0.48 2.24,-0.61 3.34,-0.42 h 0.01 c 1.87,0.32 3.54,1.54 4.37,3.4 l 5.57,12.57 4.6,10.39 c 0.34,0.77 0.5,1.58 0.5,2.37 z"
         id="path14101" />
      <g
         id="g14109"
         style="fill:#ffffff;fill-opacity:1;stroke:#000000;stroke-width:0.66509372;stroke-miterlimit:4;stroke-dasharray:none;stroke-opacity:1">
        <path
           inkscape:connector-curvature="0"
           style="fill:#ffffff;fill-opacity:1;stroke:#000000;stroke-width:0.66509372;stroke-miterlimit:4;stroke-dasharray:none;stroke-opacity:1"
           d="m 275.081,245.145 -2.44,17.39 c -0.03,0.19 -0.07,0.38 -0.13,0.56 -0.25,0.8 -0.78,1.48 -1.49,1.98 -0.8,0.56 -1.83,0.89 -2.95,0.89 -0.27,0 -0.54,-0.02 -0.82,-0.06 -1.24,-0.17 -2.32,-0.72 -3.08,-1.49 -0.88,-0.88 -1.35,-2.04 -1.18,-3.24 l 2.44,-17.39 c 0.29,-2 2.25,-3.43 4.58,-3.43 0.27,0 0.54,0.02 0.82,0.06 0.83,0.11 1.59,0.4 2.23,0.81 1.41,0.9 2.24,2.38 2.02,3.92 z"
           id="path14103" />
        <path
           inkscape:connector-curvature="0"
           style="fill:#ffffff;fill-opacity:1;stroke:#000000;stroke-width:0.66509372;stroke-miterlimit:4;stroke-dasharray:none;stroke-opacity:1"
           d="m 282.871,276.065 c 0,0.51 -0.1,1.03 -0.3,1.54 -0.03,0.07 -0.06,0.15 -0.09,0.22 -0.83,0.36 -1.51,0.95 -1.99,1.67 -0.17,0.25 -0.31,0.51 -0.43,0.79 -1.62,0.78 -3.48,0.56 -4.57,-0.66 l -0.09,-0.1 -10.53,-11.84 c -0.56,-0.63 -0.83,-1.42 -0.83,-2.26 0,-0.33 0.04,-0.67 0.13,-1.01 0.76,0.77 1.84,1.32 3.08,1.49 0.28,0.04 0.55,0.06 0.82,0.06 1.12,0 2.15,-0.33 2.95,-0.89 0.71,-0.5 1.24,-1.18 1.49,-1.98 l 9.53,10.7 c 0.56,0.63 0.83,1.43 0.83,2.27 z"
           id="path14105" />
        <path
           inkscape:connector-curvature="0"
           style="fill:#ffffff;fill-opacity:1;stroke:#000000;stroke-width:0.66509372;stroke-miterlimit:4;stroke-dasharray:none;stroke-opacity:1"
           d="m 287.101,285.895 v 0.01 c -0.47,0.34 -1.01,0.59 -1.6,0.74 -2.5,0.63 -5.04,-0.89 -5.67,-3.39 -0.26,-1.03 -0.16,-2.06 0.23,-2.97 0.12,-0.28 0.26,-0.54 0.43,-0.79 0.48,-0.72 1.16,-1.31 1.99,-1.67 0.2,-0.09 0.42,-0.16 0.64,-0.22 0.03,-0.01 0.07,-0.02 0.1,-0.03 0.81,-0.2 1.62,-0.18 2.36,0.03 1.08,0.29 2.03,0.96 2.66,1.89 0.3,0.44 0.52,0.94 0.66,1.48 0.06,0.23 0.1,0.47 0.12,0.7 0.16,1.67 -0.6,3.28 -1.92,4.22 z"
           id="path14107" />
      </g>
      <path
         inkscape:connector-curvature="0"
         style="fill:#ffffff;fill-opacity:1;stroke:#000000;stroke-width:0.66509372;stroke-miterlimit:4;stroke-dasharray:none;stroke-opacity:1"
         d="m 296.971,231.585 h -19.68 c -1.54,0 -2.65,-1.27 -2.2,-2.53 l 2.69,-7.5 c 0.29,-0.83 1.19,-1.39 2.2,-1.39 h 9.99 c 0.88,0 1.68,0.43 2.07,1.1 l 7,7.51 c 0.75,1.3 -0.37,2.81 -2.07,2.81 z"
         id="path14111" />
    </g>
    <g
       id="g14073"
       transform="matrix(-0.15508543,0,0,0.15508543,155.10573,29.959993)"
       style="stroke:#000000;stroke-width:0.78666319;stroke-miterlimit:4;stroke-dasharray:none;stroke-opacity:1">
      <g
         id="XMLID_3_"
         style="stroke:#000000;stroke-width:0.78666319;stroke-miterlimit:4;stroke-dasharray:none;stroke-opacity:1">
        <g
           id="g14058"
           style="stroke:#000000;stroke-width:0.78666319;stroke-miterlimit:4;stroke-dasharray:none;stroke-opacity:1" />
        <g
           id="g14070"
           style="stroke:#000000;stroke-width:0.78666319;stroke-miterlimit:4;stroke-dasharray:none;stroke-opacity:1">
          <path
             style="fill:none;stroke:#000000;stroke-width:0.78666319;stroke-linejoin:round;stroke-miterlimit:4;stroke-dasharray:none;stroke-opacity:1"
             d="m 364.798,410.574 -2.744,-3.324 v -8.284 c 0,-1.847 -1.319,-3.43 -3.166,-3.746 -4.01,-0.633 -10.711,-1.688 -11.977,-2.163 -1.9,-0.686 -11.714,-6.384 -18.415,-8.337 -6.437,-1.9 -16.251,-3.06 -24.799,-2.902 -8.495,0.105 -16.99,0.844 -23.744,2.322 -6.807,1.477 -31.342,13.402 -31.342,13.402 0,0 -1.741,0.686 -8.284,1.952 -8.178,1.688 -17.465,4.432 -23.427,8.97 -0.844,0.633 -2.111,6.912 -2.269,8.759 -0.369,3.799 3.166,7.651 3.166,7.651 0,0 2.744,0.475 7.967,0.844 -0.211,-0.897 -0.317,-1.847 -0.317,-2.849 0,-7.44 6.015,-13.508 13.508,-13.508 7.44,0 13.508,6.068 13.508,13.508 0,1.214 -0.158,2.427 -0.475,3.535 19.417,-0.106 50.231,-0.686 57.513,-0.58 5.065,0.053 10.342,-0.053 15.513,-0.158 -0.211,-1.003 -0.369,-2.005 -0.369,-3.06 0,-7.493 6.068,-13.508 13.508,-13.508 7.493,0 13.508,6.015 13.508,13.508 0,0.528 0,1.055 -0.106,1.583 3.06,-0.317 5.276,-0.58 6.332,-0.791 1.952,-0.528 3.482,-1.055 4.59,-1.53 1.319,-0.528 2.269,-1.794 2.48,-3.219 l 0.686,-5.171 c 0.158,-1.058 -0.159,-2.06 -0.845,-2.904 z"
             id="path14060"
             inkscape:connector-curvature="0" />
          <path
             style="fill:none;stroke:#000000;stroke-width:0.78666319;stroke-linejoin:round;stroke-miterlimit:4;stroke-dasharray:none;stroke-opacity:1"
             d="m 281.431,386.46 c 2.427,-0.475 9.181,-1.161 16.779,-1.477 l -3.43,13.666 -28.44,1.055 v -7.387 c 0,0 10.606,-5.065 15.091,-5.857 z"
             id="path14062"
             inkscape:connector-curvature="0" />
          <path
             style="fill:none;stroke:#000000;stroke-width:0.78666319;stroke-linejoin:round;stroke-miterlimit:4;stroke-dasharray:none;stroke-opacity:1"
             d="m 333.614,397.224 -33.083,1.214 2.269,-13.56 c 5.171,-0.106 10.342,0.106 14.563,0.739 6.543,0.95 13.086,4.168 14.457,6.068 1.32,1.899 1.794,5.539 1.794,5.539 z"
             id="path14064"
             inkscape:connector-curvature="0" />
          <path
             style="fill:none;stroke:#000000;stroke-width:0.78666319;stroke-linejoin:round;stroke-miterlimit:4;stroke-dasharray:none;stroke-opacity:1"
             d="m 249.561,422.551 c 0,5.91 -4.749,10.658 -10.606,10.658 -5.857,0 -10.658,-4.749 -10.658,-10.658 0,-5.857 4.802,-10.606 10.658,-10.606 5.857,0.001 10.606,4.749 10.606,10.606 z"
             id="path14066"
             inkscape:connector-curvature="0" />
          <path
             style="fill:none;stroke:#000000;stroke-width:0.78666319;stroke-linejoin:round;stroke-miterlimit:4;stroke-dasharray:none;stroke-opacity:1"
             d="m 348.811,422.287 c 0,5.857 -4.749,10.606 -10.658,10.606 -5.857,0 -10.606,-4.749 -10.606,-10.606 0,-5.91 4.749,-10.658 10.606,-10.658 5.909,0 10.658,4.749 10.658,10.658 z"
             id="path14068"
             inkscape:connector-curvature="0" />
        </g>
      </g>
    </g>
    <path
       id="path14779"
       d="m 80.630121,108.10008 c 0.529202,0.65175 0.988508,1.42383 1.41786,2.12571 0.109834,0.17046 -0.149774,1.09294 -0.149774,1.09294"
       style="fill:none;stroke:#000000;stroke-width:0.122;stroke-linecap:butt;stroke-linejoin:miter;stroke-miterlimit:4;stroke-dasharray:none;stroke-opacity:1"
       inkscape:connector-curvature="0" />
    <path
       id="path14781"
       d="m 76.266709,120.25271 0.64902,-0.0501"
       style="fill:none;stroke:#000000;stroke-width:0.122;stroke-linecap:butt;stroke-linejoin:miter;stroke-miterlimit:4;stroke-dasharray:none;stroke-opacity:1"
       inkscape:connector-curvature="0" />
    <path
       id="path14783"
       d="m 74.249754,119.39039 -1.188206,0.40108 v -0.90242 l 0.259608,-0.0201"
       style="fill:none;stroke:#000000;stroke-width:0.05;stroke-linecap:butt;stroke-linejoin:round;stroke-miterlimit:4;stroke-dasharray:none;stroke-opacity:1"
       inkscape:connector-curvature="0" />
    <path
       id="path14785"
       d="m 73.061548,118.11698 0.718914,-0.2206"
       style="fill:none;stroke:#000000;stroke-width:0.05;stroke-linecap:butt;stroke-linejoin:miter;stroke-miterlimit:4;stroke-dasharray:none;stroke-opacity:1"
       inkscape:connector-curvature="0" />
    <path
       id="path14787"
       d="m 74.179859,119.33023 -0.878673,0.28076 c 0,0.10027 0,-1.25337 0,-1.25337 0.01997,-0.2607 -0.339488,-0.35094 -0.349472,-0.0602 -0.01,0.62167 0,1.31353 0,1.31353 l 0.109834,0.01"
       style="fill:none;stroke:#000000;stroke-width:0.05;stroke-linecap:butt;stroke-linejoin:round;stroke-miterlimit:4;stroke-dasharray:none;stroke-opacity:1"
       inkscape:connector-curvature="0" />
    <path
       id="path14789"
       d="m 78.633136,120.83427 -1.188206,0.371 0.229654,0.24064 1.088356,-0.58156"
       style="fill:none;stroke:#000000;stroke-width:0.05;stroke-linecap:butt;stroke-linejoin:round;stroke-miterlimit:4;stroke-dasharray:none;stroke-opacity:1"
       inkscape:connector-curvature="0" />
    <path
       id="path14791"
       d="m 78.84282,120.89443 -1.008478,0.70189 0.379427,0.25067 0.74887,-0.9325"
       style="fill:none;stroke:#000000;stroke-width:0.05;stroke-linecap:butt;stroke-linejoin:round;stroke-miterlimit:4;stroke-dasharray:none;stroke-opacity:1"
       inkscape:connector-curvature="0" />
    <path
       id="path14793"
       d="m 80.050996,120.83427 c 0.02996,0.01 1.158251,0.65175 1.158251,0.65175 l 0.329503,-0.27073 -0.938583,-0.27072"
       style="fill:none;stroke:#000000;stroke-width:0.05;stroke-linecap:butt;stroke-linejoin:round;stroke-miterlimit:4;stroke-dasharray:none;stroke-opacity:1"
       inkscape:connector-curvature="0" />
    <path
       id="path14795"
       d="m 79.821343,120.89443 0.818764,0.93251 0.439336,-0.20054 -1.138281,-0.76205"
       style="fill:none;stroke:#000000;stroke-width:0.05;stroke-linecap:butt;stroke-linejoin:round;stroke-miterlimit:4;stroke-dasharray:none;stroke-opacity:1"
       inkscape:connector-curvature="0" />
    <path
       id="path14797"
       d="m 79.561735,120.95459 0.389412,1.03278 0.459306,-0.0802 -0.718914,-0.98264"
       style="fill:none;stroke:#000000;stroke-width:0.05;stroke-linecap:butt;stroke-linejoin:round;stroke-miterlimit:4;stroke-dasharray:none;stroke-opacity:1"
       inkscape:connector-curvature="0" />
    <path
       id="path14799"
       d="m 79.272172,120.98468 -0.05991,1.0428 0.499246,-0.01 -0.299548,-1.05283"
       style="fill:none;stroke:#000000;stroke-width:0.05;stroke-linecap:butt;stroke-linejoin:round;stroke-miterlimit:4;stroke-dasharray:none;stroke-opacity:1"
       inkscape:connector-curvature="0" />
    <path
       id="path14801"
       d="m 79.062488,120.94457 -0.599095,1.00269 0.499246,0.0902 0.209683,-1.07288"
       style="fill:none;stroke:#000000;stroke-width:0.05;stroke-linecap:butt;stroke-linejoin:round;stroke-miterlimit:4;stroke-dasharray:none;stroke-opacity:1"
       inkscape:connector-curvature="0" />
    <path
       id="path14803"
       d="m 76.915729,116.87364 v 3.32894 l 1.457799,0.54145 c 0,0 0.68896,0.2607 1.038432,0.22059 0.339488,-0.0301 0.758855,-0.16043 0.758855,-0.16043"
       style="fill:none;stroke:#000000;stroke-width:0.122;stroke-linecap:butt;stroke-linejoin:miter;stroke-miterlimit:4;stroke-dasharray:none;stroke-opacity:1"
       inkscape:connector-curvature="0" />
    <path
       id="path14805"
       d="m 79.172322,117.11428 c 0,0 1.807272,0.45121 2.076865,0.50135 0.269593,0.0501 1.098342,0.0802 1.507724,-0.02 0.409382,-0.10027 1.996985,-0.49132 2.316503,-0.61165 0.399397,-0.16043 0.479276,-0.25067 0.369442,-0.47126 -0.09985,-0.18049 -0.369442,-0.44119 -0.369442,-0.44119"
       style="fill:none;stroke:#000000;stroke-width:0.122;stroke-linecap:butt;stroke-linejoin:miter;stroke-miterlimit:4;stroke-dasharray:none;stroke-opacity:1"
       inkscape:connector-curvature="0" />
    <path
       id="path14807"
       d="m 85.073414,116.07148 c 0.60908,0.50135 0.66899,0.99267 0.66899,0.99267 l 0.369442,2.12571 c 0.04993,0.29078 -0.119819,0.57153 -0.409382,0.66177 l -3.085342,0.91245 c 0,0 -0.678975,0.29078 -1.41786,0.25068 -0.868688,-0.0602 -1.088356,-0.25068 -1.088356,-0.25068 v -1.26339 c 0,0 0.06989,-0.51137 -0.329503,-1.16312 -0.419367,-0.66178 -1.098342,-0.88237 -1.098342,-0.88237 l -4.902599,-1.62436 v 0.2607"
       style="fill:none;stroke:#000000;stroke-width:0.122;stroke-linecap:butt;stroke-linejoin:miter;stroke-miterlimit:4;stroke-dasharray:none;stroke-opacity:1"
       inkscape:connector-curvature="0" />
    <path
       id="path14809"
       d="m 74.279709,119.70123 c 0,-0.0602 -0.499247,-1.72463 -0.499247,-1.72463 v -1.88506 l 2.486247,0.87234 v 3.28883 z"
       style="fill:none;stroke:#000000;stroke-width:0.122;stroke-linecap:butt;stroke-linejoin:round;stroke-miterlimit:4;stroke-dasharray:none;stroke-opacity:1"
       inkscape:connector-curvature="0" />
    <path
       id="path14811"
       d="m 73.780462,117.10426 -0.199698,-0.16043 c 0,0 -0.159759,-0.742 -0.229653,-1.21326 -0.07988,-0.47127 -0.239638,-6.48742 -0.239638,-6.48742 0.269592,0.15041 2.456291,1.26339 2.835718,1.51407 0.289563,0.19051 0.549171,0.44118 0.629051,0.76204 0.07988,0.31084 0.01997,0.50135 -0.05991,0.8924 -0.349472,1.65444 -0.788809,4.0609 -0.788809,4.0609"
       style="fill:none;stroke:#000000;stroke-width:0.122;stroke-linecap:butt;stroke-linejoin:miter;stroke-miterlimit:4;stroke-dasharray:none;stroke-opacity:1"
       inkscape:connector-curvature="0" />
    <path
       id="path14813"
       d="m 78.84282,110.72714 c 0.399397,0.20054 2.416352,0.55148 2.975508,0.58156 0.559156,0.0401 3.414844,-0.70189 3.414844,-0.70189 0,0 0.409382,-0.73196 0.339488,-1.01272 -0.05991,-0.28075 -0.569141,-2.10565 -0.569141,-2.10565"
       style="fill:none;stroke:#000000;stroke-width:0.122;stroke-linecap:butt;stroke-linejoin:miter;stroke-miterlimit:4;stroke-dasharray:none;stroke-opacity:1"
       inkscape:connector-curvature="0" />
    <path
       id="path14815"
       d="m 79.172322,117.11428 c 0,0 0.958553,0.10027 1.717408,0.0401 0.788809,-0.0702 3.235116,-0.62167 3.574603,-0.73196 0.349472,-0.1103 0.609081,-0.35095 0.609081,-0.35095 v -5.42456"
       style="fill:none;stroke:#000000;stroke-width:0.122;stroke-linecap:butt;stroke-linejoin:miter;stroke-miterlimit:4;stroke-dasharray:none;stroke-opacity:1"
       inkscape:connector-curvature="0" />
    <path
       id="path14817"
       d="m 74.09998,107.08736 0.159759,0.60162 3.924076,2.16581 c 0,0 0.279578,0.13035 0.489261,0.45122 0.219669,0.32086 0.249623,0.92247 0.249623,0.92247 l 0.249623,5.8858"
       style="fill:none;stroke:#000000;stroke-width:0.122;stroke-linecap:butt;stroke-linejoin:miter;stroke-miterlimit:4;stroke-dasharray:none;stroke-opacity:1"
       inkscape:connector-curvature="0" />
    <path
       id="path14819"
       d="m 73.111473,109.24315 1.008477,-2.89778 0.249623,-0.0501"
       style="fill:none;stroke:#000000;stroke-width:0.122;stroke-linecap:butt;stroke-linejoin:miter;stroke-miterlimit:4;stroke-dasharray:none;stroke-opacity:1"
       inkscape:connector-curvature="0" />
    <path
       id="path14821"
       d="m 74.419498,106.14483 c 0.409382,0.1103 4.153729,0.80216 4.153729,0.80216 0,0 0.788809,0.18048 1.387905,0.54145 0.389412,0.24065 0.668989,0.61164 0.668989,0.61164"
       style="fill:none;stroke:#000000;stroke-width:0.122;stroke-linecap:butt;stroke-linejoin:miter;stroke-miterlimit:4;stroke-dasharray:none;stroke-opacity:1"
       inkscape:connector-curvature="0" />
    <path
       id="path14823"
       d="m 74.09998,107.08736 0.319518,-0.94253 5.321965,-0.50134 3.484739,0.69185 c 0,0 0.998493,0.2607 1.288056,0.5214 0.289563,0.27073 0.489261,0.6317 0.489261,0.6317 0,0 -0.09985,0.10027 -0.569141,0.19051 -0.539186,0.10027 -1.407874,0.28076 -2.955538,0.371 -0.249623,0.01 -0.848719,0.0501 -0.848719,0.0501 0,0 -0.60908,0 -1.397889,-0.10027 -0.569141,-0.0802 -2.00697,-0.30081 -2.775809,-0.43116 -0.798794,-0.13035 -2.356443,-0.48129 -2.356443,-0.48129 z"
       style="fill:none;stroke:#000000;stroke-width:0.122;stroke-linecap:butt;stroke-linejoin:miter;stroke-miterlimit:4;stroke-dasharray:none;stroke-opacity:1"
       inkscape:connector-curvature="0" />
  </g>
</svg>
