<?xml version="1.0" encoding="UTF-8" standalone="no"?>
<!-- Created with Inkscape (http://www.inkscape.org/) -->

<svg
   xmlns:dc="http://purl.org/dc/elements/1.1/"
   xmlns:cc="http://creativecommons.org/ns#"
   xmlns:rdf="http://www.w3.org/1999/02/22-rdf-syntax-ns#"
   xmlns:svg="http://www.w3.org/2000/svg"
   xmlns="http://www.w3.org/2000/svg"
   xmlns:sodipodi="http://sodipodi.sourceforge.net/DTD/sodipodi-0.dtd"
   xmlns:inkscape="http://www.inkscape.org/namespaces/inkscape"
   width="58.059719mm"
   height="6.5584683mm"
   viewBox="0 0 58.05972 6.5584684"
   version="1.1"
   id="svg48003"
   inkscape:version="0.92.2 (5c3e80d, 2017-08-06)"
   sodipodi:docname="emiia151.svg">
  <defs
     id="defs47997" />
  <sodipodi:namedview
     id="base"
     pagecolor="#ffffff"
     bordercolor="#666666"
     borderopacity="1.0"
     inkscape:pageopacity="0.0"
     inkscape:pageshadow="2"
     inkscape:zoom="1.4"
     inkscape:cx="126.10683"
     inkscape:cy="30.338657"
     inkscape:document-units="mm"
     inkscape:current-layer="layer1"
     showgrid="false"
     fit-margin-top="0"
     fit-margin-left="0"
     fit-margin-right="0"
     fit-margin-bottom="0"
     inkscape:window-width="1366"
     inkscape:window-height="745"
     inkscape:window-x="-8"
     inkscape:window-y="-8"
     inkscape:window-maximized="1" />
  <metadata
     id="metadata48000">
    <rdf:RDF>
      <cc:Work
         rdf:about="">
        <dc:format>image/svg+xml</dc:format>
        <dc:type
           rdf:resource="http://purl.org/dc/dcmitype/StillImage" />
        <dc:title></dc:title>
      </cc:Work>
    </rdf:RDF>
  </metadata>
  <g
     inkscape:label="Layer 1"
     inkscape:groupmode="layer"
     id="layer1"
     transform="translate(-95.44176,-130.03057)">
    <path
       id="path47882"
       d="m 101.07082,134.53096 c -0.0265,0.014 -0.0474,0.0252 -0.0683,0.0364 -0.21885,0.11478 -0.35406,0.18757 -0.69,0.21557 -0.1603,0.014 -0.31224,0.008 -0.455822,-0.014 -0.14497,-0.0224 -0.28157,-0.063 -0.41539,-0.11758 v 0 0 c -0.10733,-0.0448 -0.2063,-0.0994 -0.29412,-0.15958 -0.39588,-0.27436 -0.598,-0.69571 -0.66631,-1.13525 -0.0683,-0.43813 -0.003,-0.89307 0.1394,-1.23742 0.0432,-0.10219 0.092,-0.19597 0.14636,-0.27576 0.13103,-0.19037 0.31921,-0.36115 0.56315,-0.48293 0.21746,-0.10919 0.47952,-0.17918 0.784792,-0.19177 1.25734,-0.0504 1.91388,1.19542 2.39758,2.1109 0.0711,0.13578 0.13939,0.26596 0.20491,0.38074 0.47394,0.84128 1.10121,1.38721 1.75358,1.66997 0.48648,0.21137 0.98691,0.27437 1.4483,0.20297 0.4614,-0.0714 0.88237,-0.27856 1.21134,-0.60751 0.34988,-0.34995 0.59521,-0.83988 0.67048,-1.4544 0.0739,-0.58931 0.0111,-1.17723 -0.21188,-1.67696 -0.20212,-0.44794 -0.53388,-0.82589 -1.01618,-1.06806 -0.23418,-0.11618 -0.53527,-0.21276 -0.84752,-0.25615 -0.27321,-0.0392 -0.55478,-0.0378 -0.80848,0.0224 -0.24812,0.0588 -0.51855,0.15538 -0.76667,0.28416 -0.21327,0.11199 -0.40982,0.25057 -0.56036,0.41014 -0.10455,0.11339 -0.18958,0.20018 -0.25649,0.26877 -0.11988,0.12178 -0.1826,0.18337 -0.19933,0.23657 -0.0181,0.0546 0.0112,0.10358 0.0739,0.20436 0.0265,0.0434 0.0585,0.0952 0.0934,0.15958 0.0279,0.0476 0.0502,0.091 0.0697,0.12739 0.0474,0.091 0.0781,0.14697 0.10454,0.16657 0.0335,0.0238 0.0669,-0.0126 0.14358,-0.11338 m -2.5537,2.28448 c -0.26067,0.13718 -0.38612,0.21977 -0.75412,0.25196 -0.319212,0.0266 -0.600792,-0.0224 -0.865642,-0.13158 -1.21551,-0.50533 -1.1263,-2.1277 -0.67048,-2.7912 0.24672,-0.35836 0.69557,-0.64532 1.339572,-0.67052 1.23922,-0.0504 1.89437,1.16884 2.37388,2.07872 l 0.001,0.002 c 0.0767,0.14558 0.14916,0.28276 0.21885,0.40594 1.56261,2.77022 4.78819,2.35868 5.10322,-0.19317 0.13939,-1.12405 -0.21188,-2.24389 -1.23503,-2.75483 -0.44188,-0.22117 -1.11655,-0.36674 -1.66298,-0.23656 -0.46278,0.11059 -1.00642,0.34995 -1.33121,0.6985 -0.58266,0.62571 -0.54224,0.42834 -0.28994,0.88188 0.099,0.17777 0.14219,0.27996 0.184,0.30235 0.003,0.002 0.007,0.002 0.01,0.002 0.0335,0.01 0.0711,-0.0308 0.14079,-0.12459 l 0.006,-0.007 v 0 l 0.32897,-0.38914 c 1.09006,-1.13384 2.74607,-0.7279 3.06249,0.53752 0.13661,0.54733 0.0892,1.24163 -0.15612,1.68817 -0.54782,0.99245 -1.81631,0.91687 -2.6917,0.23656 -0.51576,-0.40174 -0.79594,-0.96866 -1.11376,-1.56218 l -0.003,-0.004 c -0.14078,-0.26316 -0.28854,-0.53052 -0.46697,-0.79228 -0.28854,-0.41995 -0.56872,-0.7615 -0.95485,-1.03726 -1.29497,-0.92387 -3.286912,-0.50253 -3.784542,1.19263 -0.15055,0.51233 -0.16588,1.26822 -0.007,1.78055 0.41678,1.35221 1.94872,1.95693 3.165632,1.49219 0.26764,-0.10219 0.42376,-0.22677 0.62449,-0.34295 0.16867,0.0952 0.368,0.41714 0.43212,0.26737 l 0.13243,-0.7853 v -0.002 l 0.001,-0.008 c 0.15612,-0.95746 0.22303,-0.86648 -0.29273,-0.7237 l -0.007,0.002 h -0.003 c -0.13242,0.0364 -0.25927,0.0728 -0.39588,0.11199 -0.14218,0.0406 -0.70254,0.17637 -0.782,0.23377 10e-4,0.13018 0.26764,0.26595 0.34291,0.38914 z m 0.006,0.01 v 0 m 2.54812,-2.29567 v 0 l 0.33594,-0.39615 v 0 0 c 0.30946,-0.32195 0.66491,-0.52072 1.02176,-0.61171 0.30388,-0.0756 0.60776,-0.0742 0.88794,-0.004 0.28018,0.07 0.53528,0.20857 0.73879,0.40595 0.20352,0.19597 0.35546,0.44933 0.43073,0.75309 0.0711,0.27996 0.092,0.59912 0.0641,0.90427 -0.0265,0.29256 -0.10036,0.57112 -0.22164,0.79089 -0.0404,0.0728 -0.0836,0.13999 -0.13103,0.20158 -0.26345,0.34154 -0.63285,0.51232 -1.03151,0.54452 -0.39867,0.0322 -0.828,-0.0742 -1.21412,-0.28977 -0.11431,-0.063 -0.22443,-0.13577 -0.32897,-0.21696 -0.4837,-0.37655 -0.7611,-0.89588 -1.05522,-1.4474 -0.1603,-0.30096 -0.32479,-0.61172 -0.53249,-0.91407 -0.14357,-0.20857 -0.28436,-0.39894 -0.43909,-0.57112 -0.15333,-0.17218 -0.31921,-0.32475 -0.51157,-0.46194 -0.23558,-0.16797 -0.49346,-0.29115 -0.76109,-0.37095 -0.4851,-0.14417 -1.002252,-0.14277 -1.474792,0 -0.47116,0.14419 -0.89631,0.42834 -1.196,0.85389 -0.14358,0.20157 -0.25928,0.43673 -0.33734,0.7027 -0.0767,0.26036 -0.11709,0.58371 -0.11848,0.90567 -10e-4,0.31076 0.0335,0.61871 0.11151,0.86928 0.0139,0.0462 0.0293,0.091 0.046,0.13578 0.22861,0.60051 0.68443,1.03865 1.22667,1.28222 0.54224,0.24356 1.170912,0.29256 1.742432,0.11478 0.046,-0.014 0.092,-0.0294 0.1366,-0.0476 0.19237,-0.0728 0.32618,-0.15817 0.46,-0.24356 0.053,-0.0336 0.10594,-0.0672 0.16309,-0.0994 0.003,-0.002 0.007,-0.002 0.01,0 0.0627,0.0364 0.12964,0.10219 0.19237,0.16378 0.0599,0.0602 0.11709,0.11619 0.16169,0.13578 0.0279,0.0112 0.0502,0.007 0.0641,-0.0266 l 0.13103,-0.78249 v 0 c 0.0237,-0.14278 0.0446,-0.26456 0.0627,-0.36535 0.0432,-0.24077 0.0655,-0.36535 0.0446,-0.41715 -0.0195,-0.049 -0.0906,-0.0266 -0.23697,0.0169 -0.0446,0.014 -0.0962,0.0294 -0.15751,0.0462 -0.10873,0.0308 -0.21746,0.0616 -0.33176,0.0938 l -0.0641,0.0182 c -0.0321,0.01 -0.0878,0.0238 -0.15333,0.042 -0.21467,0.056 -0.55061,0.14279 -0.62031,0.18758 0.004,0.07 0.0948,0.14698 0.18261,0.21977 0.0641,0.0546 0.12685,0.10638 0.15891,0.15818 0.003,0.006 0.001,0.0126 -0.004,0.0154 v 0 m 1.11933,-0.0154 c 0.001,-0.006 0.007,-0.01 0.0125,-0.008"
       style="fill:#000000;fill-opacity:1;fill-rule:evenodd;stroke:#030000;stroke-width:0.04801813;stroke-miterlimit:4;stroke-dasharray:none;stroke-opacity:1"
       inkscape:connector-curvature="0" />
    <g
       aria-label="Ответственное потребление 
и производство"
       style="font-style:normal;font-variant:normal;font-weight:normal;font-stretch:normal;font-size:2.82222223px;line-height:1.25;font-family:Montserrat;-inkscape-font-specification:Montserrat;text-align:start;letter-spacing:0px;word-spacing:0px;text-anchor:start;fill:#000000;fill-opacity:1;stroke:none;stroke-width:0.26458332"
       id="text48564">
      <path
         d="m 110.44369,132.53068 c 0.59267,0 1.03576,-0.42615 1.03576,-1.00471 0,-0.57856 -0.44309,-1.00471 -1.03576,-1.00471 -0.59831,0 -1.03858,0.42898 -1.03858,1.00471 0,0.57573 0.44027,1.00471 1.03858,1.00471 z m 0,-0.18627 c -0.47695,0 -0.83255,-0.34713 -0.83255,-0.81844 0,-0.47131 0.3556,-0.81844 0.83255,-0.81844 0.47414,0 0.82691,0.34713 0.82691,0.81844 0,0.47131 -0.35277,0.81844 -0.82691,0.81844 z"
         style="text-align:start;text-anchor:start;stroke-width:0.26458332"
         id="path48580" />
      <path
         d="m 112.93272,131.02926 h -1.32363 v 0.1778 h 0.56163 v 1.30669 h 0.20037 v -1.30669 h 0.56163 z"
         style="text-align:start;text-anchor:start;stroke-width:0.26458332"
         id="path48582" />
      <path
         d="m 114.16788,131.7461 c 0.15522,-0.0564 0.25118,-0.16933 0.25118,-0.33584 0,-0.24553 -0.20603,-0.381 -0.54187,-0.381 h -0.65476 v 1.48449 h 0.67452 c 0.38664,0 0.57291,-0.14676 0.57291,-0.40358 0,-0.19473 -0.096,-0.31609 -0.30198,-0.36407 z m -0.75071,-0.5588 h 0.44591 c 0.2286,0 0.3556,0.0819 0.3556,0.24836 0,0.16651 -0.127,0.254 -0.3556,0.254 h -0.44591 z m 0.47131,1.1684 h -0.47131 v -0.51646 h 0.49106 c 0.25118,0 0.36407,0.0818 0.36407,0.25964 0,0.1778 -0.13264,0.25682 -0.38382,0.25682 z"
         style="text-align:start;text-anchor:start;stroke-width:0.26458332"
         id="path48584" />
      <path
         d="m 116.23776,131.7715 c 0,-0.44591 -0.30198,-0.75353 -0.71967,-0.75353 -0.41769,0 -0.72531,0.31327 -0.72531,0.75353 0,0.44027 0.31609,0.75636 0.77893,0.75636 0.23425,0 0.44027,-0.0847 0.57292,-0.24271 l -0.11289,-0.12982 c -0.11289,0.12982 -0.27376,0.19473 -0.45438,0.19473 -0.32456,0 -0.56162,-0.20602 -0.5842,-0.51647 h 1.24178 c 0,-0.0226 0.003,-0.0451 0.003,-0.0621 z m -0.71967,-0.58137 c 0.29069,0 0.50236,0.2032 0.52776,0.49388 h -1.05269 c 0.0254,-0.29068 0.23707,-0.49388 0.52493,-0.49388 z"
         style="text-align:start;text-anchor:start;stroke-width:0.26458332"
         id="path48586" />
      <path
         d="m 117.65663,131.02926 h -1.32362 v 0.1778 h 0.56162 v 1.30669 h 0.20038 v -1.30669 h 0.56162 z"
         style="text-align:start;text-anchor:start;stroke-width:0.26458332"
         id="path48588" />
      <path
         d="m 118.50109,132.52786 c 0.25118,0 0.46285,-0.1016 0.58138,-0.29351 l -0.14958,-0.1016 c -0.1016,0.14958 -0.25964,0.21731 -0.4318,0.21731 -0.32455,0 -0.56162,-0.2286 -0.56162,-0.57856 0,-0.34713 0.23707,-0.57855 0.56162,-0.57855 0.17216,0 0.3302,0.0705 0.4318,0.22013 l 0.14958,-0.1016 c -0.11853,-0.19473 -0.3302,-0.29351 -0.58138,-0.29351 -0.44309,0 -0.76482,0.31044 -0.76482,0.75353 0,0.44309 0.32173,0.75636 0.76482,0.75636 z"
         style="text-align:start;text-anchor:start;stroke-width:0.26458332"
         id="path48590" />
      <path
         d="m 120.48436,131.02926 h -1.32362 v 0.1778 h 0.56162 v 1.30669 h 0.20038 v -1.30669 h 0.56162 z"
         style="text-align:start;text-anchor:start;stroke-width:0.26458332"
         id="path48592" />
      <path
         d="m 121.71953,131.7461 c 0.15522,-0.0564 0.25118,-0.16933 0.25118,-0.33584 0,-0.24553 -0.20603,-0.381 -0.54187,-0.381 h -0.65476 v 1.48449 h 0.67451 c 0.38665,0 0.57292,-0.14676 0.57292,-0.40358 0,-0.19473 -0.096,-0.31609 -0.30198,-0.36407 z m -0.75071,-0.5588 h 0.44591 c 0.2286,0 0.3556,0.0819 0.3556,0.24836 0,0.16651 -0.127,0.254 -0.3556,0.254 h -0.44591 z m 0.47131,1.1684 h -0.47131 v -0.51646 h 0.49106 c 0.25118,0 0.36407,0.0818 0.36407,0.25964 0,0.1778 -0.13264,0.25682 -0.38382,0.25682 z"
         style="text-align:start;text-anchor:start;stroke-width:0.26458332"
         id="path48594" />
      <path
         d="m 123.78941,131.7715 c 0,-0.44591 -0.30198,-0.75353 -0.71967,-0.75353 -0.41769,0 -0.72531,0.31327 -0.72531,0.75353 0,0.44027 0.31609,0.75636 0.77893,0.75636 0.23425,0 0.44027,-0.0847 0.57291,-0.24271 l -0.11288,-0.12982 c -0.11289,0.12982 -0.27376,0.19473 -0.45438,0.19473 -0.32456,0 -0.56162,-0.20602 -0.5842,-0.51647 h 1.24178 c 0,-0.0226 0.003,-0.0451 0.003,-0.0621 z m -0.71967,-0.58137 c 0.29069,0 0.50236,0.2032 0.52776,0.49388 h -1.05269 c 0.0254,-0.29068 0.23706,-0.49388 0.52493,-0.49388 z"
         style="text-align:start;text-anchor:start;stroke-width:0.26458332"
         id="path48596" />
      <path
         d="m 124.2302,132.51375 h 0.20038 v -0.65476 h 0.93416 v 0.65476 h 0.20037 v -1.48449 h -0.20037 v 0.65758 h -0.93416 v -0.65758 h -0.20038 z"
         style="text-align:start;text-anchor:start;stroke-width:0.26458332"
         id="path48598" />
      <path
         d="m 126.13741,132.51375 h 0.20038 v -0.65476 h 0.93415 v 0.65476 h 0.20038 v -1.48449 h -0.20038 v 0.65758 h -0.93415 v -0.65758 h -0.20038 z"
         style="text-align:start;text-anchor:start;stroke-width:0.26458332"
         id="path48600" />
      <path
         d="m 128.65704,132.52786 c 0.43462,0 0.75353,-0.31609 0.75353,-0.75636 0,-0.44026 -0.31891,-0.75353 -0.75353,-0.75353 -0.43463,0 -0.75636,0.31327 -0.75636,0.75353 0,0.44027 0.32173,0.75636 0.75636,0.75636 z m 0,-0.1778 c -0.31609,0 -0.55316,-0.23142 -0.55316,-0.57856 0,-0.34713 0.23707,-0.57855 0.55316,-0.57855 0.31608,0 0.55033,0.23142 0.55033,0.57855 0,0.34714 -0.23425,0.57856 -0.55033,0.57856 z"
         style="text-align:start;text-anchor:start;stroke-width:0.26458332"
         id="path48602" />
      <path
         d="m 131.14262,131.7715 c 0,-0.44591 -0.30198,-0.75353 -0.71967,-0.75353 -0.41769,0 -0.72531,0.31327 -0.72531,0.75353 0,0.44027 0.31609,0.75636 0.77893,0.75636 0.23425,0 0.44027,-0.0847 0.57292,-0.24271 l -0.11289,-0.12982 c -0.11289,0.12982 -0.27376,0.19473 -0.45438,0.19473 -0.32456,0 -0.56162,-0.20602 -0.5842,-0.51647 h 1.24178 c 0,-0.0226 0.003,-0.0451 0.003,-0.0621 z m -0.71967,-0.58137 c 0.29069,0 0.50236,0.2032 0.52776,0.49388 h -1.05269 c 0.0254,-0.29068 0.23707,-0.49388 0.52493,-0.49388 z"
         style="text-align:start;text-anchor:start;stroke-width:0.26458332"
         id="path48604" />
      <path
         d="m 132.32204,131.02926 v 1.48449 h 0.20038 v -1.30669 h 0.93133 v 1.30669 h 0.20038 v -1.48449 z"
         style="text-align:start;text-anchor:start;stroke-width:0.26458332"
         id="path48606" />
      <path
         d="m 134.83616,132.52786 c 0.43462,0 0.75353,-0.31609 0.75353,-0.75636 0,-0.44026 -0.31891,-0.75353 -0.75353,-0.75353 -0.43462,0 -0.75636,0.31327 -0.75636,0.75353 0,0.44027 0.32174,0.75636 0.75636,0.75636 z m 0,-0.1778 c -0.31609,0 -0.55316,-0.23142 -0.55316,-0.57856 0,-0.34713 0.23707,-0.57855 0.55316,-0.57855 0.31609,0 0.55033,0.23142 0.55033,0.57855 0,0.34714 -0.23424,0.57856 -0.55033,0.57856 z"
         style="text-align:start;text-anchor:start;stroke-width:0.26458332"
         id="path48608" />
      <path
         d="m 137.0098,131.02926 h -1.32362 v 0.1778 h 0.56162 v 1.30669 h 0.20038 v -1.30669 h 0.56162 z"
         style="text-align:start;text-anchor:start;stroke-width:0.26458332"
         id="path48610" />
      <path
         d="m 138.06434,131.01797 c -0.24553,0 -0.45156,0.10724 -0.57291,0.3048 v -0.29351 h -0.19191 v 2.032 h 0.20038 v -0.82691 c 0.12417,0.19191 0.32737,0.29351 0.56444,0.29351 0.42333,0 0.73942,-0.3048 0.73942,-0.75636 0,-0.44873 -0.31609,-0.75353 -0.73942,-0.75353 z m -0.0141,1.33209 c -0.31609,0 -0.55316,-0.23142 -0.55316,-0.57856 0,-0.34431 0.23707,-0.57855 0.55316,-0.57855 0.31327,0 0.55315,0.23424 0.55315,0.57855 0,0.34714 -0.23988,0.57856 -0.55315,0.57856 z"
         style="text-align:start;text-anchor:start;stroke-width:0.26458332"
         id="path48612" />
      <path
         d="m 140.53533,131.7715 c 0,-0.44591 -0.30198,-0.75353 -0.71967,-0.75353 -0.41769,0 -0.72531,0.31327 -0.72531,0.75353 0,0.44027 0.31609,0.75636 0.77893,0.75636 0.23425,0 0.44027,-0.0847 0.57291,-0.24271 l -0.11289,-0.12982 c -0.11288,0.12982 -0.27375,0.19473 -0.45437,0.19473 -0.32456,0 -0.56163,-0.20602 -0.5842,-0.51647 h 1.24177 c 0,-0.0226 0.003,-0.0451 0.003,-0.0621 z m -0.71967,-0.58137 c 0.29069,0 0.50236,0.2032 0.52776,0.49388 h -1.05269 c 0.0254,-0.29068 0.23706,-0.49388 0.52493,-0.49388 z"
         style="text-align:start;text-anchor:start;stroke-width:0.26458332"
         id="path48614" />
      <path
         d="m 141.69579,131.06595 c -0.2794,0 -0.50236,0.13829 -0.62089,0.36689 0.0198,-0.47414 0.21167,-0.6858 0.63218,-0.77894 l 0.62653,-0.14393 -0.0339,-0.18344 -0.66604,0.1524 c -0.50518,0.11853 -0.75071,0.42897 -0.75071,1.07526 0,0.60396 0.27658,0.97649 0.77611,0.97649 0.44309,0 0.74789,-0.30198 0.74789,-0.73942 0,-0.42898 -0.29351,-0.72531 -0.7112,-0.72531 z m -0.031,1.29822 c -0.31608,0 -0.54186,-0.23424 -0.54186,-0.56727 0,-0.3302 0.22295,-0.55033 0.54186,-0.55033 0.31892,0 0.53905,0.22013 0.53905,0.55033 0,0.33303 -0.22296,0.56727 -0.53905,0.56727 z"
         style="text-align:start;text-anchor:start;stroke-width:0.26458332"
         id="path48616" />
      <path
         d="m 142.9497,131.02926 -0.0254,0.53058 c -0.0198,0.39229 -0.0423,0.79022 -0.28787,0.79022 -0.0198,0 -0.0452,-0.006 -0.0706,-0.0113 l -0.0141,0.17216 c 0.0536,0.0141 0.0988,0.0226 0.14394,0.0226 0.31891,0 0.38382,-0.44026 0.40922,-0.95955 l 0.0198,-0.36689 h 0.7112 v 1.30669 h 0.20038 v -1.48449 z"
         style="text-align:start;text-anchor:start;stroke-width:0.26458332"
         id="path48618" />
      <path
         d="m 145.90968,131.7715 c 0,-0.44591 -0.30198,-0.75353 -0.71967,-0.75353 -0.41769,0 -0.72531,0.31327 -0.72531,0.75353 0,0.44027 0.31609,0.75636 0.77893,0.75636 0.23425,0 0.44027,-0.0847 0.57291,-0.24271 l -0.11288,-0.12982 c -0.11289,0.12982 -0.27376,0.19473 -0.45438,0.19473 -0.32456,0 -0.56162,-0.20602 -0.5842,-0.51647 h 1.24178 c 0,-0.0226 0.003,-0.0451 0.003,-0.0621 z m -0.71967,-0.58137 c 0.29069,0 0.50236,0.2032 0.52776,0.49388 h -1.05269 c 0.0254,-0.29068 0.23706,-0.49388 0.52493,-0.49388 z"
         style="text-align:start;text-anchor:start;stroke-width:0.26458332"
         id="path48620" />
      <path
         d="m 146.35047,132.51375 h 0.20038 v -0.65476 h 0.93416 v 0.65476 h 0.20038 v -1.48449 h -0.20038 v 0.65758 h -0.93416 v -0.65758 h -0.20038 z"
         style="text-align:start;text-anchor:start;stroke-width:0.26458332"
         id="path48622" />
      <path
         d="m 148.25768,132.51375 h 0.18062 l 0.98778,-1.17969 v 1.17969 h 0.20038 v -1.48449 h -0.1778 l -0.9906,1.17969 v -1.17969 h -0.20038 z"
         style="text-align:start;text-anchor:start;stroke-width:0.26458332"
         id="path48624" />
      <path
         d="m 151.499,131.7715 c 0,-0.44591 -0.30198,-0.75353 -0.71967,-0.75353 -0.41769,0 -0.72531,0.31327 -0.72531,0.75353 0,0.44027 0.31609,0.75636 0.77893,0.75636 0.23425,0 0.44027,-0.0847 0.57292,-0.24271 l -0.11289,-0.12982 c -0.11289,0.12982 -0.27376,0.19473 -0.45438,0.19473 -0.32456,0 -0.56162,-0.20602 -0.5842,-0.51647 h 1.24178 c 0,-0.0226 0.003,-0.0451 0.003,-0.0621 z m -0.71967,-0.58137 c 0.29069,0 0.50236,0.2032 0.52776,0.49388 h -1.05269 c 0.0254,-0.29068 0.23707,-0.49388 0.52493,-0.49388 z"
         style="text-align:start;text-anchor:start;stroke-width:0.26458332"
         id="path48626" />
      <path
         d="m 109.52929,136.04153 h 0.18062 l 0.98778,-1.17969 v 1.17969 h 0.20038 v -1.48449 h -0.1778 l -0.9906,1.17969 v -1.17969 h -0.20038 z"
         style="text-align:start;text-anchor:start;stroke-width:0.26458332"
         id="path48628" />
      <path
         d="m 112.2082,134.55704 v 1.48449 h 0.20038 v -1.30669 h 0.93133 v 1.30669 h 0.20038 v -1.48449 z"
         style="text-align:start;text-anchor:start;stroke-width:0.26458332"
         id="path48630" />
      <path
         d="m 114.87471,134.54575 c -0.24553,0 -0.45155,0.10724 -0.57291,0.3048 v -0.29351 h -0.19191 v 2.032 h 0.20038 v -0.82691 c 0.12418,0.19191 0.32738,0.29351 0.56444,0.29351 0.42334,0 0.73943,-0.3048 0.73943,-0.75636 0,-0.44873 -0.31609,-0.75353 -0.73943,-0.75353 z m -0.0141,1.33209 c -0.31609,0 -0.55315,-0.23143 -0.55315,-0.57856 0,-0.34431 0.23706,-0.57855 0.55315,-0.57855 0.31327,0 0.55316,0.23424 0.55316,0.57855 0,0.34713 -0.23989,0.57856 -0.55316,0.57856 z"
         style="text-align:start;text-anchor:start;stroke-width:0.26458332"
         id="path48632" />
      <path
         d="m 116.65708,136.05564 c 0.43462,0 0.75353,-0.31609 0.75353,-0.75636 0,-0.44027 -0.31891,-0.75353 -0.75353,-0.75353 -0.43462,0 -0.75636,0.31326 -0.75636,0.75353 0,0.44027 0.32174,0.75636 0.75636,0.75636 z m 0,-0.1778 c -0.31609,0 -0.55316,-0.23143 -0.55316,-0.57856 0,-0.34713 0.23707,-0.57855 0.55316,-0.57855 0.31609,0 0.55033,0.23142 0.55033,0.57855 0,0.34713 -0.23424,0.57856 -0.55033,0.57856 z"
         style="text-align:start;text-anchor:start;stroke-width:0.26458332"
         id="path48634" />
      <path
         d="m 117.84162,136.04153 h 0.18062 l 0.98778,-1.17969 v 1.17969 h 0.20038 v -1.48449 h -0.1778 l -0.9906,1.17969 v -1.17969 h -0.20038 z"
         style="text-align:start;text-anchor:start;stroke-width:0.26458332"
         id="path48636" />
      <path
         d="m 120.47131,135.26824 c 0.17216,-0.0564 0.28787,-0.17498 0.28787,-0.3302 0,-0.24271 -0.25965,-0.39794 -0.59831,-0.39794 -0.18062,0 -0.36689,0.0423 -0.55034,0.13829 l 0.0564,0.15522 c 0.15804,-0.0818 0.32173,-0.12135 0.47413,-0.12135 0.23707,0 0.41205,0.0903 0.41205,0.254 0,0.14675 -0.1524,0.23424 -0.36971,0.23424 h -0.24272 v 0.14676 h 0.254 c 0.24836,0 0.40076,0.0931 0.40076,0.25118 0,0.18062 -0.20038,0.28786 -0.46849,0.28786 -0.18062,0 -0.37253,-0.0564 -0.51082,-0.16086 l -0.0677,0.14957 c 0.15804,0.12136 0.37535,0.18345 0.58702,0.18345 0.36971,0 0.66604,-0.17498 0.66604,-0.44309 0,-0.17498 -0.12135,-0.29916 -0.3302,-0.34713 z"
         style="text-align:start;text-anchor:start;stroke-width:0.26458332"
         id="path48638" />
      <path
         d="m 122.19909,135.27388 c 0.15522,-0.0564 0.25117,-0.16933 0.25117,-0.33584 0,-0.24554 -0.20602,-0.381 -0.54186,-0.381 h -0.65476 v 1.48449 h 0.67451 c 0.38665,0 0.57291,-0.14676 0.57291,-0.40358 0,-0.19474 -0.096,-0.31609 -0.30197,-0.36407 z m -0.75072,-0.5588 h 0.44592 c 0.2286,0 0.3556,0.0819 0.3556,0.24836 0,0.16651 -0.127,0.254 -0.3556,0.254 h -0.44592 z m 0.47132,1.1684 h -0.47132 v -0.51647 h 0.49107 c 0.25118,0 0.36407,0.0819 0.36407,0.25965 0,0.1778 -0.13265,0.25682 -0.38382,0.25682 z"
         style="text-align:start;text-anchor:start;stroke-width:0.26458332"
         id="path48640" />
      <path
         d="m 123.58034,136.05564 c 0.43462,0 0.75354,-0.31609 0.75354,-0.75636 0,-0.44027 -0.31892,-0.75353 -0.75354,-0.75353 -0.43462,0 -0.75635,0.31326 -0.75635,0.75353 0,0.44027 0.32173,0.75636 0.75635,0.75636 z m 0,-0.1778 c -0.31609,0 -0.55315,-0.23143 -0.55315,-0.57856 0,-0.34713 0.23706,-0.57855 0.55315,-0.57855 0.31609,0 0.55034,0.23142 0.55034,0.57855 0,0.34713 -0.23425,0.57856 -0.55034,0.57856 z"
         style="text-align:start;text-anchor:start;stroke-width:0.26458332"
         id="path48642" />
      <path
         d="m 125.97024,135.86655 v -1.30951 h -1.09503 l -0.0198,0.49671 c -0.0198,0.40075 -0.0564,0.79869 -0.27658,0.8128 h -0.0847 v 0.5334 h 0.18909 v -0.35842 h 1.32927 v 0.35842 h 0.18909 v -0.5334 z m -0.93134,-0.80151 0.0169,-0.3302 h 0.71402 v 1.13171 h -0.92569 c 0.14958,-0.11289 0.18062,-0.46285 0.19473,-0.80151 z"
         style="text-align:start;text-anchor:start;stroke-width:0.26458332"
         id="path48644" />
      <path
         d="m 127.21029,136.05564 c 0.25118,0 0.46285,-0.1016 0.58138,-0.29351 l -0.14958,-0.1016 c -0.1016,0.14957 -0.25964,0.21731 -0.4318,0.21731 -0.32455,0 -0.56162,-0.2286 -0.56162,-0.57856 0,-0.34713 0.23707,-0.57855 0.56162,-0.57855 0.17216,0 0.3302,0.0705 0.4318,0.22013 l 0.14958,-0.1016 c -0.11853,-0.19473 -0.3302,-0.29351 -0.58138,-0.29351 -0.44309,0 -0.76482,0.31044 -0.76482,0.75353 0,0.44309 0.32173,0.75636 0.76482,0.75636 z"
         style="text-align:start;text-anchor:start;stroke-width:0.26458332"
         id="path48646" />
      <path
         d="m 129.19357,134.55704 h -1.32363 v 0.1778 h 0.56163 v 1.30669 h 0.20037 v -1.30669 h 0.56163 z"
         style="text-align:start;text-anchor:start;stroke-width:0.26458332"
         id="path48648" />
      <path
         d="m 130.42873,135.27388 c 0.15522,-0.0564 0.25118,-0.16933 0.25118,-0.33584 0,-0.24554 -0.20603,-0.381 -0.54187,-0.381 h -0.65476 v 1.48449 h 0.67452 c 0.38664,0 0.57291,-0.14676 0.57291,-0.40358 0,-0.19474 -0.096,-0.31609 -0.30198,-0.36407 z m -0.75071,-0.5588 h 0.44591 c 0.2286,0 0.3556,0.0819 0.3556,0.24836 0,0.16651 -0.127,0.254 -0.3556,0.254 h -0.44591 z m 0.47131,1.1684 h -0.47131 v -0.51647 h 0.49106 c 0.25118,0 0.36407,0.0819 0.36407,0.25965 0,0.1778 -0.13264,0.25682 -0.38382,0.25682 z"
         style="text-align:start;text-anchor:start;stroke-width:0.26458332"
         id="path48650" />
      <path
         d="m 131.80999,136.05564 c 0.43462,0 0.75353,-0.31609 0.75353,-0.75636 0,-0.44027 -0.31891,-0.75353 -0.75353,-0.75353 -0.43463,0 -0.75636,0.31326 -0.75636,0.75353 0,0.44027 0.32173,0.75636 0.75636,0.75636 z m 0,-0.1778 c -0.31609,0 -0.55316,-0.23143 -0.55316,-0.57856 0,-0.34713 0.23707,-0.57855 0.55316,-0.57855 0.31609,0 0.55033,0.23142 0.55033,0.57855 0,0.34713 -0.23424,0.57856 -0.55033,0.57856 z"
         style="text-align:start;text-anchor:start;stroke-width:0.26458332"
         id="path48652" />
    </g>
    <text
       xml:space="preserve"
       style="font-style:normal;font-variant:normal;font-weight:normal;font-stretch:normal;font-size:7.05555534px;line-height:1.25;font-family:Montserrat;-inkscape-font-specification:Montserrat;letter-spacing:0px;word-spacing:0px;fill:#000000;fill-opacity:1;stroke:none;stroke-width:0.26458332"
       x="141.00169"
       y="139.77853"
       id="text48570"><tspan
         sodipodi:role="line"
         id="tspan48568"
         x="141.00169"
         y="146.26324"
         style="stroke-width:0.26458332" /></text>
  </g>
</svg>
