<?xml version="1.0" encoding="UTF-8" standalone="no"?>
<!-- Created with Inkscape (http://www.inkscape.org/) -->

<svg
   xmlns:dc="http://purl.org/dc/elements/1.1/"
   xmlns:cc="http://creativecommons.org/ns#"
   xmlns:rdf="http://www.w3.org/1999/02/22-rdf-syntax-ns#"
   xmlns:svg="http://www.w3.org/2000/svg"
   xmlns="http://www.w3.org/2000/svg"
   xmlns:sodipodi="http://sodipodi.sourceforge.net/DTD/sodipodi-0.dtd"
   xmlns:inkscape="http://www.inkscape.org/namespaces/inkscape"
   width="32.872627mm"
   height="31.852156mm"
   viewBox="0 0 32.872627 31.852156"
   version="1.1"
   id="svg69115"
   inkscape:version="0.92.2 (5c3e80d, 2017-08-06)"
   sodipodi:docname="emiia153.svg">
  <defs
     id="defs69109" />
  <sodipodi:namedview
     id="base"
     pagecolor="#ffffff"
     bordercolor="#666666"
     borderopacity="1.0"
     inkscape:pageopacity="0.0"
     inkscape:pageshadow="2"
     inkscape:zoom="1.979899"
     inkscape:cx="-18.420366"
     inkscape:cy="45.258475"
     inkscape:document-units="mm"
     inkscape:current-layer="layer1"
     showgrid="false"
     inkscape:window-width="1366"
     inkscape:window-height="745"
     inkscape:window-x="-8"
     inkscape:window-y="-8"
     inkscape:window-maximized="1"
     fit-margin-top="0"
     fit-margin-left="0"
     fit-margin-right="0"
     fit-margin-bottom="0" />
  <metadata
     id="metadata69112">
    <rdf:RDF>
      <cc:Work
         rdf:about="">
        <dc:format>image/svg+xml</dc:format>
        <dc:type
           rdf:resource="http://purl.org/dc/dcmitype/StillImage" />
        <dc:title />
      </cc:Work>
    </rdf:RDF>
  </metadata>
  <g
     inkscape:label="Layer 1"
     inkscape:groupmode="layer"
     id="layer1"
     transform="translate(-62.593819,-135.22023)">
    <path
       style="fill:none;fill-opacity:1;stroke:#3d85c6;stroke-width:0.3;stroke-linecap:round;stroke-linejoin:round;stroke-miterlimit:8.8648653;stroke-dasharray:none;stroke-dashoffset:0;stroke-opacity:1"
       d="m 83.032006,150.04364 c 0.0032,-0.083 -0.202897,-0.47199 -0.33281,-0.56482 -0.129911,-0.0928 -0.241282,-0.13461 -0.241282,-0.13461 0,0 0.0076,-0.36624 -0.08565,-0.40058 -0.109281,-0.0404 -0.304215,0.33568 -0.304215,0.33568 0,0 -0.273793,0.1764 -0.422375,0.26923 -0.148582,0.0928 -0.320275,0.25995 -0.320275,0.25995 0,0 -0.909643,-0.037 -1.243889,-0.0558 -0.334113,-0.0185 -1.253156,-0.14857 -1.791474,-0.11137 -0.338032,0.0233 -0.65909,-0.0557 -0.65909,-0.0557 0,0 -0.604253,-0.45267 -0.580097,-1.0628 0.01397,-0.35278 0.232012,-0.66366 0.468725,-0.66366 0.340775,0 0.375895,0.0928 0.375895,0.0928 0,0 0.07286,-0.22144 -0.05105,-0.35736 -0.190234,-0.2089 -0.5643,-0.1854 -0.751922,-0.0881 -0.250683,0.12991 -0.621878,0.61731 -0.538315,1.29951 0.100926,0.82412 0.594068,1.20667 0.594068,1.20667 0,0 -0.11999,0.38203 -0.148452,0.6869 -0.03068,0.32785 0.0078,0.46416 -0.01854,0.44562 0,0 -0.315575,0.37133 -0.445618,0.4827 -0.130041,0.11137 -0.241282,0.6126 -0.315573,0.87256 -0.07429,0.25995 0.08043,0.4951 0.173258,0.4951 0.09283,0 0.132001,-0.36232 0.198068,-0.56926 0.136178,-0.42695 0.408406,-0.46415 0.631147,-0.53832 0.222743,-0.0743 0.464158,-0.0928 0.464158,-0.0928 0,0 -0.148583,0.40841 -0.129913,0.63115 0.01854,0.22274 0.631149,0.81681 0.631149,0.81681 h 0.408406 c 0,0 0.185664,-0.0557 0.09283,-0.20421 -0.09283,-0.14857 -0.315575,-0.14857 -0.315575,-0.14857 0,0 -0.315574,-0.2785 -0.297034,-0.38987 0.01854,-0.11137 0.259953,-0.29703 0.426946,-0.51978 0.166991,-0.22274 0.148582,-0.33411 0.148582,-0.33411 l 1.342856,0.0186 c 0,0 -0.0061,0.29704 -0.117638,0.74265 -0.111371,0.44549 0.03708,0.70544 0.03708,0.70544 h 0.426945 c 0,0 0.07429,-0.0743 0.01854,-0.16712 -0.05576,-0.0928 -0.148976,-0.11646 -0.148976,-0.11646 l 0.04374,-0.19298 0.43935,-0.82308 0.494056,-0.0558 c 0,0 0.321841,0.30317 0.730247,0.65595 0.408406,0.35279 0.83535,0.6745 0.83535,0.6745 l 0.439352,0.006 c 0,0 0.107323,-0.0804 0.04948,-0.18567 -0.107585,-0.19597 -0.388038,-0.15536 -0.388038,-0.15536 0,0 -0.135658,-0.16543 -0.359706,-0.47578 -0.235798,-0.32655 -0.351871,-0.5707 -0.351871,-0.5707 0,0 -0.05667,-0.15341 -0.03799,-0.58036 0.01854,-0.42695 0,-0.56221 0,-0.56221 0,0 0.06815,-0.0704 0.178482,-0.1495 0.110327,-0.0791 0.235668,-0.10092 0.248593,-0.10719 h 0.334116 c 1.46e-4,0 0.162812,-0.18097 0.165947,-0.264 z"
       id="path16618"
       inkscape:connector-curvature="0" />
  </g>
</svg>
