<?xml version="1.0" encoding="UTF-8" standalone="no"?>
<!-- Created with Inkscape (http://www.inkscape.org/) -->

<svg
   xmlns:dc="http://purl.org/dc/elements/1.1/"
   xmlns:cc="http://creativecommons.org/ns#"
   xmlns:rdf="http://www.w3.org/1999/02/22-rdf-syntax-ns#"
   xmlns:svg="http://www.w3.org/2000/svg"
   xmlns="http://www.w3.org/2000/svg"
   xmlns:sodipodi="http://sodipodi.sourceforge.net/DTD/sodipodi-0.dtd"
   xmlns:inkscape="http://www.inkscape.org/namespaces/inkscape"
   width="22.003191mm"
   height="21.322901mm"
   viewBox="0 0 22.003191 21.322901"
   version="1.1"
   id="svg69115"
   inkscape:version="0.92.2 (5c3e80d, 2017-08-06)"
   sodipodi:docname="emiia153.svg">
  <defs
     id="defs69109" />
  <sodipodi:namedview
     id="base"
     pagecolor="#ffffff"
     bordercolor="#666666"
     borderopacity="1.0"
     inkscape:pageopacity="0.0"
     inkscape:pageshadow="2"
     inkscape:zoom="0.98994949"
     inkscape:cx="-148.84156"
     inkscape:cy="64.300319"
     inkscape:document-units="mm"
     inkscape:current-layer="layer1"
     showgrid="false"
     inkscape:window-width="1366"
     inkscape:window-height="745"
     inkscape:window-x="-8"
     inkscape:window-y="-8"
     inkscape:window-maximized="1"
     fit-margin-top="0"
     fit-margin-left="0"
     fit-margin-right="0"
     fit-margin-bottom="0" />
  <metadata
     id="metadata69112">
    <rdf:RDF>
      <cc:Work
         rdf:about="">
        <dc:format>image/svg+xml</dc:format>
        <dc:type
           rdf:resource="http://purl.org/dc/dcmitype/StillImage" />
        <dc:title></dc:title>
      </cc:Work>
    </rdf:RDF>
  </metadata>
  <g
     inkscape:label="Layer 1"
     inkscape:groupmode="layer"
     id="layer1"
     transform="translate(-62.726692,-144.52323)">
    <path
       style="fill:none;fill-opacity:1;stroke:#3d85c6;stroke-width:0.47125095;stroke-linecap:round;stroke-linejoin:round;stroke-miterlimit:8.8648653;stroke-dasharray:none;stroke-dashoffset:0;stroke-opacity:1"
       d="m 79.973805,153.97416 c 0.006,-0.14986 -0.36616,-0.85179 -0.60061,-1.01932 -0.23445,-0.16753 -0.43543,-0.24293 -0.43543,-0.24293 0,0 0.0137,-0.66093 -0.15458,-0.7229 -0.19721,-0.0728 -0.549,0.6058 -0.549,0.6058 0,0 -0.49411,0.31833 -0.76225,0.48586 -0.26814,0.16753 -0.57799,0.46913 -0.57799,0.46913 0,0 -1.6416,-0.0669 -2.24481,-0.10061 -0.60296,-0.0335 -2.26153,-0.26815 -3.23301,-0.20099 -0.61004,0.0422 -1.18944,-0.10062 -1.18944,-0.10062 0,0 -1.09047,-0.81691 -1.04688,-1.91799 0.0252,-0.63666 0.4187,-1.19768 0.84589,-1.19768 0.61499,0 0.67837,0.16753 0.67837,0.16753 0,0 0.13148,-0.39962 -0.0921,-0.64491 -0.34331,-0.377 -1.01838,-0.33459 -1.35697,-0.15905 -0.4524,0.23445 -1.12228,1.11404 -0.97148,2.34519 0.18214,1.48726 1.07209,2.17765 1.07209,2.17765 0,0 -0.21654,0.68944 -0.2679,1.23962 -0.0554,0.59166 0.0141,0.83765 -0.0335,0.80419 0,0 -0.56951,0.67012 -0.80419,0.87111 -0.23468,0.20099 -0.43544,1.10555 -0.56951,1.57468 -0.13407,0.46913 0.14515,0.8935 0.31268,0.8935 0.16752,0 0.23821,-0.65387 0.35744,-1.02733 0.24576,-0.7705 0.73704,-0.83765 1.13901,-0.97149 0.40198,-0.13407 0.83765,-0.16753 0.83765,-0.16753 0,0 -0.26814,0.73704 -0.23445,1.13902 0.0335,0.40198 1.13902,1.47407 1.13902,1.47407 h 0.73703 c 0,0 0.33506,-0.10061 0.16754,-0.36852 -0.16754,-0.26814 -0.56951,-0.26814 -0.56951,-0.26814 0,0 -0.56951,-0.50259 -0.53605,-0.70358 0.0335,-0.20099 0.46913,-0.53604 0.7705,-0.93802 0.30136,-0.40198 0.26814,-0.60297 0.26814,-0.60297 l 2.4234,0.0335 c 0,0 -0.0111,0.53605 -0.21229,1.34024 -0.20099,0.80395 0.0669,1.27308 0.0669,1.27308 h 0.77049 c 0,0 0.13407,-0.13407 0.0335,-0.3016 -0.10062,-0.16753 -0.26885,-0.21017 -0.26885,-0.21017 l 0.0789,-0.34826 0.79288,-1.48538 0.89161,-0.10061 c 0,0 0.58081,0.54712 1.31785,1.18378 0.73704,0.63666 1.50753,1.21724 1.50753,1.21724 l 0.79288,0.0111 c 0,0 0.19368,-0.14514 0.0893,-0.33506 -0.19415,-0.35367 -0.70028,-0.28039 -0.70028,-0.28039 0,0 -0.24481,-0.29854 -0.64915,-0.85862 -0.42553,-0.5893 -0.63501,-1.02992 -0.63501,-1.02992 0,0 -0.10226,-0.27686 -0.0686,-1.04736 0.0335,-0.77049 0,-1.0146 0,-1.0146 0,0 0.12299,-0.127 0.3221,-0.26979 0.19911,-0.14279 0.42531,-0.18214 0.44863,-0.19345 h 0.60297 c 2.6e-4,0 0.29382,-0.32658 0.29948,-0.47643 z"
       id="path16618"
       inkscape:connector-curvature="0" />
    <polyline
       id="polyline16686"
       points="   243.773,398.758 223.492,398.758 223.492,279.372 243.773,279.372  "
       style="fill:none;fill-opacity:1;stroke:#3d85c6;stroke-width:1.50239706;stroke-linecap:round;stroke-linejoin:round;stroke-miterlimit:8.8648653;stroke-dasharray:none;stroke-opacity:1"
       transform="matrix(0.17638479,0,0,0.17638479,23.438603,95.378768)" />
    <polyline
       id="polyline16688"
       points="   327.397,279.372 346.735,279.372 346.735,398.758 327.397,398.758  "
       style="fill:none;fill-opacity:1;stroke:#3d85c6;stroke-width:1.50239706;stroke-linecap:round;stroke-linejoin:round;stroke-miterlimit:8.8648653;stroke-dasharray:none;stroke-opacity:1"
       transform="matrix(0.17638479,0,0,0.17638479,23.438603,95.378768)" />
  </g>
</svg>
