<?xml version="1.0" encoding="UTF-8" standalone="no"?>
<!-- Created with Inkscape (http://www.inkscape.org/) -->

<svg
   xmlns:dc="http://purl.org/dc/elements/1.1/"
   xmlns:cc="http://creativecommons.org/ns#"
   xmlns:rdf="http://www.w3.org/1999/02/22-rdf-syntax-ns#"
   xmlns:svg="http://www.w3.org/2000/svg"
   xmlns="http://www.w3.org/2000/svg"
   xmlns:sodipodi="http://sodipodi.sourceforge.net/DTD/sodipodi-0.dtd"
   xmlns:inkscape="http://www.inkscape.org/namespaces/inkscape"
   width="32.872627mm"
   height="31.852156mm"
   viewBox="0 0 32.872627 31.852156"
   version="1.1"
   id="svg69115"
   inkscape:version="0.92.2 (5c3e80d, 2017-08-06)"
   sodipodi:docname="emiia153.svg">
  <defs
     id="defs69109" />
  <sodipodi:namedview
     id="base"
     pagecolor="#ffffff"
     bordercolor="#666666"
     borderopacity="1.0"
     inkscape:pageopacity="0.0"
     inkscape:pageshadow="2"
     inkscape:zoom="1.979899"
     inkscape:cx="-18.420366"
     inkscape:cy="45.258475"
     inkscape:document-units="mm"
     inkscape:current-layer="layer1"
     showgrid="false"
     inkscape:window-width="1366"
     inkscape:window-height="745"
     inkscape:window-x="-8"
     inkscape:window-y="-8"
     inkscape:window-maximized="1"
     fit-margin-top="0"
     fit-margin-left="0"
     fit-margin-right="0"
     fit-margin-bottom="0" />
  <metadata
     id="metadata69112">
    <rdf:RDF>
      <cc:Work
         rdf:about="">
        <dc:format>image/svg+xml</dc:format>
        <dc:type
           rdf:resource="http://purl.org/dc/dcmitype/StillImage" />
        <dc:title />
      </cc:Work>
    </rdf:RDF>
  </metadata>
  <g
     inkscape:label="Layer 1"
     inkscape:groupmode="layer"
     id="layer1"
     transform="translate(-62.593819,-135.22023)">
    <path
       style="fill:none;fill-opacity:1;stroke:#3d85c6;stroke-width:0.3;stroke-linecap:round;stroke-linejoin:round;stroke-miterlimit:8.8648653;stroke-dasharray:none;stroke-dashoffset:0;stroke-opacity:1"
       d="m 83.097576,149.87673 c 0.0038,-0.0981 -0.239756,-0.55773 -0.393269,-0.66742 -0.15351,-0.10966 -0.285113,-0.15906 -0.285113,-0.15906 0,0 0.009,-0.43278 -0.101209,-0.47335 -0.129133,-0.0477 -0.359478,0.39666 -0.359478,0.39666 0,0 -0.323531,0.20844 -0.499104,0.31813 -0.175573,0.10966 -0.378456,0.30718 -0.378456,0.30718 0,0 -1.074888,-0.0437 -1.469853,-0.0659 -0.394808,-0.0219 -1.480804,-0.17556 -2.116913,-0.1316 -0.399439,0.0275 -0.77882,-0.0658 -0.77882,-0.0658 0,0 -0.714021,-0.5349 -0.685477,-1.25587 0.01651,-0.41686 0.274159,-0.78422 0.553873,-0.78422 0.40268,0 0.44418,0.10966 0.44418,0.10966 0,0 0.0861,-0.26167 -0.06032,-0.42228 -0.224792,-0.24685 -0.666811,-0.21908 -0.888516,-0.1041 -0.296222,0.15351 -0.734848,0.72945 -0.636105,1.53558 0.11926,0.97383 0.701986,1.42587 0.701986,1.42587 0,0 -0.141788,0.45143 -0.17542,0.81168 -0.03625,0.38741 0.0092,0.54848 -0.02191,0.52657 0,0 -0.372902,0.43879 -0.526569,0.57039 -0.153664,0.1316 -0.285113,0.72388 -0.3729,1.03107 -0.08778,0.30717 0.09504,0.58504 0.204732,0.58504 0.109694,0 0.155981,-0.42814 0.234049,-0.67267 0.160916,-0.50451 0.482597,-0.54847 0.745801,-0.63611 0.263207,-0.0878 0.548477,-0.10966 0.548477,-0.10966 0,0 -0.175575,0.4826 -0.153513,0.7458 0.02191,0.26321 0.745803,0.96519 0.745803,0.96519 h 0.482597 c 0,0 0.219392,-0.0658 0.109694,-0.2413 -0.109694,-0.17556 -0.372903,-0.17556 -0.372903,-0.17556 0,0 -0.372901,-0.32909 -0.350993,-0.4607 0.02191,-0.1316 0.307176,-0.35098 0.504505,-0.6142 0.197327,-0.2632 0.175574,-0.3948 0.175574,-0.3948 l 1.586798,0.022 c 0,0 -0.0072,0.351 -0.139008,0.87756 -0.131602,0.52641 0.04382,0.83359 0.04382,0.83359 h 0.504504 c 0,0 0.08778,-0.0878 0.02191,-0.19748 -0.06589,-0.10966 -0.176039,-0.13762 -0.176039,-0.13762 l 0.05169,-0.22804 0.519162,-0.9726 0.583806,-0.0659 c 0,0 0.380306,0.35824 0.862903,0.77511 0.482597,0.41687 0.9871,0.79703 0.9871,0.79703 l 0.519164,0.007 c 0,0 0.126819,-0.095 0.05847,-0.2194 -0.127129,-0.23157 -0.458529,-0.18359 -0.458529,-0.18359 0,0 -0.160302,-0.19548 -0.42505,-0.56221 -0.278633,-0.38587 -0.415792,-0.67437 -0.415792,-0.67437 0,0 -0.06696,-0.18128 -0.04489,-0.68579 0.02191,-0.50451 0,-0.66434 0,-0.66434 0,0 0.08053,-0.0832 0.210905,-0.17666 0.130369,-0.0935 0.278479,-0.11925 0.293752,-0.12666 h 0.394811 c 1.73e-4,0 0.192389,-0.21384 0.196093,-0.31196 z"
       id="path16618"
       inkscape:connector-curvature="0" />
  </g>
</svg>
