<?xml version="1.0" encoding="UTF-8" standalone="no"?>
<!-- Created with Inkscape (http://www.inkscape.org/) -->

<svg
   xmlns:dc="http://purl.org/dc/elements/1.1/"
   xmlns:cc="http://creativecommons.org/ns#"
   xmlns:rdf="http://www.w3.org/1999/02/22-rdf-syntax-ns#"
   xmlns:svg="http://www.w3.org/2000/svg"
   xmlns="http://www.w3.org/2000/svg"
   xmlns:sodipodi="http://sodipodi.sourceforge.net/DTD/sodipodi-0.dtd"
   xmlns:inkscape="http://www.inkscape.org/namespaces/inkscape"
   width="32.872627mm"
   height="31.852156mm"
   viewBox="0 0 32.872627 31.852156"
   version="1.1"
   id="svg69115"
   inkscape:version="0.92.2 (5c3e80d, 2017-08-06)"
   sodipodi:docname="emiia153.svg">
  <defs
     id="defs69109" />
  <sodipodi:namedview
     id="base"
     pagecolor="#ffffff"
     bordercolor="#666666"
     borderopacity="1.0"
     inkscape:pageopacity="0.0"
     inkscape:pageshadow="2"
     inkscape:zoom="1.979899"
     inkscape:cx="-18.420366"
     inkscape:cy="45.258475"
     inkscape:document-units="mm"
     inkscape:current-layer="layer1"
     showgrid="false"
     inkscape:window-width="1366"
     inkscape:window-height="745"
     inkscape:window-x="-8"
     inkscape:window-y="-8"
     inkscape:window-maximized="1"
     fit-margin-top="0"
     fit-margin-left="0"
     fit-margin-right="0"
     fit-margin-bottom="0" />
  <metadata
     id="metadata69112">
    <rdf:RDF>
      <cc:Work
         rdf:about="">
        <dc:format>image/svg+xml</dc:format>
        <dc:type
           rdf:resource="http://purl.org/dc/dcmitype/StillImage" />
        <dc:title />
      </cc:Work>
    </rdf:RDF>
  </metadata>
  <g
     inkscape:label="Layer 1"
     inkscape:groupmode="layer"
     id="layer1"
     transform="translate(-62.593819,-135.22023)">
    <path
       style="fill:none;fill-opacity:1;stroke:#3d85c6;stroke-width:0.25;stroke-linecap:round;stroke-linejoin:round;stroke-miterlimit:8.8648653;stroke-dasharray:none;stroke-dashoffset:0;stroke-opacity:1"
       d="m 83.058961,149.90956 c 0.0042,-0.1072 -0.26201,-0.6095 -0.429771,-0.72937 -0.167758,-0.11983 -0.311576,-0.17382 -0.311576,-0.17382 0,0 0.0098,-0.47295 -0.110603,-0.51728 -0.141119,-0.0521 -0.392843,0.43347 -0.392843,0.43347 0,0 -0.35356,0.22779 -0.545429,0.34766 -0.191869,0.11984 -0.413583,0.33569 -0.413583,0.33569 0,0 -1.174655,-0.0478 -1.606279,-0.072 -0.431452,-0.0239 -1.618246,-0.19185 -2.313396,-0.14381 -0.436514,0.03 -0.851107,-0.0719 -0.851107,-0.0719 0,0 -0.780294,-0.58455 -0.749101,-1.37243 0.01804,-0.45555 0.299606,-0.85701 0.605282,-0.85701 0.440055,0 0.485407,0.11984 0.485407,0.11984 0,0 0.09409,-0.28596 -0.06592,-0.46148 -0.245656,-0.26976 -0.728702,-0.23941 -0.970984,-0.11376 -0.323717,0.16776 -0.803054,0.79716 -0.695146,1.67811 0.130329,1.06421 0.767141,1.55821 0.767141,1.55821 0,0 -0.154948,0.49333 -0.191701,0.88702 -0.03961,0.42337 0.01005,0.59939 -0.02394,0.57544 0,0 -0.407513,0.47952 -0.575443,0.62333 -0.167926,0.14382 -0.311576,0.79107 -0.407511,1.12677 -0.09593,0.33568 0.103861,0.63934 0.223734,0.63934 0.119876,0 0.170459,-0.46787 0.255773,-0.7351 0.175851,-0.55134 0.52739,-0.59938 0.815023,-0.69515 0.287637,-0.096 0.599385,-0.11984 0.599385,-0.11984 0,0 -0.191872,0.52739 -0.167762,0.81502 0.02394,0.28764 0.815026,1.05478 0.815026,1.05478 h 0.527389 c 0,0 0.239755,-0.0719 0.119876,-0.2637 -0.119876,-0.19185 -0.407515,-0.19185 -0.407515,-0.19185 0,0 -0.407512,-0.35964 -0.383571,-0.50346 0.02394,-0.14382 0.335687,-0.38356 0.551332,-0.67121 0.215642,-0.28763 0.19187,-0.43145 0.19187,-0.43145 l 1.734078,0.024 c 0,0 -0.0079,0.38357 -0.15191,0.95901 -0.143817,0.57527 0.04789,0.91096 0.04789,0.91096 h 0.55133 c 0,0 0.09593,-0.096 0.02394,-0.21581 -0.07201,-0.11984 -0.192379,-0.15039 -0.192379,-0.15039 l 0.05649,-0.24921 0.567349,-1.06287 0.637992,-0.072 c 0,0 0.415605,0.39149 0.942994,0.84705 0.52739,0.45557 1.078719,0.87101 1.078719,0.87101 l 0.567351,0.008 c 0,0 0.13859,-0.10382 0.0639,-0.23976 -0.138929,-0.25307 -0.501088,-0.20063 -0.501088,-0.20063 0,0 -0.175181,-0.21363 -0.464501,-0.6144 -0.304495,-0.42168 -0.454385,-0.73696 -0.454385,-0.73696 0,0 -0.07318,-0.1981 -0.04906,-0.74944 0.02394,-0.55134 0,-0.726 0,-0.726 0,0 0.088,-0.0909 0.23048,-0.19306 0.14247,-0.10218 0.304327,-0.13032 0.321017,-0.13841 h 0.431456 c 1.89e-4,0 0.210246,-0.23369 0.214294,-0.34092 z"
       id="path16618"
       inkscape:connector-curvature="0" />
  </g>
</svg>
