<?xml version="1.0" encoding="UTF-8" standalone="no"?>
<!-- Created with Inkscape (http://www.inkscape.org/) -->

<svg
   xmlns:dc="http://purl.org/dc/elements/1.1/"
   xmlns:cc="http://creativecommons.org/ns#"
   xmlns:rdf="http://www.w3.org/1999/02/22-rdf-syntax-ns#"
   xmlns:svg="http://www.w3.org/2000/svg"
   xmlns="http://www.w3.org/2000/svg"
   xmlns:sodipodi="http://sodipodi.sourceforge.net/DTD/sodipodi-0.dtd"
   xmlns:inkscape="http://www.inkscape.org/namespaces/inkscape"
   width="37.872631mm"
   height="31.852156mm"
   viewBox="0 0 37.872631 31.852156"
   version="1.1"
   id="svg69115"
   inkscape:version="0.92.2 (5c3e80d, 2017-08-06)"
   sodipodi:docname="emiia154.svg">
  <defs
     id="defs69109" />
  <sodipodi:namedview
     id="base"
     pagecolor="#ffffff"
     bordercolor="#666666"
     borderopacity="1.0"
     inkscape:pageopacity="0.0"
     inkscape:pageshadow="2"
     inkscape:zoom="1.979899"
     inkscape:cx="-0.50507979"
     inkscape:cy="46.357598"
     inkscape:document-units="mm"
     inkscape:current-layer="layer1"
     showgrid="false"
     inkscape:window-width="1366"
     inkscape:window-height="745"
     inkscape:window-x="-8"
     inkscape:window-y="-8"
     inkscape:window-maximized="1"
     fit-margin-top="0"
     fit-margin-left="0"
     fit-margin-right="0"
     fit-margin-bottom="0" />
  <metadata
     id="metadata69112">
    <rdf:RDF>
      <cc:Work
         rdf:about="">
        <dc:format>image/svg+xml</dc:format>
        <dc:type
           rdf:resource="http://purl.org/dc/dcmitype/StillImage" />
        <dc:title></dc:title>
      </cc:Work>
    </rdf:RDF>
  </metadata>
  <g
     inkscape:label="Layer 1"
     inkscape:groupmode="layer"
     id="layer1"
     transform="translate(-27.047734,-135.51104)">
    <g
       style="stroke:#3d85c6;stroke-width:1.2894855;stroke-miterlimit:4;stroke-dasharray:none;stroke-opacity:1"
       id="XMLID_3_"
       transform="matrix(0.23265093,0,0,0.23265093,-21.793903,56.235689)">
      <g
         style="stroke:#3d85c6;stroke-width:1.2894855;stroke-miterlimit:4;stroke-dasharray:none;stroke-opacity:1"
         id="g14058" />
      <g
         style="stroke:#3d85c6;stroke-width:1.2894855;stroke-miterlimit:4;stroke-dasharray:none;stroke-opacity:1"
         id="g14070">
        <path
           inkscape:connector-curvature="0"
           id="path14060"
           d="m 364.798,410.574 -2.744,-3.324 v -8.284 c 0,-1.847 -1.319,-3.43 -3.166,-3.746 -4.01,-0.633 -10.711,-1.688 -11.977,-2.163 -1.9,-0.686 -11.714,-6.384 -18.415,-8.337 -6.437,-1.9 -16.251,-3.06 -24.799,-2.902 -8.495,0.105 -16.99,0.844 -23.744,2.322 -6.807,1.477 -31.342,13.402 -31.342,13.402 0,0 -1.741,0.686 -8.284,1.952 -8.178,1.688 -17.465,4.432 -23.427,8.97 -0.844,0.633 -2.111,6.912 -2.269,8.759 -0.369,3.799 3.166,7.651 3.166,7.651 0,0 2.744,0.475 7.967,0.844 -0.211,-0.897 -0.317,-1.847 -0.317,-2.849 0,-7.44 6.015,-13.508 13.508,-13.508 7.44,0 13.508,6.068 13.508,13.508 0,1.214 -0.158,2.427 -0.475,3.535 19.417,-0.106 50.231,-0.686 57.513,-0.58 5.065,0.053 10.342,-0.053 15.513,-0.158 -0.211,-1.003 -0.369,-2.005 -0.369,-3.06 0,-7.493 6.068,-13.508 13.508,-13.508 7.493,0 13.508,6.015 13.508,13.508 0,0.528 0,1.055 -0.106,1.583 3.06,-0.317 5.276,-0.58 6.332,-0.791 1.952,-0.528 3.482,-1.055 4.59,-1.53 1.319,-0.528 2.269,-1.794 2.48,-3.219 l 0.686,-5.171 c 0.158,-1.058 -0.159,-2.06 -0.845,-2.904 z"
           style="fill:none;stroke:#3d85c6;stroke-width:1.2894855;stroke-linejoin:round;stroke-miterlimit:4;stroke-dasharray:none;stroke-opacity:1" />
        <path
           inkscape:connector-curvature="0"
           id="path14062"
           d="m 280.35513,388.61174 c 2.427,-0.475 9.181,-1.161 16.779,-1.477 l -3.43,13.666 -28.44,1.055 v -7.387 c 0,0 10.606,-5.065 15.091,-5.857 z"
           style="fill:none;stroke:#3d85c6;stroke-width:1.2894855;stroke-linejoin:round;stroke-miterlimit:4;stroke-dasharray:none;stroke-opacity:1" />
        <path
           inkscape:connector-curvature="0"
           id="path14064"
           d="m 334.68987,399.91368 -33.083,1.214 2.269,-13.56 c 5.171,-0.106 10.342,0.106 14.563,0.739 6.543,0.95 13.086,4.168 14.457,6.068 1.32,1.899 1.794,5.539 1.794,5.539 z"
           style="fill:none;stroke:#3d85c6;stroke-width:1.2894855;stroke-linejoin:round;stroke-miterlimit:4;stroke-dasharray:none;stroke-opacity:1" />
        <path
           inkscape:connector-curvature="0"
           id="path14066"
           d="m 248.87555,423.14927 c 0,5.62003 -4.51595,10.13504 -10.08558,10.13504 -5.56962,0 -10.13505,-4.51595 -10.13505,-10.13504 0,-5.56961 4.56637,-10.08559 10.13505,-10.08559 5.56963,9.4e-4 10.08558,4.51598 10.08558,10.08559 z"
           style="fill:none;stroke:#3d85c6;stroke-width:1.2894855;stroke-linejoin:round;stroke-miterlimit:4;stroke-dasharray:none;stroke-opacity:1" />
        <path
           inkscape:connector-curvature="0"
           id="path14068"
           d="m 347.89109,422.25244 c 0,5.32327 -4.31614,9.63941 -9.68672,9.63941 -5.32324,0 -9.63945,-4.31614 -9.63945,-9.63941 0,-5.37145 4.31621,-9.68676 9.63945,-9.68676 5.37058,0 9.68672,4.31621 9.68672,9.68676 z"
           style="fill:none;stroke:#3d85c6;stroke-width:1.2894855;stroke-linejoin:round;stroke-miterlimit:4;stroke-dasharray:none;stroke-opacity:1" />
      </g>
    </g>
  </g>
</svg>
