<?xml version="1.0" encoding="UTF-8" standalone="no"?>
<!-- Created with Inkscape (http://www.inkscape.org/) -->

<svg
   xmlns:dc="http://purl.org/dc/elements/1.1/"
   xmlns:cc="http://creativecommons.org/ns#"
   xmlns:rdf="http://www.w3.org/1999/02/22-rdf-syntax-ns#"
   xmlns:svg="http://www.w3.org/2000/svg"
   xmlns="http://www.w3.org/2000/svg"
   xmlns:sodipodi="http://sodipodi.sourceforge.net/DTD/sodipodi-0.dtd"
   xmlns:inkscape="http://www.inkscape.org/namespaces/inkscape"
   width="17.301472mm"
   height="8.8793316mm"
   viewBox="0 0 17.301472 8.8793316"
   version="1.1"
   id="svg48003"
   inkscape:version="0.92.2 (5c3e80d, 2017-08-06)"
   sodipodi:docname="emiia151.svg">
  <defs
     id="defs47997" />
  <sodipodi:namedview
     id="base"
     pagecolor="#ffffff"
     bordercolor="#666666"
     borderopacity="1.0"
     inkscape:pageopacity="0.0"
     inkscape:pageshadow="2"
     inkscape:zoom="3.959798"
     inkscape:cx="44.95328"
     inkscape:cy="39.110429"
     inkscape:document-units="mm"
     inkscape:current-layer="layer1"
     showgrid="false"
     fit-margin-top="0"
     fit-margin-left="0"
     fit-margin-right="0"
     fit-margin-bottom="0"
     inkscape:window-width="1366"
     inkscape:window-height="745"
     inkscape:window-x="-8"
     inkscape:window-y="-8"
     inkscape:window-maximized="1" />
  <metadata
     id="metadata48000">
    <rdf:RDF>
      <cc:Work
         rdf:about="">
        <dc:format>image/svg+xml</dc:format>
        <dc:type
           rdf:resource="http://purl.org/dc/dcmitype/StillImage" />
        <dc:title></dc:title>
      </cc:Work>
    </rdf:RDF>
  </metadata>
  <g
     inkscape:label="Layer 1"
     inkscape:groupmode="layer"
     id="layer1"
     transform="translate(-91.890924,-130.03057)">
    <path
       id="path47882"
       d="m 98.802961,134.15298 c -0.0265,0.014 -0.0474,0.0252 -0.0683,0.0364 -0.21885,0.11478 -0.35406,0.18757 -0.69,0.21557 -0.1603,0.014 -0.31224,0.008 -0.45582,-0.014 -0.14497,-0.0224 -0.28157,-0.063 -0.41539,-0.11758 v 0 0 c -0.10733,-0.0448 -0.2063,-0.0994 -0.29412,-0.15958 -0.39588,-0.27436 -0.598,-0.69571 -0.66631,-1.13525 -0.0683,-0.43813 -0.003,-0.89307 0.1394,-1.23742 0.0432,-0.10219 0.092,-0.19597 0.14636,-0.27576 0.13103,-0.19037 0.31921,-0.36115 0.56315,-0.48293 0.21746,-0.10919 0.47952,-0.17918 0.78479,-0.19177 1.25734,-0.0504 1.91388,1.19542 2.397579,2.1109 0.0711,0.13578 0.13939,0.26596 0.20491,0.38074 0.47394,0.84128 1.10121,1.38721 1.75358,1.66997 0.48648,0.21137 0.98691,0.27437 1.4483,0.20297 0.4614,-0.0714 0.88237,-0.27856 1.21134,-0.60751 0.34988,-0.34995 0.59521,-0.83988 0.67048,-1.4544 0.0739,-0.58931 0.0111,-1.17723 -0.21188,-1.67696 -0.20212,-0.44794 -0.53388,-0.82589 -1.01618,-1.06806 -0.23418,-0.11618 -0.53527,-0.21276 -0.84752,-0.25615 -0.27321,-0.0392 -0.55478,-0.0378 -0.80848,0.0224 -0.24812,0.0588 -0.51855,0.15538 -0.76667,0.28416 -0.21327,0.11199 -0.40982,0.25057 -0.56036,0.41014 -0.10455,0.11339 -0.18958,0.20018 -0.25649,0.26877 -0.11988,0.12178 -0.1826,0.18337 -0.19933,0.23657 -0.0181,0.0546 0.0112,0.10358 0.0739,0.20436 0.0265,0.0434 0.0585,0.0952 0.0934,0.15958 0.0279,0.0476 0.0502,0.091 0.0697,0.12739 0.0474,0.091 0.0781,0.14697 0.10454,0.16657 0.0335,0.0238 0.0669,-0.0126 0.14358,-0.11338 m -2.553699,2.28448 c -0.26067,0.13718 -0.38612,0.21977 -0.75412,0.25196 -0.31921,0.0266 -0.60079,-0.0224 -0.86564,-0.13158 -1.21551,-0.50533 -1.1263,-2.1277 -0.67048,-2.7912 0.24672,-0.35836 0.69557,-0.64532 1.33957,-0.67052 1.23922,-0.0504 1.89437,1.16884 2.373879,2.07872 l 0.001,0.002 c 0.0767,0.14558 0.14916,0.28276 0.21885,0.40594 1.56261,2.77022 4.78819,2.35868 5.10322,-0.19317 0.13939,-1.12405 -0.21188,-2.24389 -1.23503,-2.75483 -0.44188,-0.22117 -1.11655,-0.36674 -1.66298,-0.23656 -0.46278,0.11059 -1.00642,0.34995 -1.33121,0.6985 -0.58266,0.62571 -0.54224,0.42834 -0.28994,0.88188 0.099,0.17777 0.14219,0.27996 0.184,0.30235 0.003,0.002 0.007,0.002 0.01,0.002 0.0335,0.01 0.0711,-0.0308 0.14079,-0.12459 l 0.006,-0.007 v 0 l 0.32897,-0.38914 c 1.09006,-1.13384 2.74607,-0.7279 3.06249,0.53752 0.13661,0.54733 0.0892,1.24163 -0.15612,1.68817 -0.54782,0.99245 -1.81631,0.91687 -2.6917,0.23656 -0.51576,-0.40174 -0.79594,-0.96866 -1.11376,-1.56218 l -0.003,-0.004 c -0.14078,-0.26316 -0.28854,-0.53052 -0.46697,-0.79228 -0.28854,-0.41995 -0.568719,-0.7615 -0.954849,-1.03726 -1.29497,-0.92387 -3.28691,-0.50253 -3.78454,1.19263 -0.15055,0.51233 -0.16588,1.26822 -0.007,1.78055 0.41678,1.35221 1.94872,1.95693 3.16563,1.49219 0.26764,-0.10219 0.42376,-0.22677 0.62449,-0.34295 0.16867,0.0952 0.368,0.41714 0.43212,0.26737 l 0.13243,-0.7853 v -0.002 l 0.001,-0.008 c 0.156119,-0.95746 0.223029,-0.86648 -0.29273,-0.7237 l -0.007,0.002 h -0.003 c -0.13242,0.0364 -0.25927,0.0728 -0.39588,0.11199 -0.14218,0.0406 -0.70254,0.17637 -0.782,0.23377 10e-4,0.13018 0.26764,0.26595 0.34291,0.38914 z m 0.006,0.01 v 0 m 2.548119,-2.29567 v 0 l 0.33594,-0.39615 v 0 0 c 0.30946,-0.32195 0.66491,-0.52072 1.02176,-0.61171 0.30388,-0.0756 0.60776,-0.0742 0.88794,-0.004 0.28018,0.07 0.53528,0.20857 0.73879,0.40595 0.20352,0.19597 0.35546,0.44933 0.43073,0.75309 0.0711,0.27996 0.092,0.59912 0.0641,0.90427 -0.0265,0.29256 -0.10036,0.57112 -0.22164,0.79089 -0.0404,0.0728 -0.0836,0.13999 -0.13103,0.20158 -0.26345,0.34154 -0.63285,0.51232 -1.03151,0.54452 -0.39867,0.0322 -0.828,-0.0742 -1.21412,-0.28977 -0.11431,-0.063 -0.22443,-0.13577 -0.32897,-0.21696 -0.4837,-0.37655 -0.7611,-0.89588 -1.05522,-1.4474 -0.1603,-0.30096 -0.32479,-0.61172 -0.53249,-0.91407 -0.14357,-0.20857 -0.28436,-0.39894 -0.439089,-0.57112 -0.15333,-0.17218 -0.31921,-0.32475 -0.51157,-0.46194 -0.23558,-0.16797 -0.49346,-0.29115 -0.76109,-0.37095 -0.4851,-0.14417 -1.00225,-0.14277 -1.47479,0 -0.47116,0.14419 -0.89631,0.42834 -1.196,0.85389 -0.14358,0.20157 -0.25928,0.43673 -0.33734,0.7027 -0.0767,0.26036 -0.11709,0.58371 -0.11848,0.90567 -0.001,0.31076 0.0335,0.61871 0.11151,0.86928 0.0139,0.0462 0.0293,0.091 0.046,0.13578 0.22861,0.60051 0.68443,1.03865 1.22667,1.28222 0.54224,0.24356 1.17091,0.29256 1.74243,0.11478 0.046,-0.014 0.092,-0.0294 0.1366,-0.0476 0.19237,-0.0728 0.32618,-0.15817 0.46,-0.24356 0.053,-0.0336 0.10594,-0.0672 0.16309,-0.0994 0.003,-0.002 0.007,-0.002 0.01,0 0.0627,0.0364 0.12964,0.10219 0.19237,0.16378 0.0599,0.0602 0.11709,0.11619 0.16169,0.13578 0.0279,0.0112 0.0502,0.007 0.0641,-0.0266 l 0.13103,-0.78249 v 0 c 0.0237,-0.14278 0.0446,-0.26456 0.0627,-0.36535 0.0432,-0.24077 0.0655,-0.36535 0.0446,-0.41715 -0.0195,-0.049 -0.0906,-0.0266 -0.236967,0.0169 -0.0446,0.014 -0.0962,0.0294 -0.15751,0.0462 -0.10873,0.0308 -0.21746,0.0616 -0.33176,0.0938 l -0.0641,0.0182 c -0.0321,0.01 -0.0878,0.0238 -0.15333,0.042 -0.21467,0.056 -0.55061,0.14279 -0.62031,0.18758 0.004,0.07 0.0948,0.14698 0.18261,0.21977 0.0641,0.0546 0.12685,0.10638 0.15891,0.15818 0.003,0.006 10e-4,0.0126 -0.004,0.0154 v 0 m 1.11933,-0.0154 c 10e-4,-0.006 0.007,-0.01 0.0125,-0.008"
       style="fill:#000000;fill-opacity:1;fill-rule:evenodd;stroke:#030000;stroke-width:0.04801813;stroke-miterlimit:4;stroke-dasharray:none;stroke-opacity:1"
       inkscape:connector-curvature="0" />
    <text
       xml:space="preserve"
       style="font-style:normal;font-variant:normal;font-weight:normal;font-stretch:normal;font-size:3.11628819px;line-height:0.5;font-family:Montserrat;-inkscape-font-specification:Montserrat;letter-spacing:0px;word-spacing:0px;fill:#000000;fill-opacity:1;stroke:none;stroke-width:0.06492267"
       x="100.51393"
       y="137.04565"
       id="text47894"><tspan
         sodipodi:role="line"
         x="100.66119"
         y="137.04565"
         id="tspan47910"
         style="font-size:1.1253264px;text-align:center;text-anchor:middle;stroke-width:0.06492267">Ответственное </tspan><tspan
         sodipodi:role="line"
         x="100.51393"
         y="138.69159"
         id="tspan47934"
         style="stroke-width:0.06492267"><tspan
           style="font-size:1.1253264px;text-align:center;text-anchor:middle;stroke-width:0.06492267"
           id="tspan47926">потребление и производство</tspan></tspan></text>
  </g>
</svg>
