<?xml version="1.0" encoding="UTF-8" standalone="no"?>
<!-- Created with Inkscape (http://www.inkscape.org/) -->

<svg
   xmlns:dc="http://purl.org/dc/elements/1.1/"
   xmlns:cc="http://creativecommons.org/ns#"
   xmlns:rdf="http://www.w3.org/1999/02/22-rdf-syntax-ns#"
   xmlns:svg="http://www.w3.org/2000/svg"
   xmlns="http://www.w3.org/2000/svg"
   xmlns:sodipodi="http://sodipodi.sourceforge.net/DTD/sodipodi-0.dtd"
   xmlns:inkscape="http://www.inkscape.org/namespaces/inkscape"
   width="32.87236mm"
   height="31.852156mm"
   viewBox="0 0 32.87236 31.852156"
   version="1.1"
   id="svg68546"
   inkscape:version="0.92.2 (5c3e80d, 2017-08-06)"
   sodipodi:docname="emiia152.svg">
  <defs
     id="defs68540" />
  <sodipodi:namedview
     id="base"
     pagecolor="#ffffff"
     bordercolor="#666666"
     borderopacity="1.0"
     inkscape:pageopacity="0.0"
     inkscape:pageshadow="2"
     inkscape:zoom="0.98994949"
     inkscape:cx="182.22545"
     inkscape:cy="136.76249"
     inkscape:document-units="mm"
     inkscape:current-layer="layer1"
     showgrid="false"
     fit-margin-top="0"
     fit-margin-left="0"
     fit-margin-right="0"
     fit-margin-bottom="0"
     inkscape:window-width="1366"
     inkscape:window-height="745"
     inkscape:window-x="-8"
     inkscape:window-y="-8"
     inkscape:window-maximized="1" />
  <metadata
     id="metadata68543">
    <rdf:RDF>
      <cc:Work
         rdf:about="">
        <dc:format>image/svg+xml</dc:format>
        <dc:type
           rdf:resource="http://purl.org/dc/dcmitype/StillImage" />
        <dc:title></dc:title>
      </cc:Work>
    </rdf:RDF>
  </metadata>
  <g
     inkscape:label="Layer 1"
     inkscape:groupmode="layer"
     id="layer1"
     transform="translate(-46.307871,-91.329879)">
    <circle
       id="circle16510"
       r="1.6416947"
       cy="99.219307"
       cx="62.256676"
       style="fill:none;fill-opacity:1;stroke:#3d85c6;stroke-width:0.52916664;stroke-linecap:round;stroke-linejoin:round;stroke-miterlimit:8.8648653;stroke-dasharray:none;stroke-dashoffset:0;stroke-opacity:1" />
    <path
       inkscape:connector-curvature="0"
       id="path16512"
       d="m 69.149526,114.48565 c 0,0.62197 -0.50283,1.1248 -1.1248,1.1248 -0.39452,0 -0.74111,-0.20164 -0.94275,-0.50928 l -2.71558,-3.47858 -0.64594,-2.86513 -1.90071,1.75553 v 3.97266 h -0.0108 c 0,0.62197 -0.50283,1.1248 -1.12481,1.1248 -0.62197,0 -1.12711,-0.50283 -1.12711,-1.1248 0,-0.0477 0.002,-0.0931 0.0108,-0.13873 h -0.0108 c 0,0 0,-4.63357 0.0823,-4.75732 0.0823,-0.12145 2.60081,-2.60081 2.60081,-2.60081 0,0 -0.22537,-1.1573 -0.37493,-1.95049 l -1.05337,1.46517 -2.94095,0.61759 -0.0152,0.002 -0.0129,0.002 c -0.004,0.002 -0.009,0.002 -0.0129,0.002 -0.0433,0.009 -0.0889,0.0129 -0.13435,0.0129 -0.45743,0 -0.82799,-0.37055 -0.82799,-0.82799 0,-0.38138 0.25787,-0.70216 0.60907,-0.79964 l 2.43397,-0.58303 c 0,0 0.73028,-1.40871 0.98838,-1.91155 0.31202,-0.60676 0.70655,-1.36539 1.80093,-1.67096 0.92317,-0.26017 1.92445,-0.091 2.57477,0.35973 0.63718,0.44222 1.46287,1.14877 2.00465,1.79886 0.52449,0.63073 1.1573,2.3169 1.19624,2.42313 0.002,0.002 0.002,0.004 0.002,0.004 0.0585,0.11269 0.091,0.24266 0.091,0.37932 0,0.4572 -0.37056,0.82799 -0.82799,0.82799 -0.32078,0 -0.59824,-0.18206 -0.73466,-0.44868 l -0.0477,-0.10624 -0.86694,-1.97445 -1.14646,-0.90151 c 0,0.1756 0.70447,2.79807 0.74549,3.16218 0.0389,0.36618 0.72175,4.10055 0.72175,4.10055 l 2.39917,2.70704 0.009,0.009 0.0931,0.10624 c 0.002,0.004 0.007,0.009 0.009,0.0129 0.14334,0.19081 0.22768,0.42471 0.22768,0.67843 z"
       style="fill:none;fill-opacity:1;stroke:#3d85c6;stroke-width:0.52916664;stroke-linecap:round;stroke-linejoin:round;stroke-miterlimit:8.8648653;stroke-dasharray:none;stroke-dashoffset:0;stroke-opacity:1" />
    <path
       inkscape:connector-curvature="0"
       id="path16514"
       d="m 61.739546,104.30802 c -0.004,0.0129 0.0498,0.32515 0.1256,0.73028"
       style="fill:none;fill-opacity:1;stroke:#3d85c6;stroke-width:0.52916664;stroke-linecap:round;stroke-linejoin:round;stroke-miterlimit:8.8648653;stroke-dasharray:none;stroke-dashoffset:0;stroke-opacity:1" />
    <line
       id="line16516"
       y2="103.53856"
       x2="64.728416"
       y1="103.70978"
       x1="64.945061"
       style="fill:none;fill-opacity:1;stroke:#3d85c6;stroke-width:0.52916664;stroke-linecap:round;stroke-linejoin:round;stroke-miterlimit:8.8648653;stroke-dasharray:none;stroke-dashoffset:0;stroke-opacity:1" />
    <path
       inkscape:connector-curvature="0"
       id="path16518"
       d="M 58.240696,106.17532"
       style="fill:none;fill-opacity:1;stroke:#3d85c6;stroke-width:0.52916664;stroke-linecap:round;stroke-linejoin:round;stroke-miterlimit:8.8648653;stroke-dasharray:none;stroke-dashoffset:0;stroke-opacity:1" />
    <polyline
       id="polyline16698"
       points="   76.58,398.758 56.299,398.758 56.299,279.372 76.58,279.372  "
       style="fill:none;fill-opacity:1;stroke:#3d85c6;stroke-width:1;stroke-linecap:round;stroke-linejoin:round;stroke-miterlimit:8.8648653;stroke-dasharray:none;stroke-opacity:1"
       transform="matrix(0.26458333,0,0,0.26458333,31.544386,17.54501)" />
    <polyline
       id="polyline16700"
       points="   160.203,279.372 179.541,279.372 179.541,398.758 160.203,398.758  "
       style="fill:none;fill-opacity:1;stroke:#3d85c6;stroke-width:1;stroke-linecap:round;stroke-linejoin:round;stroke-miterlimit:8.8648653;stroke-dasharray:none;stroke-opacity:1"
       transform="matrix(0.26458333,0,0,0.26458333,31.544386,17.54501)" />
  </g>
</svg>
