<?xml version="1.0" encoding="UTF-8" standalone="no"?>
<!-- Created with Inkscape (http://www.inkscape.org/) -->

<svg
   xmlns:dc="http://purl.org/dc/elements/1.1/"
   xmlns:cc="http://creativecommons.org/ns#"
   xmlns:rdf="http://www.w3.org/1999/02/22-rdf-syntax-ns#"
   xmlns:svg="http://www.w3.org/2000/svg"
   xmlns="http://www.w3.org/2000/svg"
   xmlns:sodipodi="http://sodipodi.sourceforge.net/DTD/sodipodi-0.dtd"
   xmlns:inkscape="http://www.inkscape.org/namespaces/inkscape"
   width="29.80201mm"
   height="4.8028998mm"
   viewBox="0 0 29.80201 4.8028998"
   version="1.1"
   id="svg8"
   inkscape:version="0.92.2 (5c3e80d, 2017-08-06)"
   sodipodi:docname="emiia134.svg">
  <defs
     id="defs2">
    <pattern
       y="0"
       x="0"
       height="6"
       width="6"
       patternUnits="userSpaceOnUse"
       id="EMFhbasepattern" />
    <pattern
       y="0"
       x="0"
       height="6"
       width="6"
       patternUnits="userSpaceOnUse"
       id="EMFhbasepattern-2" />
    <pattern
       y="0"
       x="0"
       height="6"
       width="6"
       patternUnits="userSpaceOnUse"
       id="EMFhbasepattern-0" />
  </defs>
  <sodipodi:namedview
     id="base"
     pagecolor="#ffffff"
     bordercolor="#666666"
     borderopacity="1.0"
     inkscape:pageopacity="0.0"
     inkscape:pageshadow="2"
     inkscape:zoom="3.959798"
     inkscape:cx="90.356739"
     inkscape:cy="-11.122322"
     inkscape:document-units="mm"
     inkscape:current-layer="layer1"
     showgrid="false"
     inkscape:window-width="1366"
     inkscape:window-height="745"
     inkscape:window-x="-8"
     inkscape:window-y="-8"
     inkscape:window-maximized="1"
     fit-margin-top="0"
     fit-margin-left="0"
     fit-margin-right="0"
     fit-margin-bottom="0" />
  <metadata
     id="metadata5">
    <rdf:RDF>
      <cc:Work
         rdf:about="">
        <dc:format>image/svg+xml</dc:format>
        <dc:type
           rdf:resource="http://purl.org/dc/dcmitype/StillImage" />
        <dc:title></dc:title>
      </cc:Work>
    </rdf:RDF>
  </metadata>
  <g
     inkscape:label="Layer 1"
     inkscape:groupmode="layer"
     id="layer1"
     transform="translate(-72.637147,-127.86002)">
    <g
       id="g901">
      <path
         inkscape:connector-curvature="0"
         style="fill:#3682ff;fill-opacity:1;fill-rule:evenodd;stroke:none;stroke-width:0.26458332"
         d="m 101.41425,131.68023 c -0.0599,0.0602 -0.16974,0.0602 -0.22965,0 -0.0699,-0.0702 -0.0699,-0.18048 0,-0.24065 l 0.88866,-0.90242 -0.88866,-0.90242 c -0.0699,-0.0602 -0.0699,-0.17046 0,-0.24065 0.0599,-0.0602 0.16974,-0.0602 0.22965,0 l 0.9286,0.93251 c 0.0499,0.0602 0.0799,0.13035 0.0799,0.21056 0,0.0802 -0.03,0.16043 -0.0799,0.22059 z"
         id="path850" />
      <g
         id="text869"
         style="font-style:normal;font-variant:normal;font-weight:normal;font-stretch:normal;font-size:12.69999981px;line-height:1.25;font-family:Arial;-inkscape-font-specification:Arial;letter-spacing:0px;word-spacing:0px;fill:#3682ff;fill-opacity:1;stroke:none;stroke-width:0.26458332"
         aria-label="Предзаказ">
        <path
           id="path871"
           style="font-style:normal;font-variant:normal;font-weight:normal;font-stretch:normal;font-size:4.93888903px;font-family:Montserrat;-inkscape-font-specification:Montserrat;fill:#3682ff;fill-opacity:1;stroke-width:0.26458332"
           d="m 72.807147,128.27026 v 3.45722 h 0.360538 v -3.14114 h 2.187928 v 3.14114 h 0.360539 v -3.45722 z" />
        <path
           id="path873"
           style="font-style:normal;font-variant:normal;font-weight:normal;font-stretch:normal;font-size:4.93888903px;font-family:Montserrat;-inkscape-font-specification:Montserrat;fill:#3682ff;fill-opacity:1;stroke-width:0.26458332"
           d="m 78.132349,129.10987 c -0.429683,0 -0.790222,0.18767 -1.002594,0.5334 v -0.51365 H 76.79391 v 3.556 h 0.350661 v -1.44709 c 0.217312,0.33584 0.572912,0.51364 0.987778,0.51364 0.740834,0 1.293989,-0.5334 1.293989,-1.32362 0,-0.78528 -0.553155,-1.31868 -1.293989,-1.31868 z m -0.02469,2.33115 c -0.553156,0 -0.968022,-0.40499 -0.968022,-1.01247 0,-0.60254 0.414866,-1.01247 0.968022,-1.01247 0.548217,0 0.968022,0.40993 0.968022,1.01247 0,0.60748 -0.419805,1.01247 -0.968022,1.01247 z" />
        <path
           id="path875"
           style="font-style:normal;font-variant:normal;font-weight:normal;font-stretch:normal;font-size:4.93888903px;font-family:Montserrat;-inkscape-font-specification:Montserrat;fill:#3682ff;fill-opacity:1;stroke-width:0.26458332"
           d="m 82.456578,130.42855 c 0,-0.78034 -0.528461,-1.31868 -1.259417,-1.31868 -0.730955,0 -1.269294,0.54821 -1.269294,1.31868 0,0.77047 0.553156,1.32362 1.363133,1.32362 0.409928,0 0.770467,-0.14816 1.002595,-0.42474 l -0.197556,-0.22719 c -0.197555,0.22719 -0.479072,0.34078 -0.795161,0.34078 -0.567972,0 -0.982839,-0.36054 -1.02235,-0.90381 h 2.173111 c 0,-0.0395 0.0049,-0.079 0.0049,-0.10866 z m -1.259417,-1.01741 c 0.508706,0 0.879123,0.3556 0.923573,0.8643 h -1.842206 c 0.04445,-0.5087 0.414867,-0.8643 0.918633,-0.8643 z" />
        <path
           id="path877"
           style="font-style:normal;font-variant:normal;font-weight:normal;font-stretch:normal;font-size:4.93888903px;font-family:Montserrat;-inkscape-font-specification:Montserrat;fill:#3682ff;fill-opacity:1;stroke-width:0.26458332"
           d="m 85.298755,131.42127 v -2.29165 h -1.916289 l -0.03457,0.86925 c -0.03457,0.70132 -0.09878,1.3977 -0.484011,1.4224 h -0.148166 v 0.93345 h 0.330905 v -0.62724 h 2.326217 v 0.62724 h 0.330905 v -0.93345 z m -1.629834,-1.40265 0.02963,-0.57785 h 1.249538 v 1.9805 h -1.619955 c 0.261761,-0.19756 0.316089,-0.80998 0.340783,-1.40265 z" />
        <path
           id="path879"
           style="font-style:normal;font-variant:normal;font-weight:normal;font-stretch:normal;font-size:4.93888903px;font-family:Montserrat;-inkscape-font-specification:Montserrat;fill:#3682ff;fill-opacity:1;stroke-width:0.26458332"
           d="m 87.588778,130.37422 c 0.301273,-0.0988 0.503767,-0.30621 0.503767,-0.57785 0,-0.42474 -0.454378,-0.69638 -1.047045,-0.69638 -0.316088,0 -0.642055,0.0741 -0.963083,0.242 l 0.09878,0.27164 c 0.276578,-0.14322 0.563033,-0.21237 0.829733,-0.21237 0.414867,0 0.721078,0.15805 0.721078,0.4445 0,0.25682 -0.2667,0.40993 -0.646994,0.40993 h -0.424745 v 0.25682 h 0.4445 c 0.434622,0 0.701322,0.16298 0.701322,0.43956 0,0.31609 -0.350661,0.50377 -0.819855,0.50377 -0.316089,0 -0.651934,-0.0988 -0.893939,-0.28152 l -0.118533,0.26176 c 0.276577,0.21238 0.656872,0.32103 1.027288,0.32103 0.646995,0 1.165578,-0.30621 1.165578,-0.7754 0,-0.30622 -0.212372,-0.52353 -0.57785,-0.60749 z" />
        <path
           id="path881"
           style="font-style:normal;font-variant:normal;font-weight:normal;font-stretch:normal;font-size:4.93888903px;font-family:Montserrat;-inkscape-font-specification:Montserrat;fill:#3682ff;fill-opacity:1;stroke-width:0.26458332"
           d="m 89.851793,129.10987 c -0.409928,0 -0.795161,0.12841 -1.056922,0.35066 l 0.158044,0.26176 c 0.212372,-0.18768 0.528461,-0.30621 0.864306,-0.30621 0.484011,0 0.735894,0.242 0.735894,0.6865 v 0.15805 h -0.824794 c -0.745772,0 -1.002595,0.33584 -1.002595,0.73589 0,0.44944 0.360539,0.75565 0.948267,0.75565 0.429683,0 0.735895,-0.16298 0.893939,-0.42968 v 0.40499 h 0.335844 v -1.61008 c 0,-0.67169 -0.380294,-1.00753 -1.051983,-1.00753 z m -0.123472,2.36572 c -0.414867,0 -0.656872,-0.18767 -0.656872,-0.48895 0,-0.2667 0.162983,-0.46425 0.66675,-0.46425 h 0.814916 v 0.42474 c -0.138289,0.34079 -0.429683,0.52846 -0.824794,0.52846 z" />
        <path
           id="path883"
           style="font-style:normal;font-variant:normal;font-weight:normal;font-stretch:normal;font-size:4.93888903px;font-family:Montserrat;-inkscape-font-specification:Montserrat;fill:#3682ff;fill-opacity:1;stroke-width:0.26458332"
           d="m 93.74356,131.72748 h 0.414867 l -1.096434,-1.33844 1.02235,-1.25942 h -0.380294 l -0.913695,1.14089 h -0.597605 v -1.14089 h -0.350661 v 2.59786 h 0.350661 v -1.1557 h 0.592666 z" />
        <path
           id="path885"
           style="font-style:normal;font-variant:normal;font-weight:normal;font-stretch:normal;font-size:4.93888903px;font-family:Montserrat;-inkscape-font-specification:Montserrat;fill:#3682ff;fill-opacity:1;stroke-width:0.26458332"
           d="m 95.552736,129.10987 c -0.409928,0 -0.795161,0.12841 -1.056922,0.35066 l 0.158044,0.26176 c 0.212372,-0.18768 0.528461,-0.30621 0.864306,-0.30621 0.484011,0 0.735894,0.242 0.735894,0.6865 v 0.15805 h -0.824794 c -0.745772,0 -1.002595,0.33584 -1.002595,0.73589 0,0.44944 0.360539,0.75565 0.948267,0.75565 0.429683,0 0.735894,-0.16298 0.893939,-0.42968 v 0.40499 h 0.335844 v -1.61008 c 0,-0.67169 -0.380294,-1.00753 -1.051983,-1.00753 z m -0.123472,2.36572 c -0.414867,0 -0.656872,-0.18767 -0.656872,-0.48895 0,-0.2667 0.162983,-0.46425 0.66675,-0.46425 h 0.814916 v 0.42474 c -0.138289,0.34079 -0.429683,0.52846 -0.824794,0.52846 z" />
        <path
           id="path887"
           style="font-style:normal;font-variant:normal;font-weight:normal;font-stretch:normal;font-size:4.93888903px;font-family:Montserrat;-inkscape-font-specification:Montserrat;fill:#3682ff;fill-opacity:1;stroke-width:0.26458332"
           d="m 98.74951,130.37422 c 0.301272,-0.0988 0.503766,-0.30621 0.503766,-0.57785 0,-0.42474 -0.454378,-0.69638 -1.047044,-0.69638 -0.316089,0 -0.642056,0.0741 -0.963084,0.242 l 0.09878,0.27164 c 0.276578,-0.14322 0.563034,-0.21237 0.829734,-0.21237 0.414866,0 0.721077,0.15805 0.721077,0.4445 0,0.25682 -0.2667,0.40993 -0.646994,0.40993 h -0.424745 v 0.25682 h 0.4445 c 0.434623,0 0.701323,0.16298 0.701323,0.43956 0,0.31609 -0.350661,0.50377 -0.819856,0.50377 -0.316089,0 -0.651933,-0.0988 -0.893939,-0.28152 l -0.118533,0.26176 c 0.276578,0.21238 0.656872,0.32103 1.027289,0.32103 0.646994,0 1.165578,-0.30621 1.165578,-0.7754 0,-0.30622 -0.212373,-0.52353 -0.57785,-0.60749 z" />
      </g>
    </g>
  </g>
</svg>
