<?xml version="1.0" encoding="UTF-8" standalone="no"?>
<!-- Generator: Adobe Illustrator 21.1.0, SVG Export Plug-In . SVG Version: 6.00 Build 0)  -->

<svg
   xmlns:dc="http://purl.org/dc/elements/1.1/"
   xmlns:cc="http://creativecommons.org/ns#"
   xmlns:rdf="http://www.w3.org/1999/02/22-rdf-syntax-ns#"
   xmlns:svg="http://www.w3.org/2000/svg"
   xmlns="http://www.w3.org/2000/svg"
   xmlns:sodipodi="http://sodipodi.sourceforge.net/DTD/sodipodi-0.dtd"
   xmlns:inkscape="http://www.inkscape.org/namespaces/inkscape"
   version="1.1"
   id="Layer_1"
   x="0px"
   y="0px"
   viewBox="0 0 458.62898 284.14608"
   xml:space="preserve"
   sodipodi:docname="emiia126.svg"
   width="458.629"
   height="284.14609"
   inkscape:version="0.92.2 (5c3e80d, 2017-08-06)"><metadata
     id="metadata16727"><rdf:RDF><cc:Work
         rdf:about=""><dc:format>image/svg+xml</dc:format><dc:type
           rdf:resource="http://purl.org/dc/dcmitype/StillImage" /><dc:title></dc:title></cc:Work></rdf:RDF></metadata><defs
     id="defs16725" /><sodipodi:namedview
     pagecolor="#ffffff"
     bordercolor="#666666"
     borderopacity="1"
     objecttolerance="10"
     gridtolerance="10"
     guidetolerance="10"
     inkscape:pageopacity="0"
     inkscape:pageshadow="2"
     inkscape:window-width="1366"
     inkscape:window-height="745"
     id="namedview16723"
     showgrid="false"
     fit-margin-top="0"
     fit-margin-left="0"
     fit-margin-right="0"
     fit-margin-bottom="0"
     inkscape:zoom="1.1212866"
     inkscape:cx="241.84101"
     inkscape:cy="142.07304"
     inkscape:window-x="-8"
     inkscape:window-y="-8"
     inkscape:window-maximized="1"
     inkscape:current-layer="Layer_1" /><circle
     id="circle16510"
     r="7.1240001"
     cy="28.191038"
     cx="59.857998"
     style="fill:none;stroke:#ffffff;stroke-width:2;stroke-linecap:round;stroke-linejoin:round;stroke-miterlimit:8.8648653;stroke-dasharray:2, 4;stroke-dashoffset:0;stroke-opacity:1" /><path
     inkscape:connector-curvature="0"
     id="path16512"
     d="m 89.769,94.43805 c 0,2.699 -2.182,4.881 -4.881,4.881 -1.712,0 -3.216,-0.875 -4.091,-2.21 l -11.784,-15.095 -2.803,-12.433 -8.248,7.618 v 17.239 h -0.047 c 0,2.699 -2.182,4.881 -4.881,4.881 -2.699,0 -4.891,-2.182 -4.891,-4.881 0,-0.207 0.009,-0.404 0.047,-0.602 h -0.047 c 0,0 0,-20.107 0.357,-20.644 0.357,-0.527 11.286,-11.286 11.286,-11.286 0,0 -0.978,-5.022 -1.627,-8.464 l -4.571,6.358 -12.762,2.68 -0.066,0.009 -0.056,0.009 c -0.019,0.009 -0.038,0.009 -0.056,0.009 -0.188,0.038 -0.386,0.056 -0.583,0.056 -1.985,0 -3.593,-1.608 -3.593,-3.593 0,-1.655 1.119,-3.047 2.643,-3.47 l 10.562,-2.53 c 0,0 3.169,-6.113 4.289,-8.295 1.354,-2.633 3.066,-5.925 7.815,-7.251 4.006,-1.129 8.351,-0.395 11.173,1.561 2.765,1.919 6.348,4.985 8.699,7.806 2.276,2.737 5.022,10.054 5.191,10.515 0.009,0.009 0.009,0.019 0.009,0.019 0.254,0.489 0.395,1.053 0.395,1.646 0,1.984 -1.608,3.593 -3.593,3.593 -1.392,0 -2.596,-0.79 -3.188,-1.947 l -0.207,-0.461 -3.762,-8.568 -4.975,-3.912 c 0,0.762 3.057,12.142 3.235,13.722 0.169,1.589 3.132,17.794 3.132,17.794 l 10.411,11.747 0.038,0.038 0.404,0.461 c 0.009,0.019 0.028,0.038 0.038,0.056 0.622,0.828 0.988,1.843 0.988,2.944 z"
     style="fill:none;stroke:#ffffff;stroke-width:2;stroke-linecap:round;stroke-linejoin:round;stroke-miterlimit:8.8648653;stroke-dasharray:2, 4;stroke-dashoffset:0;stroke-opacity:1" /><path
     inkscape:connector-curvature="0"
     id="path16514"
     d="m 57.614,50.27305 c -0.019,0.056 0.216,1.411 0.545,3.169"
     style="fill:none;stroke:#ffffff;stroke-width:2;stroke-linecap:round;stroke-linejoin:round;stroke-miterlimit:8.8648653;stroke-dasharray:2, 4;stroke-dashoffset:0;stroke-opacity:1" /><line
     id="line16516"
     y2="46.934052"
     x2="70.584"
     y1="47.677063"
     x1="71.523994"
     style="fill:none;stroke:#ffffff;stroke-width:2;stroke-linecap:round;stroke-linejoin:round;stroke-miterlimit:8.8648653;stroke-dasharray:2, 4;stroke-dashoffset:0;stroke-opacity:1" /><path
     inkscape:connector-curvature="0"
     id="path16518"
     d="M 42.431,58.37605"
     style="fill:none;stroke:#ffffff;stroke-width:2;stroke-linecap:round;stroke-linejoin:round;stroke-miterlimit:8.8648653;stroke-dasharray:2, 4;stroke-dashoffset:0;stroke-opacity:1" /><g
     id="g16532"
     style="stroke:#ffffff;stroke-width:2;stroke-miterlimit:8.8648653;stroke-dasharray:2, 4;stroke-dashoffset:0;stroke-opacity:1"
     transform="translate(-55.799,-278.87195)"><circle
       id="circle16522"
       r="5.6009998"
       cy="320.59"
       cx="468.70499"
       style="fill:none;stroke:#ffffff;stroke-width:2;stroke-linecap:round;stroke-linejoin:round;stroke-miterlimit:8.8648653;stroke-dasharray:2, 4;stroke-dashoffset:0;stroke-opacity:1" /><path
       inkscape:connector-curvature="0"
       id="path16524"
       d="m 492.219,372.668 c 0,2.122 -1.715,3.837 -3.837,3.837 -1.346,0 -2.528,-0.688 -3.216,-1.737 l -9.264,-11.866 -2.203,-9.774 -6.484,5.989 v 13.552 h -0.037 c 0,2.122 -1.715,3.837 -3.837,3.837 -2.122,0 -3.845,-1.715 -3.845,-3.837 0,-0.163 0.007,-0.318 0.037,-0.473 h -0.037 c 0,0 0,-15.807 0.281,-16.228 0.281,-0.414 8.872,-8.872 8.872,-8.872 0,0 -0.769,-3.948 -1.279,-6.654 l -3.593,4.998 -10.033,2.107 -0.052,0.007 -0.044,0.007 c -0.015,0.007 -0.03,0.007 -0.044,0.007 -0.148,0.03 -0.303,0.044 -0.458,0.044 -1.56,0 -2.824,-1.264 -2.824,-2.824 0,-1.301 0.88,-2.395 2.078,-2.728 l 8.303,-1.989 c 0,0 2.492,-4.806 3.371,-6.521 1.065,-2.07 2.41,-4.658 6.144,-5.7 3.15,-0.887 6.565,-0.311 8.783,1.227 2.174,1.508 4.991,3.918 6.839,6.136 1.789,2.151 3.948,7.904 4.081,8.266 0.007,0.007 0.007,0.015 0.007,0.015 0.2,0.384 0.31,0.828 0.31,1.294 0,1.56 -1.264,2.824 -2.824,2.824 -1.094,0 -2.041,-0.621 -2.506,-1.53 l -0.163,-0.362 -2.957,-6.735 -3.911,-3.076 c 0,0.599 2.403,9.545 2.543,10.787 0.133,1.249 2.462,13.988 2.462,13.988 l 8.185,9.234 0.03,0.03 0.318,0.362 c 0.007,0.015 0.022,0.03 0.03,0.044 0.486,0.65 0.774,1.449 0.774,2.314 z"
       style="fill:none;stroke:#ffffff;stroke-width:2;stroke-linecap:round;stroke-linejoin:round;stroke-miterlimit:8.8648653;stroke-dasharray:2, 4;stroke-dashoffset:0;stroke-opacity:1" /><path
       inkscape:connector-curvature="0"
       id="path16526"
       d="m 466.941,337.949 c -0.015,0.044 0.17,1.109 0.429,2.492"
       style="fill:none;stroke:#ffffff;stroke-width:2;stroke-linecap:round;stroke-linejoin:round;stroke-miterlimit:8.8648653;stroke-dasharray:2, 4;stroke-dashoffset:0;stroke-opacity:1" /><line
       id="line16528"
       y2="335.32401"
       x2="477.13699"
       y1="335.90799"
       x1="477.87601"
       style="fill:none;stroke:#ffffff;stroke-width:2;stroke-linecap:round;stroke-linejoin:round;stroke-miterlimit:8.8648653;stroke-dasharray:2, 4;stroke-dashoffset:0;stroke-opacity:1" /><path
       inkscape:connector-curvature="0"
       id="path16530"
       d="M 455.005,344.319"
       style="fill:none;stroke:#ffffff;stroke-width:2;stroke-linecap:round;stroke-linejoin:round;stroke-miterlimit:8.8648653;stroke-dasharray:2, 4;stroke-dashoffset:0;stroke-opacity:1" /></g><g
     id="g16572"
     style="stroke:#ffffff;stroke-width:0.82999998;stroke-miterlimit:8.8648653;stroke-dasharray:none;stroke-opacity:1"
     transform="translate(-55.799,-278.87195)"><rect
       id="rect16534"
       height="5.7600002"
       width="16"
       style="fill:none;stroke:#ffffff;stroke-width:0.82999998;stroke-linecap:round;stroke-linejoin:round;stroke-miterlimit:8.8648653;stroke-dasharray:none;stroke-opacity:1"
       y="301.625"
       x="421.728" /><rect
       id="rect16536"
       height="5.7600002"
       width="8"
       style="fill:none;stroke:#ffffff;stroke-width:0.82999998;stroke-linecap:round;stroke-linejoin:round;stroke-miterlimit:8.8648653;stroke-dasharray:none;stroke-opacity:1"
       y="307.38501"
       x="421.728" /><rect
       id="rect16538"
       height="5.7600002"
       width="8"
       style="fill:none;stroke:#ffffff;stroke-width:0.82999998;stroke-linecap:round;stroke-linejoin:round;stroke-miterlimit:8.8648653;stroke-dasharray:none;stroke-opacity:1"
       y="307.38501"
       x="429.728" /><rect
       id="rect16540"
       height="5.7600002"
       width="16"
       style="fill:none;stroke:#ffffff;stroke-width:0.82999998;stroke-linecap:round;stroke-linejoin:round;stroke-miterlimit:8.8648653;stroke-dasharray:none;stroke-opacity:1"
       y="313.14499"
       x="421.728" /><rect
       id="rect16542"
       height="5.7600002"
       width="8"
       style="fill:none;stroke:#ffffff;stroke-width:0.82999998;stroke-linecap:round;stroke-linejoin:round;stroke-miterlimit:8.8648653;stroke-dasharray:none;stroke-opacity:1"
       y="318.905"
       x="421.728" /><rect
       id="rect16544"
       height="5.7600002"
       width="8"
       style="fill:none;stroke:#ffffff;stroke-width:0.82999998;stroke-linecap:round;stroke-linejoin:round;stroke-miterlimit:8.8648653;stroke-dasharray:none;stroke-opacity:1"
       y="318.905"
       x="429.728" /><rect
       id="rect16546"
       height="5.7600002"
       width="16"
       style="fill:none;stroke:#ffffff;stroke-width:0.82999998;stroke-linecap:round;stroke-linejoin:round;stroke-miterlimit:8.8648653;stroke-dasharray:none;stroke-opacity:1"
       y="324.66501"
       x="421.728" /><rect
       id="rect16548"
       height="5.7600002"
       width="8"
       style="fill:none;stroke:#ffffff;stroke-width:0.82999998;stroke-linecap:round;stroke-linejoin:round;stroke-miterlimit:8.8648653;stroke-dasharray:none;stroke-opacity:1"
       y="330.42499"
       x="421.728" /><rect
       id="rect16550"
       height="5.7600002"
       width="8"
       style="fill:none;stroke:#ffffff;stroke-width:0.82999998;stroke-linecap:round;stroke-linejoin:round;stroke-miterlimit:8.8648653;stroke-dasharray:none;stroke-opacity:1"
       y="330.42499"
       x="429.728" /><rect
       id="rect16552"
       height="5.7600002"
       width="16"
       style="fill:none;stroke:#ffffff;stroke-width:0.82999998;stroke-linecap:round;stroke-linejoin:round;stroke-miterlimit:8.8648653;stroke-dasharray:none;stroke-opacity:1"
       y="336.185"
       x="421.728" /><rect
       id="rect16554"
       height="5.7600002"
       width="8"
       style="fill:none;stroke:#ffffff;stroke-width:0.82999998;stroke-linecap:round;stroke-linejoin:round;stroke-miterlimit:8.8648653;stroke-dasharray:none;stroke-opacity:1"
       y="341.94501"
       x="421.728" /><rect
       id="rect16556"
       height="5.7600002"
       width="8"
       style="fill:none;stroke:#ffffff;stroke-width:0.82999998;stroke-linecap:round;stroke-linejoin:round;stroke-miterlimit:8.8648653;stroke-dasharray:none;stroke-opacity:1"
       y="341.94501"
       x="429.728" /><rect
       id="rect16558"
       height="5.7600002"
       width="16"
       style="fill:none;stroke:#ffffff;stroke-width:0.82999998;stroke-linecap:round;stroke-linejoin:round;stroke-miterlimit:8.8648653;stroke-dasharray:none;stroke-opacity:1"
       y="347.70499"
       x="421.728" /><rect
       id="rect16560"
       height="5.7600002"
       width="8"
       style="fill:none;stroke:#ffffff;stroke-width:0.82999998;stroke-linecap:round;stroke-linejoin:round;stroke-miterlimit:8.8648653;stroke-dasharray:none;stroke-opacity:1"
       y="353.465"
       x="421.728" /><rect
       id="rect16562"
       height="5.7600002"
       width="8"
       style="fill:none;stroke:#ffffff;stroke-width:0.82999998;stroke-linecap:round;stroke-linejoin:round;stroke-miterlimit:8.8648653;stroke-dasharray:none;stroke-opacity:1"
       y="353.465"
       x="429.728" /><rect
       id="rect16564"
       height="5.7600002"
       width="16"
       style="fill:none;stroke:#ffffff;stroke-width:0.82999998;stroke-linecap:round;stroke-linejoin:round;stroke-miterlimit:8.8648653;stroke-dasharray:none;stroke-opacity:1"
       y="359.22501"
       x="421.728" /><rect
       id="rect16566"
       height="5.7600002"
       width="8"
       style="fill:none;stroke:#ffffff;stroke-width:0.82999998;stroke-linecap:round;stroke-linejoin:round;stroke-miterlimit:8.8648653;stroke-dasharray:none;stroke-opacity:1"
       y="364.98499"
       x="421.728" /><rect
       id="rect16568"
       height="5.7600002"
       width="8"
       style="fill:none;stroke:#ffffff;stroke-width:0.82999998;stroke-linecap:round;stroke-linejoin:round;stroke-miterlimit:8.8648653;stroke-dasharray:none;stroke-opacity:1"
       y="364.98499"
       x="429.728" /><rect
       id="rect16570"
       height="5.7600002"
       width="16"
       style="fill:none;stroke:#ffffff;stroke-width:0.82999998;stroke-linecap:round;stroke-linejoin:round;stroke-miterlimit:8.8648653;stroke-dasharray:none;stroke-opacity:1"
       y="370.745"
       x="421.728" /></g><path
     inkscape:connector-curvature="0"
     id="path16576"
     d="m 63.811,186.17305 v 6.31"
     style="fill:#ffffff;stroke:#ffffff;stroke-width:2;stroke-linecap:round;stroke-miterlimit:8.8648653;stroke-dasharray:2, 4;stroke-dashoffset:0;stroke-opacity:1" /><line
     id="line16578"
     y2="186.17307"
     x2="53.550999"
     y1="192.40305"
     x1="53.550999"
     style="fill:#ffffff;stroke:#ffffff;stroke-width:2;stroke-linecap:round;stroke-miterlimit:8.8648653;stroke-dasharray:2, 4;stroke-dashoffset:0;stroke-opacity:1" /><g
     id="g16586"
     style="stroke:#ffffff;stroke-width:2;stroke-miterlimit:8.8648653;stroke-dasharray:2, 4;stroke-dashoffset:0;stroke-opacity:1"
     transform="translate(-55.799,-278.87195)"><path
       inkscape:connector-curvature="0"
       id="path16580"
       d="m 122.46,472.665 c 0.53,-0.25 1.13,-0.39 1.77,-0.39 0.21,0 0.42,0.02 0.64,0.05 2.07,0.29 3.55,1.93 3.31,3.67 l -1.9,13.49 c -0.02,0.15 -0.06,0.3 -0.1,0.44"
       style="fill:none;stroke:#ffffff;stroke-width:2;stroke-linecap:round;stroke-miterlimit:8.8648653;stroke-dasharray:2, 4;stroke-dashoffset:0;stroke-opacity:1" /><path
       inkscape:connector-curvature="0"
       id="path16582"
       d="m 134.22,499.995 c 0,0.45 -0.1,0.92 -0.31,1.37 -0.21,0.47 -0.53,0.91 -0.95,1.29 -0.29,0.25 -0.59,0.45 -0.91,0.61 -1.26,0.61 -2.71,0.44 -3.56,-0.51 l -5.32,-5.98 c 0.15,-0.46 0.24,-0.94 0.27,-1.45 l 0.19,-3.27 v -0.01 l 0.22,-3.89 c 0.57,0.11 1.09,0.38 1.48,0.82 l 0.85,0.95 7.39,8.31 c 0.44,0.49 0.65,1.11 0.65,1.76 z"
       style="fill:none;stroke:#ffffff;stroke-width:2;stroke-linecap:round;stroke-miterlimit:8.8648653;stroke-dasharray:2, 4;stroke-dashoffset:0;stroke-opacity:1" /><path
       inkscape:connector-curvature="0"
       id="path16584"
       d="m 133.91,501.365 c 0.19,-0.08 0.38,-0.15 0.59,-0.2 1.94,-0.48 3.91,0.7 4.4,2.64 0.49,1.95 -0.69,3.92 -2.64,4.41 -1.94,0.48 -3.91,-0.7 -4.4,-2.64 -0.2,-0.8 -0.12,-1.61 0.19,-2.31"
       style="fill:none;stroke:#ffffff;stroke-width:2;stroke-linecap:round;stroke-miterlimit:8.8648653;stroke-dasharray:2, 4;stroke-dashoffset:0;stroke-opacity:1" /></g><path
     inkscape:connector-curvature="0"
     id="path16588"
     d="m 68.031,266.21305 h 3.58 c 0.61,0 1.15,0.25 1.55,0.64 0.4,0.4 0.64,0.95 0.64,1.56 0,1.21 -0.98,2.19 -2.19,2.19 h -9.42 c -0.61,0 -1.15,-0.24 -1.55,-0.64 -0.4,-0.4 -0.65,-0.94 -0.65,-1.55 0,-1.22 0.99,-2.2 2.2,-2.2 h 0.5"
     style="fill:none;stroke:#ffffff;stroke-width:2;stroke-linecap:round;stroke-miterlimit:8.8648653;stroke-dasharray:2, 4;stroke-dashoffset:0;stroke-opacity:1" /><path
     inkscape:connector-curvature="0"
     id="path16590"
     d="m 76.531,247.63305 c 0.08,0.7 -0.03,1.43 -0.35,2.12 l -7.26,15.26 c -0.22,0.47 -0.53,0.88 -0.89,1.2 -0.72,0.68 -1.68,1.05 -2.67,1.05 -0.57,0 -1.14,-0.12 -1.69,-0.38 -0.37,-0.18 -0.7,-0.4 -0.98,-0.67 -1.23,-1.14 -1.65,-2.99 -0.89,-4.58 l 6.35,-13.35"
     style="fill:none;stroke:#ffffff;stroke-width:2;stroke-linecap:round;stroke-miterlimit:8.8648653;stroke-dasharray:2, 4;stroke-dashoffset:0;stroke-opacity:1" /><g
     id="g16594"
     style="stroke:#ffffff;stroke-width:2;stroke-miterlimit:8.8648653;stroke-dasharray:2, 4;stroke-dashoffset:0;stroke-opacity:1"
     transform="translate(-55.799,-278.87195)"><path
       inkscape:connector-curvature="0"
       id="path16592"
       d="m 121.55,502.985 c 1.17,0.39 2.17,1.25 2.71,2.46 l 7.9,17.82 c 0.26,0.6 0.39,1.22 0.39,1.84 0,0.48 -0.08,0.95 -0.22,1.4 -0.39,1.19 -1.26,2.22 -2.49,2.76 -2.22,0.99 -4.81,0.04 -5.89,-2.11 -0.03,-0.07 -0.07,-0.14 -0.1,-0.21 l -5.2,-11.74"
       style="fill:none;stroke:#ffffff;stroke-width:2;stroke-linecap:round;stroke-miterlimit:8.8648653;stroke-dasharray:2, 4;stroke-dashoffset:0;stroke-opacity:1" /></g><path
     inkscape:connector-curvature="0"
     id="path16596"
     d="m 51.981,266.21305 h 3.94 c 0.6,0 1.15,0.25 1.55,0.64 0.39,0.4 0.64,0.95 0.64,1.56 0,1.21 -0.98,2.19 -2.19,2.19 h -9.42 c -0.6,0 -1.16,-0.24 -1.55,-0.64 -0.4,-0.4 -0.65,-0.94 -0.65,-1.55 0,-1.22 0.99,-2.2 2.2,-2.2 h 0.15"
     style="fill:none;stroke:#ffffff;stroke-width:2;stroke-linecap:round;stroke-miterlimit:8.8648653;stroke-dasharray:2, 4;stroke-dashoffset:0;stroke-opacity:1" /><path
     inkscape:connector-curvature="0"
     id="path16598"
     d="m 60.661,223.36305 h 2.81 c 0.86,0 1.64,0.28 2.28,0.75 1.05,0.76 1.7,2.04 1.58,3.45 l -0.44,5.22 c -0.17,2 -1.85,3.55 -3.86,3.55 h -6.31"
     style="fill:none;stroke:#ffffff;stroke-width:2;stroke-linecap:round;stroke-miterlimit:8.8648653;stroke-dasharray:2, 4;stroke-dashoffset:0;stroke-opacity:1" /><path
     inkscape:connector-curvature="0"
     id="path16600"
     d="m 48.871,193.65305 c 0.98,-0.78 2.23,-1.25 3.59,-1.25 h 10.45 c 0.31,0 0.61,0.02 0.9,0.08 1.08,0.16 2.06,0.63 2.85,1.31 1.32,1.12 2.12,2.83 2.01,4.71 l -0.62,10.78 -0.22,3.89 v 0.01 l -0.19,3.27 c -0.03,0.51 -0.12,0.99 -0.27,1.45 -0.75,2.32 -2.94,3.99 -5.49,3.99 h -3.28 c -0.58,-0.16 -1.21,-0.18 -1.84,-0.02 -0.02,0.01 -0.05,0.01 -0.07,0.02 h -0.45"
     style="fill:none;stroke:#ffffff;stroke-width:2;stroke-linecap:round;stroke-miterlimit:8.8648653;stroke-dasharray:2, 4;stroke-dashoffset:0;stroke-opacity:1" /><path
     inkscape:connector-curvature="0"
     id="path16602"
     d="m 60.481,247.58305 c 0.09,0.72 -0.02,1.47 -0.35,2.17 l -7.25,15.26 c -0.23,0.47 -0.54,0.88 -0.9,1.2 -0.73,0.68 -1.68,1.05 -2.66,1.05 -0.57,0 -1.15,-0.12 -1.69,-0.38 -0.37,-0.18 -0.7,-0.4 -0.98,-0.67 -1.24,-1.14 -1.65,-2.99 -0.89,-4.58 l 6.33,-13.33"
     style="fill:none;stroke:#ffffff;stroke-width:2;stroke-linecap:round;stroke-miterlimit:8.8648653;stroke-dasharray:2, 4;stroke-dashoffset:0;stroke-opacity:1" /><path
     inkscape:connector-curvature="0"
     id="path16604"
     d="m 60.681,246.23305 c 0,0.46 -0.07,0.92 -0.2,1.35 -0.38,1.21 -1.26,2.26 -2.5,2.81 -2.22,0.99 -4.8,0.05 -5.89,-2.09 -0.04,-0.07 -0.08,-0.15 -0.11,-0.23 l -7.89,-17.82 c -0.27,-0.6 -0.39,-1.23 -0.39,-1.84 0,-1.74 1,-3.4 2.7,-4.15 0.85,-0.38 1.75,-0.47 2.6,-0.32 1.45,0.24 2.75,1.19 3.39,2.63 l 4.33,9.76 3.57,8.06 c 0.27,0.6 0.39,1.23 0.39,1.84 z"
     style="fill:none;stroke:#ffffff;stroke-width:2;stroke-linecap:round;stroke-miterlimit:8.8648653;stroke-dasharray:2, 4;stroke-dashoffset:0;stroke-opacity:1" /><g
     id="g16612"
     style="stroke:#ffffff;stroke-width:2;stroke-miterlimit:8.8648653;stroke-dasharray:2, 4;stroke-dashoffset:0;stroke-opacity:1"
     transform="translate(-55.799,-278.87195)"><path
       inkscape:connector-curvature="0"
       id="path16606"
       d="m 97.77,490.525 c -0.68,-0.69 -1.04,-1.59 -0.91,-2.52 l 1.89,-13.49 c 0.22,-1.56 1.75,-2.66 3.56,-2.66 0.21,0 0.42,0.01 0.63,0.04 0.65,0.09 1.24,0.31 1.73,0.63 1.1,0.69 1.74,1.84 1.57,3.04 l -1.89,13.5 c -0.02,0.15 -0.06,0.3 -0.1,0.44"
       style="fill:none;stroke:#ffffff;stroke-width:2;stroke-linecap:round;stroke-miterlimit:8.8648653;stroke-dasharray:2, 4;stroke-dashoffset:0;stroke-opacity:1" /><path
       inkscape:connector-curvature="0"
       id="path16608"
       d="m 110.11,502.835 c -1.26,0.61 -2.7,0.45 -3.55,-0.51 l -0.07,-0.07 -8.18,-9.19 c -0.43,-0.49 -0.64,-1.11 -0.64,-1.75 0,-0.26 0.03,-0.53 0.1,-0.79 0.17,-0.68 0.56,-1.35 1.16,-1.88 1.24,-1.1 2.92,-1.26 4.03,-0.49 0.15,0.11 0.3,0.24 0.43,0.39 l 0.86,0.96 7.39,8.3 c 0.43,0.49 0.64,1.11 0.64,1.76 0,0.4 -0.08,0.81 -0.24,1.2 -0.01,0.06 -0.04,0.12 -0.07,0.18"
       style="fill:none;stroke:#ffffff;stroke-width:2;stroke-linecap:round;stroke-miterlimit:8.8648653;stroke-dasharray:2, 4;stroke-dashoffset:0;stroke-opacity:1" /><path
       inkscape:connector-curvature="0"
       id="path16610"
       d="m 115.56,507.215 c -0.36,0.26 -0.77,0.46 -1.23,0.57 -1.95,0.49 -3.92,-0.69 -4.41,-2.64 -0.2,-0.8 -0.12,-1.6 0.19,-2.31 0.08,-0.21 0.19,-0.41 0.33,-0.6 0.37,-0.55 0.89,-1 1.53,-1.29 0.16,-0.07 0.34,-0.13 0.52,-0.18 0.02,-0.01 0.05,-0.01 0.07,-0.02 0.63,-0.16 1.26,-0.14 1.84,0.02 0.83,0.23 1.57,0.75 2.06,1.47 0.22,0.34 0.4,0.72 0.5,1.14 0.05,0.18 0.08,0.37 0.09,0.55 0.13,1.3 -0.46,2.55 -1.49,3.29 z"
       style="fill:none;stroke:#ffffff;stroke-width:2;stroke-linecap:round;stroke-miterlimit:8.8648653;stroke-dasharray:2, 4;stroke-dashoffset:0;stroke-opacity:1" /></g><path
     inkscape:connector-curvature="0"
     id="path16614"
     d="m 67.431,186.17305 h -15.28 c -1.2,0 -2.05,-0.99 -1.7,-1.97 l 2.08,-5.82 c 0.23,-0.64 0.93,-1.08 1.71,-1.08 h 7.75 c 0.69,0 1.31,0.33 1.61,0.85 l 5.44,5.83 c 0.58,1.01 -0.29,2.19 -1.61,2.19 z"
     style="fill:none;stroke:#ffffff;stroke-width:2;stroke-linecap:round;stroke-miterlimit:8.8648653;stroke-dasharray:2, 4;stroke-dashoffset:0;stroke-opacity:1" /><path
     style="fill:none;stroke:#ffffff;stroke-width:2;stroke-linecap:round;stroke-linejoin:round;stroke-miterlimit:8.8648653;stroke-dasharray:2, 4;stroke-dashoffset:0;stroke-opacity:1"
     d="m 205.026,57.93405 c -0.025,-0.636 1.554,-3.615 2.549,-4.326 0.995,-0.711 1.848,-1.031 1.848,-1.031 0,0 -0.058,-2.805 0.656,-3.068 0.837,-0.309 2.33,2.571 2.33,2.571 0,0 2.097,1.351 3.235,2.062 1.138,0.711 2.453,1.991 2.453,1.991 0,0 6.967,-0.284 9.527,-0.427 2.559,-0.142 9.598,-1.138 13.721,-0.853 2.589,0.179 5.048,-0.427 5.048,-0.427 0,0 4.628,-3.467 4.443,-8.14 -0.107,-2.702 -1.777,-5.083 -3.59,-5.083 -2.61,0 -2.879,0.711 -2.879,0.711 0,0 -0.558,-1.696 0.391,-2.737 1.457,-1.6 4.322,-1.42 5.759,-0.675 1.92,0.995 4.763,4.728 4.123,9.953 -0.773,6.312 -4.55,9.242 -4.55,9.242 0,0 0.919,2.926 1.137,5.261 0.235,2.511 -0.06,3.555 0.142,3.413 0,0 2.417,2.844 3.413,3.697 0.996,0.853 1.848,4.692 2.417,6.683 0.569,1.991 -0.616,3.792 -1.327,3.792 -0.711,0 -1.011,-2.775 -1.517,-4.36 -1.043,-3.27 -3.128,-3.555 -4.834,-4.123 -1.706,-0.569 -3.555,-0.711 -3.555,-0.711 0,0 1.138,3.128 0.995,4.834 -0.142,1.706 -4.834,6.256 -4.834,6.256 h -3.128 c 0,0 -1.422,-0.427 -0.711,-1.564 0.711,-1.138 2.417,-1.138 2.417,-1.138 0,0 2.417,-2.133 2.275,-2.986 -0.142,-0.853 -1.991,-2.275 -3.27,-3.981 -1.279,-1.706 -1.138,-2.559 -1.138,-2.559 l -10.285,0.142 c 0,0 0.047,2.275 0.901,5.688 0.853,3.412 -0.284,5.403 -0.284,5.403 h -3.27 c 0,0 -0.569,-0.569 -0.142,-1.28 0.427,-0.711 1.141,-0.892 1.141,-0.892 l -0.335,-1.478 -3.365,-6.304 -3.784,-0.427 c 0,0 -2.465,2.322 -5.593,5.024 -3.128,2.702 -6.398,5.166 -6.398,5.166 l -3.365,0.047 c 0,0 -0.822,-0.616 -0.379,-1.422 0.824,-1.501 2.972,-1.19 2.972,-1.19 0,0 1.039,-1.267 2.755,-3.644 1.806,-2.501 2.695,-4.371 2.695,-4.371 0,0 0.434,-1.175 0.291,-4.445 -0.142,-3.27 0,-4.306 0,-4.306 0,0 -0.522,-0.539 -1.367,-1.145 -0.845,-0.606 -1.805,-0.773 -1.904,-0.821 h -2.559 c -0.002,0 -1.247,-1.386 -1.271,-2.022 z"
     id="path16618"
     inkscape:connector-curvature="0" /><path
     inkscape:connector-curvature="0"
     id="path16620"
     d="m 393.959,186.71905 h 2.049 0.056 0.056 v 0 h 0.056 v 0 h 0.056 0.056 v 0 h 0.056 0.277 c 5.095,0 7.421,0.39 11.686,0.612 l 6.48,0.723 16.282,3.281 v 0.222 6.841 c -0.056,1.057 -0.111,2.058 -0.166,2.67 -0.056,0.556 0,1.112 0,1.668 l -0.443,4.505 c -0.111,1.001 -0.222,1.835 -0.388,2.836 -1.44,9.288 -3.821,16.295 -8.196,24.304 -1.551,2.892 -3.268,5.395 -5.151,7.953 l -2.215,2.836 c -1.661,2.058 -5.206,5.895 -7.089,7.564 l -1.661,1.502 c -2.658,2.113 -6.314,5.395 -9.249,6.952 l -3.932,-2.67 c -3.046,-2.28 -9.083,-7.452 -11.242,-10.011 l -3.711,-4.449 c -0.498,-0.612 -0.941,-1.168 -1.385,-1.835 -0.498,-0.667 -0.941,-1.223 -1.385,-1.891 -0.443,-0.612 -0.886,-1.168 -1.329,-1.891 -4.597,-7.619 -7.698,-13.848 -9.581,-23.024 -0.388,-1.78 -0.775,-3.726 -1.052,-5.617 l -0.775,-7.341 c 0,-0.556 0.056,-1.001 -0.056,-1.502 -0.056,-0.444 -0.056,-1.446 -0.111,-2.558 v -6.896 -0.167 c 1.329,-0.333 2.603,-0.612 3.987,-0.945 3.655,-0.89 13.458,-2.614 16.615,-2.892 z"
     style="fill:none;stroke:#ffffff;stroke-width:2;stroke-miterlimit:8.8648653;stroke-dasharray:none;stroke-opacity:1" /><g
     id="g16628"
     style="stroke:#ffffff;stroke-width:2;stroke-miterlimit:8.8648653;stroke-dasharray:none;stroke-opacity:1"
     transform="translate(-55.799,-278.87195)"><path
       inkscape:connector-curvature="0"
       id="path16622"
       d="m 468.43,492.855 h -2.623 v 14.768 c 0,0.851 -0.687,1.539 -1.539,1.539 h -23.564 c -0.851,0 -1.539,-0.687 -1.539,-1.539 v -14.768 h -2.554 c -0.649,0 -0.927,-0.82 -0.41,-1.217 l 15.897,-12.214 c 0.492,-0.385 1.192,-0.378 1.677,0.019 l 4.376,3.544 3.771,3.052 6.936,5.612 c 0.499,0.397 0.215,1.204 -0.428,1.204 z"
       style="fill:none;stroke:#ffffff;stroke-width:2;stroke-miterlimit:8.8648653;stroke-dasharray:none;stroke-opacity:1" /><path
       inkscape:connector-curvature="0"
       id="path16624"
       d="m 461.923,481.423 v 4.616 l -3.771,-3.052 v -1.564 c 0,-0.315 0.252,-0.568 0.561,-0.568 h 2.648 c 0.309,0 0.562,0.253 0.562,0.568 z"
       style="fill:none;stroke:#ffffff;stroke-width:2;stroke-miterlimit:8.8648653;stroke-dasharray:none;stroke-opacity:1" /><rect
       id="rect16626"
       height="7.1729999"
       width="8.217"
       style="fill:none;stroke:#ffffff;stroke-width:2;stroke-miterlimit:8.8648653;stroke-dasharray:none;stroke-opacity:1"
       y="494.90399"
       x="448.414" /></g><circle
     id="circle16632"
     r="14.846"
     cy="223.88605"
     cx="229.45201"
     style="fill:none;stroke:#ffffff;stroke-width:2;stroke-miterlimit:8.8648653;stroke-dasharray:2, 4;stroke-dashoffset:0;stroke-opacity:1" /><g
     id="g16682"
     style="stroke:#ffffff;stroke-width:2;stroke-miterlimit:8.8648653;stroke-dasharray:2, 4;stroke-dashoffset:0;stroke-opacity:1"
     transform="translate(-55.799,-276.87195)"><circle
       id="circle16634"
       r="14.846"
       cy="481.62799"
       cx="264.01199"
       style="fill:none;stroke:#ffffff;stroke-width:2;stroke-miterlimit:8.8648653;stroke-dasharray:2, 4;stroke-dashoffset:0;stroke-opacity:1" /><circle
       r="3.602"
       id="ellipse16636"
       cy="481.56799"
       cx="264.07401"
       style="fill:none;stroke:#ffffff;stroke-width:1.99995303;stroke-miterlimit:8.8648653;stroke-dasharray:1.99995303, 3.99990605999999982;stroke-dashoffset:0;stroke-opacity:1"
       transform="matrix(0.2436,-0.9699,0.9699,0.2436,-267.3206,620.3552)" /><ellipse
       id="ellipse16638"
       ry="2.576"
       rx="5.6230001"
       cy="487.80899"
       cx="257.28201"
       style="fill:none;stroke:#ffffff;stroke-width:1.99995089;stroke-miterlimit:8.8648653;stroke-dasharray:1.99995083, 3.99990165999999991;stroke-dashoffset:0;stroke-opacity:1"
       transform="matrix(0.7414,-0.6711,0.6711,0.7414,-260.8156,298.7951)" /><ellipse
       id="ellipse16640"
       ry="2.576"
       rx="5.6230001"
       cy="475.89499"
       cx="271.29199"
       style="fill:none;stroke:#ffffff;stroke-width:1.99995089;stroke-miterlimit:8.8648653;stroke-dasharray:1.99995083, 3.99990165999999991;stroke-dashoffset:0;stroke-opacity:1"
       transform="matrix(0.7414,-0.6711,0.6711,0.7414,-249.198,305.1158)" /><line
       id="line16642"
       y2="493.76999"
       x2="272.54901"
       y1="485.23001"
       x1="265.44601"
       style="fill:none;stroke:#ffffff;stroke-width:2;stroke-miterlimit:8.8648653;stroke-dasharray:2, 4;stroke-dashoffset:0;stroke-opacity:1" /><line
       id="line16644"
       y2="489.97"
       x2="276.293"
       y1="482.77499"
       x1="267.42401"
       style="fill:none;stroke:#ffffff;stroke-width:2;stroke-miterlimit:8.8648653;stroke-dasharray:2, 4;stroke-dashoffset:0;stroke-opacity:1" /><circle
       id="circle16646"
       r="14.846"
       cy="481.62799"
       cx="306.215"
       style="fill:none;stroke:#ffffff;stroke-width:2;stroke-miterlimit:8.8648653;stroke-dasharray:2, 4;stroke-dashoffset:0;stroke-opacity:1" /><circle
       r="3.602"
       id="ellipse16648"
       cy="481.56799"
       cx="306.15201"
       style="fill:none;stroke:#ffffff;stroke-width:1.99995303;stroke-miterlimit:8.8648653;stroke-dasharray:1.99995303, 3.99990605999999982;stroke-dashoffset:0;stroke-opacity:1"
       transform="matrix(0.9699,-0.2436,0.2436,0.9699,-108.1035,89.1027)" /><ellipse
       id="ellipse16650"
       ry="5.6230001"
       rx="2.576"
       cy="487.80899"
       cx="312.94501"
       style="fill:none;stroke:#ffffff;stroke-width:1.99995089;stroke-miterlimit:8.8648653;stroke-dasharray:1.99995083, 3.99990165999999991;stroke-dashoffset:0;stroke-opacity:1"
       transform="matrix(0.6711,-0.7414,0.7414,0.6711,-258.7233,392.4806)" /><ellipse
       id="ellipse16652"
       ry="5.6230001"
       rx="2.576"
       cy="475.89499"
       cx="298.935"
       style="fill:none;stroke:#ffffff;stroke-width:1.99995089;stroke-miterlimit:8.8648653;stroke-dasharray:1.99995083, 3.99990165999999991;stroke-dashoffset:0;stroke-opacity:1"
       transform="matrix(0.6711,-0.7414,0.7414,0.6711,-254.499,378.1746)" /><line
       id="line16654"
       y2="493.76999"
       x2="297.67801"
       y1="485.23001"
       x1="304.78101"
       style="fill:none;stroke:#ffffff;stroke-width:2;stroke-miterlimit:8.8648653;stroke-dasharray:2, 4;stroke-dashoffset:0;stroke-opacity:1" /><line
       id="line16656"
       y2="489.97"
       x2="293.93301"
       y1="482.77499"
       x1="302.80301"
       style="fill:none;stroke:#ffffff;stroke-width:2;stroke-miterlimit:8.8648653;stroke-dasharray:2, 4;stroke-dashoffset:0;stroke-opacity:1" /><circle
       id="circle16658"
       r="14.846"
       cy="524.02197"
       cx="264.01199"
       style="fill:none;stroke:#ffffff;stroke-width:2;stroke-miterlimit:8.8648653;stroke-dasharray:2, 4;stroke-dashoffset:0;stroke-opacity:1" /><circle
       r="3.602"
       id="ellipse16660"
       cy="524.08301"
       cx="264.07401"
       style="fill:none;stroke:#ffffff;stroke-width:1.99995303;stroke-miterlimit:8.8648653;stroke-dasharray:1.99995303, 3.99990605999999982;stroke-dashoffset:0;stroke-opacity:1"
       transform="matrix(0.9699,-0.2436,0.2436,0.9699,-119.7298,80.132)" /><ellipse
       id="ellipse16662"
       ry="5.6230001"
       rx="2.576"
       cy="517.84198"
       cx="257.28201"
       style="fill:none;stroke:#ffffff;stroke-width:1.99995089;stroke-miterlimit:8.8648653;stroke-dasharray:1.99995083, 3.99990165999999991;stroke-dashoffset:0;stroke-opacity:1"
       transform="matrix(0.6711,-0.7414,0.7414,0.6711,-299.2997,361.0912)" /><ellipse
       id="ellipse16664"
       ry="5.6230001"
       rx="2.576"
       cy="529.755"
       cx="271.29199"
       style="fill:none;stroke:#ffffff;stroke-width:1.99995089;stroke-miterlimit:8.8648653;stroke-dasharray:1.99995083, 3.99990165999999991;stroke-dashoffset:0;stroke-opacity:1"
       transform="matrix(0.6711,-0.7414,0.7414,0.6711,-303.524,375.3971)" /><line
       id="line16666"
       y2="511.88"
       x2="272.54901"
       y1="520.42102"
       x1="265.44601"
       style="fill:none;stroke:#ffffff;stroke-width:2;stroke-miterlimit:8.8648653;stroke-dasharray:2, 4;stroke-dashoffset:0;stroke-opacity:1" /><line
       id="line16668"
       y2="515.67999"
       x2="276.293"
       y1="522.875"
       x1="267.42401"
       style="fill:none;stroke:#ffffff;stroke-width:2;stroke-miterlimit:8.8648653;stroke-dasharray:2, 4;stroke-dashoffset:0;stroke-opacity:1" /><circle
       id="circle16670"
       r="14.846"
       cy="524.02197"
       cx="306.215"
       style="fill:none;stroke:#ffffff;stroke-width:2;stroke-miterlimit:8.8648653;stroke-dasharray:2, 4;stroke-dashoffset:0;stroke-opacity:1" /><circle
       r="3.602"
       id="ellipse16672"
       cy="524.08301"
       cx="306.15201"
       style="fill:none;stroke:#ffffff;stroke-width:1.99995303;stroke-miterlimit:8.8648653;stroke-dasharray:1.99995303, 3.99990605999999982;stroke-dashoffset:0;stroke-opacity:1"
       transform="matrix(0.2436,-0.9699,0.9699,0.2436,-276.7284,693.3216)" /><ellipse
       id="ellipse16674"
       ry="2.576"
       rx="5.6230001"
       cy="517.84198"
       cx="312.94501"
       style="fill:none;stroke:#ffffff;stroke-width:1.99995089;stroke-miterlimit:8.8648653;stroke-dasharray:1.99995083, 3.99990165999999991;stroke-dashoffset:0;stroke-opacity:1"
       transform="matrix(0.7414,-0.6711,0.6711,0.7414,-266.5754,343.9142)" /><ellipse
       id="ellipse16676"
       ry="2.576"
       rx="5.6230001"
       cy="529.755"
       cx="298.935"
       style="fill:none;stroke:#ffffff;stroke-width:1.99995089;stroke-miterlimit:8.8648653;stroke-dasharray:1.99995083, 3.99990165999999991;stroke-dashoffset:0;stroke-opacity:1"
       transform="matrix(0.7414,-0.6711,0.6711,0.7414,-278.193,337.5934)" /><line
       id="line16678"
       y2="511.88"
       x2="297.67801"
       y1="520.42102"
       x1="304.78101"
       style="fill:none;stroke:#ffffff;stroke-width:2;stroke-miterlimit:8.8648653;stroke-dasharray:2, 4;stroke-dashoffset:0;stroke-opacity:1" /><line
       id="line16680"
       y2="515.67999"
       x2="293.93301"
       y1="522.875"
       x1="302.80301"
       style="fill:none;stroke:#ffffff;stroke-width:2;stroke-miterlimit:8.8648653;stroke-dasharray:2, 4;stroke-dashoffset:0;stroke-opacity:1" /></g><polyline
     id="polyline16686"
     points="   243.773,398.758 223.492,398.758 223.492,279.372 243.773,279.372  "
     style="fill:none;stroke:#ffffff;stroke-width:1;stroke-linecap:round;stroke-linejoin:round;stroke-miterlimit:8.8648653;stroke-dasharray:none;stroke-opacity:1"
     transform="translate(-55.799,-278.87195)" /><polyline
     id="polyline16688"
     points="   327.397,279.372 346.735,279.372 346.735,398.758 327.397,398.758  "
     style="fill:none;stroke:#ffffff;stroke-width:1;stroke-linecap:round;stroke-linejoin:round;stroke-miterlimit:8.8648653;stroke-dasharray:none;stroke-opacity:1"
     transform="translate(-55.799,-278.87195)" /><polyline
     id="polyline16692"
     points="   410.967,398.758 390.686,398.758 390.686,279.372 410.967,279.372  "
     style="fill:none;stroke:#ffffff;stroke-width:1;stroke-linecap:round;stroke-linejoin:round;stroke-miterlimit:8.8648653;stroke-dasharray:none;stroke-opacity:1"
     transform="translate(-55.799,-278.87195)" /><polyline
     id="polyline16694"
     points="   494.59,279.372 513.928,279.372 513.928,398.758 494.59,398.758  "
     style="fill:none;stroke:#ffffff;stroke-width:1;stroke-linecap:round;stroke-linejoin:round;stroke-miterlimit:8.8648653;stroke-dasharray:none;stroke-opacity:1"
     transform="translate(-55.799,-278.87195)" /><polyline
     id="polyline16698"
     points="   76.58,398.758 56.299,398.758 56.299,279.372 76.58,279.372  "
     style="fill:none;stroke:#ffffff;stroke-width:1;stroke-linecap:round;stroke-linejoin:round;stroke-miterlimit:8.8648653;stroke-dasharray:none;stroke-opacity:1"
     transform="translate(-55.799,-278.87195)" /><polyline
     id="polyline16700"
     points="   160.203,279.372 179.541,279.372 179.541,398.758 160.203,398.758  "
     style="fill:none;stroke:#ffffff;stroke-width:1;stroke-linecap:round;stroke-linejoin:round;stroke-miterlimit:8.8648653;stroke-dasharray:none;stroke-opacity:1"
     transform="translate(-55.799,-278.87195)" /><polyline
     id="polyline16704"
     points="   243.773,562.518 223.492,562.518 223.492,443.132 243.773,443.132  "
     style="fill:none;stroke:#ffffff;stroke-width:1;stroke-linecap:round;stroke-linejoin:round;stroke-miterlimit:8.8648653;stroke-dasharray:none;stroke-opacity:1"
     transform="translate(-55.799,-278.87195)" /><polyline
     id="polyline16706"
     points="   327.397,443.132 346.735,443.132 346.735,562.518 327.397,562.518  "
     style="fill:none;stroke:#ffffff;stroke-width:1;stroke-linecap:round;stroke-linejoin:round;stroke-miterlimit:8.8648653;stroke-dasharray:none;stroke-opacity:1"
     transform="translate(-55.799,-278.87195)" /><polyline
     id="polyline16710"
     points="   410.967,562.518 390.686,562.518 390.686,443.132 410.967,443.132  "
     style="fill:none;stroke:#ffffff;stroke-width:1;stroke-linecap:round;stroke-linejoin:round;stroke-miterlimit:8.8648653;stroke-dasharray:none;stroke-opacity:1"
     transform="translate(-55.799,-278.87195)" /><polyline
     id="polyline16712"
     points="   494.59,443.132 513.928,443.132 513.928,562.518 494.59,562.518  "
     style="fill:none;stroke:#ffffff;stroke-width:1;stroke-linecap:round;stroke-linejoin:round;stroke-miterlimit:8.8648653;stroke-dasharray:none;stroke-opacity:1"
     transform="translate(-55.799,-278.87195)" /><polyline
     id="polyline16716"
     points="   76.58,562.518 56.299,562.518 56.299,443.132 76.58,443.132  "
     style="fill:none;stroke:#ffffff;stroke-width:1;stroke-linecap:round;stroke-linejoin:round;stroke-miterlimit:8.8648653;stroke-dasharray:none;stroke-opacity:1"
     transform="translate(-55.799,-278.87195)" /><polyline
     id="polyline16718"
     points="   160.203,443.132 179.541,443.132 179.541,562.518 160.203,562.518  "
     style="fill:none;stroke:#ffffff;stroke-width:1;stroke-linecap:round;stroke-linejoin:round;stroke-miterlimit:8.8648653;stroke-dasharray:none;stroke-opacity:1"
     transform="translate(-55.799,-278.87195)" /></svg>