<?xml version="1.0" encoding="UTF-8" standalone="no"?>
<!-- Created with Inkscape (http://www.inkscape.org/) -->

<svg
   xmlns:dc="http://purl.org/dc/elements/1.1/"
   xmlns:cc="http://creativecommons.org/ns#"
   xmlns:rdf="http://www.w3.org/1999/02/22-rdf-syntax-ns#"
   xmlns:svg="http://www.w3.org/2000/svg"
   xmlns="http://www.w3.org/2000/svg"
   xmlns:sodipodi="http://sodipodi.sourceforge.net/DTD/sodipodi-0.dtd"
   xmlns:inkscape="http://www.inkscape.org/namespaces/inkscape"
   width="32.872627mm"
   height="31.852156mm"
   viewBox="0 0 32.872627 31.852156"
   version="1.1"
   id="svg69115"
   inkscape:version="0.92.2 (5c3e80d, 2017-08-06)"
   sodipodi:docname="emiia153.svg">
  <defs
     id="defs69109" />
  <sodipodi:namedview
     id="base"
     pagecolor="#ffffff"
     bordercolor="#666666"
     borderopacity="1.0"
     inkscape:pageopacity="0.0"
     inkscape:pageshadow="2"
     inkscape:zoom="1.979899"
     inkscape:cx="-18.420366"
     inkscape:cy="45.258475"
     inkscape:document-units="mm"
     inkscape:current-layer="layer1"
     showgrid="false"
     inkscape:window-width="1366"
     inkscape:window-height="745"
     inkscape:window-x="-8"
     inkscape:window-y="-8"
     inkscape:window-maximized="1"
     fit-margin-top="0"
     fit-margin-left="0"
     fit-margin-right="0"
     fit-margin-bottom="0" />
  <metadata
     id="metadata69112">
    <rdf:RDF>
      <cc:Work
         rdf:about="">
        <dc:format>image/svg+xml</dc:format>
        <dc:type
           rdf:resource="http://purl.org/dc/dcmitype/StillImage" />
        <dc:title />
      </cc:Work>
    </rdf:RDF>
  </metadata>
  <g
     inkscape:label="Layer 1"
     inkscape:groupmode="layer"
     id="layer1"
     transform="translate(-62.593819,-135.22023)">
    <path
       style="fill:none;fill-opacity:1;stroke:#3d85c6;stroke-width:0.3;stroke-linecap:round;stroke-linejoin:round;stroke-miterlimit:8.8648653;stroke-dasharray:none;stroke-dashoffset:0;stroke-opacity:1"
       d="m 83.199151,149.90764 c 0.0042,-0.1074 -0.262416,-0.61045 -0.430437,-0.73051 -0.16802,-0.12007 -0.312061,-0.1741 -0.312061,-0.1741 0,0 0.0098,-0.47367 -0.110777,-0.51808 -0.141339,-0.0522 -0.393455,0.43415 -0.393455,0.43415 0,0 -0.354108,0.22814 -0.546276,0.3482 -0.192168,0.12006 -0.414226,0.33621 -0.414226,0.33621 0,0 -1.17648,-0.0479 -1.608775,-0.0721 -0.432124,-0.024 -1.620762,-0.19216 -2.316992,-0.14404 -0.437192,0.0302 -0.85243,-0.0721 -0.85243,-0.0721 0,0 -0.781506,-0.58545 -0.750265,-1.37456 0.01807,-0.45627 0.300072,-0.85834 0.606223,-0.85834 0.440739,0 0.486162,0.12007 0.486162,0.12007 0,0 0.09423,-0.2864 -0.06603,-0.46219 -0.246037,-0.27018 -0.729833,-0.23979 -0.972493,-0.11398 -0.32422,0.16802 -0.804302,0.79839 -0.696227,1.68071 0.130533,1.06587 0.768335,1.56064 0.768335,1.56064 0,0 -0.155189,0.4941 -0.192,0.8884 -0.03968,0.42402 0.01013,0.60032 -0.02398,0.57634 0,0 -0.408147,0.48025 -0.576337,0.62429 -0.168187,0.14404 -0.31206,0.79231 -0.408144,1.12852 -0.09608,0.33621 0.104022,0.64034 0.224082,0.64034 0.120063,0 0.170723,-0.4686 0.25617,-0.73625 0.176125,-0.55219 0.528209,-0.60031 0.81629,-0.69623 0.288083,-0.0961 0.600315,-0.12006 0.600315,-0.12006 0,0 -0.192168,0.52821 -0.168021,0.81629 0.02398,0.28808 0.816292,1.05642 0.816292,1.05642 h 0.528209 c 0,0 0.240127,-0.0721 0.120064,-0.26411 -0.120064,-0.19216 -0.408147,-0.19216 -0.408147,-0.19216 0,0 -0.408146,-0.36019 -0.384167,-0.50424 0.02398,-0.14404 0.336209,-0.38416 0.552188,-0.67225 0.215977,-0.28808 0.192168,-0.43212 0.192168,-0.43212 l 1.736773,0.024 c 0,0 -0.0079,0.38417 -0.152146,0.9605 -0.144041,0.57617 0.04796,0.91237 0.04796,0.91237 h 0.552186 c 0,0 0.09609,-0.0961 0.02398,-0.21614 -0.07211,-0.12006 -0.192677,-0.15063 -0.192677,-0.15063 l 0.05657,-0.24958 0.568231,-1.06453 0.638984,-0.0721 c 0,0 0.416251,0.3921 0.94446,0.84837 0.528209,0.45628 1.080395,0.87236 1.080395,0.87236 l 0.568232,0.008 c 0,0 0.138806,-0.10402 0.064,-0.24013 -0.139144,-0.25346 -0.501866,-0.20094 -0.501866,-0.20094 0,0 -0.175452,-0.21396 -0.465224,-0.61535 -0.304967,-0.42233 -0.45509,-0.7381 -0.45509,-0.7381 0,0 -0.07329,-0.19842 -0.04914,-0.75061 0.02398,-0.55219 0,-0.72713 0,-0.72713 0,0 0.08814,-0.091 0.230838,-0.19335 0.142691,-0.10233 0.3048,-0.13053 0.321517,-0.13864 h 0.432126 c 1.89e-4,0 0.210572,-0.23405 0.214627,-0.34144 z"
       id="path16618"
       inkscape:connector-curvature="0" />
  </g>
</svg>
