<?xml version="1.0" encoding="UTF-8" standalone="no"?>
<!-- Created with Inkscape (http://www.inkscape.org/) -->

<svg
   xmlns:dc="http://purl.org/dc/elements/1.1/"
   xmlns:cc="http://creativecommons.org/ns#"
   xmlns:rdf="http://www.w3.org/1999/02/22-rdf-syntax-ns#"
   xmlns:svg="http://www.w3.org/2000/svg"
   xmlns="http://www.w3.org/2000/svg"
   xmlns:sodipodi="http://sodipodi.sourceforge.net/DTD/sodipodi-0.dtd"
   xmlns:inkscape="http://www.inkscape.org/namespaces/inkscape"
   width="74.742378mm"
   height="24.74489mm"
   viewBox="0 0 74.742378 24.74489"
   version="1.1"
   id="svg8"
   inkscape:version="0.92.4 (5da689c313, 2019-01-14)"
   sodipodi:docname="emiia107.svg">
  <defs
     id="defs2">
    <pattern
       y="0"
       x="0"
       height="6"
       width="6"
       patternUnits="userSpaceOnUse"
       id="EMFhbasepattern" />
    <pattern
       y="0"
       x="0"
       height="6"
       width="6"
       patternUnits="userSpaceOnUse"
       id="EMFhbasepattern-8" />
    <pattern
       y="0"
       x="0"
       height="6"
       width="6"
       patternUnits="userSpaceOnUse"
       id="EMFhbasepattern-5" />
  </defs>
  <sodipodi:namedview
     id="base"
     pagecolor="#ffffff"
     bordercolor="#666666"
     borderopacity="1.0"
     inkscape:pageopacity="0.0"
     inkscape:pageshadow="2"
     inkscape:zoom="2.1362882"
     inkscape:cx="12.887889"
     inkscape:cy="113.7746"
     inkscape:document-units="mm"
     inkscape:current-layer="layer1"
     showgrid="false"
     fit-margin-top="0"
     fit-margin-left="0"
     fit-margin-right="0"
     fit-margin-bottom="0"
     inkscape:window-width="1366"
     inkscape:window-height="705"
     inkscape:window-x="-8"
     inkscape:window-y="-8"
     inkscape:window-maximized="1" />
  <metadata
     id="metadata5">
    <rdf:RDF>
      <cc:Work
         rdf:about="">
        <dc:format>image/svg+xml</dc:format>
        <dc:type
           rdf:resource="http://purl.org/dc/dcmitype/StillImage" />
        <dc:title></dc:title>
      </cc:Work>
    </rdf:RDF>
  </metadata>
  <g
     inkscape:label="Layer 1"
     inkscape:groupmode="layer"
     id="layer1"
     transform="translate(-25.168891,-133.84907)">
    <path
       style="fill:#ffffff;fill-opacity:1;stroke:none;stroke-width:0.19598618;stroke-linecap:round;stroke-linejoin:round;stroke-miterlimit:10;stroke-dasharray:none;stroke-opacity:1"
       d="m 34.951803,148.39945 -3.390994,10.19451 9.676314,-14.29085 h -7.004622 l 3.613632,-10.45404 -9.89896,14.55038 z"
       id="polygon9388"
       inkscape:connector-curvature="0" />
    <path
       id="path964"
       style="fill:#464b5a;fill-opacity:1;stroke-width:0.07531109"
       d="m 52.405443,134.97837 v 6.2e-4 c -0.429862,0.0236 -0.839169,0.24003 -1.08438,0.61056 -0.390685,0.59036 -0.217731,1.56952 0.328763,1.86199 0.207126,0.11091 0.215783,0.23846 0.0452,0.68607 -0.07124,0.18695 -0.094,0.19431 -0.401292,0.13495 -0.803596,-0.15531 -1.858082,-0.0366 -2.635452,0.29665 l -0.350757,0.14983 -0.200349,-0.30321 -0.200944,-0.30318 0.151599,-0.16172 c 0.490229,-0.52337 0.383682,-1.58143 -0.201538,-1.99814 -0.457379,-0.32568 -1.240726,-0.33969 -1.659268,-0.0297 -0.376484,0.2788 -0.538029,0.60565 -0.538029,1.08914 0,0.59466 0.197816,0.97271 0.64504,1.23479 0.303587,0.17796 0.399434,0.19694 0.823986,0.1629 l 0.480956,-0.0386 0.186675,0.2824 0.187269,0.28238 -0.340652,0.25505 c -0.354809,0.26519 -0.920873,0.96208 -1.152749,1.41967 -0.07402,0.14605 -0.196561,0.46349 -0.272284,0.7051 -0.132829,0.42379 -0.145421,0.43769 -0.357296,0.39534 -0.12079,-0.0242 -0.280545,-0.044 -0.354923,-0.044 -0.092,0 -0.15111,-0.0784 -0.185487,-0.24493 -0.174478,-0.84521 -1.099853,-1.32919 -1.900639,-0.99461 -0.373455,0.15604 -0.541139,0.31645 -0.70568,0.67478 -0.288731,0.62875 -0.08188,1.38251 0.482741,1.75616 0.248197,0.16429 0.392589,0.20213 0.768697,0.20213 0.576802,0 1.002796,-0.24889 1.215173,-0.70924 0.144453,-0.31311 0.285227,-0.36783 0.676551,-0.26277 0.144942,0.0388 0.163226,0.1102 0.199754,0.77106 0.04562,0.82526 0.224915,1.4234 0.627203,2.09148 l 0.262179,0.43518 -0.260396,0.26039 -0.260988,0.26098 -0.262178,-0.12483 c -0.14423,-0.0684 -0.440199,-0.12426 -0.658118,-0.12426 -1.443569,0 -1.875157,1.92988 -0.582618,2.60514 0.497275,0.25979 1.382572,0.0478 1.707427,-0.40844 0.288312,-0.4049 0.34062,-1.01511 0.129601,-1.52133 -0.03086,-0.0739 0.04429,-0.20455 0.20986,-0.36504 l 0.257421,-0.25029 0.403076,0.32045 c 0.434419,0.34589 1.294908,0.77565 1.720505,0.85906 0.579417,0.11355 0.527324,-0.10239 0.527328,2.18303 v 2.057 l -0.244938,0.10044 c -0.337704,0.13928 -0.86504,0.63994 -1.059412,1.00589 -0.126185,0.23759 -0.16188,0.43736 -0.162893,0.90723 -0.0013,0.52842 0.02639,0.65215 0.222343,1.0059 0.258135,0.46605 0.621208,0.79158 1.05406,0.94527 v 6.2e-4 c 0.459833,0.16326 1.217482,0.1459 1.621817,-0.0369 0.741541,-0.33528 1.20335,-1.04091 1.203877,-1.83941 6.08e-4,-0.89962 -0.330196,-1.4796 -1.070707,-1.87686 l -0.432207,-0.23184 -0.0013,-2.0469 c -0.0013,-2.27488 -0.05284,-2.06139 0.526139,-2.17114 0.144974,-0.0274 0.54735,-0.18573 0.89414,-0.35136 1.494853,-0.71399 2.415345,-2.21722 2.418452,-3.94931 l 0.0013,-0.61056 0.647416,-0.129 c 0.356069,-0.0707 0.653632,-0.11731 0.661686,-0.104 0.105899,0.17474 0.491939,0.65772 0.609369,0.76276 0.08389,0.075 0.338751,0.2275 0.566567,0.33887 0.345371,0.16891 0.514542,0.20232 1.017198,0.20154 0.504532,-9.2e-4 0.672016,-0.0349 1.028499,-0.20928 0.77133,-0.37737 1.254119,-1.09688 1.32456,-1.97435 0.138549,-1.726 -1.520719,-2.98238 -3.194878,-2.41905 -0.750396,0.2525 -1.406855,1.04855 -1.520748,1.84476 l -0.04816,0.33946 -0.602234,0.13436 c -0.331233,0.0738 -0.64121,0.13499 -0.689032,0.13614 -0.04782,9.3e-4 -0.196738,-0.19225 -0.330547,-0.43042 -0.133811,-0.23815 -0.376658,-0.59312 -0.539815,-0.78891 -0.308307,-0.37001 -1.293776,-1.07932 -1.609923,-1.1587 -0.09989,-0.0251 -0.181919,-0.0525 -0.181919,-0.0618 0,-0.009 0.05238,-0.17026 0.116522,-0.35849 0.114298,-0.33549 0.124641,-0.34296 0.501765,-0.38762 0.953427,-0.11297 1.51199,-1.04396 1.148588,-1.91372 -0.156041,-0.37345 -0.31645,-0.54112 -0.674767,-0.70567 -0.157191,-0.0721 -0.322,-0.11309 -0.4869,-0.12544 -0.06184,-0.005 -0.123482,-0.005 -0.184892,-0.002 z m 0.143275,0.47918 c 0.05462,0.006 0.108291,0.0173 0.159926,0.0369 0.724887,0.2756 0.887865,1.06062 0.319844,1.53858 -0.635126,0.53442 -1.631803,-0.0983 -1.409577,-0.89473 0.117312,-0.42044 0.547478,-0.71801 0.929807,-0.68072 z m -5.545561,0.71401 c 0.623769,0.005 1.150935,0.72665 0.766916,1.33943 -0.08593,0.1371 -0.272825,0.2977 -0.415561,0.35729 -0.355227,0.14843 -0.501452,0.13715 -0.798424,-0.0631 -0.5919,-0.39885 -0.587144,-1.16 0.0096,-1.51243 0.14421,-0.0851 0.293613,-0.12246 0.437558,-0.12127 z m 3.539102,3.11699 c 0.13104,0.005 0.262534,0.0187 0.394752,0.0416 1.451695,0.2526 2.554767,1.3677 2.796561,2.82688 0.269254,1.6249 -0.853811,3.24785 -2.554001,3.6907 v -6.2e-4 c -0.527397,0.1377 -0.989099,0.13631 -1.508858,-0.003 -1.334158,-0.35928 -2.266716,-1.37917 -2.511198,-2.74721 -0.352304,-1.97137 1.417119,-3.88021 3.382744,-3.80781 z m 7.747021,0.12188 c 0.205458,-0.007 0.416351,0.0417 0.621261,0.14626 0.523695,0.26716 0.825005,0.9141 0.676546,1.45178 -0.09846,0.35656 -0.411114,0.72651 -0.72411,0.85728 -0.346155,0.14459 -0.848321,0.12794 -1.119455,-0.0375 -0.756081,-0.46108 -0.930282,-1.3287 -0.389997,-1.94403 0.265115,-0.30196 0.593325,-0.46326 0.935755,-0.47384 z m -14.327024,1.39294 c 0.07615,-9.2e-4 0.152325,0.0104 0.227697,0.0351 0.662015,0.21848 0.876194,1.03721 0.390589,1.49339 -0.497232,0.46715 -1.265071,0.25698 -1.483889,-0.40604 -0.173653,-0.52619 0.332534,-1.11638 0.865603,-1.12243 z m 1.518963,5.31667 c 0.465988,-0.0186 0.931,0.35489 0.931,0.92564 0,0.20178 -0.06326,0.34098 -0.244938,0.53923 -0.472862,0.51598 -1.225232,0.37021 -1.47497,-0.28595 -0.129176,-0.3394 -0.07411,-0.58987 0.196187,-0.89237 0.1686,-0.18868 0.38091,-0.27816 0.592721,-0.28655 z m 12.227822,1.04455 v 0.82874 0.82815 h 0.828148 0.828742 v -0.82815 -0.82874 h -0.828742 z m 10.095918,0.37692 -0.0214,1.03563 -0.02082,1.03504 -0.357895,0.0232 -0.357296,0.0232 v 0.63197 0.63137 l 0.357296,0.0232 0.357895,0.0232 0.03746,2.78645 c 0.03458,2.55784 0.04979,2.80539 0.180137,3.0207 0.157148,0.25958 0.478487,0.47665 0.831715,0.5612 0.298853,0.0716 0.938058,0.0839 1.238358,0.0238 l 0.235425,-0.0476 v -0.62067 -0.62125 l -0.305578,-0.0487 c -0.508172,-0.0812 -0.528663,-0.19364 -0.50533,-2.81381 l 0.02021,-2.2401 0.395349,-0.0232 0.395347,-0.0226 v -0.63196 -0.63255 l -0.395347,-0.0226 -0.395349,-0.0232 -0.0214,-1.03504 -0.02083,-1.03563 h -0.823985 z m 12.400227,1.88934 c -0.619978,0.0346 -1.224506,0.22399 -1.612898,0.55645 -0.454783,0.38927 -0.625286,0.79433 -0.621259,1.47498 0.0063,1.06238 0.263819,1.44183 1.533828,2.2603 0.500641,0.32266 1.040403,0.6784 1.199712,0.79011 0.808808,0.56715 0.763483,1.50552 -0.07966,1.64797 -0.648265,0.10952 -1.076059,-0.29224 -1.076059,-1.01065 v -0.3038 h -0.838255 -0.838849 l 0.03746,0.52436 c 0.06839,0.95594 0.544442,1.62663 1.39709,1.96901 v 6.1e-4 c 0.532337,0.21372 2.080652,0.17128 2.614046,-0.0713 0.457857,-0.20828 0.680413,-0.40826 0.892951,-0.80318 0.240271,-0.44646 0.230982,-1.5895 -0.01724,-2.07127 -0.277812,-0.53921 -0.804326,-1.01921 -1.816814,-1.6563 -0.518311,-0.32614 -1.026306,-0.68209 -1.128374,-0.79069 -0.419453,-0.4465 -0.116669,-1.16821 0.489872,-1.16821 0.523118,0 0.812374,0.28376 0.909595,0.89176 l 0.04994,0.31331 h 0.829335 0.829336 l -0.04756,-0.39534 c -0.106289,-0.88197 -0.4003,-1.40702 -1.000553,-1.78769 -0.450248,-0.28554 -1.085664,-0.40507 -1.705641,-0.37038 z m -6.010465,0.002 v 6e-4 c -0.153555,-0.005 -0.313203,-9.3e-4 -0.478579,0.009 -1.379375,0.086 -2.238495,0.8346 -2.35187,2.04865 l -0.04578,0.49345 h 0.839443 c 0.621018,0 0.839142,-0.0244 0.839444,-0.0939 0.0013,-0.25256 0.18157,-0.69533 0.34541,-0.84718 0.389546,-0.36102 1.13933,-0.29198 1.35488,0.12484 0.163737,0.31663 0.0867,0.65809 -0.214024,0.94884 -0.134186,0.12976 -0.648507,0.42555 -1.142641,0.65752 -1.224173,0.57471 -1.562123,0.83519 -1.853674,1.42742 -0.209009,0.42457 -0.234385,0.5486 -0.234235,1.14382 2.88e-4,1.05398 0.270944,1.61307 0.944672,1.94882 0.305258,0.15209 0.489187,0.18786 0.967261,0.18786 0.724742,0 1.061893,-0.12686 1.421469,-0.53448 l 0.271687,-0.30795 0.04934,0.30795 0.04934,0.30856 h 0.907217 c 0.708117,0 0.894123,-0.0211 0.846578,-0.0946 -0.03351,-0.0517 -0.07798,-1.50029 -0.09869,-3.21927 -0.03636,-3.01841 -0.04318,-3.1358 -0.199756,-3.42673 -0.365259,-0.6787 -1.142633,-1.05503 -2.21751,-1.08319 z m -10.732042,0.029 c -0.979073,0 -0.990879,0.002 -1.506481,0.26455 -0.40185,0.20434 -0.574839,0.3468 -0.763348,0.62839 -0.410949,0.61388 -0.433989,0.7827 -0.433989,3.17587 v 2.18599 l 0.263369,0.52259 c 0.302034,0.5986 0.634775,0.89868 1.22052,1.10102 0.285713,0.0987 0.624702,0.138 1.194959,0.14029 1.385796,0.005 2.014146,-0.30942 2.480285,-1.23834 l 0.263365,-0.52556 0.02615,-1.85486 c 0.02806,-1.97862 -0.03995,-2.74306 -0.288334,-3.22994 -0.209517,-0.41069 -0.578429,-0.75131 -1.055252,-0.975 -0.379784,-0.1782 -0.497619,-0.195 -1.401255,-0.195 z m -5.753638,0.18906 v 3.80306 3.80306 h 0.828148 0.828742 v -3.80306 -3.80306 h -0.828742 z m 5.728074,1.12896 c 0.482958,0 0.784889,0.15586 0.891166,0.46074 0.1227,0.35197 0.111327,4.26097 -0.01308,4.50993 -0.05175,0.10354 -0.212306,0.24737 -0.356703,0.31985 -0.554034,0.27788 -1.206831,0.0568 -1.359042,-0.46015 -0.0515,-0.17497 -0.0722,-1.01829 -0.05707,-2.33226 l 0.02377,-2.05876 0.246124,-0.21939 c 0.202668,-0.18098 0.312435,-0.21996 0.624829,-0.21996 z m -12.953118,1.40066 v 6.1e-4 c 0.09782,0.006 0.198682,0.0384 0.340653,0.10112 0.743426,0.32886 0.828254,1.25748 0.155167,1.6985 -0.384907,0.25221 -0.974284,0.18671 -1.243709,-0.13792 -0.187004,-0.22531 -0.298027,-0.66319 -0.228885,-0.90424 0.0892,-0.31099 0.421388,-0.63845 0.736001,-0.7253 0.05188,-0.0144 0.09815,-0.0242 0.142681,-0.029 0.03339,-0.003 0.06549,-0.005 0.09809,-0.003 z m 24.264207,1.16524 c 0.03108,-0.002 0.05647,0.45372 0.05647,1.01423 0,1.12349 -0.07071,1.40821 -0.415559,1.67947 -0.272743,0.21453 -0.771969,0.22027 -1.03682,0.0119 -0.374048,-0.29422 -0.412826,-1.18832 -0.07134,-1.65035 0.13124,-0.17758 1.335475,-1.04364 1.467242,-1.05526 z"
       inkscape:connector-curvature="0" />
  </g>
</svg>
