<?xml version="1.0" encoding="UTF-8" standalone="no"?>
<!-- Created with Inkscape (http://www.inkscape.org/) -->

<svg
   xmlns:dc="http://purl.org/dc/elements/1.1/"
   xmlns:cc="http://creativecommons.org/ns#"
   xmlns:rdf="http://www.w3.org/1999/02/22-rdf-syntax-ns#"
   xmlns:svg="http://www.w3.org/2000/svg"
   xmlns="http://www.w3.org/2000/svg"
   xmlns:sodipodi="http://sodipodi.sourceforge.net/DTD/sodipodi-0.dtd"
   xmlns:inkscape="http://www.inkscape.org/namespaces/inkscape"
   width="32.87236mm"
   height="31.852156mm"
   viewBox="0 0 32.87236 31.852156"
   version="1.1"
   id="svg69115"
   inkscape:version="0.92.2 (5c3e80d, 2017-08-06)"
   sodipodi:docname="emiia155.svg">
  <defs
     id="defs69109" />
  <sodipodi:namedview
     id="base"
     pagecolor="#ffffff"
     bordercolor="#666666"
     borderopacity="1.0"
     inkscape:pageopacity="0.0"
     inkscape:pageshadow="2"
     inkscape:zoom="1.979899"
     inkscape:cx="-21.469124"
     inkscape:cy="39.880511"
     inkscape:document-units="mm"
     inkscape:current-layer="layer1"
     showgrid="false"
     inkscape:window-width="1366"
     inkscape:window-height="745"
     inkscape:window-x="-8"
     inkscape:window-y="-8"
     inkscape:window-maximized="1"
     fit-margin-top="0"
     fit-margin-left="0"
     fit-margin-right="0"
     fit-margin-bottom="0" />
  <metadata
     id="metadata69112">
    <rdf:RDF>
      <cc:Work
         rdf:about="">
        <dc:format>image/svg+xml</dc:format>
        <dc:type
           rdf:resource="http://purl.org/dc/dcmitype/StillImage" />
        <dc:title />
      </cc:Work>
    </rdf:RDF>
  </metadata>
  <g
     inkscape:label="Layer 1"
     inkscape:groupmode="layer"
     id="layer1"
     transform="translate(-58.319163,-133.79733)">
    <g
       id="g68500"
       transform="matrix(0.24321699,0,0,0.24321699,61.062283,95.887865)"
       style="stroke:#3d85c6;stroke-opacity:1;stroke-width:1.23346646;stroke-miterlimit:4;stroke-dasharray:none">
      <path
         style="fill:none;fill-opacity:1;stroke:#3d85c6;stroke-width:1.23346646;stroke-linecap:round;stroke-miterlimit:4;stroke-dasharray:none;stroke-dashoffset:0;stroke-opacity:1"
         d="m 63.811,186.17305 v 6.31"
         id="path16576"
         inkscape:connector-curvature="0" />
      <line
         style="fill:none;fill-opacity:1;stroke:#3d85c6;stroke-width:1.23346646;stroke-linecap:round;stroke-miterlimit:4;stroke-dasharray:none;stroke-dashoffset:0;stroke-opacity:1"
         x1="53.550999"
         y1="192.40305"
         x2="53.550999"
         y2="186.17307"
         id="line16578" />
      <g
         transform="translate(-55.799,-278.87195)"
         style="fill:none;fill-opacity:1;stroke:#3d85c6;stroke-width:1.23346646;stroke-miterlimit:4;stroke-dasharray:none;stroke-dashoffset:0;stroke-opacity:1"
         id="g16586">
        <path
           style="fill:none;fill-opacity:1;stroke:#3d85c6;stroke-width:1.23346646;stroke-linecap:round;stroke-miterlimit:4;stroke-dasharray:none;stroke-dashoffset:0;stroke-opacity:1"
           d="m 122.46,472.665 c 0.53,-0.25 1.13,-0.39 1.77,-0.39 0.21,0 0.42,0.02 0.64,0.05 2.07,0.29 3.55,1.93 3.31,3.67 l -1.9,13.49 c -0.02,0.15 -0.06,0.3 -0.1,0.44"
           id="path16580"
           inkscape:connector-curvature="0" />
        <path
           style="fill:none;fill-opacity:1;stroke:#3d85c6;stroke-width:1.23346646;stroke-linecap:round;stroke-miterlimit:4;stroke-dasharray:none;stroke-dashoffset:0;stroke-opacity:1"
           d="m 134.22,499.995 c 0,0.45 -0.1,0.92 -0.31,1.37 -0.21,0.47 -0.53,0.91 -0.95,1.29 -0.29,0.25 -0.59,0.45 -0.91,0.61 -1.26,0.61 -2.71,0.44 -3.56,-0.51 l -5.32,-5.98 c 0.15,-0.46 0.24,-0.94 0.27,-1.45 l 0.19,-3.27 v -0.01 l 0.22,-3.89 c 0.57,0.11 1.09,0.38 1.48,0.82 l 0.85,0.95 7.39,8.31 c 0.44,0.49 0.65,1.11 0.65,1.76 z"
           id="path16582"
           inkscape:connector-curvature="0" />
        <path
           style="fill:none;fill-opacity:1;stroke:#3d85c6;stroke-width:1.23346646;stroke-linecap:round;stroke-miterlimit:4;stroke-dasharray:none;stroke-dashoffset:0;stroke-opacity:1"
           d="m 133.91,501.365 c 0.19,-0.08 0.38,-0.15 0.59,-0.2 1.94,-0.48 3.91,0.7 4.4,2.64 0.49,1.95 -0.69,3.92 -2.64,4.41 -1.94,0.48 -3.91,-0.7 -4.4,-2.64 -0.2,-0.8 -0.12,-1.61 0.19,-2.31"
           id="path16584"
           inkscape:connector-curvature="0" />
      </g>
      <path
         style="fill:none;fill-opacity:1;stroke:#3d85c6;stroke-width:1.23346646;stroke-linecap:round;stroke-miterlimit:4;stroke-dasharray:none;stroke-dashoffset:0;stroke-opacity:1"
         d="m 68.031,266.21305 h 3.58 c 0.61,0 1.15,0.25 1.55,0.64 0.4,0.4 0.64,0.95 0.64,1.56 0,1.21 -0.98,2.19 -2.19,2.19 h -9.42 c -0.61,0 -1.15,-0.24 -1.55,-0.64 -0.4,-0.4 -0.65,-0.94 -0.65,-1.55 0,-1.22 0.99,-2.2 2.2,-2.2 h 0.5"
         id="path16588"
         inkscape:connector-curvature="0" />
      <path
         style="fill:none;fill-opacity:1;stroke:#3d85c6;stroke-width:1.23346646;stroke-linecap:round;stroke-miterlimit:4;stroke-dasharray:none;stroke-dashoffset:0;stroke-opacity:1"
         d="m 76.531,247.63305 c 0.08,0.7 -0.03,1.43 -0.35,2.12 l -7.26,15.26 c -0.22,0.47 -0.53,0.88 -0.89,1.2 -0.72,0.68 -1.68,1.05 -2.67,1.05 -0.57,0 -1.14,-0.12 -1.69,-0.38 -0.37,-0.18 -0.7,-0.4 -0.98,-0.67 -1.23,-1.14 -1.65,-2.99 -0.89,-4.58 l 6.35,-13.35"
         id="path16590"
         inkscape:connector-curvature="0" />
      <g
         transform="translate(-55.799,-278.87195)"
         style="fill:none;fill-opacity:1;stroke:#3d85c6;stroke-width:1.23346646;stroke-miterlimit:4;stroke-dasharray:none;stroke-dashoffset:0;stroke-opacity:1"
         id="g16594">
        <path
           style="fill:none;fill-opacity:1;stroke:#3d85c6;stroke-width:1.23346646;stroke-linecap:round;stroke-miterlimit:4;stroke-dasharray:none;stroke-dashoffset:0;stroke-opacity:1"
           d="m 121.55,502.985 c 1.17,0.39 2.17,1.25 2.71,2.46 l 7.9,17.82 c 0.26,0.6 0.39,1.22 0.39,1.84 0,0.48 -0.08,0.95 -0.22,1.4 -0.39,1.19 -1.26,2.22 -2.49,2.76 -2.22,0.99 -4.81,0.04 -5.89,-2.11 -0.03,-0.07 -0.07,-0.14 -0.1,-0.21 l -5.2,-11.74"
           id="path16592"
           inkscape:connector-curvature="0" />
      </g>
      <path
         style="fill:none;fill-opacity:1;stroke:#3d85c6;stroke-width:1.23346646;stroke-linecap:round;stroke-miterlimit:4;stroke-dasharray:none;stroke-dashoffset:0;stroke-opacity:1"
         d="m 51.981,266.21305 h 3.94 c 0.6,0 1.15,0.25 1.55,0.64 0.39,0.4 0.64,0.95 0.64,1.56 0,1.21 -0.98,2.19 -2.19,2.19 h -9.42 c -0.6,0 -1.16,-0.24 -1.55,-0.64 -0.4,-0.4 -0.65,-0.94 -0.65,-1.55 0,-1.22 0.99,-2.2 2.2,-2.2 h 0.15"
         id="path16596"
         inkscape:connector-curvature="0" />
      <path
         style="fill:none;fill-opacity:1;stroke:#3d85c6;stroke-width:1.23346646;stroke-linecap:round;stroke-miterlimit:4;stroke-dasharray:none;stroke-dashoffset:0;stroke-opacity:1"
         d="m 60.661,223.36305 h 2.81 c 0.86,0 1.64,0.28 2.28,0.75 1.05,0.76 1.7,2.04 1.58,3.45 l -0.44,5.22 c -0.17,2 -1.85,3.55 -3.86,3.55 h -6.31"
         id="path16598"
         inkscape:connector-curvature="0" />
      <path
         style="fill:none;fill-opacity:1;stroke:#3d85c6;stroke-width:1.23346646;stroke-linecap:round;stroke-miterlimit:4;stroke-dasharray:none;stroke-dashoffset:0;stroke-opacity:1"
         d="m 48.871,193.65305 c 0.98,-0.78 2.23,-1.25 3.59,-1.25 h 10.45 c 0.31,0 0.61,0.02 0.9,0.08 1.08,0.16 2.06,0.63 2.85,1.31 1.32,1.12 2.12,2.83 2.01,4.71 l -0.62,10.78 -0.22,3.89 v 0.01 l -0.19,3.27 c -0.03,0.51 -0.12,0.99 -0.27,1.45 -0.75,2.32 -2.94,3.99 -5.49,3.99 h -3.28 c -0.58,-0.16 -1.21,-0.18 -1.84,-0.02 -0.02,0.01 -0.05,0.01 -0.07,0.02 h -0.45"
         id="path16600"
         inkscape:connector-curvature="0" />
      <path
         style="fill:none;fill-opacity:1;stroke:#3d85c6;stroke-width:1.23346646;stroke-linecap:round;stroke-miterlimit:4;stroke-dasharray:none;stroke-dashoffset:0;stroke-opacity:1"
         d="m 60.481,247.58305 c 0.09,0.72 -0.02,1.47 -0.35,2.17 l -7.25,15.26 c -0.23,0.47 -0.54,0.88 -0.9,1.2 -0.73,0.68 -1.68,1.05 -2.66,1.05 -0.57,0 -1.15,-0.12 -1.69,-0.38 -0.37,-0.18 -0.7,-0.4 -0.98,-0.67 -1.24,-1.14 -1.65,-2.99 -0.89,-4.58 l 6.33,-13.33"
         id="path16602"
         inkscape:connector-curvature="0" />
      <path
         style="fill:none;fill-opacity:1;stroke:#3d85c6;stroke-width:1.23346646;stroke-linecap:round;stroke-miterlimit:4;stroke-dasharray:none;stroke-dashoffset:0;stroke-opacity:1"
         d="m 60.681,246.23305 c 0,0.46 -0.07,0.92 -0.2,1.35 -0.38,1.21 -1.26,2.26 -2.5,2.81 -2.22,0.99 -4.8,0.05 -5.89,-2.09 -0.04,-0.07 -0.08,-0.15 -0.11,-0.23 l -7.89,-17.82 c -0.27,-0.6 -0.39,-1.23 -0.39,-1.84 0,-1.74 1,-3.4 2.7,-4.15 0.85,-0.38 1.75,-0.47 2.6,-0.32 1.45,0.24 2.75,1.19 3.39,2.63 l 4.33,9.76 3.57,8.06 c 0.27,0.6 0.39,1.23 0.39,1.84 z"
         id="path16604"
         inkscape:connector-curvature="0" />
      <g
         transform="translate(-55.799,-278.87195)"
         style="fill:none;fill-opacity:1;stroke:#3d85c6;stroke-width:1.23346646;stroke-miterlimit:4;stroke-dasharray:none;stroke-dashoffset:0;stroke-opacity:1"
         id="g16612">
        <path
           style="fill:none;fill-opacity:1;stroke:#3d85c6;stroke-width:1.23346646;stroke-linecap:round;stroke-miterlimit:4;stroke-dasharray:none;stroke-dashoffset:0;stroke-opacity:1"
           d="m 97.77,490.525 c -0.68,-0.69 -1.04,-1.59 -0.91,-2.52 l 1.89,-13.49 c 0.22,-1.56 1.75,-2.66 3.56,-2.66 0.21,0 0.42,0.01 0.63,0.04 0.65,0.09 1.24,0.31 1.73,0.63 1.1,0.69 1.74,1.84 1.57,3.04 l -1.89,13.5 c -0.02,0.15 -0.06,0.3 -0.1,0.44"
           id="path16606"
           inkscape:connector-curvature="0" />
        <path
           style="fill:none;fill-opacity:1;stroke:#3d85c6;stroke-width:1.23346646;stroke-linecap:round;stroke-miterlimit:4;stroke-dasharray:none;stroke-dashoffset:0;stroke-opacity:1"
           d="m 110.11,502.835 c -1.26,0.61 -2.7,0.45 -3.55,-0.51 l -0.07,-0.07 -8.18,-9.19 c -0.43,-0.49 -0.64,-1.11 -0.64,-1.75 0,-0.26 0.03,-0.53 0.1,-0.79 0.17,-0.68 0.56,-1.35 1.16,-1.88 1.24,-1.1 2.92,-1.26 4.03,-0.49 0.15,0.11 0.3,0.24 0.43,0.39 l 0.86,0.96 7.39,8.3 c 0.43,0.49 0.64,1.11 0.64,1.76 0,0.4 -0.08,0.81 -0.24,1.2 -0.01,0.06 -0.04,0.12 -0.07,0.18"
           id="path16608"
           inkscape:connector-curvature="0" />
        <path
           style="fill:none;fill-opacity:1;stroke:#3d85c6;stroke-width:1.23346646;stroke-linecap:round;stroke-miterlimit:4;stroke-dasharray:none;stroke-dashoffset:0;stroke-opacity:1"
           d="m 115.56,507.215 c -0.36,0.26 -0.77,0.46 -1.23,0.57 -1.95,0.49 -3.92,-0.69 -4.41,-2.64 -0.2,-0.8 -0.12,-1.6 0.19,-2.31 0.08,-0.21 0.19,-0.41 0.33,-0.6 0.37,-0.55 0.89,-1 1.53,-1.29 0.16,-0.07 0.34,-0.13 0.52,-0.18 0.02,-0.01 0.05,-0.01 0.07,-0.02 0.63,-0.16 1.26,-0.14 1.84,0.02 0.83,0.23 1.57,0.75 2.06,1.47 0.22,0.34 0.4,0.72 0.5,1.14 0.05,0.18 0.08,0.37 0.09,0.55 0.13,1.3 -0.46,2.55 -1.49,3.29 z"
           id="path16610"
           inkscape:connector-curvature="0" />
      </g>
      <path
         style="fill:none;fill-opacity:1;stroke:#3d85c6;stroke-width:1.23346646;stroke-linecap:round;stroke-miterlimit:4;stroke-dasharray:none;stroke-dashoffset:0;stroke-opacity:1"
         d="m 67.431,186.17305 h -15.28 c -1.2,0 -2.05,-0.99 -1.7,-1.97 l 2.08,-5.82 c 0.23,-0.64 0.93,-1.08 1.71,-1.08 h 7.75 c 0.69,0 1.31,0.33 1.61,0.85 l 5.44,5.83 c 0.58,1.01 -0.29,2.19 -1.61,2.19 z"
         id="path16614"
         inkscape:connector-curvature="0" />
    </g>
  </g>
</svg>
