<?xml version="1.0" encoding="UTF-8" standalone="no"?>
<!-- Created with Inkscape (http://www.inkscape.org/) -->

<svg
   xmlns:dc="http://purl.org/dc/elements/1.1/"
   xmlns:cc="http://creativecommons.org/ns#"
   xmlns:rdf="http://www.w3.org/1999/02/22-rdf-syntax-ns#"
   xmlns:svg="http://www.w3.org/2000/svg"
   xmlns="http://www.w3.org/2000/svg"
   xmlns:sodipodi="http://sodipodi.sourceforge.net/DTD/sodipodi-0.dtd"
   xmlns:inkscape="http://www.inkscape.org/namespaces/inkscape"
   width="96.774658mm"
   height="43.67997mm"
   viewBox="0 0 96.774659 43.679974"
   version="1.1"
   id="svg40794"
   inkscape:version="0.92.2 (5c3e80d, 2017-08-06)"
   sodipodi:docname="emiia112.svg">
  <defs
     id="defs40788">
    <clipPath
       id="clipEmfPath1"
       clipPathUnits="userSpaceOnUse">
      <path
         id="path3250"
         d="M -0.27328498,6.5621088 H 33.993094 V 40.972618 H -0.27328498 Z"
         inkscape:connector-curvature="0" />
    </clipPath>
    <pattern
       y="0"
       x="0"
       height="6"
       width="6"
       patternUnits="userSpaceOnUse"
       id="EMFhbasepattern" />
    <clipPath
       id="clipEmfPath1-6"
       clipPathUnits="userSpaceOnUse">
      <path
         id="path3355"
         d="M -0.27328498,-0.26725306 H 81.694308 V 82.007214 H -0.27328498 Z"
         inkscape:connector-curvature="0" />
    </clipPath>
    <pattern
       y="0"
       x="0"
       height="6"
       width="6"
       patternUnits="userSpaceOnUse"
       id="EMFhbasepattern-5" />
    <clipPath
       id="clipEmfPath1-4"
       clipPathUnits="userSpaceOnUse">
      <path
         id="path3373"
         d="M -1.1335304,-16.486988 H 81.664305 L 100.83536,100.0085 H -16.493019 Z"
         inkscape:connector-curvature="0" />
    </clipPath>
    <pattern
       y="0"
       x="0"
       height="6"
       width="6"
       patternUnits="userSpaceOnUse"
       id="EMFhbasepattern-4" />
    <pattern
       y="0"
       x="0"
       height="6"
       width="6"
       patternUnits="userSpaceOnUse"
       id="EMFhbasepattern-6" />
  </defs>
  <sodipodi:namedview
     id="base"
     pagecolor="#ffffff"
     bordercolor="#666666"
     borderopacity="1.0"
     inkscape:pageopacity="0.0"
     inkscape:pageshadow="2"
     inkscape:zoom="0.76015625"
     inkscape:cx="55.890658"
     inkscape:cy="-87.37484"
     inkscape:document-units="mm"
     inkscape:current-layer="layer1"
     showgrid="false"
     fit-margin-top="0"
     fit-margin-left="0"
     fit-margin-right="0"
     fit-margin-bottom="0"
     inkscape:window-width="1366"
     inkscape:window-height="745"
     inkscape:window-x="-8"
     inkscape:window-y="-8"
     inkscape:window-maximized="1" />
  <metadata
     id="metadata40791">
    <rdf:RDF>
      <cc:Work
         rdf:about="">
        <dc:format>image/svg+xml</dc:format>
        <dc:type
           rdf:resource="http://purl.org/dc/dcmitype/StillImage" />
        <dc:title></dc:title>
      </cc:Work>
    </rdf:RDF>
  </metadata>
  <g
     inkscape:label="Layer 1"
     inkscape:groupmode="layer"
     id="layer1"
     transform="translate(-52.465864,-84.664128)">
    <g
       id="g1503"
       transform="matrix(0.47499204,0,0,0.47499204,55.3497,68.29444)">
      <path
         d="m 99.822,92.005 9.674,12.718 h 0.525 V 92.005 h 3.797 v 15.872 h -6.519 L 97.764,95.163 h -0.528 v 12.714 H 93.441 V 92.005 Z m 15.848,0 h 16.215 V 95 h -12.418 v 3.477 h 12.029 v 2.769 h -12.029 v 3.637 h 12.418 v 2.994 H 115.67 Z m 32.385,5.077 -3.819,10.795 h -5.582 L 132.48,92.005 h 3.934 l 4.963,12.718 h 0.207 l 4.48,-12.718 h 3.957 l 4.53,12.718 h 0.273 l 4.85,-12.718 h 3.933 l -6.152,15.872 h -5.58 z m 33.849,-0.594 h -3.797 c 0,-0.983 -0.344,-1.488 -1.943,-1.488 h -6.383 c -1.074,0 -1.83,0.436 -1.83,1.648 0,1.441 0.779,1.623 1.83,1.623 h 6.93 c 3.5,0 5.193,0.367 5.193,4.781 0,3.361 -1.465,4.824 -5.215,4.824 h -7.662 c -4.049,0 -5.26,-1.439 -5.26,-4.504 h 3.795 c 0,0.775 0.801,1.51 1.877,1.51 h 6.357 c 1.67,0 2.311,-0.551 2.311,-1.83 0,-1.145 -0.254,-1.785 -2.424,-1.785 h -5.627 c -4.322,0 -5.902,-0.754 -5.902,-4.779 0,-3.202 1.648,-4.483 5.879,-4.483 h 6.451 c 3.842,0 5.42,1.418 5.42,4.483 z"
         id="path915"
         inkscape:connector-curvature="0"
         style="clip-rule:evenodd;fill-rule:evenodd" />
      <path
         d="M 55.83,84.3 H 29.539 l -1.25,7.105 h 8.521 c 5.964,0 8.064,0.738 8.064,3.295 0,4.998 -3.294,5.738 -6.873,5.738 H 26.018 c -4.374,0 -5.737,-0.229 -5.737,-3.75 h -9.145 c -0.17,1.08 -0.283,1.988 -0.283,2.896 0,5.625 3.691,8.293 11.586,8.293 h 15.906 c 7.611,0 14.087,-2.271 15.734,-11.644 0.114,-0.738 0.169,-1.362 0.169,-1.989 0,-4.771 -3.521,-6.532 -5.111,-6.985 2.618,-0.309 5.261,0.424 6.693,-2.959 z M 30.278,75.921 h 26.64 c 0,-6.133 -5.339,-7.917 -11.586,-7.917 H 29.484 c -10.736,0 -14.542,7.042 -15.451,12.211 h 8.861 c 0.626,-3.408 3.691,-4.294 7.384,-4.294 z m 63.447,4.751 c 0,0.631 -0.113,1.548 -0.227,2.065 l -1.211,6.957 h 9.431 l 1.266,-7.129 c 0.285,-1.722 0.455,-3.328 0.455,-4.706 0,-7.06 -3.863,-9.816 -11.928,-9.816 H 61.065 l -1.438,7.773 h 26.487 c 5.737,10e-4 7.611,1.757 7.611,4.856 z m -3.096,15.875 c -1.26,2.361 -3.647,3.41 -8.717,3.41 H 64.928 l 2.758,-15.674 h -9.434 l -4.117,23.594 h 30.503 c 2.274,0 4.25,-0.232 5.991,-0.693 z"
         id="path917"
         inkscape:connector-curvature="0"
         style="clip-rule:evenodd;fill:#5a5d60;fill-opacity:1;fill-rule:evenodd" />
      <path
         d="m 14.715,119.514 1.083,-6.117 h 4.376 c 1.478,0 1.961,0.41 1.961,1.201 0,0.16 -0.03,0.395 -0.059,0.525 l -0.468,2.664 c -0.22,1.215 -0.703,1.727 -2.518,1.727 z m -0.995,-8.137 -1.786,10.156 h 7.858 c 2.62,0 3.776,-1.127 4.244,-3.762 l 0.483,-2.691 c 0.073,-0.439 0.117,-0.85 0.117,-1.201 0,-1.801 -0.995,-2.502 -3.074,-2.502 z m 15.599,7.025 h 2.502 c 0.894,0 1.054,0.234 1.054,0.6 0,0.805 -0.439,1.023 -1.332,1.023 h -2.502 c -0.879,0 -1.04,-0.232 -1.04,-0.541 0.002,-0.894 0.47,-1.082 1.318,-1.082 z m -0.804,-2.006 0.043,-0.234 c 0.059,-0.277 0.219,-0.35 0.995,-0.35 h 2.576 c 0.923,0 1.215,0.16 1.215,0.672 0,0.117 -0.147,0.82 -0.191,1.113 -0.176,-0.469 -0.512,-0.703 -1.229,-0.703 h -2.941 c -2.269,0 -3.043,0.717 -3.263,1.918 l -0.147,0.877 a 3.257,3.257 0 0 0 -0.029,0.381 c 0,0.996 0.807,1.463 2.123,1.463 h 3.249 c 0.877,0 1.185,-0.277 1.683,-0.82 l -0.147,0.82 h 2.43 l 0.834,-4.684 c 0.029,-0.189 0.058,-0.439 0.058,-0.57 0,-1.127 -0.717,-1.975 -2.678,-1.975 H 29.51 c -2.282,0 -3.088,0.906 -3.308,2.092 z m 10.404,5.137 h -2.428 l 1.272,-7.229 h 2.429 z m 1.787,-10.156 -0.353,2.02 h -2.428 l 0.351,-2.02 z m 2.502,10.156 h -2.43 l 1.786,-10.156 h 2.429 z m 5.458,-7.228 1.099,5.209 h 0.277 l 3.337,-5.209 h 2.342 l -4.683,7.215 c -1.728,2.676 -2.195,3.102 -4.463,3.102 h -0.337 l 0.293,-1.668 h 0.336 c 0.819,0 1.186,-0.16 1.975,-1.42 h -0.644 l -1.801,-7.229 z m 14.196,5.209 1.083,-6.117 h 4.376 c 1.478,0 1.961,0.41 1.961,1.201 0,0.16 -0.029,0.395 -0.059,0.525 l -0.468,2.664 c -0.22,1.215 -0.703,1.727 -2.517,1.727 z m -0.995,-8.137 -1.786,10.156 h 7.859 c 2.619,0 3.775,-1.127 4.244,-3.762 l 0.482,-2.691 a 7.44,7.44 0 0 0 0.117,-1.201 c 0,-1.801 -0.995,-2.502 -3.072,-2.502 z m 13.903,10.156 h -2.43 l 1.273,-7.229 h 2.429 z m 1.785,-10.156 -0.351,2.02 h -2.43 l 0.352,-2.02 z m 5.487,4.596 h 1.639 c 1.068,0 1.45,0.408 1.45,1.082 0,0.029 -0.015,0.219 -0.03,0.309 l -0.204,1.141 c -0.147,0.893 -0.703,1.361 -1.902,1.361 h -1.639 c -1.04,0 -1.45,-0.6 -1.45,-1.127 0,-0.234 0.131,-0.936 0.219,-1.391 0.147,-0.76 0.878,-1.375 1.917,-1.375 z m 3.585,-1.668 -0.16,0.906 c -0.045,-0.102 -0.411,-0.906 -1.903,-0.906 h -2.209 c -1.875,0 -3.322,0.965 -3.63,2.721 l -0.322,1.859 c -0.029,0.16 -0.043,0.322 -0.043,0.482 0,1.201 0.833,2.166 2.62,2.166 h 2.355 c 1.038,0 1.901,-0.557 2.209,-1.055 l -0.277,1.508 c -0.117,0.688 -0.674,1.098 -1.419,1.098 h -2.489 c -0.644,0 -0.893,-0.277 -0.893,-0.85 h -2.443 c -0.03,0.162 -0.044,0.309 -0.044,0.455 0,1.244 0.98,2.064 2.43,2.064 h 3.498 c 2.224,0 3.497,-1.055 3.819,-2.885 l 1.331,-7.564 h -2.43 z m 4.83,7.228 h -2.43 l 1.274,-7.229 h 2.43 z m 1.786,-10.156 -0.352,2.02 h -2.429 l 0.351,-2.02 z m 4.403,1.537 -0.248,1.391 h 4.537 l -0.293,1.668 h -4.537 l -0.453,2.547 a 2.926,2.926 0 0 0 -0.043,0.438 c 0,0.631 0.365,0.908 0.965,0.908 h 1.01 c 0.703,0 1.055,-0.555 1.186,-1.289 h 2.43 c -0.277,1.521 -0.938,2.957 -4.039,2.957 h -1.537 c -1.64,0 -2.503,-0.791 -2.503,-2.094 0,-0.189 0.015,-0.379 0.058,-0.598 l 0.498,-2.869 h -0.878 l 0.292,-1.668 h 0.878 l 0.25,-1.391 z m 9.631,5.488 h 2.504 c 0.891,0 1.053,0.234 1.053,0.6 0,0.805 -0.439,1.023 -1.332,1.023 h -2.504 c -0.877,0 -1.039,-0.232 -1.039,-0.541 0,-0.894 0.469,-1.082 1.318,-1.082 z m -0.804,-2.006 0.043,-0.234 c 0.059,-0.277 0.221,-0.35 0.996,-0.35 h 2.576 c 0.92,0 1.213,0.16 1.213,0.672 0,0.117 -0.145,0.82 -0.189,1.113 -0.176,-0.469 -0.512,-0.703 -1.229,-0.703 h -2.941 c -2.27,0 -3.045,0.717 -3.266,1.918 l -0.145,0.877 a 3.053,3.053 0 0 0 -0.029,0.381 c 0,0.996 0.803,1.463 2.121,1.463 h 3.248 c 0.879,0 1.186,-0.277 1.684,-0.82 l -0.145,0.82 h 2.428 l 0.834,-4.684 a 4.76,4.76 0 0 0 0.059,-0.57 c 0,-1.127 -0.717,-1.975 -2.678,-1.975 h -3.586 c -2.283,0 -3.088,0.906 -3.307,2.092 z m 10.332,5.137 h -2.43 l 1.785,-10.156 h 2.43 z m 9.642,-2.019 1.082,-6.117 h 4.377 c 1.479,0 1.961,0.41 1.961,1.201 0,0.16 -0.029,0.395 -0.057,0.525 l -0.471,2.664 c -0.219,1.215 -0.701,1.727 -2.516,1.727 z m -0.994,-8.137 -1.785,10.156 h 7.857 c 2.621,0 3.775,-1.127 4.246,-3.762 l 0.482,-2.691 c 0.072,-0.439 0.117,-0.85 0.117,-1.201 0,-1.801 -0.996,-2.502 -3.074,-2.502 z m 13.902,10.156 h -2.43 l 1.273,-7.229 h 2.43 z m 1.788,-10.156 -0.354,2.02 h -2.428 l 0.35,-2.02 z m 5.486,4.596 h 1.641 c 1.066,0 1.447,0.408 1.447,1.082 a 3.4,3.4 0 0 1 -0.029,0.309 l -0.205,1.141 c -0.146,0.893 -0.703,1.361 -1.902,1.361 h -1.639 c -1.039,0 -1.449,-0.6 -1.449,-1.127 0,-0.234 0.133,-0.936 0.221,-1.391 0.145,-0.76 0.876,-1.375 1.915,-1.375 z m 3.586,-1.668 -0.162,0.906 c -0.043,-0.102 -0.408,-0.906 -1.902,-0.906 h -2.209 c -1.873,0 -3.322,0.965 -3.631,2.721 l -0.32,1.859 a 2.71,2.71 0 0 0 -0.045,0.482 c 0,1.201 0.836,2.166 2.619,2.166 h 2.357 c 1.039,0 1.902,-0.557 2.209,-1.055 l -0.277,1.508 c -0.117,0.688 -0.672,1.098 -1.42,1.098 h -2.486 c -0.645,0 -0.895,-0.277 -0.895,-0.85 h -2.443 a 2.557,2.557 0 0 0 -0.045,0.455 c 0,1.244 0.98,2.064 2.43,2.064 h 3.498 c 2.225,0 3.498,-1.055 3.82,-2.885 l 1.33,-7.564 h -2.428 z m 9.877,2.795 h -4.828 c 0.115,-0.703 0.512,-1.318 1.463,-1.318 h 2.24 c 0.877,0 1.154,0.424 1.154,0.98 0,0.045 -0.014,0.22 -0.029,0.338 z m 2.078,1.347 c 0.266,-1.465 0.293,-1.699 0.293,-1.934 0,-1.199 -0.643,-2.24 -2.648,-2.24 h -3.453 c -2.166,0 -3.277,1.393 -3.498,2.666 l -0.322,1.828 a 3.173,3.173 0 0 0 -0.059,0.615 c 0,1.258 0.791,2.15 2.547,2.15 h 3.557 c 2.443,0 3.234,-1.098 3.467,-2.371 h -2.326 c -0.102,0.572 -0.438,0.863 -1.025,0.863 h -2.809 c -0.775,0 -0.967,-0.408 -0.967,-0.877 0,-0.133 0.016,-0.277 0.088,-0.701 h 7.155 z m 0.82,1.403 c 0,-0.189 0.014,-0.41 0.059,-0.629 h 2.033 c 0,0.6 0.148,0.805 0.807,0.805 h 2.984 c 0.748,0 1.098,-0.277 1.098,-0.701 0,-0.25 -0.146,-0.629 -0.906,-0.629 h -3.469 c -1.377,0 -2.078,-0.514 -2.078,-1.537 0,-0.146 0.014,-0.309 0.117,-0.908 0.205,-1.127 0.98,-1.977 3.191,-1.977 h 3.248 c 1.887,0 2.633,0.439 2.633,1.598 0,0.205 -0.029,0.438 -0.074,0.688 h -2.18 c 0,-0.674 -0.291,-0.777 -1.111,-0.777 h -2.752 c -0.688,0 -1.023,0.295 -1.023,0.732 0,0.191 0.029,0.512 0.746,0.512 h 3.293 c 1.916,0 2.664,0.498 2.664,1.436 0,0.129 -0.016,0.264 -0.117,0.877 -0.264,1.449 -1.406,2.195 -3.309,2.195 h -3.453 c -1.684,-0.002 -2.401,-0.543 -2.401,-1.685 z m 14.313,-6.936 -0.248,1.391 h 4.537 l -0.293,1.668 h -4.537 l -0.453,2.547 a 2.723,2.723 0 0 0 -0.045,0.438 c 0,0.631 0.367,0.908 0.967,0.908 h 1.01 c 0.701,0 1.053,-0.555 1.186,-1.289 h 2.43 c -0.279,1.521 -0.938,2.957 -4.039,2.957 h -1.539 c -1.637,0 -2.502,-0.791 -2.502,-2.094 0,-0.189 0.016,-0.379 0.061,-0.598 l 0.496,-2.869 h -0.879 l 0.293,-1.668 h 0.879 l 0.248,-1.391 z"
         id="path919"
         inkscape:connector-curvature="0"
         style="clip-rule:evenodd;fill:#929496;fill-rule:evenodd" />
    </g>
  </g>
</svg>
