<?xml version="1.0" encoding="UTF-8" standalone="no"?>
<!-- Created with Inkscape (http://www.inkscape.org/) -->

<svg
   xmlns:dc="http://purl.org/dc/elements/1.1/"
   xmlns:cc="http://creativecommons.org/ns#"
   xmlns:rdf="http://www.w3.org/1999/02/22-rdf-syntax-ns#"
   xmlns:svg="http://www.w3.org/2000/svg"
   xmlns="http://www.w3.org/2000/svg"
   xmlns:sodipodi="http://sodipodi.sourceforge.net/DTD/sodipodi-0.dtd"
   xmlns:inkscape="http://www.inkscape.org/namespaces/inkscape"
   width="96.774658mm"
   height="43.67997mm"
   viewBox="0 0 96.774659 43.679974"
   version="1.1"
   id="svg40794"
   inkscape:version="0.92.2 (5c3e80d, 2017-08-06)"
   sodipodi:docname="emiia111.svg">
  <defs
     id="defs40788">
    <clipPath
       id="clipEmfPath1"
       clipPathUnits="userSpaceOnUse">
      <path
         id="path3250"
         d="M -0.27328498,6.5621088 H 33.993094 V 40.972618 H -0.27328498 Z"
         inkscape:connector-curvature="0" />
    </clipPath>
    <pattern
       y="0"
       x="0"
       height="6"
       width="6"
       patternUnits="userSpaceOnUse"
       id="EMFhbasepattern" />
    <clipPath
       id="clipEmfPath1-6"
       clipPathUnits="userSpaceOnUse">
      <path
         id="path3355"
         d="M -0.27328498,-0.26725306 H 81.694308 V 82.007214 H -0.27328498 Z"
         inkscape:connector-curvature="0" />
    </clipPath>
    <pattern
       y="0"
       x="0"
       height="6"
       width="6"
       patternUnits="userSpaceOnUse"
       id="EMFhbasepattern-5" />
    <clipPath
       id="clipEmfPath1-4"
       clipPathUnits="userSpaceOnUse">
      <path
         id="path3373"
         d="M -1.1335304,-16.486988 H 81.664305 L 100.83536,100.0085 H -16.493019 Z"
         inkscape:connector-curvature="0" />
    </clipPath>
    <pattern
       y="0"
       x="0"
       height="6"
       width="6"
       patternUnits="userSpaceOnUse"
       id="EMFhbasepattern-4" />
    <pattern
       y="0"
       x="0"
       height="6"
       width="6"
       patternUnits="userSpaceOnUse"
       id="EMFhbasepattern-6" />
  </defs>
  <sodipodi:namedview
     id="base"
     pagecolor="#ffffff"
     bordercolor="#666666"
     borderopacity="1.0"
     inkscape:pageopacity="0.0"
     inkscape:pageshadow="2"
     inkscape:zoom="0.76015625"
     inkscape:cx="-157.75024"
     inkscape:cy="-87.37484"
     inkscape:document-units="mm"
     inkscape:current-layer="layer1"
     showgrid="false"
     fit-margin-top="0"
     fit-margin-left="0"
     fit-margin-right="0"
     fit-margin-bottom="0"
     inkscape:window-width="1366"
     inkscape:window-height="745"
     inkscape:window-x="-8"
     inkscape:window-y="-8"
     inkscape:window-maximized="1" />
  <metadata
     id="metadata40791">
    <rdf:RDF>
      <cc:Work
         rdf:about="">
        <dc:format>image/svg+xml</dc:format>
        <dc:type
           rdf:resource="http://purl.org/dc/dcmitype/StillImage" />
        <dc:title />
      </cc:Work>
    </rdf:RDF>
  </metadata>
  <g
     inkscape:label="Layer 1"
     inkscape:groupmode="layer"
     id="layer1"
     transform="translate(-52.465864,-84.664128)">
    <g
       aria-label="HI-TECH@MAIL.RU"
       style="font-style:normal;font-variant:normal;font-weight:normal;font-stretch:normal;font-size:12.69999981px;line-height:1.25;font-family:Orbitron;-inkscape-font-specification:Orbitron;letter-spacing:0px;word-spacing:0px;fill:#000000;fill-opacity:1;stroke:none;stroke-width:0.26458332"
       id="text883">
      <path
         d="m 61.170669,123.96762 q 0,0.22737 -0.160197,0.38757 -0.160197,0.1602 -0.387574,0.1602 -0.227376,0 -0.387573,-0.1602 -0.160197,-0.1602 -0.160197,-0.38757 v -3.03858 h -3.68453 v 3.03858 q 0,0.22737 -0.160197,0.38757 -0.160197,0.1602 -0.387573,0.1602 -0.227376,0 -0.387573,-0.1602 -0.160197,-0.1602 -0.160197,-0.38757 v -7.17269 q 0,-0.22738 0.160197,-0.38757 0.160197,-0.1602 0.387573,-0.1602 0.227376,0 0.387573,0.1602 0.160197,0.16019 0.160197,0.38757 v 3.03857 h 3.68453 v -3.03857 q 0,-0.22738 0.160197,-0.38757 0.160197,-0.1602 0.387573,-0.1602 0.227377,0 0.387574,0.1602 0.160197,0.16019 0.160197,0.38757 z"
         style="font-style:normal;font-variant:normal;font-weight:bold;font-stretch:normal;font-size:10.58333397px;font-family:Comfortaa;-inkscape-font-specification:'Comfortaa Bold';stroke-width:0.26458332"
         id="path2146" />
      <path
         d="m 63.366917,123.96762 q 0,0.22737 -0.160197,0.38757 -0.160196,0.1602 -0.387573,0.1602 -0.227376,0 -0.387573,-0.1602 -0.160197,-0.1602 -0.160197,-0.38757 v -7.17269 q 0,-0.22738 0.160197,-0.38757 0.160197,-0.1602 0.387573,-0.1602 0.227377,0 0.387573,0.1602 0.160197,0.16019 0.160197,0.38757 z"
         style="font-style:normal;font-variant:normal;font-weight:bold;font-stretch:normal;font-size:10.58333397px;font-family:Comfortaa;-inkscape-font-specification:'Comfortaa Bold';stroke-width:0.26458332"
         id="path2148" />
      <path
         d="m 64.91721,122.15894 q -0.232544,0 -0.387573,-0.14986 -0.149862,-0.15503 -0.149862,-0.38757 0,-0.23255 0.149862,-0.38241 0.155029,-0.15503 0.387573,-0.15503 h 2.356446 q 0.232544,0 0.382405,0.15503 0.15503,0.14986 0.15503,0.38241 0,0.23254 -0.15503,0.38757 -0.149861,0.14986 -0.382405,0.14986 z"
         style="font-style:normal;font-variant:normal;font-weight:bold;font-stretch:normal;font-size:10.58333397px;font-family:Comfortaa;-inkscape-font-specification:'Comfortaa Bold';stroke-width:0.26458332"
         id="path2150" />
      <path
         d="m 74.255143,117.3427 h -2.04122 v 6.62492 q 0,0.22737 -0.160197,0.38757 -0.160197,0.1602 -0.387573,0.1602 -0.227376,0 -0.387573,-0.1602 -0.160197,-0.1602 -0.160197,-0.38757 v -6.62492 h -2.041219 q -0.227377,0 -0.387574,-0.1602 -0.160196,-0.16019 -0.160196,-0.38757 0,-0.22738 0.160196,-0.38757 0.160197,-0.1602 0.387574,-0.1602 h 5.177979 q 0.227376,0 0.387573,0.1602 0.160197,0.16019 0.160197,0.38757 0,0.22738 -0.160197,0.38757 -0.160197,0.1602 -0.387573,0.1602 z"
         style="font-style:normal;font-variant:normal;font-weight:bold;font-stretch:normal;font-size:10.58333397px;font-family:Comfortaa;-inkscape-font-specification:'Comfortaa Bold';stroke-width:0.26458332"
         id="path2152" />
      <path
         d="m 80.880061,123.41985 q 0.227376,0 0.387573,0.1602 0.160197,0.16019 0.160197,0.38757 0,0.22737 -0.160197,0.38757 -0.160197,0.1602 -0.387573,0.1602 H 76.09999 q -0.118856,0 -0.217041,-0.0413 -0.09819,-0.0413 -0.1757,-0.11369 -0.07235,-0.0775 -0.113688,-0.1757 -0.04134,-0.0982 -0.04134,-0.21704 v -7.17269 q 0,-0.11369 0.04134,-0.21187 0.04134,-0.10336 0.113688,-0.1757 0.07751,-0.0775 0.1757,-0.11886 0.09819,-0.0413 0.217041,-0.0413 h 4.780071 q 0.227376,0 0.387573,0.1602 0.160197,0.16019 0.160197,0.38757 0,0.22738 -0.160197,0.38757 -0.160197,0.1602 -0.387573,0.1602 H 76.64776 v 2.4908 h 3.038575 q 0.227376,0 0.387573,0.1602 0.160197,0.1602 0.160197,0.38757 0,0.22738 -0.160197,0.38758 -0.160197,0.16019 -0.387573,0.16019 H 76.64776 v 2.49081 z"
         style="font-style:normal;font-variant:normal;font-weight:bold;font-stretch:normal;font-size:10.58333397px;font-family:Comfortaa;-inkscape-font-specification:'Comfortaa Bold';stroke-width:0.26458332"
         id="path2154" />
      <path
         d="m 87.871884,122.65504 q 0.113688,0 0.211873,0.0465 0.09819,0.0413 0.170532,0.11368 0.07752,0.0724 0.118856,0.1757 0.04651,0.0982 0.04651,0.21188 0,0.21704 -0.170532,0.39274 -1.152385,0.91984 -2.599325,0.91984 -1.715658,0 -2.924886,-1.20923 -1.209229,-1.20923 -1.209229,-2.92489 0,-1.71049 1.209229,-2.91971 1.214396,-1.2144 2.924886,-1.2144 1.467611,0 2.651001,0.96635 0.144694,0.13952 0.144694,0.37724 0,0.11885 -0.04134,0.21704 -0.04134,0.0982 -0.118856,0.1757 -0.07235,0.0723 -0.1757,0.11369 -0.09819,0.0413 -0.211873,0.0413 -0.201538,0 -0.377238,-0.15503 -0.392741,-0.31006 -0.868164,-0.47543 -0.470256,-0.16536 -1.002523,-0.16536 -1.260905,0 -2.154907,0.894 -0.883667,0.88367 -0.883667,2.14457 0,1.26608 0.883667,2.14974 0.888834,0.88884 2.154907,0.88884 1.080038,0 1.901693,-0.66663 0.134359,-0.093 0.320394,-0.0982 z"
         style="font-style:normal;font-variant:normal;font-weight:bold;font-stretch:normal;font-size:10.58333397px;font-family:Comfortaa;-inkscape-font-specification:'Comfortaa Bold';stroke-width:0.26458332"
         id="path2156" />
      <path
         d="m 95.029071,123.96762 q 0,0.22737 -0.160197,0.38757 -0.160197,0.1602 -0.387573,0.1602 -0.227377,0 -0.387574,-0.1602 -0.160197,-0.1602 -0.160197,-0.38757 v -3.03858 h -3.684529 v 3.03858 q 0,0.22737 -0.160197,0.38757 -0.160197,0.1602 -0.387574,0.1602 -0.227376,0 -0.387573,-0.1602 -0.160197,-0.1602 -0.160197,-0.38757 v -7.17269 q 0,-0.22738 0.160197,-0.38757 0.160197,-0.1602 0.387573,-0.1602 0.227377,0 0.387574,0.1602 0.160197,0.16019 0.160197,0.38757 v 3.03857 h 3.684529 v -3.03857 q 0,-0.22738 0.160197,-0.38757 0.160197,-0.1602 0.387574,-0.1602 0.227376,0 0.387573,0.1602 0.160197,0.16019 0.160197,0.38757 z"
         style="font-style:normal;font-variant:normal;font-weight:bold;font-stretch:normal;font-size:10.58333397px;font-family:Comfortaa;-inkscape-font-specification:'Comfortaa Bold';stroke-width:0.26458332"
         id="path2158" />
      <path
         d="m 101.16823,119.77666 q -0.38241,0 -0.72347,0.14469 -0.34106,0.1447 -0.594279,0.39274 -0.248047,0.24805 -0.397909,0.58912 -0.144694,0.34106 -0.144694,0.72347 0,0.3824 0.144694,0.72347 0.149862,0.34106 0.397909,0.58911 0.253219,0.24804 0.594279,0.39274 0.34106,0.14469 0.72347,0.14469 0.38241,0 0.72347,-0.14469 0.34106,-0.14986 0.58911,-0.40308 0.24805,-0.25321 0.39274,-0.58911 0.1447,-0.3359 0.1447,-0.71313 0,-0.37724 -0.1447,-0.71314 -0.14469,-0.3359 -0.39274,-0.58911 -0.24805,-0.25321 -0.58911,-0.39791 -0.34106,-0.14986 -0.72347,-0.14986 z m 3.20911,5.21415 q -1.18856,0 -1.33326,-1.0697 -0.82682,0.66663 -1.87585,0.66663 -1.224732,0 -2.092896,-0.86817 -0.868164,-0.86816 -0.868164,-2.09289 0,-1.22474 0.868164,-2.0929 0.868164,-0.86816 2.092896,-0.86816 1.22473,0 2.08773,0.86816 0.87333,0.86816 0.87333,2.0929 v 2.01021 q 0,0.24805 0.24805,0.24805 1.0542,0 1.0542,-2.25826 0,-0.90434 -0.31523,-1.64848 -0.31006,-0.74414 -0.93534,-1.36426 -0.63046,-0.62529 -1.3746,-0.94051 -0.74414,-0.31523 -1.63814,-0.31523 -1.772502,0 -3.023072,1.25574 -1.245402,1.24023 -1.245402,3.01274 0,1.7725 1.245402,3.01273 1.25057,1.25574 3.023072,1.25574 0.94051,0 1.757,-0.36174 0.12402,-0.0723 0.25838,-0.0723 0.23254,0 0.38757,0.16019 0.1602,0.16537 0.1602,0.39791 0,0.17053 -0.10335,0.31523 -0.0982,0.14986 -0.24805,0.19637 -1.02319,0.46509 -2.21175,0.46509 -2.222087,0 -3.798218,-1.57613 -1.570964,-1.57614 -1.570964,-3.79305 0,-2.21176 1.570964,-3.79305 1.576131,-1.57614 3.798218,-1.57614 2.21175,0 3.78788,1.57614 1.57613,1.58129 1.57613,3.79305 0,3.36413 -2.1549,3.36413 z"
         style="font-style:normal;font-variant:normal;font-weight:bold;font-stretch:normal;font-size:10.58333397px;font-family:Comfortaa;-inkscape-font-specification:'Comfortaa Bold';fill:#a5abab;fill-opacity:1"
         id="path2160" />
      <path
         d="m 107.36424,123.96762 v -7.17269 q 0,-0.11369 0.0413,-0.21187 0.0413,-0.10336 0.11369,-0.1757 0.0775,-0.0775 0.1757,-0.11886 0.0982,-0.0413 0.21704,-0.0413 0.32039,0 0.48575,0.29455 l 3.10059,6.19601 3.10059,-6.19601 q 0.18603,-0.29455 0.48576,-0.29455 0.11368,0 0.21187,0.0413 0.10335,0.0413 0.1757,0.11886 0.0775,0.0723 0.11885,0.1757 0.0413,0.0982 0.0413,0.21187 v 7.17269 q 0,0.22737 -0.1602,0.38757 -0.1602,0.1602 -0.38757,0.1602 -0.22738,0 -0.38758,-0.1602 -0.16019,-0.1602 -0.16019,-0.38757 v -4.84725 l -2.56316,5.12113 q -0.16019,0.27389 -0.47542,0.27389 -0.34106,0 -0.50126,-0.33073 l -2.53731,-5.06429 v 4.84725 q 0,0.22737 -0.1602,0.38757 -0.1602,0.1602 -0.38757,0.1602 -0.22738,0 -0.38758,-0.1602 -0.16019,-0.1602 -0.16019,-0.38757 z"
         style="font-style:normal;font-variant:normal;font-weight:bold;font-stretch:normal;font-size:10.58333397px;font-family:Comfortaa;-inkscape-font-specification:'Comfortaa Bold';stroke-width:0.26458332"
         id="path2162" />
      <path
         d="m 120.68125,120.62932 -0.89917,-2.32027 -0.89917,2.32027 z m -4.18062,3.09025 2.75952,-7.10034 q 0.16536,-0.37207 0.52193,-0.37207 0.3669,0 0.52193,0.37207 l 2.76986,7.12618 q 0.0413,0.10335 0.0413,0.22221 0,0.22737 -0.1602,0.38757 -0.16019,0.1602 -0.38757,0.1602 -0.22737,0 -0.3824,-0.1602 -0.0827,-0.0827 -0.12403,-0.1757 l -0.95601,-2.45463 h -2.64583 l -0.96119,2.45463 q -0.0413,0.093 -0.12402,0.1757 -0.1602,0.1602 -0.38757,0.1602 -0.22738,0 -0.38758,-0.1602 -0.15503,-0.1602 -0.15503,-0.38757 0,-0.12403 0.0568,-0.24805 z"
         style="font-style:normal;font-variant:normal;font-weight:bold;font-stretch:normal;font-size:10.58333397px;font-family:Comfortaa;-inkscape-font-specification:'Comfortaa Bold';stroke-width:0.26458332"
         id="path2164" />
      <path
         d="m 125.3373,123.96762 q 0,0.22737 -0.16019,0.38757 -0.1602,0.1602 -0.38758,0.1602 -0.22737,0 -0.38757,-0.1602 -0.1602,-0.1602 -0.1602,-0.38757 v -7.17269 q 0,-0.22738 0.1602,-0.38757 0.1602,-0.1602 0.38757,-0.1602 0.22738,0 0.38758,0.1602 0.16019,0.16019 0.16019,0.38757 z"
         style="font-style:normal;font-variant:normal;font-weight:bold;font-stretch:normal;font-size:10.58333397px;font-family:Comfortaa;-inkscape-font-specification:'Comfortaa Bold';stroke-width:0.26458332"
         id="path2166" />
      <path
         d="m 126.35533,116.79493 q 0,-0.22738 0.16019,-0.38757 0.1602,-0.1602 0.38758,-0.1602 0.22737,0 0.38757,0.1602 0.1602,0.16019 0.1602,0.38757 v 6.62492 h 3.83439 q 0.22738,0 0.38757,0.1602 0.1602,0.16019 0.1602,0.38757 0,0.22737 -0.1602,0.38757 -0.16019,0.1602 -0.38757,0.1602 h -4.38216 q -0.11886,0 -0.21704,-0.0413 -0.0982,-0.0413 -0.1757,-0.11369 -0.0724,-0.0775 -0.11369,-0.1757 -0.0413,-0.0982 -0.0413,-0.21704 z"
         style="font-style:normal;font-variant:normal;font-weight:bold;font-stretch:normal;font-size:10.58333397px;font-family:Comfortaa;-inkscape-font-specification:'Comfortaa Bold';stroke-width:0.26458332"
         id="path2168" />
      <path
         d="m 133.94143,123.78158 q 0,0.30489 -0.21704,0.52194 -0.21188,0.21187 -0.51677,0.21187 -0.30489,0 -0.52193,-0.21187 -0.21187,-0.21705 -0.21187,-0.52194 0,-0.30489 0.21187,-0.51676 0.21704,-0.21704 0.52193,-0.21704 0.30489,0 0.51677,0.21704 0.21704,0.21187 0.21704,0.51676 z"
         style="font-style:normal;font-variant:normal;font-weight:bold;font-stretch:normal;font-size:10.58333397px;font-family:Comfortaa;-inkscape-font-specification:'Comfortaa Bold';fill:#a5abab;fill-opacity:1"
         id="path2170" />
      <path
         d="m 135.71909,117.3427 v 2.88871 h 1.44694 q 0.29973,0 0.56328,-0.11369 0.26355,-0.11368 0.45475,-0.31005 0.19637,-0.20154 0.31006,-0.45993 0.11369,-0.26354 0.11369,-0.5581 0,-0.29972 -0.11369,-0.56327 -0.11369,-0.26355 -0.31006,-0.45992 -0.19637,-0.19637 -0.45992,-0.31006 -0.26355,-0.11369 -0.55811,-0.11369 z m -1.09554,6.62492 v -7.17269 q 0,-0.11369 0.0413,-0.21187 0.0413,-0.10336 0.11368,-0.1757 0.0775,-0.0775 0.1757,-0.11886 0.0982,-0.0413 0.21704,-0.0413 h 1.99471 q 0.52194,0 0.98186,0.20154 0.46509,0.20154 0.80615,0.54777 0.34623,0.34623 0.54777,0.81132 0.20154,0.45992 0.20154,0.98185 0,0.34106 -0.0879,0.66663 -0.0827,0.32039 -0.25322,0.60978 -0.16536,0.28422 -0.41858,0.53226 -0.24804,0.24288 -0.57877,0.42892 l 1.64848,2.64066 q 0.0879,0.1447 0.0879,0.29973 0,0.11885 -0.0413,0.21704 -0.0413,0.0982 -0.11886,0.1757 -0.0724,0.0724 -0.1757,0.11369 -0.0982,0.0413 -0.21187,0.0413 -0.28939,0 -0.47026,-0.26872 l -1.82418,-2.91972 h -1.53996 v 2.64067 q 0,0.22737 -0.16019,0.38757 -0.1602,0.1602 -0.38758,0.1602 -0.22737,0 -0.38757,-0.1602 -0.1602,-0.1602 -0.1602,-0.38757 z"
         style="font-style:normal;font-variant:normal;font-weight:bold;font-stretch:normal;font-size:10.58333397px;font-family:Comfortaa;-inkscape-font-specification:'Comfortaa Bold';fill:#a5abab;fill-opacity:1"
         id="path2172" />
      <path
         d="m 141.92543,116.79493 v 4.78007 q 0,0.37724 0.1447,0.71313 0.14469,0.3359 0.39274,0.58912 0.24805,0.24804 0.58394,0.3979 0.3359,0.1447 0.71831,0.1447 0.3824,0 0.7183,-0.1447 0.33589,-0.14469 0.58394,-0.3979 0.25322,-0.25322 0.39791,-0.58395 0.14469,-0.3359 0.14469,-0.7183 v -4.78007 q 0,-0.22738 0.1602,-0.38757 0.1602,-0.1602 0.38757,-0.1602 0.22738,0 0.38758,0.1602 0.16019,0.16019 0.16019,0.38757 v 4.78007 q 0,0.40308 -0.10852,0.77515 -0.10335,0.37207 -0.29455,0.7028 -0.1912,0.32556 -0.45992,0.59427 -0.26872,0.26872 -0.59945,0.46509 -0.32556,0.19121 -0.7028,0.29973 -0.37207,0.10335 -0.77514,0.10335 -1.21957,0 -2.07223,-0.863 -0.863,-0.86299 -0.863,-2.07739 v -4.78007 q 0,-0.22738 0.1602,-0.38757 0.1602,-0.1602 0.38757,-0.1602 0.22738,0 0.38758,0.1602 0.16019,0.16019 0.16019,0.38757 z"
         style="font-style:normal;font-variant:normal;font-weight:bold;font-stretch:normal;font-size:10.58333397px;font-family:Comfortaa;-inkscape-font-specification:'Comfortaa Bold';fill:#a5abab;fill-opacity:1"
         id="path2174" />
    </g>
  </g>
</svg>
