<?xml version="1.0" encoding="UTF-8" standalone="no"?>
<!-- Created with Inkscape (http://www.inkscape.org/) -->

<svg
   xmlns:dc="http://purl.org/dc/elements/1.1/"
   xmlns:cc="http://creativecommons.org/ns#"
   xmlns:rdf="http://www.w3.org/1999/02/22-rdf-syntax-ns#"
   xmlns:svg="http://www.w3.org/2000/svg"
   xmlns="http://www.w3.org/2000/svg"
   xmlns:sodipodi="http://sodipodi.sourceforge.net/DTD/sodipodi-0.dtd"
   xmlns:inkscape="http://www.inkscape.org/namespaces/inkscape"
   width="96.774658mm"
   height="43.67997mm"
   viewBox="0 0 96.774659 43.679974"
   version="1.1"
   id="svg40794"
   inkscape:version="0.92.2 (5c3e80d, 2017-08-06)"
   sodipodi:docname="emiia131.svg">
  <defs
     id="defs40788">
    <clipPath
       id="clipEmfPath1"
       clipPathUnits="userSpaceOnUse">
      <path
         id="path3250"
         d="M -0.27328498,6.5621088 H 33.993094 V 40.972618 H -0.27328498 Z"
         inkscape:connector-curvature="0" />
    </clipPath>
    <pattern
       y="0"
       x="0"
       height="6"
       width="6"
       patternUnits="userSpaceOnUse"
       id="EMFhbasepattern" />
    <clipPath
       id="clipEmfPath1-6"
       clipPathUnits="userSpaceOnUse">
      <path
         id="path3355"
         d="M -0.27328498,-0.26725306 H 81.694308 V 82.007214 H -0.27328498 Z"
         inkscape:connector-curvature="0" />
    </clipPath>
    <pattern
       y="0"
       x="0"
       height="6"
       width="6"
       patternUnits="userSpaceOnUse"
       id="EMFhbasepattern-5" />
    <clipPath
       id="clipEmfPath1-4"
       clipPathUnits="userSpaceOnUse">
      <path
         id="path3373"
         d="M -1.1335304,-16.486988 H 81.664305 L 100.83536,100.0085 H -16.493019 Z"
         inkscape:connector-curvature="0" />
    </clipPath>
    <pattern
       y="0"
       x="0"
       height="6"
       width="6"
       patternUnits="userSpaceOnUse"
       id="EMFhbasepattern-4" />
    <pattern
       y="0"
       x="0"
       height="6"
       width="6"
       patternUnits="userSpaceOnUse"
       id="EMFhbasepattern-6" />
  </defs>
  <sodipodi:namedview
     id="base"
     pagecolor="#ffffff"
     bordercolor="#666666"
     borderopacity="1.0"
     inkscape:pageopacity="0.0"
     inkscape:pageshadow="2"
     inkscape:zoom="0.76015625"
     inkscape:cx="315.81751"
     inkscape:cy="-87.37484"
     inkscape:document-units="mm"
     inkscape:current-layer="layer1"
     showgrid="false"
     fit-margin-top="0"
     fit-margin-left="0"
     fit-margin-right="0"
     fit-margin-bottom="0"
     inkscape:window-width="1366"
     inkscape:window-height="745"
     inkscape:window-x="-8"
     inkscape:window-y="-8"
     inkscape:window-maximized="1" />
  <metadata
     id="metadata40791">
    <rdf:RDF>
      <cc:Work
         rdf:about="">
        <dc:format>image/svg+xml</dc:format>
        <dc:type
           rdf:resource="http://purl.org/dc/dcmitype/StillImage" />
        <dc:title></dc:title>
      </cc:Work>
    </rdf:RDF>
  </metadata>
  <g
     inkscape:label="Layer 1"
     inkscape:groupmode="layer"
     id="layer1"
     transform="translate(-52.465864,-84.664128)">
    <path
       d="M 110.59959,110.67632 H 60.87657 V 86.042212 h 49.72302 z"
       id="path829"
       inkscape:connector-curvature="0"
       style="fill:#bec1c1;fill-opacity:1;stroke-width:0.26458329" />
    <path
       inkscape:connector-curvature="0"
       style="fill:#ffffff;stroke-width:0.26458329"
       d="M 73.090716,106.44372 V 92.631115 h 4.568606 V 106.44314 H 73.090716 Z M 92.311977,95.048616 89.67786,98.164563 c -0.823235,-1.10645 -2.058092,-1.84449 -3.128545,-1.84449 -1.64647,0 -2.881327,1.311664 -2.881327,3.156144 0,1.844483 1.194057,3.197533 2.881327,3.197533 0.988251,0 2.223108,-0.61502 3.128545,-1.55766 l 2.634117,2.82793 c -1.522864,1.59847 -3.868975,2.70552 -6.009268,2.70552 -4.239788,0 -7.326328,-2.99234 -7.326328,-7.131921 0,-4.057983 3.168742,-7.009516 7.490731,-7.009516 2.140294,0 4.445605,0.984053 5.844865,2.541719 z m 9.181613,1.189255 v 10.206459 h -4.5686 V 96.237871 h -3.951781 v -3.60736 h 12.472151 v 3.60736 z"
       id="path831" />
    <path
       inkscape:connector-curvature="0"
       style="fill:#bec1c1;fill-opacity:1;stroke-width:0.26458329"
       d="m 110.75201,128.04409 -6.6675,-24.71509 -23.050037,2.5411 z m 2.71692,-11.64051 v -3.23835 l -1.19346,2.74632 h -0.82323 l -1.19406,-2.74632 v 3.23835 h -1.15205 v -4.95983 h 1.39926 l 1.35846,2.95093 1.35846,-2.95093 h 1.39926 v 4.95983 h -1.15206 z m 7.16311,-2.50092 c 0,1.43407 -1.15204,2.54111 -2.71632,2.54111 -1.52346,0 -2.67611,-1.10704 -2.67611,-2.54111 0,-1.43466 1.15265,-2.50031 2.67611,-2.50031 1.56367,0 2.71632,1.06565 2.71632,2.50031 z m -4.07478,0 c 0,0.81964 0.65823,1.47548 1.39927,1.47548 0.78243,0 1.39926,-0.65584 1.39926,-1.47608 0,-0.81963 -0.61683,-1.47546 -1.39926,-1.47546 -0.78183,0.0414 -1.39927,0.65583 -1.39927,1.47606 z m 8.64159,-1.96689 -0.49383,0.98345 c -0.53521,-0.28682 -1.19405,-0.53283 -1.60566,-0.53283 -0.32942,0 -0.53523,0.12301 -0.53523,0.36901 0,0.86045 2.63412,0.36903 2.63412,2.1721 0,0.98405 -0.86403,1.51687 -1.97528,1.51687 -0.82325,0 -1.68788,-0.32821 -2.2639,-0.77883 l 0.4938,-0.98405 c 0.49383,0.45123 1.27627,0.73805 1.8115,0.73805 0.41161,0 0.65823,-0.16382 0.65823,-0.45062 0,-0.86105 -2.63413,-0.36903 -2.63413,-2.13191 0,-0.90123 0.78184,-1.51626 1.9759,-1.51626 0.69963,0.0408 1.39925,0.28682 1.93448,0.61502 z m 5.06483,0.28562 -0.74104,0.86104 c -0.3288,-0.40982 -0.82263,-0.65583 -1.23425,-0.65583 -0.78244,0 -1.39987,0.61502 -1.39987,1.43467 0,0.81963 0.61803,1.47606 1.39987,1.47606 0.41162,0 0.90545,-0.24601 1.23425,-0.57423 l 0.74104,0.77883 c -0.53522,0.53283 -1.31707,0.90185 -2.05809,0.90185 -1.52288,0 -2.63413,-1.10705 -2.63413,-2.54111 0,-1.43467 1.15206,-2.50032 2.67553,-2.50032 0.74102,0 1.48206,0.32761 2.01669,0.81964 z m 5.55624,1.68128 c 0,1.43406 -1.15204,2.54111 -2.71631,2.54111 -1.52287,0 -2.67552,-1.10705 -2.67552,-2.54111 0,-1.43467 1.15205,-2.50032 2.67552,-2.50032 1.56427,0 2.71631,1.06565 2.71631,2.50032 z m -4.11617,0 c 0,0.81963 0.65883,1.47547 1.39986,1.47547 0.78183,0 1.39926,-0.65584 1.39926,-1.47608 0,-0.81963 -0.61743,-1.47546 -1.39926,-1.47546 -0.74103,0.0414 -1.39926,0.65583 -1.39926,1.47607 z m 9.0154,2.50091 -0.90604,-3.44296 -0.94624,3.44296 h -1.31706 l -1.64647,-4.95983 h 1.35846 l 0.98764,3.64818 0.94684,-3.64818 h 1.23485 l 0.98765,3.64818 0.94684,-3.64818 h 1.31705 l -1.64646,4.95983 z"
       id="path833" />
  </g>
</svg>
