<?xml version="1.0" encoding="UTF-8" standalone="no"?>
<!-- Created with Inkscape (http://www.inkscape.org/) -->

<svg
   xmlns:dc="http://purl.org/dc/elements/1.1/"
   xmlns:cc="http://creativecommons.org/ns#"
   xmlns:rdf="http://www.w3.org/1999/02/22-rdf-syntax-ns#"
   xmlns:svg="http://www.w3.org/2000/svg"
   xmlns="http://www.w3.org/2000/svg"
   xmlns:sodipodi="http://sodipodi.sourceforge.net/DTD/sodipodi-0.dtd"
   xmlns:inkscape="http://www.inkscape.org/namespaces/inkscape"
   width="31.283901mm"
   height="11.432651mm"
   viewBox="0 0 31.283903 11.43265"
   version="1.1"
   id="svg48003"
   inkscape:version="0.92.2 (5c3e80d, 2017-08-06)"
   sodipodi:docname="emiia151.svg">
  <defs
     id="defs47997" />
  <sodipodi:namedview
     id="base"
     pagecolor="#ffffff"
     bordercolor="#666666"
     borderopacity="1.0"
     inkscape:pageopacity="0.0"
     inkscape:pageshadow="2"
     inkscape:zoom="3.959798"
     inkscape:cx="34.432382"
     inkscape:cy="25.773656"
     inkscape:document-units="mm"
     inkscape:current-layer="layer1"
     showgrid="false"
     fit-margin-top="0"
     fit-margin-left="0"
     fit-margin-right="0"
     fit-margin-bottom="0"
     inkscape:window-width="1366"
     inkscape:window-height="745"
     inkscape:window-x="-8"
     inkscape:window-y="-8"
     inkscape:window-maximized="1" />
  <metadata
     id="metadata48000">
    <rdf:RDF>
      <cc:Work
         rdf:about="">
        <dc:format>image/svg+xml</dc:format>
        <dc:type
           rdf:resource="http://purl.org/dc/dcmitype/StillImage" />
        <dc:title></dc:title>
      </cc:Work>
    </rdf:RDF>
  </metadata>
  <g
     inkscape:label="Layer 1"
     inkscape:groupmode="layer"
     id="layer1"
     transform="translate(-136.86249,-123.94857)">
    <path
       id="path47882"
       d="m 151.3126,128.42595 c -0.0193,0.0102 -0.0345,0.0184 -0.0498,0.0265 -0.15965,0.0837 -0.25828,0.13682 -0.50336,0.15725 -0.11694,0.0102 -0.22778,0.006 -0.33253,-0.0102 -0.10576,-0.0164 -0.20541,-0.0459 -0.30303,-0.0858 v 0 0 c -0.0783,-0.0327 -0.15049,-0.0725 -0.21457,-0.11641 -0.28879,-0.20016 -0.43624,-0.50754 -0.48608,-0.82819 -0.0498,-0.31961 -0.002,-0.65151 0.1017,-0.90271 0.0315,-0.0746 0.0671,-0.14297 0.10677,-0.20117 0.0956,-0.13888 0.23287,-0.26346 0.41082,-0.3523 0.15864,-0.0797 0.34983,-0.13072 0.57252,-0.1399 0.91725,-0.0368 1.3962,0.87207 1.74907,1.53992 0.0519,0.0991 0.10168,0.19402 0.14949,0.27776 0.34574,0.61372 0.80334,1.01199 1.27925,1.21827 0.3549,0.15419 0.71997,0.20015 1.05656,0.14807 0.3366,-0.0521 0.6437,-0.20322 0.88369,-0.44319 0.25524,-0.2553 0.43422,-0.6127 0.48912,-1.06101 0.0539,-0.4299 0.008,-0.8588 -0.15457,-1.22336 -0.14744,-0.32678 -0.38947,-0.6025 -0.74132,-0.77917 -0.17083,-0.0847 -0.39048,-0.15521 -0.61827,-0.18686 -0.19931,-0.0286 -0.40472,-0.0276 -0.5898,0.0164 -0.18101,0.0429 -0.37829,0.11336 -0.55929,0.2073 -0.15559,0.0817 -0.29897,0.1828 -0.4088,0.29921 -0.0763,0.0827 -0.1383,0.14603 -0.18711,0.19607 -0.0875,0.0888 -0.13321,0.13377 -0.14541,0.17258 -0.0132,0.0398 0.008,0.0756 0.0539,0.14908 0.0193,0.0317 0.0426,0.0694 0.0682,0.11642 0.0204,0.0347 0.0367,0.0664 0.0508,0.0929 0.0346,0.0664 0.057,0.10722 0.0763,0.12152 0.0245,0.0174 0.0488,-0.009 0.10474,-0.0827 m -1.86296,1.66656 c -0.19016,0.10008 -0.28168,0.16032 -0.55014,0.18381 -0.23287,0.0194 -0.43828,-0.0164 -0.63149,-0.096 -0.88674,-0.36865 -0.82166,-1.55219 -0.48913,-2.03622 0.17999,-0.26143 0.50743,-0.47077 0.97723,-0.48915 0.90403,-0.0368 1.38197,0.85268 1.73178,1.51645 l 7.3e-4,0.002 c 0.056,0.1062 0.10882,0.20628 0.15966,0.29614 1.13994,2.02092 3.49305,1.72069 3.72287,-0.14092 0.10168,-0.82001 -0.15457,-1.63695 -0.90097,-2.00969 -0.32236,-0.16134 -0.81454,-0.26754 -1.21317,-0.17257 -0.3376,0.0806 -0.7342,0.25529 -0.97113,0.50956 -0.42507,0.45647 -0.39557,0.31248 -0.21152,0.64335 0.0722,0.12968 0.10373,0.20423 0.13423,0.22056 0.002,0.002 0.005,0.002 0.007,0.002 0.0245,0.007 0.0519,-0.0224 0.10271,-0.0909 l 0.004,-0.005 v 0 l 0.23998,-0.28389 c 0.79521,-0.82715 2.00329,-0.53101 2.23413,0.39214 0.0997,0.39928 0.0651,0.90578 -0.11389,1.23154 -0.39965,0.72401 -1.32503,0.66886 -1.96363,0.17257 -0.37626,-0.29308 -0.58066,-0.70665 -0.81251,-1.13963 l -0.002,-0.003 c -0.1027,-0.19198 -0.21049,-0.38702 -0.34066,-0.57798 -0.21049,-0.30635 -0.41489,-0.55553 -0.69658,-0.7567 -0.94469,-0.67397 -2.39784,-0.3666 -2.76087,0.87004 -0.10983,0.37376 -0.12101,0.92519 -0.005,1.29894 0.30405,0.98646 1.42162,1.42761 2.30937,1.08858 0.19525,-0.0746 0.30915,-0.16544 0.45558,-0.25019 0.12304,0.0694 0.26846,0.30431 0.31524,0.19505 l 0.0966,-0.57289 v -0.002 l 7.3e-4,-0.006 c 0.11388,-0.69849 0.1627,-0.63212 -0.21356,-0.52795 l -0.005,0.002 h -0.002 c -0.0966,0.0265 -0.18914,0.0531 -0.2888,0.0817 -0.10373,0.0296 -0.51251,0.12867 -0.57048,0.17054 7.3e-4,0.095 0.19524,0.19401 0.25015,0.28389 z m 0.004,0.007 v 0 m 1.85889,-1.67473 v 0 l 0.24508,-0.28899 v 0 0 c 0.22575,-0.23487 0.48506,-0.37987 0.74538,-0.44625 0.22169,-0.0552 0.44337,-0.0541 0.64777,-0.003 0.20439,0.0511 0.39049,0.15215 0.53895,0.29615 0.14847,0.14296 0.25932,0.32779 0.31423,0.54938 0.0519,0.20424 0.0671,0.43707 0.0467,0.65968 -0.0193,0.21343 -0.0732,0.41664 -0.16168,0.57697 -0.0295,0.0531 -0.061,0.10212 -0.0956,0.14705 -0.19219,0.24916 -0.46167,0.37374 -0.7525,0.39724 -0.29083,0.0235 -0.60403,-0.0541 -0.88571,-0.21139 -0.0834,-0.0459 -0.16372,-0.099 -0.23999,-0.15828 -0.35287,-0.2747 -0.55523,-0.65356 -0.7698,-1.0559 -0.11694,-0.21956 -0.23693,-0.44626 -0.38846,-0.66683 -0.10473,-0.15215 -0.20744,-0.29103 -0.32032,-0.41663 -0.11185,-0.12561 -0.23287,-0.23691 -0.37319,-0.337 -0.17186,-0.12253 -0.35999,-0.21239 -0.55523,-0.27061 -0.35389,-0.10517 -0.73116,-0.10416 -1.07588,0 -0.34372,0.10519 -0.65387,0.31248 -0.8725,0.62292 -0.10474,0.14705 -0.18915,0.31861 -0.24609,0.51264 -0.056,0.18993 -0.0854,0.42582 -0.0864,0.66069 -7.3e-4,0.22671 0.0245,0.45136 0.0813,0.63415 0.0102,0.0337 0.0214,0.0664 0.0336,0.0991 0.16678,0.43808 0.4993,0.7577 0.89487,0.93539 0.39557,0.17768 0.8542,0.21343 1.27113,0.0838 0.0335,-0.0102 0.0671,-0.0215 0.0996,-0.0347 0.14034,-0.0531 0.23795,-0.11539 0.33558,-0.17768 0.0386,-0.0245 0.0772,-0.049 0.11897,-0.0725 0.002,-0.002 0.005,-0.002 0.007,0 0.0457,0.0265 0.0946,0.0746 0.14034,0.11948 0.0437,0.0439 0.0854,0.0847 0.11795,0.099 0.0204,0.008 0.0366,0.005 0.0467,-0.0194 l 0.0956,-0.57084 v 0 c 0.0173,-0.10416 0.0326,-0.193 0.0457,-0.26653 0.0315,-0.17564 0.0478,-0.26652 0.0326,-0.30431 -0.0142,-0.0358 -0.0661,-0.0194 -0.17286,0.0124 -0.0326,0.0102 -0.0702,0.0215 -0.11491,0.0337 -0.0793,0.0224 -0.15864,0.045 -0.24203,0.0684 l -0.0467,0.0133 c -0.0234,0.007 -0.0641,0.0174 -0.11186,0.0306 -0.1566,0.0408 -0.40168,0.10416 -0.45252,0.13684 0.003,0.0511 0.0692,0.10722 0.13321,0.16032 0.0467,0.0399 0.0925,0.0776 0.11593,0.1154 0.002,0.004 7.3e-4,0.009 -0.003,0.0112 v 0 m 0.81657,-0.0112 c 7.3e-4,-0.004 0.005,-0.007 0.009,-0.006"
       style="fill:#000000;fill-opacity:1;fill-rule:evenodd;stroke:#030000;stroke-width:0.0350299;stroke-miterlimit:4;stroke-dasharray:none;stroke-opacity:1"
       inkscape:connector-curvature="0" />
    <g
       aria-label="Ответственное потребление
 и производство"
       style="font-style:normal;font-variant:normal;font-weight:normal;font-stretch:normal;font-size:1.76388884px;line-height:1.25;font-family:Montserrat;-inkscape-font-specification:Montserrat;text-align:center;letter-spacing:0px;word-spacing:0px;text-anchor:middle;fill:#000000;fill-opacity:1;stroke:none;stroke-width:0.26458332"
       id="text48564">
      <path
         d="m 140.1006,132.33357 c 0.36689,0 0.64206,-0.26634 0.64206,-0.62618 0,-0.35983 -0.27517,-0.62618 -0.64206,-0.62618 -0.36865,0 -0.64205,0.26811 -0.64205,0.62618 0,0.35807 0.2734,0.62618 0.64205,0.62618 z m 0,-0.0829 c -0.31573,0 -0.55209,-0.23107 -0.55209,-0.54328 0,-0.31221 0.23636,-0.54328 0.55209,-0.54328 0.31398,0 0.55034,0.23107 0.55034,0.54328 0,0.31221 -0.23636,0.54328 -0.55034,0.54328 z"
         style="font-style:normal;font-variant:normal;font-weight:300;font-stretch:normal;font-family:Montserrat;-inkscape-font-specification:'Montserrat Light';text-align:center;text-anchor:middle;stroke-width:0.26458332"
         id="path48890" />
      <path
         d="m 141.62979,131.404 h -0.80787 v 0.0794 h 0.35984 v 0.84137 h 0.0882 v -0.84137 h 0.35984 z"
         style="font-style:normal;font-variant:normal;font-weight:300;font-stretch:normal;font-family:Montserrat;-inkscape-font-specification:'Montserrat Light';text-align:center;text-anchor:middle;stroke-width:0.26458332"
         id="path48892" />
      <path
         d="m 142.36194,131.85027 c 0.10583,-0.03 0.17109,-0.10231 0.17109,-0.21167 0,-0.15346 -0.12523,-0.2346 -0.32808,-0.2346 h -0.38805 v 0.92075 h 0.39863 c 0.23637,0 0.34925,-0.0882 0.34925,-0.24694 0,-0.12524 -0.0635,-0.20285 -0.20284,-0.22754 z m -0.45861,-0.37395 h 0.29633 c 0.15699,0 0.24518,0.0565 0.24518,0.17286 0,0.11466 -0.0882,0.17463 -0.24518,0.17463 h -0.29633 z m 0.31044,0.77611 h -0.31044 v -0.35983 h 0.32455 c 0.17286,0 0.24871,0.0564 0.24871,0.18168 0,0.12347 -0.0917,0.17815 -0.26282,0.17815 z"
         style="font-style:normal;font-variant:normal;font-weight:300;font-stretch:normal;font-family:Montserrat;-inkscape-font-specification:'Montserrat Light';text-align:center;text-anchor:middle;stroke-width:0.26458332"
         id="path48894" />
      <path
         d="m 143.66468,131.86085 c 0,-0.2734 -0.18697,-0.4639 -0.43921,-0.4639 -0.25224,0 -0.44097,0.19403 -0.44097,0.46743 0,0.2734 0.19579,0.46743 0.47448,0.46743 0.13935,0 0.26635,-0.0511 0.34749,-0.14993 l -0.0512,-0.0582 c -0.0706,0.0864 -0.17815,0.12876 -0.29457,0.12876 -0.22049,0 -0.381,-0.14816 -0.38982,-0.36689 h 0.79199 c 0,-0.009 0.002,-0.0176 0.002,-0.0247 z m -0.43921,-0.38629 c 0.19579,0 0.34043,0.14287 0.35278,0.34219 h -0.70556 c 0.0141,-0.20108 0.15699,-0.34219 0.35278,-0.34219 z"
         style="font-style:normal;font-variant:normal;font-weight:300;font-stretch:normal;font-family:Montserrat;-inkscape-font-specification:'Montserrat Light';text-align:center;text-anchor:middle;stroke-width:0.26458332"
         id="path48896" />
      <path
         d="m 144.52711,131.404 h -0.80786 v 0.0794 h 0.35983 v 0.84137 h 0.0882 v -0.84137 h 0.35983 z"
         style="font-style:normal;font-variant:normal;font-weight:300;font-stretch:normal;font-family:Montserrat;-inkscape-font-specification:'Montserrat Light';text-align:center;text-anchor:middle;stroke-width:0.26458332"
         id="path48898" />
      <path
         d="m 145.04506,132.33181 c 0.1464,0 0.2734,-0.0582 0.34925,-0.16933 l -0.0653,-0.0476 c -0.067,0.0935 -0.16934,0.13758 -0.28399,0.13758 -0.21696,0 -0.37571,-0.15522 -0.37571,-0.38805 0,-0.23284 0.15875,-0.38806 0.37571,-0.38806 0.11465,0 0.21696,0.0441 0.28399,0.13759 l 0.0653,-0.0476 c -0.0759,-0.11289 -0.20285,-0.16933 -0.34925,-0.16933 -0.26987,0 -0.46567,0.19226 -0.46567,0.46743 0,0.2734 0.1958,0.46743 0.46567,0.46743 z"
         style="font-style:normal;font-variant:normal;font-weight:300;font-stretch:normal;font-family:Montserrat;-inkscape-font-specification:'Montserrat Light';text-align:center;text-anchor:middle;stroke-width:0.26458332"
         id="path48900" />
      <path
         d="m 146.24966,131.404 h -0.80786 v 0.0794 h 0.35983 v 0.84137 h 0.0882 v -0.84137 h 0.35983 z"
         style="font-style:normal;font-variant:normal;font-weight:300;font-stretch:normal;font-family:Montserrat;-inkscape-font-specification:'Montserrat Light';text-align:center;text-anchor:middle;stroke-width:0.26458332"
         id="path48902" />
      <path
         d="m 146.98181,131.85027 c 0.10583,-0.03 0.1711,-0.10231 0.1711,-0.21167 0,-0.15346 -0.12524,-0.2346 -0.32809,-0.2346 h -0.38805 v 0.92075 h 0.39864 c 0.23636,0 0.34925,-0.0882 0.34925,-0.24694 0,-0.12524 -0.0635,-0.20285 -0.20285,-0.22754 z m -0.45861,-0.37395 h 0.29633 c 0.15699,0 0.24518,0.0565 0.24518,0.17286 0,0.11466 -0.0882,0.17463 -0.24518,0.17463 h -0.29633 z m 0.31044,0.77611 h -0.31044 v -0.35983 h 0.32455 c 0.17287,0 0.24871,0.0564 0.24871,0.18168 0,0.12347 -0.0917,0.17815 -0.26282,0.17815 z"
         style="font-style:normal;font-variant:normal;font-weight:300;font-stretch:normal;font-family:Montserrat;-inkscape-font-specification:'Montserrat Light';text-align:center;text-anchor:middle;stroke-width:0.26458332"
         id="path48904" />
      <path
         d="m 148.28455,131.86085 c 0,-0.2734 -0.18697,-0.4639 -0.43921,-0.4639 -0.25223,0 -0.44097,0.19403 -0.44097,0.46743 0,0.2734 0.19579,0.46743 0.47449,0.46743 0.13935,0 0.26635,-0.0511 0.34748,-0.14993 l -0.0512,-0.0582 c -0.0705,0.0864 -0.17815,0.12876 -0.29457,0.12876 -0.22048,0 -0.381,-0.14816 -0.38982,-0.36689 h 0.79199 c 0,-0.009 0.002,-0.0176 0.002,-0.0247 z m -0.43921,-0.38629 c 0.1958,0 0.34043,0.14287 0.35278,0.34219 h -0.70555 c 0.0141,-0.20108 0.15698,-0.34219 0.35277,-0.34219 z"
         style="font-style:normal;font-variant:normal;font-weight:300;font-stretch:normal;font-family:Montserrat;-inkscape-font-specification:'Montserrat Light';text-align:center;text-anchor:middle;stroke-width:0.26458332"
         id="path48906" />
      <path
         d="m 148.57273,132.32475 h 0.0882 v -0.42333 h 0.62442 v 0.42333 h 0.0882 V 131.404 h -0.0882 v 0.41981 h -0.62442 V 131.404 h -0.0882 z"
         style="font-style:normal;font-variant:normal;font-weight:300;font-stretch:normal;font-family:Montserrat;-inkscape-font-specification:'Montserrat Light';text-align:center;text-anchor:middle;stroke-width:0.26458332"
         id="path48908" />
      <path
         d="m 149.75439,132.32475 h 0.0882 v -0.42333 h 0.62442 v 0.42333 h 0.0882 V 131.404 h -0.0882 v 0.41981 h -0.62442 V 131.404 h -0.0882 z"
         style="font-style:normal;font-variant:normal;font-weight:300;font-stretch:normal;font-family:Montserrat;-inkscape-font-specification:'Montserrat Light';text-align:center;text-anchor:middle;stroke-width:0.26458332"
         id="path48910" />
      <path
         d="m 151.30295,132.33181 c 0.26459,0 0.46038,-0.19403 0.46038,-0.46743 0,-0.2734 -0.19579,-0.46743 -0.46038,-0.46743 -0.26458,0 -0.46037,0.19403 -0.46037,0.46743 0,0.2734 0.19579,0.46743 0.46037,0.46743 z m 0,-0.0794 c -0.21166,0 -0.37041,-0.15698 -0.37041,-0.38805 0,-0.23107 0.15875,-0.38806 0.37041,-0.38806 0.21167,0 0.37042,0.15699 0.37042,0.38806 0,0.23107 -0.15875,0.38805 -0.37042,0.38805 z"
         style="font-style:normal;font-variant:normal;font-weight:300;font-stretch:normal;font-family:Montserrat;-inkscape-font-specification:'Montserrat Light';text-align:center;text-anchor:middle;stroke-width:0.26458332"
         id="path48912" />
      <path
         d="m 152.83897,131.86085 c 0,-0.2734 -0.18697,-0.4639 -0.43921,-0.4639 -0.25224,0 -0.44097,0.19403 -0.44097,0.46743 0,0.2734 0.19579,0.46743 0.47448,0.46743 0.13935,0 0.26635,-0.0511 0.34749,-0.14993 l -0.0511,-0.0582 c -0.0706,0.0864 -0.17816,0.12876 -0.29457,0.12876 -0.22049,0 -0.381,-0.14816 -0.38982,-0.36689 h 0.79198 c 0,-0.009 0.002,-0.0176 0.002,-0.0247 z m -0.43921,-0.38629 c 0.19579,0 0.34043,0.14287 0.35278,0.34219 h -0.70556 c 0.0141,-0.20108 0.15699,-0.34219 0.35278,-0.34219 z"
         style="font-style:normal;font-variant:normal;font-weight:300;font-stretch:normal;font-family:Montserrat;-inkscape-font-specification:'Montserrat Light';text-align:center;text-anchor:middle;stroke-width:0.26458332"
         id="path48914" />
      <path
         d="m 153.5819,131.404 v 0.92075 h 0.0882 v -0.84137 h 0.62795 v 0.84137 h 0.0882 V 131.404 Z"
         style="font-style:normal;font-variant:normal;font-weight:300;font-stretch:normal;font-family:Montserrat;-inkscape-font-specification:'Montserrat Light';text-align:center;text-anchor:middle;stroke-width:0.26458332"
         id="path48916" />
      <path
         d="m 155.1339,132.33181 c 0.26458,0 0.46037,-0.19403 0.46037,-0.46743 0,-0.2734 -0.19579,-0.46743 -0.46037,-0.46743 -0.26459,0 -0.46038,0.19403 -0.46038,0.46743 0,0.2734 0.19579,0.46743 0.46038,0.46743 z m 0,-0.0794 c -0.21167,0 -0.37042,-0.15698 -0.37042,-0.38805 0,-0.23107 0.15875,-0.38806 0.37042,-0.38806 0.21166,0 0.37041,0.15699 0.37041,0.38806 0,0.23107 -0.15875,0.38805 -0.37041,0.38805 z"
         style="font-style:normal;font-variant:normal;font-weight:300;font-stretch:normal;font-family:Montserrat;-inkscape-font-specification:'Montserrat Light';text-align:center;text-anchor:middle;stroke-width:0.26458332"
         id="path48918" />
      <path
         d="m 156.46437,131.404 h -0.80786 v 0.0794 h 0.35983 v 0.84137 h 0.0882 v -0.84137 h 0.35984 z"
         style="font-style:normal;font-variant:normal;font-weight:300;font-stretch:normal;font-family:Montserrat;-inkscape-font-specification:'Montserrat Light';text-align:center;text-anchor:middle;stroke-width:0.26458332"
         id="path48920" />
      <path
         d="m 157.11538,131.39695 c -0.16581,0 -0.30515,0.0829 -0.37747,0.22401 V 131.404 h -0.0847 v 1.26295 h 0.0882 v -0.5521 c 0.0741,0.13758 0.21167,0.21696 0.37395,0.21696 0.25929,0 0.45508,-0.1905 0.45508,-0.46743 0,-0.27517 -0.19579,-0.46743 -0.45508,-0.46743 z m -0.005,0.85548 c -0.21167,0 -0.37042,-0.15698 -0.37042,-0.38805 0,-0.23107 0.15875,-0.38806 0.37042,-0.38806 0.21166,0 0.37218,0.15699 0.37218,0.38806 0,0.23107 -0.16052,0.38805 -0.37218,0.38805 z"
         style="font-style:normal;font-variant:normal;font-weight:300;font-stretch:normal;font-family:Montserrat;-inkscape-font-specification:'Montserrat Light';text-align:center;text-anchor:middle;stroke-width:0.26458332"
         id="path48922" />
      <path
         d="m 158.64395,131.86085 c 0,-0.2734 -0.18697,-0.4639 -0.4392,-0.4639 -0.25224,0 -0.44098,0.19403 -0.44098,0.46743 0,0.2734 0.19579,0.46743 0.47449,0.46743 0.13935,0 0.26635,-0.0511 0.34749,-0.14993 l -0.0512,-0.0582 c -0.0705,0.0864 -0.17815,0.12876 -0.29457,0.12876 -0.22048,0 -0.381,-0.14816 -0.38982,-0.36689 h 0.79199 c 0,-0.009 0.002,-0.0176 0.002,-0.0247 z m -0.4392,-0.38629 c 0.19579,0 0.34043,0.14287 0.35277,0.34219 h -0.70555 c 0.0141,-0.20108 0.15698,-0.34219 0.35278,-0.34219 z"
         style="font-style:normal;font-variant:normal;font-weight:300;font-stretch:normal;font-family:Montserrat;-inkscape-font-specification:'Montserrat Light';text-align:center;text-anchor:middle;stroke-width:0.26458332"
         id="path48924" />
      <path
         d="m 159.35899,131.41811 c -0.19226,0 -0.34219,0.10407 -0.40393,0.27341 0.005,-0.34749 0.13229,-0.49213 0.41099,-0.55739 l 0.38805,-0.0917 -0.0141,-0.0829 -0.40746,0.0988 c -0.31044,0.0741 -0.46214,0.25576 -0.46214,0.67381 0,0.36336 0.16934,0.60148 0.47625,0.60148 0.26635,0 0.45332,-0.1905 0.45332,-0.46214 0,-0.26987 -0.18168,-0.45332 -0.44097,-0.45332 z m -0.0106,0.83962 c -0.21343,0 -0.36336,-0.15875 -0.36336,-0.38453 0,-0.22578 0.14993,-0.37571 0.36336,-0.37571 0.21343,0 0.36159,0.14993 0.36159,0.37571 0,0.22578 -0.14993,0.38453 -0.36159,0.38453 z"
         style="font-style:normal;font-variant:normal;font-weight:300;font-stretch:normal;font-family:Montserrat;-inkscape-font-specification:'Montserrat Light';text-align:center;text-anchor:middle;stroke-width:0.26458332"
         id="path48926" />
      <path
         d="m 160.16032,131.404 -0.0159,0.3175 c -0.0141,0.26635 -0.0318,0.5327 -0.18873,0.5327 -0.0123,0 -0.0282,-0.004 -0.0423,-0.007 l -0.009,0.0759 c 0.0282,0.007 0.0529,0.0123 0.0758,0.0123 0.19227,0 0.22754,-0.28399 0.24518,-0.60678 l 0.0123,-0.24518 h 0.47978 v 0.84137 h 0.0882 V 131.404 Z"
         style="font-style:normal;font-variant:normal;font-weight:300;font-stretch:normal;font-family:Montserrat;-inkscape-font-specification:'Montserrat Light';text-align:center;text-anchor:middle;stroke-width:0.26458332"
         id="path48928" />
      <path
         d="m 161.97192,131.86085 c 0,-0.2734 -0.18698,-0.4639 -0.43921,-0.4639 -0.25224,0 -0.44097,0.19403 -0.44097,0.46743 0,0.2734 0.19579,0.46743 0.47448,0.46743 0.13935,0 0.26635,-0.0511 0.34749,-0.14993 l -0.0512,-0.0582 c -0.0706,0.0864 -0.17816,0.12876 -0.29457,0.12876 -0.22049,0 -0.381,-0.14816 -0.38982,-0.36689 h 0.79198 c 0,-0.009 0.002,-0.0176 0.002,-0.0247 z m -0.43921,-0.38629 c 0.19579,0 0.34043,0.14287 0.35278,0.34219 h -0.70556 c 0.0141,-0.20108 0.15699,-0.34219 0.35278,-0.34219 z"
         style="font-style:normal;font-variant:normal;font-weight:300;font-stretch:normal;font-family:Montserrat;-inkscape-font-specification:'Montserrat Light';text-align:center;text-anchor:middle;stroke-width:0.26458332"
         id="path48930" />
      <path
         d="m 162.26009,132.32475 h 0.0882 v -0.42333 h 0.62441 v 0.42333 h 0.0882 V 131.404 h -0.0882 v 0.41981 h -0.62441 V 131.404 h -0.0882 z"
         style="font-style:normal;font-variant:normal;font-weight:300;font-stretch:normal;font-family:Montserrat;-inkscape-font-specification:'Montserrat Light';text-align:center;text-anchor:middle;stroke-width:0.26458332"
         id="path48932" />
      <path
         d="m 163.44176,132.32475 h 0.0776 l 0.65617,-0.78493 v 0.78493 h 0.0882 V 131.404 h -0.0776 l -0.65617,0.78493 V 131.404 h -0.0882 z"
         style="font-style:normal;font-variant:normal;font-weight:300;font-stretch:normal;font-family:Montserrat;-inkscape-font-specification:'Montserrat Light';text-align:center;text-anchor:middle;stroke-width:0.26458332"
         id="path48934" />
      <path
         d="m 165.43079,131.86085 c 0,-0.2734 -0.18697,-0.4639 -0.43921,-0.4639 -0.25223,0 -0.44097,0.19403 -0.44097,0.46743 0,0.2734 0.19579,0.46743 0.47449,0.46743 0.13934,0 0.26634,-0.0511 0.34748,-0.14993 l -0.0512,-0.0582 c -0.0705,0.0864 -0.17815,0.12876 -0.29457,0.12876 -0.22048,0 -0.381,-0.14816 -0.38982,-0.36689 h 0.79199 c 0,-0.009 0.002,-0.0176 0.002,-0.0247 z m -0.43921,-0.38629 c 0.1958,0 0.34043,0.14287 0.35278,0.34219 h -0.70555 c 0.0141,-0.20108 0.15698,-0.34219 0.35277,-0.34219 z"
         style="font-style:normal;font-variant:normal;font-weight:300;font-stretch:normal;font-family:Montserrat;-inkscape-font-specification:'Montserrat Light';text-align:center;text-anchor:middle;stroke-width:0.26458332"
         id="path48936" />
      <path
         d="m 145.60133,134.52961 h 0.0776 l 0.65617,-0.78493 v 0.78493 h 0.0882 v -0.92075 h -0.0776 l -0.65616,0.78493 v -0.78493 h -0.0882 z"
         style="font-style:normal;font-variant:normal;font-weight:300;font-stretch:normal;font-family:Montserrat;-inkscape-font-specification:'Montserrat Light';text-align:center;text-anchor:middle;stroke-width:0.26458332"
         id="path48938" />
      <path
         d="m 147.25842,133.60886 v 0.92075 h 0.0882 v -0.84137 h 0.62794 v 0.84137 h 0.0882 v -0.92075 z"
         style="font-style:normal;font-variant:normal;font-weight:300;font-stretch:normal;font-family:Montserrat;-inkscape-font-specification:'Montserrat Light';text-align:center;text-anchor:middle;stroke-width:0.26458332"
         id="path48940" />
      <path
         d="m 148.90744,133.60181 c -0.16581,0 -0.30515,0.0829 -0.37747,0.22401 v -0.21696 h -0.0847 v 1.26295 h 0.0882 v -0.5521 c 0.0741,0.13758 0.21167,0.21696 0.37395,0.21696 0.25929,0 0.45508,-0.1905 0.45508,-0.46743 0,-0.27517 -0.19579,-0.46743 -0.45508,-0.46743 z m -0.005,0.85548 c -0.21167,0 -0.37042,-0.15698 -0.37042,-0.38805 0,-0.23107 0.15875,-0.38806 0.37042,-0.38806 0.21166,0 0.37218,0.15699 0.37218,0.38806 0,0.23107 -0.16052,0.38805 -0.37218,0.38805 z"
         style="font-style:normal;font-variant:normal;font-weight:300;font-stretch:normal;font-family:Montserrat;-inkscape-font-specification:'Montserrat Light';text-align:center;text-anchor:middle;stroke-width:0.26458332"
         id="path48942" />
      <path
         d="m 150.01621,134.53667 c 0.26458,0 0.46037,-0.19403 0.46037,-0.46743 0,-0.2734 -0.19579,-0.46743 -0.46037,-0.46743 -0.26458,0 -0.46038,0.19403 -0.46038,0.46743 0,0.2734 0.1958,0.46743 0.46038,0.46743 z m 0,-0.0794 c -0.21167,0 -0.37042,-0.15698 -0.37042,-0.38805 0,-0.23107 0.15875,-0.38806 0.37042,-0.38806 0.21167,0 0.37042,0.15699 0.37042,0.38806 0,0.23107 -0.15875,0.38805 -0.37042,0.38805 z"
         style="font-style:normal;font-variant:normal;font-weight:300;font-stretch:normal;font-family:Montserrat;-inkscape-font-specification:'Montserrat Light';text-align:center;text-anchor:middle;stroke-width:0.26458332"
         id="path48944" />
      <path
         d="m 150.76553,134.52961 h 0.0776 l 0.65617,-0.78493 v 0.78493 h 0.0882 v -0.92075 h -0.0776 l -0.65616,0.78493 v -0.78493 h -0.0882 z"
         style="font-style:normal;font-variant:normal;font-weight:300;font-stretch:normal;font-family:Montserrat;-inkscape-font-specification:'Montserrat Light';text-align:center;text-anchor:middle;stroke-width:0.26458332"
         id="path48946" />
      <path
         d="m 152.35121,134.04984 c 0.11113,-0.0317 0.18697,-0.1076 0.18697,-0.20638 0,-0.15522 -0.16051,-0.24518 -0.35807,-0.24518 -0.10759,0 -0.22225,0.0265 -0.32984,0.0864 l 0.0265,0.0706 c 0.0952,-0.0547 0.19932,-0.0794 0.2928,-0.0794 0.15346,0 0.2787,0.06 0.2787,0.17992 0,0.10054 -0.10937,0.16228 -0.254,0.16228 h -0.14464 v 0.067 h 0.14816 c 0.16934,0 0.27693,0.0653 0.27693,0.17463 0,0.127 -0.14287,0.20285 -0.31044,0.20285 -0.11289,0 -0.23636,-0.0353 -0.32103,-0.10937 l -0.0353,0.0653 c 0.097,0.0811 0.23107,0.11994 0.35807,0.11994 0.2152,0 0.39864,-0.10407 0.39864,-0.27164 0,-0.11112 -0.0776,-0.1905 -0.21343,-0.21695 z"
         style="font-style:normal;font-variant:normal;font-weight:300;font-stretch:normal;font-family:Montserrat;-inkscape-font-specification:'Montserrat Light';text-align:center;text-anchor:middle;stroke-width:0.26458332"
         id="path48948" />
      <path
         d="m 153.41553,134.05513 c 0.10583,-0.03 0.17109,-0.10231 0.17109,-0.21167 0,-0.15346 -0.12523,-0.2346 -0.32808,-0.2346 h -0.38806 v 0.92075 h 0.39864 c 0.23636,0 0.34925,-0.0882 0.34925,-0.24694 0,-0.12524 -0.0635,-0.20285 -0.20284,-0.22754 z m -0.45861,-0.37395 h 0.29633 c 0.15698,0 0.24518,0.0564 0.24518,0.17286 0,0.11466 -0.0882,0.17463 -0.24518,0.17463 h -0.29633 z m 0.31044,0.77611 h -0.31044 v -0.35983 h 0.32455 c 0.17286,0 0.24871,0.0564 0.24871,0.18168 0,0.12347 -0.0917,0.17815 -0.26282,0.17815 z"
         style="font-style:normal;font-variant:normal;font-weight:300;font-stretch:normal;font-family:Montserrat;-inkscape-font-specification:'Montserrat Light';text-align:center;text-anchor:middle;stroke-width:0.26458332"
         id="path48950" />
      <path
         d="m 154.29846,134.53667 c 0.26459,0 0.46038,-0.19403 0.46038,-0.46743 0,-0.2734 -0.19579,-0.46743 -0.46038,-0.46743 -0.26458,0 -0.46037,0.19403 -0.46037,0.46743 0,0.2734 0.19579,0.46743 0.46037,0.46743 z m 0,-0.0794 c -0.21166,0 -0.37041,-0.15698 -0.37041,-0.38805 0,-0.23107 0.15875,-0.38806 0.37041,-0.38806 0.21167,0 0.37042,0.15699 0.37042,0.38806 0,0.23107 -0.15875,0.38805 -0.37042,0.38805 z"
         style="font-style:normal;font-variant:normal;font-weight:300;font-stretch:normal;font-family:Montserrat;-inkscape-font-specification:'Montserrat Light';text-align:center;text-anchor:middle;stroke-width:0.26458332"
         id="path48952" />
      <path
         d="m 155.76224,134.452 v -0.84314 h -0.64734 l -0.0123,0.30339 c -0.0141,0.26459 -0.037,0.53093 -0.17639,0.53975 h -0.0547 v 0.30692 h 0.0847 v -0.22931 h 0.87136 v 0.22931 h 0.0829 V 134.452 Z m -0.57855,-0.53446 0.0106,-0.2293 h 0.47978 v 0.76376 h -0.62089 c 0.10054,-0.0688 0.12171,-0.30868 0.13053,-0.53446 z"
         style="font-style:normal;font-variant:normal;font-weight:300;font-stretch:normal;font-family:Montserrat;-inkscape-font-specification:'Montserrat Light';text-align:center;text-anchor:middle;stroke-width:0.26458332"
         id="path48954" />
      <path
         d="m 156.54307,134.53667 c 0.1464,0 0.2734,-0.0582 0.34925,-0.16933 l -0.0653,-0.0476 c -0.067,0.0935 -0.16933,0.13758 -0.28398,0.13758 -0.21696,0 -0.37571,-0.15522 -0.37571,-0.38805 0,-0.23283 0.15875,-0.38806 0.37571,-0.38806 0.11465,0 0.21695,0.0441 0.28398,0.13759 l 0.0653,-0.0476 c -0.0759,-0.11289 -0.20285,-0.16933 -0.34925,-0.16933 -0.26988,0 -0.46567,0.19226 -0.46567,0.46743 0,0.2734 0.19579,0.46743 0.46567,0.46743 z"
         style="font-style:normal;font-variant:normal;font-weight:300;font-stretch:normal;font-family:Montserrat;-inkscape-font-specification:'Montserrat Light';text-align:center;text-anchor:middle;stroke-width:0.26458332"
         id="path48956" />
      <path
         d="m 157.74766,133.60886 h -0.80786 v 0.0794 h 0.35984 v 0.84137 h 0.0882 v -0.84137 h 0.35983 z"
         style="font-style:normal;font-variant:normal;font-weight:300;font-stretch:normal;font-family:Montserrat;-inkscape-font-specification:'Montserrat Light';text-align:center;text-anchor:middle;stroke-width:0.26458332"
         id="path48958" />
      <path
         d="m 158.47982,134.05513 c 0.10583,-0.03 0.17109,-0.10231 0.17109,-0.21167 0,-0.15346 -0.12523,-0.2346 -0.32808,-0.2346 h -0.38806 v 0.92075 h 0.39864 c 0.23636,0 0.34925,-0.0882 0.34925,-0.24694 0,-0.12524 -0.0635,-0.20285 -0.20284,-0.22754 z m -0.45862,-0.37395 h 0.29634 c 0.15698,0 0.24518,0.0564 0.24518,0.17286 0,0.11466 -0.0882,0.17463 -0.24518,0.17463 h -0.29634 z m 0.31045,0.77611 h -0.31045 v -0.35983 h 0.32456 c 0.17286,0 0.24871,0.0564 0.24871,0.18168 0,0.12347 -0.0917,0.17815 -0.26282,0.17815 z"
         style="font-style:normal;font-variant:normal;font-weight:300;font-stretch:normal;font-family:Montserrat;-inkscape-font-specification:'Montserrat Light';text-align:center;text-anchor:middle;stroke-width:0.26458332"
         id="path48960" />
      <path
         d="m 159.36275,134.53667 c 0.26459,0 0.46038,-0.19403 0.46038,-0.46743 0,-0.2734 -0.19579,-0.46743 -0.46038,-0.46743 -0.26458,0 -0.46037,0.19403 -0.46037,0.46743 0,0.2734 0.19579,0.46743 0.46037,0.46743 z m 0,-0.0794 c -0.21166,0 -0.37041,-0.15698 -0.37041,-0.38805 0,-0.23107 0.15875,-0.38806 0.37041,-0.38806 0.21167,0 0.37042,0.15699 0.37042,0.38806 0,0.23107 -0.15875,0.38805 -0.37042,0.38805 z"
         style="font-style:normal;font-variant:normal;font-weight:300;font-stretch:normal;font-family:Montserrat;-inkscape-font-specification:'Montserrat Light';text-align:center;text-anchor:middle;stroke-width:0.26458332"
         id="path48962" />
    </g>
    <text
       xml:space="preserve"
       style="font-style:normal;font-variant:normal;font-weight:normal;font-stretch:normal;font-size:7.05555534px;line-height:1.25;font-family:Montserrat;-inkscape-font-specification:Montserrat;letter-spacing:0px;word-spacing:0px;fill:#000000;fill-opacity:1;stroke:none;stroke-width:0.26458332"
       x="141.00169"
       y="139.77853"
       id="text48570"><tspan
         sodipodi:role="line"
         id="tspan48568"
         x="141.00169"
         y="146.26324"
         style="stroke-width:0.26458332" /></text>
  </g>
</svg>
