<?xml version="1.0" encoding="UTF-8" standalone="no"?>
<!-- Created with Inkscape (http://www.inkscape.org/) -->

<svg
   xmlns:dc="http://purl.org/dc/elements/1.1/"
   xmlns:cc="http://creativecommons.org/ns#"
   xmlns:rdf="http://www.w3.org/1999/02/22-rdf-syntax-ns#"
   xmlns:svg="http://www.w3.org/2000/svg"
   xmlns="http://www.w3.org/2000/svg"
   xmlns:sodipodi="http://sodipodi.sourceforge.net/DTD/sodipodi-0.dtd"
   xmlns:inkscape="http://www.inkscape.org/namespaces/inkscape"
   width="61.32391mm"
   height="34.737659mm"
   viewBox="0 0 61.32391 34.73766"
   version="1.1"
   id="svg1181"
   inkscape:version="0.92.2 (5c3e80d, 2017-08-06)"
   sodipodi:docname="emiia142.svg"
   inkscape:export-filename="C:\Users\User1\Desktop\Бортник\emiia36.png"
   inkscape:export-xdpi="952.74695"
   inkscape:export-ydpi="952.74695">
  <defs
     id="defs1175">
    <pattern
       y="0"
       x="0"
       height="6"
       width="6"
       patternUnits="userSpaceOnUse"
       id="EMFhbasepattern" />
    <pattern
       y="0"
       x="0"
       height="6"
       width="6"
       patternUnits="userSpaceOnUse"
       id="EMFhbasepattern-6" />
  </defs>
  <sodipodi:namedview
     id="base"
     pagecolor="#ffffff"
     bordercolor="#666666"
     borderopacity="1.0"
     inkscape:pageopacity="0.0"
     inkscape:pageshadow="2"
     inkscape:zoom="1.979899"
     inkscape:cx="143.85657"
     inkscape:cy="103.80322"
     inkscape:document-units="mm"
     inkscape:current-layer="layer1"
     showgrid="false"
     fit-margin-top="0"
     fit-margin-left="0"
     fit-margin-right="0"
     fit-margin-bottom="0"
     inkscape:window-width="1366"
     inkscape:window-height="745"
     inkscape:window-x="-8"
     inkscape:window-y="-8"
     inkscape:window-maximized="1" />
  <metadata
     id="metadata1178">
    <rdf:RDF>
      <cc:Work
         rdf:about="">
        <dc:format>image/svg+xml</dc:format>
        <dc:type
           rdf:resource="http://purl.org/dc/dcmitype/StillImage" />
        <dc:title></dc:title>
      </cc:Work>
    </rdf:RDF>
  </metadata>
  <g
     inkscape:label="Layer 1"
     inkscape:groupmode="layer"
     id="layer1"
     transform="translate(-69.111859,-87.644943)">
    <rect
       style="fill:#ffffff;fill-opacity:1;stroke:#040506;stroke-width:0;stroke-linecap:round;stroke-linejoin:round;stroke-miterlimit:4;stroke-dasharray:none;stroke-opacity:1"
       id="rect4967"
       width="61.893597"
       height="35.435268"
       x="69.017365"
       y="87.608795" />
    <path
       id="path958"
       d="m 121.12126,108.06486 c -3.51689,0 -6.37303,2.8521 -6.37303,6.37307 0,3.51563 2.85614,6.37309 6.37303,6.37309 3.52222,0 6.37836,-2.85746 6.37836,-6.37309 0,-3.52097 -2.85614,-6.37307 -6.37836,-6.37307 z"
       style="fill:none;stroke:#000000;stroke-width:0.133;stroke-linecap:butt;stroke-linejoin:miter;stroke-miterlimit:4;stroke-dasharray:none;stroke-opacity:1"
       inkscape:connector-curvature="0" />
    <path
       id="path960"
       d="m 121.12126,108.06486 c -1.75844,0 -3.18651,1.42337 -3.18651,3.18385 0,1.7605 1.42807,3.18922 3.18651,3.18922 1.76378,0 3.19184,-1.42872 3.19184,-3.18922 0,-1.76048 -1.42806,-3.18385 -3.19184,-3.18385 z"
       style="fill:none;stroke:#000000;stroke-width:0.13321549px;stroke-linecap:butt;stroke-linejoin:miter;stroke-miterlimit:4;stroke-dasharray:none;stroke-opacity:1"
       inkscape:connector-curvature="0" />
    <path
       id="path962"
       d="m 115.53154,117.49338 h 11.18477"
       style="fill:none;stroke:#000000;stroke-width:0.13321549px;stroke-linecap:butt;stroke-linejoin:miter;stroke-miterlimit:4;stroke-dasharray:none;stroke-opacity:1"
       inkscape:connector-curvature="0" />
    <path
       id="path964"
       d="m 116.70313,108.11838 v 1.71232"
       style="fill:none;stroke:#000000;stroke-width:0.13321549px;stroke-linecap:round;stroke-linejoin:round;stroke-miterlimit:4;stroke-dasharray:none;stroke-opacity:1"
       inkscape:connector-curvature="0" />
    <path
       id="path966"
       d="m 125.58664,108.15583 v 1.71232"
       style="fill:none;stroke:#000000;stroke-width:0.13321549px;stroke-linecap:butt;stroke-linejoin:miter;stroke-miterlimit:4;stroke-dasharray:none;stroke-opacity:1"
       inkscape:connector-curvature="0" />
    <path
       id="path968"
       d="m 114.99798,109.79325 h 1.70515"
       style="fill:none;stroke:#000000;stroke-width:0.13321549px;stroke-linecap:round;stroke-linejoin:round;stroke-miterlimit:4;stroke-dasharray:none;stroke-opacity:1"
       inkscape:connector-curvature="0" />
    <path
       id="path970"
       d="m 125.58132,109.8307 h 1.70515"
       style="fill:none;stroke:#000000;stroke-width:0.13321549px;stroke-linecap:round;stroke-linejoin:round;stroke-miterlimit:4;stroke-dasharray:none;stroke-opacity:1"
       inkscape:connector-curvature="0" />
    <path
       id="path2806"
       d="m 72.809603,118.22337 4.19116,2.5164 c 0.17334,0.11586 0.57692,0.10488 0.76651,-0.0166 l 4.059094,-2.58543"
       style="fill:#ffffff;fill-opacity:1;stroke:#000000;stroke-width:0.12200002;stroke-linecap:round;stroke-linejoin:miter;stroke-miterlimit:4;stroke-dasharray:none;stroke-opacity:1"
       inkscape:connector-curvature="0"
       sodipodi:nodetypes="cccc" />
    <path
       id="path2808"
       d="m 81.698537,110.71725 -4.069814,-2.67222 c -0.17272,-0.11383 -0.46419,-0.10836 -0.64232,0.0113 l -4.04283,2.64512 c -0.17812,0.11924 -0.18891,0.30896 -0.0162,0.41736 l 4.06982,2.67765 c 0.16733,0.10836 0.4588,0.10304 0.64232,-0.0163 l 4.037424,-2.63971 c 0.18352,-0.11925 0.18892,-0.30895 0.0216,-0.42278 z"
       style="fill:#ffffff;fill-opacity:1;stroke:#000000;stroke-width:0.122;stroke-linecap:butt;stroke-linejoin:miter;stroke-miterlimit:4;stroke-dasharray:none;stroke-opacity:1"
       inkscape:connector-curvature="0" />
    <path
       id="path2812"
       d="m 81.826367,110.90783 v 7.22991"
       style="fill:#ffffff;fill-opacity:1;stroke:#000000;stroke-width:0.122;stroke-linecap:round;stroke-linejoin:miter;stroke-miterlimit:4;stroke-dasharray:none;stroke-opacity:1"
       inkscape:connector-curvature="0" />
    <path
       id="path2814"
       d="m 77.348053,109.81748 c -0.75567,0 -1.371,0.49325 -1.371,1.10033 0,0.6125 0.61533,1.10575 1.371,1.10575 0.75567,0 1.365602,-0.49325 1.365602,-1.10575 0,-0.60708 -0.609932,-1.10033 -1.365602,-1.10033 z"
       style="fill:#ffffff;fill-opacity:1;stroke:#000000;stroke-width:0.122;stroke-linecap:butt;stroke-linejoin:miter;stroke-miterlimit:4;stroke-dasharray:none;stroke-opacity:1"
       inkscape:connector-curvature="0" />
    <rect
       style="fill:#ffffff;fill-opacity:1;stroke-width:0.26458332"
       id="rect4618"
       width="2.5513394"
       height="1.1339285"
       x="54.276295"
       y="95.546295" />
    <path
       id="path994"
       d="m 83.833157,117.55945 c -0.003,0.6221 -0.006,1.24419 -0.008,1.86628 m -1.99808,-0.008 c 0.003,-0.62208 0.006,-1.24418 0.008,-1.86628"
       style="fill:#ffffff;fill-opacity:1;stroke:#000000;stroke-width:0.122;stroke-linecap:round;stroke-linejoin:round;stroke-miterlimit:4;stroke-dasharray:none;stroke-opacity:1"
       inkscape:connector-curvature="0" />
    <path
       id="path996"
       d="m 81.835027,117.55072 c -0.78235,-0.37385 -1.27963,-1.05437 -1.27963,-1.90428 0,-1.22666 1.01793,-2.21968 2.27436,-2.21968 1.25644,0 2.27437,0.99302 2.27437,2.21968 0,0.87911 -0.450787,1.55668 -1.27097,1.91301"
       style="fill:#ffffff;fill-opacity:1;stroke:#000000;stroke-width:0.122;stroke-linecap:round;stroke-linejoin:round;stroke-miterlimit:4;stroke-dasharray:none;stroke-opacity:1"
       inkscape:connector-curvature="0"
       sodipodi:nodetypes="csssc" />
    <path
       id="path998"
       d="m 81.826367,118.82992 h 2.00679"
       style="fill:#ffffff;fill-opacity:1;stroke:#000000;stroke-width:0.122;stroke-linecap:butt;stroke-linejoin:miter;stroke-miterlimit:4;stroke-dasharray:none;stroke-opacity:1"
       inkscape:connector-curvature="0" />
    <path
       id="path1000"
       d="m 81.826367,118.13774 h 2.00679"
       style="fill:#ffffff;fill-opacity:1;stroke:#000000;stroke-width:0.122;stroke-linecap:butt;stroke-linejoin:miter;stroke-miterlimit:4;stroke-dasharray:none;stroke-opacity:1"
       inkscape:connector-curvature="0" />
    <path
       id="path1002"
       d="m 81.826367,119.4783 h 2.00679"
       style="fill:#ffffff;fill-opacity:1;stroke:#000000;stroke-width:0.122;stroke-linecap:butt;stroke-linejoin:miter;stroke-miterlimit:4;stroke-dasharray:none;stroke-opacity:1"
       inkscape:connector-curvature="0" />
    <path
       id="path1004"
       d="m 83.833157,119.49291 -0.50315,0.53449 h -1.0034 l -0.50024,-0.53449"
       style="fill:#ffffff;fill-opacity:1;stroke:#000000;stroke-width:0.122;stroke-linecap:round;stroke-linejoin:round;stroke-miterlimit:4;stroke-dasharray:none;stroke-opacity:1"
       inkscape:connector-curvature="0" />
    <path
       id="path1006"
       d="m 82.504027,120.11502 h 0.65147 c 0.0582,0 0.10761,0.0496 0.10761,0.11098 v 0.11683 c 0,0.0584 -0.0495,0.10805 -0.10761,0.10805 h -0.65147 c -0.0611,0 -0.11053,-0.0496 -0.11053,-0.10805 V 120.226 c 0,-0.0613 0.0495,-0.11098 0.11053,-0.11098 z"
       style="fill:#ffffff;fill-opacity:1;stroke:#000000;stroke-width:0.122;stroke-linecap:butt;stroke-linejoin:miter;stroke-miterlimit:4;stroke-dasharray:none;stroke-opacity:1"
       inkscape:connector-curvature="0" />
    <line
       class="cls-1"
       x1="175.30981"
       y1="88.128113"
       x2="193.54755"
       y2="88.128113"
       id="line4702-0"
       style="stroke-width:0.26458332" />
    <line
       style="fill:none;stroke:#040506;stroke-width:0.133;stroke-miterlimit:4;stroke-dasharray:none;stroke-opacity:1"
       class="cls-1"
       x1="76.221191"
       y1="92.286964"
       x2="89.79184"
       y2="92.286964"
       id="line4688" />
    <line
       style="fill:none;stroke:#040506;stroke-width:0.133;stroke-miterlimit:4;stroke-dasharray:none;stroke-opacity:1"
       class="cls-1"
       x1="70.37986"
       y1="90.907867"
       x2="79.305664"
       y2="90.907867"
       id="line4690-3" />
    <path
       style="fill:none;stroke:#040506;stroke-width:0.133;stroke-miterlimit:4;stroke-dasharray:none;stroke-opacity:1"
       class="cls-1"
       d="m 73.756981,90.907879 a 1.0857815,1.0857815 0 1 1 2.171563,0"
       id="path4692"
       inkscape:connector-curvature="0" />
    <path
       style="fill:none;stroke:#040506;stroke-width:0.133;stroke-miterlimit:4;stroke-dasharray:none;stroke-opacity:1"
       class="cls-1"
       d="m 73.395702,90.907879 v 0.90643 a 1.4477083,1.4477083 0 0 0 2.895416,0 v -0.90643"
       id="path4694"
       inkscape:connector-curvature="0" />
    <line
       style="fill:none;stroke:#040506;stroke-width:0.133;stroke-linecap:round;stroke-linejoin:round;stroke-miterlimit:4;stroke-dasharray:none;stroke-opacity:1"
       class="cls-1"
       x1="70.37986"
       y1="90.907867"
       x2="79.305664"
       y2="90.907867"
       id="line4696-9" />
    <path
       style="fill:none;stroke:#040506;stroke-width:0.133;stroke-miterlimit:4;stroke-dasharray:none;stroke-opacity:1"
       class="cls-1"
       d="m 73.756981,90.907879 a 1.0857815,1.0857815 0 1 1 2.171563,0"
       id="path4698"
       inkscape:connector-curvature="0" />
    <path
       style="fill:none;stroke:#040506;stroke-width:0.133;stroke-miterlimit:4;stroke-dasharray:none;stroke-opacity:1"
       class="cls-1"
       d="m 73.395702,90.907879 v 0.90643 a 1.4477083,1.4477083 0 0 0 2.895416,0 v -0.90643"
       id="path4700"
       inkscape:connector-curvature="0" />
    <line
       style="fill:none;stroke:#040506;stroke-width:0.133;stroke-linecap:round;stroke-linejoin:round;stroke-miterlimit:4;stroke-dasharray:none;stroke-opacity:1"
       class="cls-1"
       x1="86.713852"
       y1="90.907867"
       x2="95.639648"
       y2="90.907867"
       id="line4702" />
    <path
       style="fill:none;stroke:#040506;stroke-width:0.133;stroke-miterlimit:4;stroke-dasharray:none;stroke-opacity:1"
       class="cls-1"
       d="m 90.089669,90.907879 a 1.0857812,1.0857812 0 1 1 2.17156,0"
       id="path4704"
       inkscape:connector-curvature="0" />
    <path
       style="fill:none;stroke:#040506;stroke-width:0.133;stroke-miterlimit:4;stroke-dasharray:none;stroke-opacity:1"
       class="cls-1"
       d="m 89.728389,90.907879 v 0.90643 a 1.44771,1.44771 0 0 0 2.89542,0 v -0.90643"
       id="path4706"
       inkscape:connector-curvature="0" />
    <path
       style="fill:none;stroke:#040506;stroke-width:0.133;stroke-miterlimit:4;stroke-dasharray:none;stroke-opacity:1"
       class="cls-1"
       d="m 87.051809,92.286949 c 0,2.08481 -1.45547,2.37746 -1.45547,2.37746 h -5.05015 c 0,0 -1.4244,-0.29265 -1.4244,-2.37746"
       id="path4708"
       inkscape:connector-curvature="0" />
    <circle
       style="fill:none;stroke:#040506;stroke-width:0.133;stroke-miterlimit:4;stroke-dasharray:none;stroke-opacity:1"
       class="cls-1"
       cx="83.084213"
       cy="97.298248"
       r="1.0851338"
       id="circle4710" />
    <path
       style="fill:none;stroke:#040506;stroke-width:0.133;stroke-linecap:round;stroke-linejoin:round;stroke-miterlimit:4;stroke-dasharray:none;stroke-opacity:1"
       class="cls-1"
       d="m 86.041779,99.357599 a 3.9300488,3.9300488 0 0 1 -5.803778,0.12173"
       id="path4714"
       inkscape:connector-curvature="0" />
    <path
       style="fill:none;stroke:#040506;stroke-width:0.133;stroke-linecap:round;stroke-linejoin:round;stroke-miterlimit:4;stroke-dasharray:none;stroke-opacity:1"
       class="cls-1"
       d="m 87.352229,101.03536 a 5.6729963,5.6729963 0 0 1 -8.374175,0.17611"
       id="path4716"
       inkscape:connector-curvature="0" />
    <line
       style="fill:none;stroke:#040506;stroke-width:0.13838065;stroke-miterlimit:4;stroke-dasharray:none;stroke-opacity:1"
       class="cls-1"
       x1="83.084213"
       y1="94.617149"
       x2="83.084213"
       y2="96.166153"
       id="line4718" />
    <path
       id="path2812-7"
       d="m 72.809606,110.99346 v 7.22991"
       style="fill:#ffffff;fill-opacity:1;stroke:#000000;stroke-width:0.122;stroke-linecap:round;stroke-linejoin:miter;stroke-miterlimit:4;stroke-dasharray:none;stroke-opacity:1"
       inkscape:connector-curvature="0" />
    <path
       id="path9985"
       d="m 104.77988,98.037542 -0.44253,-0.06837 c -0.0908,-0.03418 -0.17021,-0.07976 -0.24964,-0.125343 l -0.0567,-0.03418 c -0.0453,-0.03418 0.0227,0.0114 -0.0114,-0.0114 l -0.31774,-0.364633 -0.0794,-0.159527 c 0,0 0,0 0,-0.0114 l -0.0227,-0.05697 c 0,0 0,-0.02279 -0.0114,-0.02279 l -0.0453,-0.193711 c -0.0227,-0.09116 -0.0114,-0.262081 0.0114,-0.341844 0,-0.0114 0,-0.0114 0,-0.0114 0.0114,-0.02278 0.0114,-0.0114 0.0114,-0.04558 l 0.15886,-0.410212 c 0.10217,-0.148133 0.14752,-0.182318 0.27234,-0.296265 l 0.0341,-0.03418 c 0.0114,-0.0114 0.0227,-0.0114 0.034,-0.02278 l 0.14752,-0.09116 c 0.3404,-0.159527 0.69217,-0.159527 1.04392,-0.0114 l 0.13617,0.06837 c 0,0 0,0 0.0114,0 0,0 0.0114,0.0114 0.0114,0.0114 l 0.0794,0.05697 c 0.0114,0.02278 0.0227,0.02278 0.0341,0.04558 0.0341,0.02279 0.0453,0.03418 0.0794,0.06837 l 0.15887,0.193712 0.17021,0.444398 c 0.0114,0.136737 0.0227,0.0114 0.0227,0.30766 l -0.0681,0.296265 c 0,0 0,0 0,0 l -0.0341,0.09116 c 0,0 0,0.0114 0,0.0114 l -0.0908,0.170922 c -0.0114,0.0114 -0.0341,0.03418 -0.0341,0.04558 l -0.47658,0.398818 c -0.13617,0.05697 -0.29503,0.10255 -0.47658,0.10255 z m 11.77831,-1.25343 c 0,0 0,-0.125342 0,-0.148132 0,-0.02278 0,-0.04558 0,-0.06837 l 0.0227,-0.05697 c 0.0227,-0.05697 0.0114,-0.102551 0.0453,-0.205107 l 0.0341,-0.09115 c 0,-0.0114 0.0114,-0.03418 0.0227,-0.04558 l 0.32906,-0.433003 0.27233,-0.170922 c 0.23829,-0.113948 0.39715,-0.113948 0.66948,-0.102551 l 0.44253,0.170922 c 0,0 0,0 0.0114,0 l 0.23828,0.193711 c 0.0227,0.02279 0.0453,0.03418 0.0681,0.06837 l 0.14752,0.23929 c 0,0.0114 0.0114,0.02278 0.0114,0.02278 l 0.0341,0.09115 c 0,0 0.0114,0.0114 0.0114,0.0114 0,0.02278 0,0.02278 0.0114,0.03418 l 0.0227,0.125342 c 0.0227,0.07977 0.0681,0.273477 0.0227,0.421609 l -0.14752,0.433003 c 0,0 0,0 0,0 -0.0114,0.0114 -0.0114,0.0114 -0.0114,0.0114 l -0.0227,0.03418 c -0.0114,0.02279 -0.0114,0.03418 -0.0227,0.05697 l -0.40848,0.364634 c -0.0908,0.03418 -0.17022,0.07977 -0.26099,0.102551 -0.0454,0.0114 -0.0341,0 -0.0681,0.0114 -0.10216,0.03418 -0.40848,0.03418 -0.52195,0 -0.0114,0 -0.0114,0 -0.034,-0.0114 l -0.18156,-0.05698 c 0,0 0,0 -0.0114,-0.0114 l -0.24964,-0.148132 c -0.0114,0 -0.0114,-0.0114 -0.0114,-0.0114 0,0 -0.0114,0 -0.0114,0 l -0.0794,-0.06837 c 0,0 -0.0114,-0.0114 -0.0114,-0.0114 -0.0681,-0.05697 -0.10216,-0.136738 -0.15886,-0.205107 0,-0.0114 0,-0.0114 0,-0.0114 l -0.13616,-0.273476 c 0,0 0,-0.0114 0,-0.0114 -0.0114,-0.02278 -0.0114,-0.03418 -0.0227,-0.05697 -0.0114,-0.04558 0,0.03418 -0.0114,-0.05697 -0.0227,-0.193712 -0.0114,-0.06837 -0.0341,-0.136737 z m 4.53884,-2.256172 c 0.0227,0.04558 0.1702,0.182317 0.1702,0.193712 0.0114,0.0114 0.0114,0.0114 0.0227,0.02278 l 0.1702,0.227897 c 0,0 0.0114,0 0.0114,0.0114 l 0.0453,0.07977 c 0,0 0,0.0114 0,0.0114 l 0.0453,0.113949 h -1.52051 l 0.20425,-0.455794 c 0.0227,-0.04558 0.034,-0.07977 0.0908,-0.113947 0,0 0,0 0.0114,0 l 0.0908,-0.04558 c 0.10217,-0.03418 0.14752,0 0.26099,-0.0114 0.13617,-0.0114 -0.0227,-0.03418 0.39715,-0.03418 z m -20.32269,-0.05697 v 0.113949 h -0.76026 c 0,-0.30766 0,-0.30766 0.0227,-0.626715 0.0227,-0.205107 0.0114,-0.30766 0.0908,-0.546951 l 0.0453,-0.113948 c 0,0 0,-0.0114 0,-0.0114 0.0341,-0.04558 0.0794,-0.10255 0.13617,-0.10255 0.0341,0 0.0908,0.04558 0.11341,0.05697 l 0.27234,0.30766 c 0.0567,0.125343 0.0681,0.216501 0.0681,0.341844 0.0114,0.102551 0.0341,0.07977 0.0341,0.148133 v 0.227897 c 0,0.09115 -0.0227,0.113947 -0.0227,0.205105 z m 9.71316,-0.444397 c 0.0227,-0.04558 -0.0114,-0.03418 0.18155,-0.03418 h 0.66948 c 0.0453,0.07976 0.0794,0.125344 -0.0114,0.170922 l -0.0453,0.02279 c -0.0227,0 -0.0341,0 -0.0681,0 h -0.53331 c -0.0227,0 -0.10216,0.0114 -0.12482,0 l -0.0908,-0.05698 c 0,-0.10255 -0.0114,-0.09115 0.0227,-0.10255 z m -5.08353,-0.125343 c 0.0114,-0.03418 -0.0114,-0.02278 0.0681,-0.02278 0.0341,0 0.0794,0 0.12482,0 h 0.6468 c 0.0341,0.0114 0.0114,-0.0114 0.0341,0.02278 0.0227,0.0114 0.0227,-0.0114 0.0227,0.113948 -0.0341,0.0114 -0.0453,0.03418 -0.15886,0.03418 h -0.68084 c -0.0453,-0.0114 -0.0908,-0.03418 -0.0908,-0.09115 0,-0.07977 0,-0.04558 0.0341,-0.05697 z m -0.81699,-1.196455 c 0,-0.102551 0.0794,-0.239291 0.17021,-0.319055 0.0567,-0.05698 0.14751,-0.102551 0.20424,-0.136738 l 0.70353,-0.353239 c 0,0 0,0 0.0114,-0.0114 l 0.51063,-0.159526 c 0.0227,0 0.0681,0 0.0908,0 v 0.193711 c 0,0.06837 0.0341,-0.02278 0.0227,0.148133 0,0.148132 0.0114,0.09116 0.0227,0.148132 0.0227,0.05697 0,0.113948 0.0114,0.170922 0.0114,0.09116 0.0341,0.02279 0.0341,0.170923 0,0.09116 0,0.07976 0.0114,0.159527 l 0.0567,0.501372 h -0.4085 c -0.10217,0 -0.13617,-0.02278 -0.21559,-0.02278 -0.34043,-0.02278 -0.94182,0.113948 -1.11204,-0.227897 l -0.0341,-0.05697 c -0.0114,0 -0.0114,-0.0114 -0.0114,-0.0114 0,0 0,0 0,-0.0114 z m 1.83824,-0.877401 v -0.159527 c 0.0567,0 0.13617,-0.02278 0.18156,-0.03418 0.0567,-0.0114 0.12481,-0.0114 0.18154,-0.03418 0.10217,-0.02278 0.0681,0.0114 0.19291,-0.03418 0.0681,-0.02278 0.13617,0 0.20425,-0.0114 0.0794,-0.0114 0.0227,-0.02278 0.18155,-0.02278 0.19291,0 0.0453,-0.03418 0.41985,-0.03418 0.0227,0 0.0794,0 0.10217,0 0.0908,-0.0114 0.0341,-0.02278 0.0908,-0.02278 h 1.31626 c 0,0.136738 0.0114,0.02278 0.0227,0.113948 0.0114,0.04558 0,0.06837 0.0114,0.113949 0.0114,0.04558 0.0114,-0.0114 0.0227,0.07976 l 0.10216,0.581135 c 0.0114,0.04558 0,-0.02278 0.0114,0.04558 l 0.0341,0.262081 c 0.0227,0.136737 0.11353,0.467187 0.0567,0.581135 l -0.0567,0.04558 c 0,0 -0.0114,0 -0.0114,0 0,0.0114 0,0.0114 -0.0114,0.0114 0,0 0,0 -0.0114,0 -0.19289,0.05697 -0.17019,0 -0.49927,0 -0.13616,0 -0.46523,0.02278 -0.57871,-0.0114 l -0.78295,-0.0114 c -0.0681,-0.0114 -0.0794,-0.03418 -0.18155,-0.03418 h -0.60141 c -0.11352,0 -0.0567,-0.03418 -0.23828,-0.03418 0,-0.136737 -0.0114,-0.227897 -0.0341,-0.353239 0,-0.05697 0,-0.102551 -0.0114,-0.170923 l -0.0453,-0.341844 c -0.0227,-0.06837 0,-0.113948 -0.0114,-0.182316 -0.0114,-0.07977 -0.034,-0.05697 -0.034,-0.159528 0,-0.227897 -0.0227,-0.10255 -0.0227,-0.182317 z m 3.50626,-0.353239 c 0.12483,0 0.20426,-0.0114 0.31773,0.0114 0.14751,0.04558 0.34042,0.0114 0.49927,0.0114 0.11353,0 0.10216,0.03418 0.30638,0.03418 l 0.14751,0.02278 c 0.0567,0.0114 0.11352,0 0.15886,0 l 0.44253,0.09115 c 0.13617,0.02278 0.24964,0.04558 0.37445,0.09116 0,0 0.0114,0 0.0114,0 l 0.68083,0.273476 c 0,0 0.0114,0 0.0114,0 l 0.0453,0.03418 c 0,0 0.0114,0 0.0114,0 l 0.0794,0.03418 c 0.0114,0.0114 0.0227,0.0114 0.034,0.02278 l 0.0114,0.0114 c 0.0114,0 0.0114,0 0.0114,0 l 0.3858,0.227897 c 0,0 0.0114,0 0.0114,0 0,0 0,0 0.0114,0.0114 l 0.10217,0.06837 c 0,0 0.0114,0 0.0114,0.0114 l 0.47658,0.364633 c -0.13617,0 -0.2383,0.03418 -0.34041,0.113949 -0.0794,0.04558 -0.12483,0.170922 -0.13617,0.250686 -0.0114,0.05698 0.0114,0.148132 0.0453,0.205107 0.0227,0.05697 0.0794,0.09115 0.12482,0.136737 -0.15886,0 -0.1929,-0.0114 -0.32907,-0.02278 -0.24963,-0.02278 -0.3858,0 -0.71486,-0.03418 -0.22695,-0.02278 -0.47658,0.0114 -0.70353,-0.02278 -0.12481,-0.0114 -0.53331,-0.0114 -0.71486,-0.02278 l -0.35176,-0.0114 c -0.0908,0 -0.18155,-0.02279 -0.26098,-0.05697 l -0.0794,-0.04558 c -0.0454,-0.04558 -0.0908,-0.113948 -0.11353,-0.170922 l -0.0794,-0.239291 c -0.0114,-0.0114 -0.0114,-0.0114 -0.0114,-0.0114 0,-0.0114 0,-0.0114 0,-0.0114 l -0.0794,-0.216501 c 0,0 0,0 0,-0.0114 l -0.27244,-0.763458 c 0,-0.0114 0,-0.0114 0,-0.0114 0,-0.0114 0,-0.0114 0,-0.0114 l -0.0794,-0.227897 c -0.0227,-0.04558 -0.0227,-0.09115 -0.0453,-0.136738 z m -10.064907,3.498208 c -0.102164,0.06837 -0.170213,0.136738 -0.20426,0.262081 -0.05671,0.182317 -0.04534,0.193712 -0.03409,0.398819 0,0.06837 0.02273,0.125342 0.03409,0.193711 0,0.10255 -0.01136,0.125342 0.01136,0.216502 0.01136,0.05697 0.03409,0.193712 0,0.250685 -0.0908,0.113949 -0.113415,0.113949 0,0.26208 l 0.03409,0.03418 c 0.05671,0.07976 0.136177,0.125343 0.20426,0.182317 l 0.226937,0.170922 c 0.12482,0.06837 0.17021,0.02279 0.29503,0.06837 l 0.1702,0.02278 c 0.0681,0.0114 0,0 0.0453,0.0114 0.0567,0.02278 0.12482,0 0.18156,0.02278 0.0567,0.0114 0.034,0.02279 0.11353,0.02279 0.0227,0 0.0453,-0.0114 0.0681,0 h 0.0227 c 0.0567,0.02279 0.10216,0.02279 0.15886,0.02279 0.0681,0.0114 0.0567,0.02278 0.11353,0.03418 0.0341,0 0.0794,-0.0114 0.12481,0 0.0453,0.0114 0.0567,0.02279 0.12484,0.02279 0.22694,0.0114 0.47657,0.06837 0.71486,0.10255 0.0341,0.0114 0.0794,0 0.12481,0.0114 l 0.18156,0.02279 c 0.0681,0.0114 0.0227,0.02278 0.10216,0.03418 0.11353,0.0114 0.23829,0 0.35176,0 l 0.34042,0.672295 c 0.0114,0.0114 0.0114,0 0.0227,0.02278 l 0.12483,0.113948 c 0.0341,0.03418 0,0.0114 0.0453,0.03418 l 0.1702,0.125343 c 0.0114,0 0.0114,0 0.0114,0 l 0.0681,0.04558 c 0.0453,0.02278 0.0567,0.02278 0.11353,0.04558 0.10216,0.05697 0.24965,0.102551 0.36312,0.125343 0.0341,0 0.0567,0 0.0794,0 0.0681,0.02278 0.0114,0.03418 0.0681,0.03418 h 0.56734 c 0.0227,0 0.0567,-0.03418 0.11353,-0.03418 0.0908,-0.0114 0.17021,-0.03418 0.2383,-0.05697 0.0567,-0.0114 0.0794,-0.02278 0.12481,-0.04558 l 0.36312,-0.193712 c 0.1702,-0.09115 0.34042,-0.273475 0.43119,-0.444398 l 0.0453,-0.09115 c 0.0114,-0.0114 0.0114,-0.0114 0.0114,-0.02278 0.0227,-0.03418 0.0453,-0.06837 0.0567,-0.113948 0,-0.02279 0,-0.02279 0,-0.04558 0.0453,0.02278 0.5787,0.03418 0.66948,0.03418 l 0.0794,-0.125343 c 0.0227,-0.0114 0.0114,-0.02278 0.0567,-0.02278 h 1.03259 c 0.10216,0 0.13616,0.0114 0.2156,0.0114 0.0794,0 0.15886,0 0.22694,0 0.66948,0.03418 1.373,0.02278 2.05383,0.02278 0.14751,0 0.31772,-0.0114 0.46523,0 l 0.44253,0.02278 c 0.19291,0.02279 1.53187,0 1.83823,0 0.70353,0 1.38435,0.03418 2.09921,0.03418 0.0681,0 0.41984,-0.09115 0.49928,-0.09115 0.0114,0.09115 0.0794,0.170922 0.12481,0.23929 0.0567,0.07977 0.2156,0.239292 0.28369,0.28487 l 0.12481,0.113949 c 0.0227,0 0.0453,0.02278 0.0567,0.03418 l 0.19289,0.113949 c 0.0114,0 0.0114,0 0.0114,0 l 0.0453,0.02279 c 0.0114,0 0.0567,0.02278 0.0567,0.02278 0.0227,0.0114 0.0341,0.0114 0.0567,0.02278 0.0114,0 0.0114,0 0.0114,0 0.0114,0 0.0227,0.0114 0.0227,0.0114 l 0.20425,0.06837 c 0.27233,0.06837 0.4085,0.05697 0.71486,0.05697 0.0681,0 0.0453,-0.02279 0.13617,-0.02279 l 0.68083,-0.273475 c 0,0 0.0114,0 0.0114,0 l 0.41984,-0.455792 c 0.0794,-0.125343 0.0567,-0.182317 0.20425,-0.205106 0.0227,-0.0114 0.0227,-0.0114 0.0453,-0.0114 l 0.15886,-0.04558 c 0,0 0,0 0.0114,0 0.0681,-0.02279 0.11353,-0.03418 0.21559,-0.03418 0.10216,0 0.0794,-0.02278 0.14751,-0.03418 0.0567,0 0.11353,0.0114 0.17021,0 0.0681,-0.0114 0.0453,-0.02279 0.15886,-0.02279 0.0794,-0.0114 0.0681,-0.0114 0.13617,-0.02278 0.0567,-0.02278 0.10216,-0.0114 0.1702,-0.0114 0.0908,-0.0114 0.21559,-0.04558 0.30637,-0.04558 0.10216,0 0.24963,-0.02278 0.32907,-0.05697 0,0 0.0114,-0.0114 0.0114,-0.0114 0,0 0.0114,0 0.0114,0 l 0.0227,-0.0114 c 0,0 0,0 0.0114,0 l 0.65813,-0.273477 c 0,-0.26208 -0.0227,-0.581135 0.0227,-0.820426 0.0227,-0.148132 0.11353,-0.638109 -0.11352,-0.649504 -0.0114,-0.06837 -0.0114,-0.04558 -0.0114,-0.05697 -0.0114,-0.03418 0,0.0114 -0.0114,-0.04558 l -0.0227,-0.07976 c 0,0 -0.0114,0 -0.0114,-0.0114 l -0.11352,-0.30766 c -0.0114,0 -0.0114,-0.0114 -0.0114,-0.02278 -0.0681,-0.136737 -0.0453,-0.09116 -0.13616,-0.239292 0,0 0,0 0,0 l -0.0908,-0.136737 c 0,0 -0.0114,-0.0114 -0.0114,-0.0114 l -0.0567,-0.09115 c -0.0341,-0.05697 -0.10216,-0.10255 -0.15886,-0.136737 l -0.37445,-0.170923 c 0,0 -0.0114,0 -0.0114,0 -0.1702,-0.06837 -0.34042,-0.10255 -0.51062,-0.159527 l -0.12481,-0.02278 c 0,0 0,0 -0.0114,-0.0114 L 119.894,93.81005 c 0,0 -0.0114,-0.0114 -0.0114,-0.0114 -0.0341,-0.0114 -0.0114,0 -0.0567,-0.0114 l -0.20425,-0.03418 c -0.12481,-0.03418 -0.59005,-0.125343 -0.72622,-0.125343 -0.0453,-0.0114 -0.0567,-0.02278 -0.10216,-0.03418 -0.0453,0 -0.0794,0 -0.11353,0 -0.0681,-0.0114 -0.0114,-0.02279 -0.0908,-0.02279 -0.0453,-0.0114 -0.0681,0 -0.11353,-0.0114 0,0 -0.0114,0 -0.0114,0 -0.0681,-0.02278 -0.1475,-0.0114 -0.20423,-0.03418 -0.0908,-0.02279 -0.14752,-0.0114 -0.2156,-0.03418 l -0.31773,-0.04558 c -0.0341,0 -0.0681,0 -0.11352,0 -0.0341,-0.0114 -0.0794,-0.02278 -0.11353,-0.02278 -0.29502,-0.03418 -0.59004,-0.06837 -0.89642,-0.07977 -0.10217,0 -0.10217,-0.03418 -0.20424,-0.03418 -0.15886,0 -0.13617,-0.0114 -0.24964,-0.07976 l -0.0908,-0.05697 c 0,0 -0.0114,0 -0.0114,0 l -0.3064,-0.182298 c -0.0227,-0.0114 -0.0227,-0.0114 -0.0341,-0.02278 l -0.0681,-0.03418 c 0,0 -0.0114,0 -0.0114,-0.0114 0,0 -0.0114,0 -0.0114,0 l -0.61273,-0.341844 c -0.0341,-0.02278 -0.0227,-0.02278 -0.0453,-0.03418 -0.0341,-0.0114 -0.0567,-0.02279 -0.0794,-0.03418 l -0.77161,-0.398818 c 0,0 -0.0114,-0.0114 -0.0114,-0.0114 l -0.15886,-0.07977 c 0,0 -0.0114,0 -0.0114,0 l -0.10216,-0.04558 c -0.0453,-0.03418 -0.11353,-0.05697 -0.1702,-0.09116 l -1.31621,-0.546943 c 0,0 -0.0114,0 -0.0114,0 l -0.26098,-0.04558 c -0.0453,-0.0114 -0.0341,-0.02278 -0.0908,-0.03418 -0.0681,0 -0.0681,0 -0.12481,-0.0114 -0.13617,-0.03418 -0.28369,-0.03418 -0.4312,-0.05697 -0.0794,-0.0114 -0.14752,0 -0.22694,-0.0114 -0.1702,-0.02278 -0.29503,-0.02278 -0.47658,-0.02278 -0.10216,0 -0.12481,-0.02278 -0.22694,-0.02278 h -3.37011 c -0.034,0 -0.0567,0.02278 -0.30636,0.02278 l -1.07799,0.125343 c -0.034,0.0114 -0.0453,0.0114 -0.0794,0.0114 -0.0794,0 -0.0681,0.02278 -0.1475,0.03418 -0.0567,0 -0.0341,-0.0114 -0.0794,0 -0.0567,0.02278 0,0.0114 -0.0681,0.02278 -0.0453,0 -0.0453,0 -0.0794,0.0114 -0.0567,0.0114 0.0114,0 -0.0567,0.0114 -0.0341,0.0114 -0.0453,0.0114 -0.0794,0.0114 0,0 -0.0114,0.0114 -0.0114,0.0114 l -0.74892,0.239291 c 0,0 0,0.0114 -0.0114,0.0114 l -0.49927,0.205107 c -0.0227,0.0114 -0.0341,0.0114 -0.0567,0.02279 -0.0227,0.0114 -0.0227,0.0114 -0.0341,0.02279 -0.0114,0 -0.0114,0 -0.0114,0 l -0.27233,0.125337 c 0,0 -0.0114,0.0114 -0.0114,0.0114 l -0.14752,0.06837 c -0.0341,0.0114 -0.0341,0.0114 -0.0681,0.02278 l -0.80565,0.398818 c -0.0341,0.0114 -0.0341,0.0114 -0.0681,0.02279 0,0 0,0 0,0 l -0.19289,0.10255 c 0,0 -0.0114,0 -0.0114,0 l -0.20424,0.09115 c -0.0567,0.02278 -0.0681,0.03418 -0.11353,0.05697 -0.0681,0.03418 -0.0567,0.02279 -0.14751,0.02279 -0.0681,0.0114 -0.0908,0.02279 -0.14752,0.03418 -0.0681,0 -0.10216,-0.0114 -0.15886,0.0114 -0.0908,0.02278 -0.0681,0.0114 -0.15886,0.0114 -0.10216,0.0114 -0.0341,0.03418 -0.13616,0.03418 -0.0341,0 -0.0681,0 -0.0908,0 -0.0681,0 -0.0341,0.0114 -0.0681,0.02279 l -0.0794,0.0114 c -0.11353,0 -0.13617,0.02278 -0.2383,0.02278 l -0.13603,0.02281 c -0.12481,0.03418 -0.31773,-0.03418 -0.4312,0.182317 -0.0227,0.03418 -0.0114,0.02279 -0.034,0.05697 -0.0114,0.03418 -0.0114,0.03418 -0.0227,0.05697 l -0.0114,0.03418 c -0.04535,0.10255 -0.06808,0.2165 -0.07944,0.330449 -0.01136,0.102551 -0.03398,0.193711 -0.03398,0.296265 0,0.159528 -0.03409,0.216501 -0.03409,0.33045 -0.01136,0.227896 0,0.467186 0,0.695083 z"
       style="fill:none;stroke:#000000;stroke-width:0.122;stroke-linecap:butt;stroke-linejoin:miter;stroke-miterlimit:4;stroke-dasharray:none;stroke-opacity:1"
       inkscape:connector-curvature="0" />
    <g
       id="g10015"
       transform="matrix(0,-1.1364214,1.1364214,0,17.61626,223.40064)"
       style="stroke-width:0.10735454;stroke-miterlimit:4;stroke-dasharray:none">
      <path
         inkscape:connector-curvature="0"
         id="path4714-3"
         d="m 116.24611,93.868271 a 3.9300489,3.9300489 0 0 1 -5.80378,0.12173"
         class="cls-1"
         style="fill:none;stroke:#040506;stroke-width:0.10735454;stroke-linecap:round;stroke-linejoin:round;stroke-miterlimit:4;stroke-dasharray:none;stroke-opacity:1" />
      <path
         inkscape:connector-curvature="0"
         id="path4716-2"
         d="m 117.55656,95.54603 a 5.6729963,5.6729963 0 0 1 -8.37418,0.17611"
         class="cls-1"
         style="fill:none;stroke:#040506;stroke-width:0.10735454;stroke-linecap:round;stroke-linejoin:round;stroke-miterlimit:4;stroke-dasharray:none;stroke-opacity:1" />
    </g>
    <path
       id="path10020"
       d="m 94.762103,105.79442 0.337611,-0.98901 5.575576,-0.53161 3.65979,0.72821 c 0,0 1.04679,0.27283 1.35044,0.55168 0.30165,0.27885 0.51741,0.658 0.51741,0.658 0,0 -0.10988,0.10833 -0.60331,0.20061 -0.56335,0.10633 -1.4763,0.2949 -3.09444,0.38919 -0.26369,0.016 -0.89896,0.0562 -0.89896,0.0562 0,0 -0.63327,0 -1.46632,-0.11234 -0.589317,-0.0823 -2.105564,-0.31295 -2.904645,-0.44736 -0.843029,-0.14243 -2.473152,-0.50353 -2.473152,-0.50353 z m 0.337611,-0.98901 c 0.427508,0.11435 4.348992,0.83655 4.348992,0.83655 0,0 0.833034,0.19058 1.456314,0.56973 0.40953,0.24876 0.7012,0.64597 0.7012,0.64597 m -7.882921,1.19764 1.060778,-3.04727 0.259701,-0.0421 m -0.281675,0.82852 0.169804,0.6239 4.113259,2.28094 c 0,0 0.28967,0.13641 0.517407,0.46742 0.22774,0.33502 0.25571,0.97096 0.25571,0.97096 l 0.259697,6.17679 m 0,0 c 0,0 1.00884,0.10232 1.80192,0.0382 0.83504,-0.0702 3.39609,-0.65599 3.75568,-0.77034 0.35958,-0.11234 0.63527,-0.3611 0.63527,-0.3611 v -5.69132 m -6.530477,0.0782 c 0.415517,0.20864 2.529077,0.57776 3.114407,0.61587 0.58732,0.0381 3.58188,-0.73624 3.58188,-0.73624 0,0 0.4275,-0.77636 0.36158,-1.07126 -0.0659,-0.29489 -0.59531,-2.2047 -0.59531,-2.2047 m -11.778438,10.09267 -0.209759,-0.17052 c 0,0 -0.169804,-0.78038 -0.245717,-1.27588 -0.07591,-0.4955 -0.245717,-6.80269 -0.245717,-6.80269 0.27768,0.15848 2.575035,1.32603 2.97058,1.58482 0.311641,0.20262 0.577335,0.46742 0.663236,0.80043 0.08191,0.32499 0.01998,0.52761 -0.06592,0.94086 -0.359586,1.72926 -0.827048,4.25896 -0.827048,4.25896 m -1.516254,3.38229 c 0,-0.0582 -0.523397,-1.80951 -0.523397,-1.80951 v -1.97801 l 2.610994,0.91679 v 3.4525 z m 11.322957,-3.80156 c 0.64326,0.52158 0.70119,1.03515 0.70119,1.03515 l 0.38756,2.23279 c 0.0519,0.30492 -0.12985,0.59982 -0.42551,0.68809 l -3.23628,0.96694 c 0,0 -0.71917,0.30292 -1.48629,0.25477 -0.91894,-0.0562 -1.14468,-0.25477 -1.14468,-0.25477 v -1.33205 c 0,0 0.0739,-0.53964 -0.34959,-1.2157 -0.4355,-0.69411 -1.144687,-0.93083 -1.144687,-0.93083 l -5.148067,-1.69716 v 0.26681 m 5.653484,1.07928 c 0,0 1.89782,0.46542 2.18149,0.52159 0.28367,0.0582 1.15068,0.0843 1.58018,-0.0181 0.42751,-0.10432 2.09559,-0.51757 2.4312,-0.64798 0.42152,-0.16049 0.50143,-0.2648 0.38356,-0.48948 -0.10388,-0.1966 -0.38356,-0.4594 -0.38356,-0.4594 m -8.554144,0.83253 v 3.49864 l 1.52425,0.56171 c 0,0 0.727157,0.27684 1.086734,0.23872 0.35959,-0.0381 0.79509,-0.17453 0.79509,-0.17453 m -1.160667,0.14445 -0.627267,1.05521 0.521397,0.0943 0.225737,-1.12744 m 0.10188,0.0261 -0.0639,1.08931 0.53139,-0.006 -0.32163,-1.10134 m 0.15981,-0.012 0.40753,1.07527 0.48744,-0.0842 -0.76312,-1.02512 m 0.13584,-0.0301 0.86701,0.97497 0.45348,-0.20462 -1.19463,-0.79843 m 0.11986,-0.0341 c 0.028,0.01 1.2146,0.68408 1.2146,0.68408 l 0.34561,-0.28687 -0.98487,-0.28888 m -1.839877,-0.0482 -1.058779,0.74025 0.391552,0.25879 0.785087,-0.97296 m -0.33761,-0.0923 -1.252553,0.39119 0.245717,0.25678 1.138686,-0.60785 m -4.808461,-1.61695 -0.916945,0.30092 c 0.002,0.10231 0,-1.31801 0,-1.31801 0.01598,-0.27685 -0.357588,-0.36912 -0.365579,-0.0622 -0.01798,0.65199 0,1.3802 0,1.3802 l 0.113869,0.006 m 0,-1.57077 0.751136,-0.23271 m 0.497427,1.78142 -1.248563,0.42128 v -0.94888 l 0.125855,-0.0221 v 0.57174 l 0.125855,-0.0682 m 3.11042,0.73423 0.681215,-0.0521 m 3.889518,-12.69461 c 0.56135,0.68409 1.0408,1.49254 1.49428,2.22477 0.11586,0.18457 -0.15982,1.14348 -0.15982,1.14348"
       style="fill:none;stroke:#000000;stroke-width:0.122;stroke-linecap:butt;stroke-linejoin:miter;stroke-miterlimit:4;stroke-dasharray:none;stroke-opacity:1"
       inkscape:connector-curvature="0" />
  </g>
</svg>
