<?xml version="1.0" encoding="UTF-8" standalone="no"?>
<!-- Created with Inkscape (http://www.inkscape.org/) -->

<svg
   xmlns:dc="http://purl.org/dc/elements/1.1/"
   xmlns:cc="http://creativecommons.org/ns#"
   xmlns:rdf="http://www.w3.org/1999/02/22-rdf-syntax-ns#"
   xmlns:svg="http://www.w3.org/2000/svg"
   xmlns="http://www.w3.org/2000/svg"
   xmlns:sodipodi="http://sodipodi.sourceforge.net/DTD/sodipodi-0.dtd"
   xmlns:inkscape="http://www.inkscape.org/namespaces/inkscape"
   width="96.774658mm"
   height="43.67997mm"
   viewBox="0 0 96.774659 43.679974"
   version="1.1"
   id="svg40794"
   inkscape:version="0.92.2 (5c3e80d, 2017-08-06)"
   sodipodi:docname="emiia110.svg">
  <defs
     id="defs40788">
    <clipPath
       id="clipEmfPath1"
       clipPathUnits="userSpaceOnUse">
      <path
         id="path3250"
         d="M -0.27328498,6.5621088 H 33.993094 V 40.972618 H -0.27328498 Z"
         inkscape:connector-curvature="0" />
    </clipPath>
    <pattern
       y="0"
       x="0"
       height="6"
       width="6"
       patternUnits="userSpaceOnUse"
       id="EMFhbasepattern" />
    <clipPath
       id="clipEmfPath1-6"
       clipPathUnits="userSpaceOnUse">
      <path
         id="path3355"
         d="M -0.27328498,-0.26725306 H 81.694308 V 82.007214 H -0.27328498 Z"
         inkscape:connector-curvature="0" />
    </clipPath>
    <pattern
       y="0"
       x="0"
       height="6"
       width="6"
       patternUnits="userSpaceOnUse"
       id="EMFhbasepattern-5" />
    <clipPath
       id="clipEmfPath1-4"
       clipPathUnits="userSpaceOnUse">
      <path
         id="path3373"
         d="M -1.1335304,-16.486988 H 81.664305 L 100.83536,100.0085 H -16.493019 Z"
         inkscape:connector-curvature="0" />
    </clipPath>
    <pattern
       y="0"
       x="0"
       height="6"
       width="6"
       patternUnits="userSpaceOnUse"
       id="EMFhbasepattern-4" />
    <pattern
       y="0"
       x="0"
       height="6"
       width="6"
       patternUnits="userSpaceOnUse"
       id="EMFhbasepattern-6" />
  </defs>
  <sodipodi:namedview
     id="base"
     pagecolor="#ffffff"
     bordercolor="#666666"
     borderopacity="1.0"
     inkscape:pageopacity="0.0"
     inkscape:pageshadow="2"
     inkscape:zoom="0.76015625"
     inkscape:cx="-51.209042"
     inkscape:cy="-87.37484"
     inkscape:document-units="mm"
     inkscape:current-layer="layer1"
     showgrid="false"
     fit-margin-top="0"
     fit-margin-left="0"
     fit-margin-right="0"
     fit-margin-bottom="0"
     inkscape:window-width="1366"
     inkscape:window-height="745"
     inkscape:window-x="-8"
     inkscape:window-y="-8"
     inkscape:window-maximized="1" />
  <metadata
     id="metadata40791">
    <rdf:RDF>
      <cc:Work
         rdf:about="">
        <dc:format>image/svg+xml</dc:format>
        <dc:type
           rdf:resource="http://purl.org/dc/dcmitype/StillImage" />
        <dc:title></dc:title>
      </cc:Work>
    </rdf:RDF>
  </metadata>
  <g
     inkscape:label="Layer 1"
     inkscape:groupmode="layer"
     id="layer1"
     transform="translate(-52.465864,-84.664128)">
    <path
       id="path1882"
       d="m 127.23157,115.28451 c 0.3159,-0.1133 0.27077,-0.36256 0.29332,0.0906 0.65438,-0.18127 1.21846,-0.37386 1.27487,0.43052 0.0225,0.32856 0.0451,0.56648 -0.13538,0.86104 1.33126,-0.28323 5.18967,-2.10725 6.53219,-2.78703 2.32409,-1.17823 4.41123,-2.67371 5.83274,-3.38746 l -0.0451,-0.0906 -8.28089,3.21752 c -0.0225,0.0113 -0.18051,0.068 -0.21437,0.0795 z"
       style="fill:#fcfcfc;fill-opacity:1;fill-rule:evenodd;stroke:none;stroke-width:0.29895052"
       inkscape:connector-curvature="0" />
    <path
       id="path1884"
       d="m 112.62154,93.600098 v -3.194884 l -1.60203,4.633721 h -1.15075 l -0.0113,-7.477414 1.17332,-0.03399 v 4.667721 c 0.0903,-0.373876 0.63179,-1.744734 0.80102,-2.254557 0.24818,-0.770399 0.59793,-1.665422 0.76717,-2.413164 l 1.20715,0.03399 c 0.0226,-0.396523 0.1241,-0.181272 -0.13538,-0.294555 0.0451,-0.271917 0.10157,-0.793064 0.28205,-0.577812 -0.20308,-0.260575 -0.0678,-0.249251 -0.1354,-0.509825 -0.0339,-0.124616 0.1918,0.02253 -0.23691,-0.158605 l 0.37231,-0.475834 c -0.0113,0.03399 0.39486,0.373866 -0.27077,-0.09061 l -0.19183,-0.147292 c -0.34973,-0.215261 -0.14665,-0.113283 -0.19176,0.05662 0,0.01136 0,0.05662 -0.0113,0.07935 -0.0226,0.01136 -0.0677,-0.01136 -0.079,0.01136 -0.16922,0.38519 0.079,-0.03399 -0.36103,0.04526 -0.28204,0.05662 -0.16922,0.03399 -0.079,0.135958 -0.68819,0 -0.079,-0.03399 -0.27076,0.226584 l 0.91383,-0.04526 c -0.29333,2.095943 -2.91073,2.005297 -3.09124,0.01136 l 0.91384,0.01136 c -0.46255,-0.487177 -0.3159,-0.464511 -0.23691,-0.589137 -0.079,0.03399 -0.22564,0.09061 -0.34976,0.147291 -0.25948,0.113284 -0.21435,0.113284 -0.50767,0.237908 0.0451,-0.385199 0.10157,-0.294573 0.14667,-0.362542 0.25947,-0.339886 -0.0677,0.226584 0.13537,-0.06807 l -0.28204,0.05662 c 0,2.152588 0.23692,1.914672 -0.57539,1.914672 l 0.0903,0.475834 c -0.55281,0.521157 -0.19178,-0.294563 -0.18051,1.155598 l -0.0113,5.086908 c 0.15795,-0.906365 0.11286,-3.761364 0.10158,-4.996283 0,-0.09061 -0.0113,-0.294554 0,-0.38519 0.0112,-0.203936 -0.0226,0.02253 0.0225,-0.192594 l 0.0677,-0.28324 c 0,0.929004 0.0903,6.389779 -0.0677,6.627705 l -0.0451,0.05662 c -0.0113,0.02263 -0.0564,0.237908 0.0225,0.509815 l 1.45538,-0.03399 c 0.3046,-0.07934 0.22564,-0.521147 0.25947,-0.736399 0.59795,0.147272 0.0564,-0.02253 0.32717,0.07934 0.42873,0.158605 -0.0903,-0.430512 0.15796,0.113292 l 0.0564,-1.155606 c 0.0226,-0.691086 -0.0226,-0.849701 0.40616,-0.895014 0.0339,0 0.27076,0.03399 0.29333,0.03399 0.13538,0.373867 0.0903,0.498483 0.10158,0.962993 z"
       style="fill:#fcfcfc;fill-opacity:1;fill-rule:evenodd;stroke:none;stroke-width:0.29895052"
       inkscape:connector-curvature="0" />
    <path
       id="path1886"
       d="m 61.446913,93.430151 c 1.094336,-0.09061 0.834855,-1.144264 0.834855,-2.231883 0,-1.121626 0.282045,-2.197911 -0.857419,-2.29988 z"
       style="fill:#fcfcfc;fill-opacity:1;fill-rule:evenodd;stroke:none;stroke-width:0.29895052"
       inkscape:connector-curvature="0" />
    <path
       id="path1888"
       d="m 102.71605,103.80788 h 1.21844 l -0.57537,-3.77269 z"
       style="fill:#fcfcfc;fill-opacity:1;fill-rule:evenodd;stroke:none;stroke-width:0.29895052"
       inkscape:connector-curvature="0" />
    <path
       id="path1890"
       d="m 65.779157,88.037355 c 0.620502,-0.339877 1.15075,-0.815712 2.233807,-0.475834 1.511773,0.475834 1.105633,2.526454 1.105633,4.59974 0,1.26889 0.06768,1.382182 -0.372312,2.435829 l 0.214364,-0.05662 c 0.191788,-0.03399 0.157948,-0.03399 0.383576,-0.07935 0.0113,0.305878 -0.06769,0.01136 0.112763,-0.328562 0.0113,-0.02253 0.03379,-0.04526 0.03379,-0.05662 l 0.06769,-0.09061 c 0.0113,0 0.0226,-0.02253 0.0226,-0.03399 l 0.0226,-0.169947 c 0.04508,-0.339886 -0.04508,-0.03399 0.03379,-0.271907 h 1.523061 c 0,0.24925 0,0.509823 0,0.759065 -0.0113,0.373865 -0.03388,0.589117 0.169225,0.81572 l -0.0113,-7.545385 h 1.173312 l 0.0113,3.126915 1.274857,0.01136 0.04509,-3.138247 1.173313,-0.01136 -0.01129,7.556717 c 0.203075,-0.124634 0.214363,0.07935 0.191797,-0.906365 -0.03388,-1.710726 0.07899,-4.747005 0.0113,-6.140519 -0.0226,-0.430512 -0.135384,-0.453178 -0.1918,-0.691086 l -0.01129,-0.271916 c -0.03388,0.385198 -0.236915,0.124625 -0.665631,0.101921 0.248204,-0.317229 0.03388,-0.169938 0.417438,-0.328552 0.1805,-0.06807 3.294302,-0.147291 3.880965,0.03399 0.722035,0 -0.857419,0 -0.857419,0 -0.575386,0 -1.15076,0 -1.726136,0 -0.552811,0 -1.150749,-0.02253 -1.703559,0.01136 l -1.545626,-0.01136 c -0.225639,0 -0.473831,0.03399 -0.676906,0.03399 l -4.061492,-0.01136 c -0.338448,0.01136 -0.654343,0.294572 -0.992802,0.328552 -0.304608,0.04526 -0.112876,-0.03399 -0.236915,-0.04526 -0.01129,0 -0.04508,-0.01136 -0.06768,-0.01136 -0.45128,-0.03399 -0.530248,0.04526 -0.744611,0.328553 l -0.05638,-0.101921 c 0,-0.01136 -0.0226,-0.03399 -0.0226,-0.04526 -0.135382,-0.124616 0.112877,-0.101912 -0.06769,-0.02253 -0.270767,0.113292 -0.01129,-0.05662 -0.112763,0.226594 -0.214351,0.611774 -0.22564,0.385199 -0.315895,0.283221 0.451279,0.06807 0.157948,-0.04526 0.349747,0.192605 z"
       style="fill:#fdfdfd;fill-opacity:1;fill-rule:evenodd;stroke:none;stroke-width:0.29895052"
       inkscape:connector-curvature="0" />
    <path
       id="path1892"
       d="m 67.279642,107.15002 -0.0113,-9.335389 1.44408,-0.02263 0.0113,3.829329 1.647158,0.0453 0.01129,-3.863323 1.489208,-0.01136 c -0.101577,-0.09061 0.0226,-0.05662 -0.248204,-0.147283 -0.04509,-0.02263 -0.225627,-0.01136 -0.270754,-0.01136 l 0.248191,-0.06807 c 0,0 -0.01129,-0.01136 -0.01129,-0.01136 l -1.579466,-0.02263 c -0.236914,0 -0.518959,0 -0.755886,0 -1.060494,0.05662 -1.951764,-0.169938 -2.482011,0.294564 l 0.101578,9.256092 c 0.09028,0.0906 -0.191787,0.0906 0.18051,0.0453 0,0.20393 -0.0226,0.0113 0.22564,0.0228 z"
       style="fill:#fdfdfd;fill-opacity:1;fill-rule:evenodd;stroke:none;stroke-width:0.29895052"
       inkscape:connector-curvature="0" />
    <path
       id="path1894"
       d="m 86.334746,99.128852 c -0.902546,0.339876 -0.55281,2.583108 -0.55281,3.580068 0,0.96301 -0.406151,3.62541 1.105621,3.05894 0.778452,-0.29457 0.507683,-2.6964 0.507683,-3.6254 0,-0.89502 0.349749,-3.546098 -1.060494,-3.013608 z"
       style="fill:#fdfdfd;fill-opacity:1;fill-rule:evenodd;stroke:none;stroke-width:0.29895052"
       inkscape:connector-curvature="0" />
    <path
       id="path1896"
       d="m 58.423368,97.814631 1.477922,-0.02263 0.0113,5.811979 1.974328,-5.721343 c 0.157947,-0.147283 -0.191788,-0.124626 0.293331,-0.124626 l 1.105622,0.01136 c 0.18051,0.611793 0.101576,8.157139 0.05638,9.290079 l 0.259491,0.1473 0.146661,-8.882242 c 0,-0.60045 -0.191788,-0.215251 -0.315896,-0.793054 l -4.693265,0.101921 c -0.338446,0.09061 -0.169224,-0.07934 -0.315883,0.181262 z"
       style="fill:#fdfdfd;fill-opacity:1;fill-rule:evenodd;stroke:none;stroke-width:0.29895052"
       inkscape:connector-curvature="0" />
    <path
       id="path1898"
       d="m 99.579688,93.939974 1.534332,0.02254 0.0226,-5.302152 -1.173329,-0.01136 c -0.270762,1.824026 0.124109,3.455468 -0.383575,5.290828 z"
       style="fill:#fdfdfd;fill-opacity:1;fill-rule:evenodd;stroke:none;stroke-width:0.29895052"
       inkscape:connector-curvature="0" />
    <path
       id="path1900"
       d="m 78.933832,88.649148 c -0.124096,0.623116 -0.09028,2.039287 -0.101578,2.741715 -0.0226,1.132932 -0.101577,1.563444 -0.293331,2.571769 l 1.556901,-0.03399 -0.0226,-5.26817 z"
       style="fill:#fdfdfd;fill-opacity:1;fill-rule:evenodd;stroke:none;stroke-width:0.29895052"
       inkscape:connector-curvature="0" />
    <path
       id="path1902"
       d="m 94.694626,93.905995 c 0.361019,-0.736409 0.214355,-2.027964 0.214355,-2.990966 0,-1.13295 0.36102,-2.424486 -0.947676,-2.299871 -0.383582,0.509814 -0.361021,0.589127 -0.361021,1.336868 0,0.577794 0,1.155607 0,1.733401 0,1.178254 -0.338452,2.583101 1.094342,2.220568 z"
       style="fill:#fdfdfd;fill-opacity:1;fill-rule:evenodd;stroke:none;stroke-width:0.29895052"
       inkscape:connector-curvature="0" />
    <path
       id="path1904"
       d="m 129.90537,101.73461 v -2.560445 c -1.10561,-0.101912 -1.66971,0.147282 -1.7261,1.234885 -0.0678,1.22359 0.59793,1.41619 1.7261,1.32556 z"
       style="fill:#fdfdfd;fill-opacity:1;fill-rule:evenodd;stroke:none;stroke-width:0.29895052"
       inkscape:connector-curvature="0" />
    <path
       id="path1906"
       d="m 60.262312,93.441483 v -4.543095 c -1.105621,0.135959 -0.846141,1.098951 -0.846141,2.209245 0,1.019639 -0.282044,2.243225 0.846141,2.33385 z"
       style="fill:#fdfdfd;fill-opacity:1;fill-rule:evenodd;stroke:none;stroke-width:0.29895052"
       inkscape:connector-curvature="0" />
    <path
       id="path1908"
       d="m 94.265913,101.56467 c 1.015369,-0.0113 1.500492,-0.12463 1.534342,-1.15562 0.03383,-1.155592 -0.485123,-1.257551 -1.534342,-1.268884 z"
       style="fill:#fdfdfd;fill-opacity:1;fill-rule:evenodd;stroke:none;stroke-width:0.29895052"
       inkscape:connector-curvature="0" />
    <path
       id="path1910"
       d="m 127.47978,93.939974 c 0.97024,0.01136 1.28611,-0.06807 1.31998,-1.09895 0.0338,-1.098961 -0.30462,-1.212244 -1.31998,-1.212244 z"
       style="fill:#fdfdfd;fill-opacity:1;fill-rule:evenodd;stroke:none;stroke-width:0.29895052"
       inkscape:connector-curvature="0" />
    <path
       id="path1912"
       d="m 140.63445,90.756414 0.0112,-2.095934 -0.41742,-0.01136 c -0.77845,-0.01136 -1.00408,0.453178 -0.97024,1.212244 0.0338,0.838376 0.57538,0.906356 1.3764,0.895023 z"
       style="fill:#fdfdfd;fill-opacity:1;fill-rule:evenodd;stroke:none;stroke-width:0.29895052"
       inkscape:connector-curvature="0" />
    <path
       id="path1914"
       d="m 127.47978,90.541153 c 0.78973,0 1.21843,-0.04526 1.25229,-0.872357 0.0451,-0.929013 -0.40616,-1.019648 -1.25229,-1.019648 z"
       style="fill:#fdfdfd;fill-opacity:1;fill-rule:evenodd;stroke:none;stroke-width:0.29895052"
       inkscape:connector-curvature="0" />
    <path
       id="path1916"
       d="m 136.82118,101.8139 1.2523,3.25154 h 0.81228 c 0.50769,-0.65711 0.84614,-2.50379 1.33125,-3.21755 l 0.0226,5.25682 h 1.44409 l -0.0113,-9.312735 h -1.41021 l -1.75997,4.599745 c -0.45128,-0.47585 -1.3087,-3.965296 -1.86152,-4.611079 l -1.35381,0.01136 0.0113,9.312749 1.45536,-0.0228 z"
       style="fill:#52555a;fill-opacity:1;fill-rule:evenodd;stroke:none;stroke-width:0.29895052"
       inkscape:connector-curvature="0" />
    <path
       id="path1918"
       d="m 121.4327,101.4627 0.0226,5.64201 1.4215,-0.0453 v -9.199467 c -0.3723,-0.13594 -0.85742,-0.06807 -1.27484,-0.06807 -0.28205,0.158625 -0.079,-0.124606 -0.27076,0.339896 -0.41743,0.985649 -1.41025,4.815001 -1.86152,5.460751 l -0.0451,-5.800647 -1.3087,-0.01136 c -0.14667,0.441855 -0.1241,8.406407 -0.0451,9.324067 l 1.38769,-0.0227 z"
       style="fill:#52555a;fill-opacity:1;fill-rule:evenodd;stroke:none;stroke-width:0.29895052"
       inkscape:connector-curvature="0" />
    <path
       id="path1920"
       d="m 109.48517,107.11604 3.90354,-0.0113 0.0113,1.76738 1.19589,-0.0453 -0.0113,-3.04758 c -0.13539,-0.0453 -0.19179,-0.0228 -0.25949,-0.0453 -0.0226,-0.0113 -0.0451,-0.0113 -0.0677,-0.0227 l -0.23691,-0.12462 v -7.783273 l -1.48921,-0.01136 -0.0451,7.953223 -1.5569,-0.0228 v -7.930581 l -1.45536,0.01136 z"
       style="fill:#52555a;fill-opacity:1;fill-rule:evenodd;stroke:none;stroke-width:0.29895052"
       inkscape:connector-curvature="0" />
    <path
       id="path1922"
       d="m 61.672542,101.63264 0.09028,-0.3059 c 0.101578,0.1133 0.1918,-0.12462 0.180511,0.71375 l -0.01129,5.03025 1.33126,0.0113 -0.0226,-9.210766 -1.353824,0.01136 -1.974329,5.721346 -0.0113,-5.811981 -1.477921,0.02253 c 0.225629,1.053638 -0.05639,7.375441 0.06768,9.290091 h 1.387667 c 0.349734,-0.90635 1.737411,-4.80364 1.793814,-5.47208 z"
       style="fill:#52555a;fill-opacity:1;fill-rule:evenodd;stroke:none;stroke-width:0.29895052"
       inkscape:connector-curvature="0" />
    <path
       id="path1924"
       d="m 94.311043,105.73386 -0.0564,-2.86631 c 1.252285,0 1.66972,0.13594 1.635869,1.47282 -0.03379,1.22356 -0.417433,1.40483 -1.579469,1.39349 z m -0.04516,-6.593694 c 1.049211,0.01136 1.568184,0.113292 1.534335,1.268884 -0.03383,1.03099 -0.518965,1.14428 -1.534335,1.15562 z m 1.951768,3.070264 c 0.552812,-0.52114 0.846134,-0.48716 0.97024,-1.55214 0.338451,-2.866315 -1.850237,-3.05892 -4.388659,-2.854983 v 9.267433 c 2.933293,0.48714 4.817373,-0.41921 4.456346,-3.30817 -0.124107,-0.97433 -0.372302,-1.17826 -1.037927,-1.55214 z"
       style="fill:#52555a;fill-opacity:1;fill-rule:evenodd;stroke:none;stroke-width:0.29895052"
       inkscape:connector-curvature="0" />
    <path
       id="path1926"
       d="m 129.90537,101.73461 c -1.12817,0.0906 -1.79381,-0.10191 -1.7261,-1.32556 0.0563,-1.087603 0.62049,-1.336863 1.7261,-1.234885 z m 1.44408,-3.942635 c -1.71484,0 -3.46353,-0.237908 -4.2307,1.076294 -0.31588,0.543804 -0.45127,1.495471 -0.33845,2.299861 0.15795,1.0763 0.41743,1.00832 0.9928,1.54079 -0.63178,0.78174 -0.66562,0.75907 -0.86871,1.98265 -0.12409,0.75907 -0.34974,1.65408 -0.39486,2.41314 l 1.43281,-0.034 c 0.54152,-2.2319 0.12409,-3.99928 1.95176,-3.93131 l 0.0338,3.96529 h 1.42153 z"
       style="fill:#52555a;fill-opacity:1;fill-rule:evenodd;stroke:none;stroke-width:0.29895052"
       inkscape:connector-curvature="0" />
    <path
       id="path1928"
       d="m 67.279642,107.15002 1.376389,-0.034 0.04508,-4.07855 1.681006,-0.0453 0.07899,4.10123 1.3651,0.0113 0.04509,-9.31275 -1.489209,0.01136 -0.0113,3.86331 -1.647156,-0.0453 -0.0113,-3.829336 -1.44408,0.02253 z"
       style="fill:#52555a;fill-opacity:1;fill-rule:evenodd;stroke:none;stroke-width:0.29895052"
       inkscape:connector-curvature="0" />
    <path
       id="path1930"
       d="m 86.334746,99.128852 c 1.410243,-0.53249 1.060494,2.118588 1.060494,3.013608 0,0.929 0.270769,3.33083 -0.507683,3.6254 -1.511772,0.56647 -1.105621,-2.09593 -1.105621,-3.05894 0,-0.99696 -0.349736,-3.240192 0.55281,-3.580068 z m 2.41433,6.559698 c 0.19179,-0.84971 0.203077,-5.981914 -0.05638,-6.763635 -0.304607,-0.872367 -1.116909,-1.246242 -2.245096,-1.200911 -1.128184,0.04526 -1.714848,0.543795 -1.985614,1.461485 -0.236915,0.781722 -0.22564,5.981911 0.0226,6.752301 0.552811,1.71074 3.790719,1.79004 4.264551,-0.24924 z"
       style="fill:#52555a;fill-opacity:1;fill-rule:evenodd;stroke:none;stroke-width:0.29895052"
       inkscape:connector-curvature="0" />
    <path
       id="path1932"
       d="m 77.252836,103.10545 c 0.112874,-0.18126 -0.157949,-0.0794 0.304606,-0.16993 0.05638,-0.0113 0.406152,0 0.485119,0 0.394864,0 0.564099,-0.0453 0.936398,0.0906 l 0.0338,4.0559 h 1.353825 l -0.0113,-9.199438 h -1.319985 l -0.0226,3.489458 c -0.01129,0.58913 0,0.13594 -0.124096,0.30589 l -1.613304,-0.0226 v -3.863315 h -1.387686 c -0.18051,0.8497 -0.146661,8.213775 -0.03388,9.312745 l 1.421516,-0.0113 z"
       style="fill:#52555a;fill-opacity:1;fill-rule:evenodd;stroke:none;stroke-width:0.29895052"
       inkscape:connector-curvature="0" />
    <path
       id="path1934"
       d="m 103.35912,100.03519 0.57537,3.77269 h -1.21844 z m -0.88,5.13221 1.71485,0.034 0.38358,1.90333 1.47792,0.0453 -1.89534,-9.358053 c -1.79384,0 -1.60204,-0.135949 -1.74869,0.543804 -0.37231,1.790059 -1.68101,7.975879 -1.72612,8.768949 h 1.43277 z"
       style="fill:#52555a;fill-opacity:1;fill-rule:evenodd;stroke:none;stroke-width:0.29895052"
       inkscape:connector-curvature="0" />
    <path
       id="path1936"
       d="m 99.579688,93.939974 c 0.507672,-1.835368 0.112823,-3.46679 0.383584,-5.290826 l 1.173318,0.01136 -0.0225,5.30215 z m -1.759981,0.135959 v 2.36784 l 0.947669,0.02253 0.03389,-1.393524 2.989714,-0.02253 0.0225,1.416171 0.94768,0.01136 0.0339,-2.299871 c -0.0677,-0.339867 -0.40614,-0.07925 -0.47385,-0.385199 v -6.265153 l -3.361998,0.01136 c -0.236912,1.336859 -0.02253,4.316501 -0.259484,5.506087 -0.135376,0.725077 -0.270761,0.838378 -0.879974,1.030982 z"
       style="fill:#52555a;fill-opacity:1;fill-rule:evenodd;stroke:none;stroke-width:0.29895052"
       inkscape:connector-curvature="0" />
    <path
       id="path1938"
       d="m 61.424349,88.898388 c 1.139464,0.101913 0.857419,1.178254 0.857419,2.29988 0,1.087619 0.259481,2.141247 -0.834855,2.231883 z m -1.162037,4.543095 c -1.128185,-0.09061 -0.846141,-1.314211 -0.846141,-2.33385 0,-1.110294 -0.25948,-2.073286 0.846141,-2.209245 z m -0.07898,0.996983 c 0.157947,0.351219 -0.0226,0.543814 0.282043,0.600469 h 0.767175 c 0.406139,-0.181271 0.06769,-0.03399 0.203074,-0.373875 0.135374,-0.305897 -0.248202,-0.09061 0.282044,-0.271907 0.597939,-0.215261 1.647156,-0.407856 1.647156,-1.948661 0,-2.526456 0.383587,-3.897313 -1.511773,-4.463792 -1.015376,-0.294555 0.327172,-0.45316 -1.10562,-0.45316 -1.105634,0 0.124096,0.169938 -0.913834,0.441846 -1.602028,0.419179 -1.52306,1.506806 -1.511772,2.753038 0,2.186578 -0.270768,3.296853 1.861507,3.716042 z"
       style="fill:#52555a;fill-opacity:1;fill-rule:evenodd;stroke:none;stroke-width:0.29895052"
       inkscape:connector-curvature="0" />
    <path
       id="path1940"
       d="m 78.933832,88.649148 1.139473,0.01136 0.0226,5.268171 -1.556902,0.03399 c 0.191788,-1.008316 0.270769,-1.438837 0.293332,-2.571777 0.0113,-0.70242 -0.0226,-2.118581 0.101576,-2.741698 z M 76.85796,94.09858 v 2.311213 h 0.846142 v -0.895032 c 0,-0.05662 0,-0.215252 0.01131,-0.271907 0.09028,-0.294573 -0.07898,0.03399 0.101575,-0.169939 l 2.910726,-0.03399 0.0226,1.404839 0.97025,0.01136 0.0113,-2.379172 C 81.528784,93.906014 81.652883,93.97403 81.291869,93.96265 l -0.0338,-6.401111 -3.373293,-0.02253 c -0.03388,1.110275 0.0226,5.483422 -0.485119,6.18585 -0.29333,0.419189 -0.21435,0.113293 -0.541534,0.373867 z"
       style="fill:#52555a;fill-opacity:1;fill-rule:evenodd;stroke:none;stroke-width:0.29895052"
       inkscape:connector-curvature="0" />
    <path
       id="path1942"
       d="m 132.06021,94.370496 0.0113,0.725076 1.15076,-0.06807 1.52305,-4.577066 0.0452,4.577066 1.15074,0.01136 v -7.443421 c -0.40613,-0.101912 -0.73331,-0.06807 -1.16203,-0.05662 -0.15794,0.702428 -0.47384,1.574795 -0.72203,2.265891 -0.13538,0.407855 -0.57538,1.971308 -0.8123,2.288546 l -0.0338,-4.509124 -1.13949,-0.05662 z"
       style="fill:#52555a;fill-opacity:1;fill-rule:evenodd;stroke:none;stroke-width:0.29895052"
       inkscape:connector-curvature="0" />
    <path
       id="path1944"
       d="m 112.62154,93.600098 v 1.438837 h 1.12819 c 0.0338,-1.246232 0,-2.503808 0,-3.738717 0,-0.88369 -0.10158,-3.024946 0.0563,-3.738697 l -1.20714,-0.03399 c -0.16924,0.747742 -0.51899,1.642765 -0.76717,2.413164 -0.16923,0.509823 -0.71077,1.880681 -0.80103,2.254557 v -4.66772 l -1.1733,0.03399 0.0113,7.477415 h 1.15075 l 1.60203,-4.633721 z"
       style="fill:#52555a;fill-opacity:1;fill-rule:evenodd;stroke:none;stroke-width:0.29895052"
       inkscape:connector-curvature="0" />
    <path
       id="path1946"
       d="m 127.47978,91.62878 c 1.01536,0 1.35382,0.113283 1.31998,1.212244 -0.0339,1.030972 -0.34974,1.110274 -1.31998,1.09895 z m 0,-2.979632 c 0.84613,0 1.29742,0.09061 1.25229,1.019648 -0.0339,0.827044 -0.46256,0.872357 -1.25229,0.872357 z m -1.17332,2.54912 0.0113,3.818001 c 1.52306,0.09061 3.17021,0.237918 3.53125,-1.370848 0.24819,-1.13296 0.10157,-2.005317 -0.72205,-2.537788 0.2482,-0.305896 0.57538,-0.396541 0.69947,-1.064971 0.10158,-0.543814 0.0226,-1.212243 -0.18049,-1.642765 -0.5077,-1.076294 -1.95178,-0.906347 -3.33946,-0.84971 z"
       style="fill:#52555a;fill-opacity:1;fill-rule:evenodd;stroke:none;stroke-width:0.29895052"
       inkscape:connector-curvature="0" />
    <path
       id="path1948"
       d="m 140.63445,90.756414 c -0.80101,0.01136 -1.34253,-0.05662 -1.37638,-0.895023 -0.0339,-0.759065 0.19178,-1.223567 0.97024,-1.212243 l 0.41742,0.01136 z m -1.7374,0.736409 c -0.36103,0.555146 -0.49641,0.600459 -0.66563,1.540795 -0.11288,0.611803 -0.27077,1.382201 -0.32718,2.005317 h 1.16203 c 0.34974,-2.005317 0.21435,-3.206226 1.57946,-3.194894 v 3.160905 l 1.1846,0.03399 c 0.0451,-1.370858 -0.10157,-6.740997 0.0564,-7.488738 -2.00816,-0.113302 -4.08404,-0.158625 -3.79069,2.605757 0.10157,0.872367 0.33845,0.929013 0.80101,1.336869 z"
       style="fill:#52555a;fill-opacity:1;fill-rule:evenodd;stroke:none;stroke-width:0.29895052"
       inkscape:connector-curvature="0" />
    <path
       id="path1950"
       d="m 71.32984,95.084248 1.162039,-0.05662 0.01129,-3.25155 1.308697,-0.01136 0.01129,3.262873 1.162037,0.05662 0.0113,-7.556718 -1.173325,0.01136 -0.04508,3.138247 -1.274846,-0.01136 -0.0113,-3.126915 h -1.173314 z"
       style="fill:#52555a;fill-opacity:1;fill-rule:evenodd;stroke:none;stroke-width:0.29895052"
       inkscape:connector-curvature="0" />
    <path
       id="path1952"
       d="m 67.855016,93.600098 c -0.203075,0.464502 -0.789727,0.555147 -1.060493,0.181271 -0.22564,-0.305905 -0.157948,-1.076303 -0.157948,-1.518148 0,-0.623117 -0.09028,-2.888998 0.09028,-3.308186 0.180512,-0.419189 0.823579,-0.543805 1.083057,-0.13594 0.22564,0.362534 0.135384,4.588399 0.04508,4.781003 z m -2.075859,-5.562743 c -0.07898,0.702428 -0.315896,-0.06807 -0.315896,2.401839 0,0.940336 -0.03388,1.948661 0,2.877665 0.06769,1.620108 1.1846,2.005297 2.380478,1.744724 0.530249,-0.124616 0.643068,-0.35121 0.902546,-0.464493 0.439992,-1.053647 0.372312,-1.166939 0.372312,-2.435829 0,-2.073286 0.40614,-4.123906 -1.105633,-4.59974 -1.083057,-0.339878 -1.613305,0.135957 -2.233807,0.475834 z"
       style="fill:#52555a;fill-opacity:1;fill-rule:evenodd;stroke:none;stroke-width:0.29895052"
       inkscape:connector-curvature="0" />
    <path
       id="path1954"
       d="m 94.694626,93.905995 c -1.432794,0.362533 -1.094342,-1.042314 -1.094342,-2.220568 0,-0.577794 0,-1.155607 0,-1.733401 0,-0.747741 -0.02258,-0.827054 0.361021,-1.336868 1.308696,-0.124615 0.947676,1.166921 0.947676,2.299871 0,0.963002 0.146664,2.254557 -0.214355,2.990966 z m -0.902547,-6.389788 c -0.78974,0.158614 -1.218445,0.657096 -1.319987,1.48415 -0.101574,0.781722 -0.02257,2.039288 -0.02257,2.877674 0,1.892006 -0.09029,3.659386 2.346635,3.183552 1.714838,-0.328544 1.286125,-2.549122 1.286125,-4.339159 0,-0.78173 0.124107,-1.892005 -0.248194,-2.526446 -0.33846,-0.600468 -1.195883,-0.872375 -2.042027,-0.679771 z"
       style="fill:#52555a;fill-opacity:1;fill-rule:evenodd;stroke:none;stroke-width:0.29895052"
       inkscape:connector-curvature="0" />
    <path
       id="path1956"
       d="m 107.74776,90.756414 -1.88407,-0.06807 c -0.11277,-0.453178 -0.10157,-1.574776 -0.0113,-2.073286 l 2.17741,-0.05662 -0.0113,-0.996992 -3.33944,-0.03399 v 7.556718 l 3.33944,-0.04526 0.0113,-1.064971 -2.14355,-0.03399 -0.0339,-2.141266 1.8728,-0.03399 z"
       style="fill:#52555a;fill-opacity:1;fill-rule:evenodd;stroke:none;stroke-width:0.29895052"
       inkscape:connector-curvature="0" />
    <path
       id="path1958"
       d="m 119.51478,93.316859 c -0.28205,-0.147273 -0.71078,-0.181281 -1.07178,-0.203928 -0.16923,0.271916 -0.10157,0.577794 -0.3836,0.770398 -0.32716,0.226584 -0.73331,0.09061 -0.8687,-0.169939 -0.1805,-0.317229 -0.11277,-1.948652 -0.11277,-2.413172 0,-0.895004 -0.29332,-3.194884 0.94768,-2.662394 0.37231,0.158596 0.2482,0.487148 0.41744,0.827034 l 1.09433,-0.260573 c -0.11275,-1.948652 -1.83895,-1.937319 -2.63993,-1.574785 -1.26359,0.566478 -0.98156,2.186578 -0.98156,3.670718 0,1.506816 -0.30459,3.183571 0.97026,3.682062 1.26357,0.498491 2.62867,-0.147282 2.62867,-1.665421 z"
       style="fill:#52555a;fill-opacity:1;fill-rule:evenodd;stroke:none;stroke-width:0.29895052"
       inkscape:connector-curvature="0" />
    <path
       id="path1960"
       d="m 90.509043,93.271545 -1.094335,-0.181271 c -0.169235,0.362543 -0.06769,0.63443 -0.37231,0.815721 -1.274847,0.747732 -0.958951,-1.993984 -0.958951,-2.605777 0,-0.623117 -0.293331,-3.376155 0.981515,-2.639738 0.180511,0.113284 0.180511,0.203919 0.225639,0.3512 l 0.169235,0.396533 c 0.0113,0.02263 0.0226,0.04526 0.04508,0.06807 l 1.026655,-0.294564 c -0.101578,-1.948651 -1.951774,-1.892015 -2.662534,-1.552129 -1.229717,0.589127 -0.947673,2.254548 -0.947673,3.761364 0,1.540797 -0.293332,3.160905 1.004088,3.602749 1.466645,0.498492 2.651236,-0.339876 2.583555,-1.722066 z"
       style="fill:#52555a;fill-opacity:1;fill-rule:evenodd;stroke:none;stroke-width:0.29895052"
       inkscape:connector-curvature="0" />
    <path
       id="path1962"
       d="m 112.49744,85.862119 c 0.0339,0.940327 -1.26357,0.861033 -1.26357,-0.02263 l -0.91384,-0.01136 c 0.18052,1.993984 2.79792,2.0846 3.09124,-0.01136 z"
       style="fill:#52555a;fill-opacity:1;fill-rule:evenodd;stroke:none;stroke-width:0.29895052"
       inkscape:connector-curvature="0" />
    <path
       id="path1964"
       d="m 140.9165,110.90005 -0.18051,-0.0228 c -0.59793,0.98568 -5.77632,4.46378 -7.17528,5.2795 -17.04691,9.96982 -43.277297,9.78854 -59.872954,-0.54382 -3.046111,-1.89199 -4.997873,-3.65937 -6.881947,-5.69867 l -8.179375,-0.0113 c 0.225638,0.63442 2.944576,2.96828 3.632771,3.58006 8.05527,7.08083 19.585352,11.26137 30.34827,12.67752 2.290226,0.29457 4.332255,0.33988 6.667594,0.52116 7.773221,0.58912 17.622311,-1.30288 24.617061,-4.01059 3.41841,-1.3142 6.64503,-3.07025 9.39782,-4.95093 2.13228,-1.46147 6.26144,-4.81496 7.62655,-6.82026 z"
       style="fill:#898787;fill-opacity:1;fill-rule:evenodd;stroke:none;stroke-width:0.29895052"
       inkscape:connector-curvature="0" />
    <path
       id="path1966"
       d="m 140.73599,110.87738 c 0.14666,-0.28323 0,-0.0567 0.1918,-0.2719 0.10156,-0.11329 0.10156,-0.0906 0.10156,-0.11329 -1.42151,0.71374 -3.50866,2.20922 -5.83273,3.38748 -1.34255,0.67976 -5.20095,2.50377 -6.5322,2.78701 -0.22565,0.32855 -5.09942,1.64276 -6.01326,1.86934 -12.65827,3.26285 -29.039564,2.53778 -40.54709,-3.784 -0.868694,-0.47584 -3.993784,-2.32252 -4.738382,-3.0929 0,0 -0.0226,-0.0226 -0.03379,-0.0453 0,-0.0226 -0.0226,-0.0226 -0.03388,-0.034 -0.575388,-0.29456 -1.184601,-0.95167 -1.658445,-1.37087 -0.58665,-0.52112 -1.263569,-0.3172 -2.752776,-0.3172 -1.884074,0 -4.253276,-0.12463 -6.080944,0.0225 1.884084,2.0393 3.835846,3.80667 6.881957,5.69867 16.595659,10.33235 42.82603,10.51363 59.87296,0.54382 1.39896,-0.81573 6.57734,-4.29382 7.17528,-5.2795 z"
       style="fill:#bec1c1;fill-opacity:1;fill-rule:evenodd;stroke:none;stroke-width:0.29895052"
       inkscape:connector-curvature="0" />
    <path
       id="path1968"
       d="m 127.23157,115.28451 5.25737,-1.58611 c 0.0338,-0.0113 0.19178,-0.068 0.21434,-0.0795 l 8.28092,-3.21753 0.42871,-0.1586 c -0.079,0.21527 -0.0677,0.26056 -0.21437,0.44184 -0.19179,0.23791 -0.1241,0.13597 -0.28204,0.21527 -1.36511,2.0053 -5.49427,5.35877 -7.62655,6.82024 -2.75279,1.88068 -5.97941,3.63674 -9.39782,4.95093 -6.99475,2.70773 -16.84384,4.59971 -24.617061,4.0106 -2.335339,-0.18128 -4.377368,-0.2266 -6.667594,-0.52116 -10.762918,-1.41616 -22.293,-5.5967 -30.34827,-12.67752 -0.688195,-0.61179 -3.407133,-2.94564 -3.632771,-3.58007 l 8.179375,0.0113 c 1.827658,-0.14729 4.196859,-0.0226 6.080932,-0.0226 1.489209,0 2.166126,-0.20391 2.752778,0.31723 0.473842,0.41918 1.083069,1.07628 1.658444,1.37085 l -0.169236,-0.38519 c 0.214364,-0.068 0.361023,-0.27191 0.372312,0.20392 l -0.0226,-0.55515 c -0.428716,-0.0226 -0.338459,-0.0795 -0.733334,-0.034 0.07898,-0.18126 0.112875,-0.28322 0.180511,-0.43051 -0.06768,0.034 -0.135384,0.18127 -0.180511,0.24925 -0.236917,-0.20392 -0.564087,-0.26058 -0.654343,-0.53248 0.361024,-0.24924 6.949637,-0.0906 7.965013,-0.0906 0.112876,0.26057 0.451268,0.52116 0.654344,0.69109 0.236928,0.20393 0.55281,0.43051 0.755886,0.60045 2.00818,1.59745 4.366095,2.75303 6.757849,3.69337 l 4.806098,1.41616 c 2.436876,0.58912 4.828638,0.8837 7.265528,1.08762 4.52403,0.37387 6.45325,0.18128 10.62753,-0.10202 1.20717,-0.0795 3.14763,-0.20392 4.29841,-0.48716 l 0.56408,-0.37387 -6.06966,0.64577 c -0.91382,0.12463 -2.29021,0.0566 -3.07995,0.16995 -1.11691,0.16993 -2.76407,0.0453 -3.92609,-0.0453 -0.23692,-0.0226 -0.54153,-0.0113 -0.77845,-0.0113 -1.3651,0.0228 -3.07995,-0.23792 -4.4225,-0.41919 -0.3159,-0.0453 -0.98153,-0.11328 -1.39896,-0.21525 -0.507686,-0.1133 -0.891261,-0.14728 -1.398953,-0.2379 -1.545611,-0.26058 -3.598911,-0.75909 -5.121973,-1.3482 -0.09025,-0.0227 -0.203067,-0.0795 -0.361019,-0.12464 l -1.444081,-0.55512 c -0.169225,-0.068 -0.327172,-0.12464 -0.541536,-0.21526 -1.534336,-0.65709 -2.85431,-1.4275 -4.230698,-2.26587 -0.71076,-0.44184 -1.195879,-0.86104 -1.838956,-1.39351 -1.083058,-0.87236 -0.530248,-0.89503 -2.44816,-0.89503 -2.15485,0 -4.343529,0 -6.464529,0 0.05638,-0.22656 -0.146658,-0.31721 0.349748,-0.38519 l -0.191801,0.0795 c -0.157947,0.034 -0.21435,0.0113 -0.383586,0.0225 0.09028,-0.15861 -0.14666,-0.54381 0.1918,-0.1926 -0.394864,-0.0226 -0.507683,-0.11329 -0.846143,-0.0453 -1.308697,0.26056 -7.017328,0.22657 -7.886035,0.0453 -0.169235,-0.034 -6.351709,-0.0906 -7.400927,0 -0.81229,0.0794 -0.304608,-0.20392 -0.676907,-0.10192 -0.564098,0.16994 -1.331261,-0.0226 -1.81638,0.29457 0,0.24924 -0.04508,0.82704 0.09028,1.05362 0.191787,-0.19259 0.315883,-0.0795 0.451267,-0.0227 0.270768,0.10192 0.1918,0.1133 0.315895,0.30591 l 0.07899,0.12461 c 0,0 0.0226,0.0227 0.0226,0.034 0.0113,0 0.03388,0.0228 0.03388,0.034 0.214352,0.23791 0.236915,0.13596 0.248203,0.5778 0.304607,0.0453 0.518971,0.0906 0.665633,0.2719 0,0 0.01129,0.034 0.0226,0.034 l -0.0226,0.0795 c 0.03388,-0.0226 0.09028,-0.0567 0.112874,-0.0567 l 0.428716,-0.0225 c -0.01131,0.034 -0.07898,0.18125 -0.09028,0.2039 l -0.06768,0.63444 c 0.03388,0.0225 0.40614,0.28324 0.789727,0.27191 0.0226,0 0.05638,0 0.07898,0 0.0226,0 0.04508,0 0.06769,-0.0113 0.417428,-0.0228 0.01131,0.0906 0.48512,-0.0566 l 0.101577,1.2349 0.879994,0.23792 c 0.0113,0 0.04508,0.0113 0.05638,0.0113 0.01129,0.0113 0.04509,0.0113 0.05639,0.0226 0.0226,0 0.06769,0.034 0.07898,0.0113 0.0113,-0.0226 0.05639,0 0.07898,0.0113 0,0.034 -0.05639,0.18127 -0.05639,0.1926 -0.03388,0.27188 -0.06768,0.0113 0.0113,0.10191 0.01129,0.0113 0.14666,0.0793 0.14666,0.0906 l 0.0226,0.21526 c -0.203074,0.20393 -0.04508,-0.11329 -0.124096,0.16994 0.04508,0.0227 0.282044,0.18126 0.293333,0.1926 0.293318,0.12462 0.530246,-0.29456 1.004078,0.12462 0.03388,0.0228 0.146671,0.11328 0.124107,0.29457 -0.0226,0.14727 0.04508,0.12462 -0.146671,0.31722 -0.236916,0.23791 -0.361012,0.0453 -0.0338,0.0225 0.04508,0.62312 -0.0113,-0.0453 0.101578,0.48717 0.643066,0 1.297422,-0.11328 1.929211,0.034 l 0.146661,0.0566 c 0.01129,0.15862 0.03388,0.29456 -0.07898,0.45317 l -0.180511,0.0226 c 0.406151,0.0567 -0.03388,-0.0113 0.259479,0.10202 l 0.462567,0.034 -0.05638,0.44184 c 0.135372,0.16994 0.518959,0.13595 0.744599,0.12462 0.180511,-0.0113 0.631789,-0.0453 0.688194,0.12463 0.04508,0.55514 -0.169224,-0.28323 -0.180512,0.44183 -0.01129,0.43052 0.06769,-0.1019 0,0.39653 -0.09028,0.60047 -0.04508,0.23793 -0.101578,0.26058 0.733324,0 1.805105,-0.12462 2.380481,0.0906 0.0226,0.10192 -0.0113,0.0906 -0.0113,0.16994 v 0.33987 c 0,0.0113 0,0.0225 0,0.0225 0,0 0.0113,0.0227 0.0226,0.0227 l 0.101579,0.30588 c 0,0 0.01129,0.0228 0.01129,0.034 l 0.03379,0.16995 c -0.01129,0.0113 -0.03379,0.0795 -0.05639,0.0906 0.507684,0 2.143564,0.0113 2.527141,0.1926 0.112875,0.47584 0.05639,0.6911 0.04508,1.05362 l 0.315895,-0.0567 c 0.439991,0.0906 -0.225638,0.11329 0.259481,0.0567 0.214362,0 0.564097,-0.034 0.69948,-0.034 0.293333,0 0.428716,0.0795 0.541535,0.31723 -0.01129,0 0,-0.0228 0,-0.0228 l 0.07898,-0.034 c 0.361011,0.034 -0.30462,-0.15861 0.496395,-0.034 0.203075,0.39652 0.191798,0.47583 0.191798,1.05363 0.40614,0.0113 1.218441,0.13595 1.489209,0.14727 0.315896,0.0226 0.767163,-0.14727 1.534337,-0.0793 l 0.09028,0.18126 c 0.372299,0.53246 0.55281,0.26059 0.710757,1.09894 h 1.195879 c 0.01129,0 0.03388,0 0.04508,0.0113 l 0.620503,-0.0228 c 0.383587,0.0795 0.846141,-0.21525 1.207165,0.38522 l 0.214351,0.21525 c 0.248204,0.1586 0.282056,0.40786 0.439992,0.6571 0.394874,0 0.654354,-0.0906 0.801014,-0.10192 0.146672,0 0.575387,0.16993 0.440004,0.38519 0.03388,-0.75905 -0.07898,-0.0906 0.270754,-0.37387 0.124107,0.24926 0.04508,0.23792 0.394875,0.31724 0.541523,0.11327 1.252283,0.16993 1.884071,0.0906 l 0.157948,-0.034 c 0.428716,-0.0453 0.834855,0.0906 0.92511,0.55515 0,0.034 0,0.26056 0,0.30589 h 0.1918 c -0.03379,0.0227 -0.0226,0.36254 -0.04509,-0.0453 -0.01129,-0.30589 -0.0226,0 0.04509,-0.23791 0.383575,0.12463 0.1805,0.12463 0.338447,0.24925 0.203075,0.16993 0.394875,0.14728 0.699483,0.13596 0.755886,-0.0113 1.568176,0.14726 2.278936,-0.12463 l 0.112875,-0.034 c 0.0113,0 0.04508,0 0.05639,-0.0113 l 0.135383,0.0225 c 0.767174,0.0906 1.974327,0.31723 2.786629,0.19261 0.428712,-0.068 0.801012,-0.068 1.241006,0 0.406151,0.0566 0.530249,0.11327 0.733317,0.41918 l 0.112823,0.19262 c -0.248204,0.1019 0,0.24923 -0.282048,0.0112 0.304616,-0.068 0.507685,-0.13594 0.665634,-0.38518 0.02255,0.0225 0.04519,0.0567 0.05642,0.068 l 0.101529,0.12461 c 0.361036,0.32857 -0.338449,-0.1133 0.1354,0.0906 0.169225,0.0679 0.609212,-0.12463 0.755879,0.10192 -0.02255,-0.0226 -0.02255,-0.10192 -0.02255,-0.12463 l 0.06774,-0.15861 c 0.01132,-0.0566 0.03386,-0.0679 0.05642,-0.10191 l 0.135383,0.1133 c 0.02253,0.0225 0.101536,0.0906 0.124109,0.11328 0.135375,0.13596 0.03389,0.0453 0.112813,0.15861 l 0.01136,-0.10192 c 0.05643,-0.0906 0.1241,-0.12462 0.259472,-0.0793 0.270762,0.0906 0.21436,-0.0113 0.169234,0.23792 -0.05643,0.32854 -0.124098,0.068 -0.146661,0.034 0.48512,0.31719 0.270761,-0.20395 0.383584,0.48714 l 0.564094,-0.10192 c 0.146653,0 0.575386,0.034 0.688206,-0.0112 0.46255,-0.16995 -0.46257,0.35119 0.15794,-0.1133 0.38357,-0.27192 0.89125,-0.1926 1.36511,-0.14728 l 0.94765,0.27189 c -0.0113,0.35122 -0.0113,0.0567 -0.0113,0.0567 0.2595,-0.24925 0.60923,-0.24925 1.06052,-0.24925 0.0451,0.10191 0.10157,0.23792 -0.0113,0.3059 l 0.39487,-0.0113 c -0.0563,-0.034 -0.0226,0.36254 -0.0563,-0.0906 l 0.45127,-0.29456 c 0.72202,0.12463 -0.30463,0.0226 0.23691,0.0567 l 0.33847,-0.0795 c 0.20308,-0.23791 -0.11288,0.36255 0.079,-0.16994 l 0.0903,-0.28322 c 0.27077,0.034 0.45129,0.0453 0.69947,0.0793 l 0.7559,-0.034 c 0.0226,-0.034 0.0564,-0.034 0.079,-0.0453 l 0.11289,0.13594 c 0.16923,0.18128 -0.0903,0.12463 0.16923,0.14728 -0.44001,-0.4305 0.19177,-0.56646 0.57537,-0.57779 0.4851,-0.0228 0.71076,-0.068 1.25228,-0.10191 l 1.6246,-0.13597 c 0.66563,-0.0113 0.30461,0.0567 0.54153,0.11331 l 3.76817,0.0795 c 0.0112,0 0.0451,-0.0113 0.0451,-0.0226 l 0.1241,-0.0679 c 0.1918,-0.16996 0.0338,0.23791 0.079,-0.20394 l 0.0225,-0.52115 c 0.49642,-0.034 0.32718,-0.12462 0.6205,-0.2719 0.18051,-0.10191 -0.40614,-0.15861 0.32718,-0.0795 0.29333,0.034 0.14666,-0.0113 0.29333,0.15861 l 0.10157,-0.22658 c 0,0 0.0113,-0.0228 0.0113,-0.0228 l 0.0451,-0.0679 c 0.0113,-0.0113 0.0226,-0.0225 0.0339,-0.0225 l 0.40613,-0.0795 c -0.0113,0.0113 -0.0338,0.0225 -0.0451,0.0453 l -0.079,0.2719 c 0.079,-0.10191 -0.12412,-0.1133 0.27076,-0.0453 l 0.78972,-0.0453 c 0.30461,0.0795 0.10158,0.0113 0.18051,-0.1926 0.23692,0.0226 0.65437,0.12463 0.67693,0.12463 0.0564,0 0.22561,-0.16995 0.65433,-0.0228 0.0226,0.20394 -0.0227,0.0228 0.0564,-0.0113 0.51897,-0.20393 0.3046,0.0113 0.71077,0.0113 -0.0113,-0.034 -0.0339,-0.0906 -0.0339,-0.11329 -0.0677,-0.26057 0,-0.29457 0.0113,-0.56646 0,-0.0453 0.0113,-0.0566 0.0226,-0.0906 h 0.48512 c -0.44001,-0.0113 -0.18051,-0.13595 -0.19181,-0.29456 0.13539,-0.13595 0.13539,-0.15863 0.40616,-0.16994 0.31589,0 0.25949,0.0453 0.48513,0.0566 0.47383,0.0453 0.46256,0.11329 0.63178,-0.15862 0.46255,0.068 0.1805,0.0906 0.39485,0.12464 0.13538,0.0113 0.079,0.24923 0.079,-0.12464 l 1.0492,0.0794 c 0.2482,-0.0567 0.0339,0.33986 0.39487,-0.11331 0.23693,-0.30589 -0.0226,0.29458 0.0564,-0.11328 l -0.0338,-0.45317 c 0,-0.0113 0.0113,-0.0453 0.0226,-0.0453 l 0.14664,-0.52116 c 0.54156,-0.0454 0.86875,0.0113 1.52308,0 0.16924,-0.50981 -0.079,0.0453 0.0903,-0.18126 0.0338,-0.0225 0.10158,-0.034 0.1241,-0.1133 0.0113,-0.0453 0.0451,-0.0453 0.0675,-0.068 0.28205,0.39653 -0.0903,0.29456 0.39486,0.3852 0,-0.89501 -0.23691,-0.7364 0.65438,-0.67975 0,-0.0225 -0.0113,-0.1473 -0.0226,-0.15863 l 0.24821,-0.21525 c 0.0226,0 0.0564,-0.0225 0.1805,-0.0225 l 0.84614,0.034 c 0.11288,-0.0228 0.15795,-0.0453 0.27077,-0.0228 l 0.0112,-0.0113 c 0.18051,-0.21526 0.24818,-0.39651 0.58665,-0.39651 0.28206,0 0.0677,-0.20394 0.27077,0.20391 -0.23692,-0.18126 -0.13537,0.0453 -0.13537,-0.30589 0,-0.31722 -0.0564,-0.0679 0.13537,-0.21527 0.32715,-0.24923 0.0564,0.31725 0.20308,-0.18126 0.21435,-0.69109 -0.34974,-0.5438 0.84615,-0.5438 0.0338,-0.0113 0.10156,-0.0453 0.12408,-0.0453 0.0225,-0.0113 0.0564,-0.0226 0.079,-0.0226 l 0.58665,0.0226 c 0.28206,0.0453 0.0564,-0.0113 0.25948,0.0453 l -0.079,-0.57781 0.24818,-0.14727 c 0.0226,-0.0113 0.0451,-0.0226 0.0677,-0.034 0.21438,-0.13596 0.24822,-0.24924 0.33847,-0.48717 0.32719,0.0453 0.25948,0.0226 0.47383,0.10192 -0.0225,0.0113 -0.28203,0.32855 0.0113,-0.10192 0.18051,-0.26058 -0.10159,-0.0113 0.18051,-0.18127 0.0226,0.0228 0.0339,0.068 0.0451,0.0795 l 0.0677,0.14729 c 0.079,0.11328 0.0903,0.0567 0.27077,0.0567 0.16922,-0.29457 0.33845,-0.18127 0.76716,-0.19261 l -0.0903,-1.18957 1.33127,-0.0567 0.10158,-0.67976 c 0,0 0.13536,-0.0453 0.23691,-0.0453 0.36102,-0.0227 0.0338,0.034 0.0451,0.0453 0,-0.21526 -0.079,-0.36253 0,-0.55513 l 1.34255,-0.10192 c 0.0113,0 0.0451,0.0113 0.0564,0.0113 0.34974,0.0113 -0.12408,0.22659 0.37232,-0.0795 0.28205,-0.16994 0.1241,-0.16994 0.42871,-0.22658 -0.0338,-0.0226 -0.0451,-0.068 -0.0564,-0.0795 0,0 -0.0226,-0.0226 -0.0226,-0.034 l -0.22564,-0.13594 c -0.14668,-0.10191 -0.15795,-0.0113 -0.27078,-0.32855 l 0.9477,-0.23792 c 0.33845,0.0113 0.18051,-0.0226 0.38357,0.13596 -0.0903,-0.068 -0.11288,-0.0113 0.10158,-0.22659 l 0.18051,-0.14728 c 0.10158,0.40786 0.20305,0.45318 0.20305,0 l -0.33843,-0.13596 c -0.0112,-0.0113 -0.0564,0 -0.0677,-0.034 -0.0112,-0.034 -0.0451,-0.0225 -0.079,-0.0225 l 0.50768,-0.46451 c 0.11287,-0.10191 -0.0451,-0.2719 -0.1241,-0.39652 0.34974,0.0113 0.41743,0.068 0.69948,0.034 0.18052,-0.0113 0.34975,-0.034 0.55283,-0.034 0.0563,-0.75908 -0.14668,0.29457 -0.16925,-0.66842 0,-0.0906 0.0677,-0.35122 0.11287,-0.43053 0.22564,-0.32855 0.92511,-0.26057 1.29742,-0.22657 l 0.0113,-0.79305 c 0.33845,0.0226 0.18051,0.21525 0.25949,-0.0906 l -0.18051,-0.67977 0.4287,-0.13593 c 0.0113,-0.0113 0.0451,-0.0113 0.0564,-0.0228 0.45128,-0.1246 0.10157,-0.068 0.27077,-0.48715 0.0113,-0.0225 0.1241,-0.16994 0.13539,-0.1926 0.12411,-0.10191 -0.27075,-0.10191 0.34974,-0.11329 -0.47385,-0.068 -0.16923,0.15861 -0.34974,-0.27189 -0.18051,-0.45318 0.10158,-0.37389 0.15793,-0.39654 -0.38357,-0.0113 -0.47383,-0.068 -0.76716,-0.10191 -0.19178,0.3512 0.0338,0.22657 -0.36103,0.47582 -0.46254,0.30589 -5.12196,2.12992 -5.76503,2.34517 -0.53025,0.18127 -0.78974,0.3059 -1.31999,0.48717 l -1.07178,0.36255 c -1.72612,0.52114 -3.38456,1.14426 -5.17838,1.59742 l -2.13228,0.5438 c -0.56409,0.11331 -0.95896,0.21527 -1.47792,0.35121 -0.59793,0.14727 -3.91482,0.67977 -4.21941,0.83839 -0.3723,0.19258 -0.0564,-0.068 -0.34974,0.29455 1.68099,0 3.29431,-0.52114 4.85121,-0.82703 l 1.80508,-0.40787 c 0.36102,-0.0795 0.49641,-0.18127 0.89128,-0.20391 z"
       style="fill:#f5f7f6;fill-opacity:1;fill-rule:evenodd;stroke:none;stroke-width:0.29895052"
       inkscape:connector-curvature="0" />
    <path
       id="path1970"
       d="m 120.97013,88.649148 h 1.17331 l 0.0563,6.367121 h 1.17333 v -6.367121 h 1.13946 l 0.0677,-1.121608 h -3.61018 z"
       style="fill:#53575a;fill-opacity:1;fill-rule:evenodd;stroke:none;stroke-width:0.29895052"
       inkscape:connector-curvature="0" />
    <path
       id="path1972"
       d="m 78.888704,101.67796 c 0.124095,-0.16995 0.112876,0.28323 0.124095,-0.30589 l 0.0226,-3.48946 h 1.319985 l 0.0113,9.19943 h -1.353825 l -0.0338,-4.05589 c -0.372301,-0.13594 -0.541534,-0.0906 -0.936398,-0.0906 -0.07897,0 -0.428716,-0.0113 -0.48512,0 -0.462555,0.0906 -0.191788,-0.0113 -0.304608,0.16994 l 1.658434,-0.0567 0.0226,4.10123 1.489207,-0.0228 c 0.09027,-0.91766 0.101572,-8.870888 -0.03389,-9.369369 l -1.466644,0.03399 z"
       style="fill:#999b9c;fill-opacity:1;fill-rule:evenodd;stroke:none;stroke-width:0.29895052"
       inkscape:connector-curvature="0" />
    <path
       id="path1974"
       d="m 61.672542,101.63264 c 0.180511,0.20393 0.05638,-0.20394 0.157947,0.30588 l 0.01129,5.15487 c 0.406151,0.12463 1.15076,0.15862 1.500495,-0.034 0.04508,-1.13294 0.124097,-8.678299 -0.05638,-9.290082 l -1.105623,-0.01136 c -0.485129,0 -0.135383,-0.02253 -0.29333,0.124626 l 1.353824,-0.01136 0.0226,9.210776 -1.331261,-0.0113 0.0113,-5.03022 c 0.0113,-0.83839 -0.07899,-0.60047 -0.180511,-0.71378 z"
       style="fill:#9ca0a1;fill-opacity:1;fill-rule:evenodd;stroke:none;stroke-width:0.29895052"
       inkscape:connector-curvature="0" />
    <path
       id="path1976"
       d="m 68.656031,107.11604 c 0.09028,-0.068 0.135383,0.034 0.157947,-0.46451 0,-0.13593 -0.0113,-0.33987 -0.0113,-0.48716 l 0.0113,-3.08156 h 1.500497 v 3.6707 c 0.0226,0.37386 -0.06769,0.24924 0.146658,0.33988 l -0.07897,-4.10123 -1.680997,0.0453 z"
       style="fill:#bbc2c6;fill-opacity:1;fill-rule:evenodd;stroke:none;stroke-width:0.29895052"
       inkscape:connector-curvature="0" />
    <path
       id="path1978"
       d="m 107.74776,90.756414 c -0.13537,-0.237918 -0.11288,-0.158615 -0.85741,-0.147282 -0.32718,0 -0.65437,0 -0.98155,0 l -0.0113,-1.892015 h 1.66972 c 0.4964,-0.01136 0.37229,-0.05662 0.46256,-0.158605 l -2.17741,0.05662 c -0.0903,0.498491 -0.10157,1.620099 0.0113,2.073277 z"
       style="fill:#bcbdc0;fill-opacity:1;fill-rule:evenodd;stroke:none;stroke-width:0.29895052"
       inkscape:connector-curvature="0" />
    <path
       id="path1980"
       d="m 77.816923,95.072915 c -0.180513,0.203928 -0.01129,-0.124634 -0.101578,0.169939 -0.01129,0.05662 -0.01129,0.21526 -0.01129,0.271907 v 0.895032 H 76.857913 V 94.09858 c -0.124096,0.147291 -0.09028,-0.192585 -0.124096,0.362543 l 0.0113,1.971326 c 0.361022,0.124626 0.643066,0.09061 1.015365,0.05662 z"
       style="fill:#939597;fill-opacity:1;fill-rule:evenodd;stroke:none;stroke-width:0.29895052"
       inkscape:connector-curvature="0" />
    <path
       id="path1982"
       d="m 140.9842,110.40155 0.0451,0.0906 c 0,0.0226 0,0 -0.10158,0.1133 -0.19177,0.21525 -0.0451,-0.0113 -0.19177,0.27189 l 0.1805,0.0228 c 0.15794,-0.0795 0.0903,0.0225 0.28204,-0.21527 0.14668,-0.18127 0.1354,-0.22657 0.21437,-0.44183 z"
       style="fill:#8a8397;fill-opacity:1;fill-rule:evenodd;stroke:none;stroke-width:0.29895052"
       inkscape:connector-curvature="0" />
  </g>
</svg>
