<?xml version="1.0" encoding="UTF-8" standalone="no"?>
<!-- Created with Inkscape (http://www.inkscape.org/) -->

<svg
   xmlns:dc="http://purl.org/dc/elements/1.1/"
   xmlns:cc="http://creativecommons.org/ns#"
   xmlns:rdf="http://www.w3.org/1999/02/22-rdf-syntax-ns#"
   xmlns:svg="http://www.w3.org/2000/svg"
   xmlns="http://www.w3.org/2000/svg"
   xmlns:sodipodi="http://sodipodi.sourceforge.net/DTD/sodipodi-0.dtd"
   xmlns:inkscape="http://www.inkscape.org/namespaces/inkscape"
   width="31.283901mm"
   height="11.432651mm"
   viewBox="0 0 31.283903 11.43265"
   version="1.1"
   id="svg48003"
   inkscape:version="0.92.2 (5c3e80d, 2017-08-06)"
   sodipodi:docname="emiia151.svg">
  <defs
     id="defs47997" />
  <sodipodi:namedview
     id="base"
     pagecolor="#ffffff"
     bordercolor="#666666"
     borderopacity="1.0"
     inkscape:pageopacity="0.0"
     inkscape:pageshadow="2"
     inkscape:zoom="3.959798"
     inkscape:cx="34.432382"
     inkscape:cy="25.773656"
     inkscape:document-units="mm"
     inkscape:current-layer="layer1"
     showgrid="false"
     fit-margin-top="0"
     fit-margin-left="0"
     fit-margin-right="0"
     fit-margin-bottom="0"
     inkscape:window-width="1366"
     inkscape:window-height="745"
     inkscape:window-x="-8"
     inkscape:window-y="-8"
     inkscape:window-maximized="1" />
  <metadata
     id="metadata48000">
    <rdf:RDF>
      <cc:Work
         rdf:about="">
        <dc:format>image/svg+xml</dc:format>
        <dc:type
           rdf:resource="http://purl.org/dc/dcmitype/StillImage" />
        <dc:title></dc:title>
      </cc:Work>
    </rdf:RDF>
  </metadata>
  <g
     inkscape:label="Layer 1"
     inkscape:groupmode="layer"
     id="layer1"
     transform="translate(-136.86249,-123.94857)">
    <path
       id="path47882"
       d="m 151.08584,128.07098 c -0.0265,0.014 -0.0474,0.0252 -0.0683,0.0364 -0.21885,0.11478 -0.35406,0.18757 -0.69,0.21557 -0.1603,0.014 -0.31224,0.008 -0.45582,-0.014 -0.14497,-0.0224 -0.28157,-0.063 -0.41539,-0.11758 v 0 0 c -0.10733,-0.0448 -0.2063,-0.0994 -0.29412,-0.15958 -0.39588,-0.27436 -0.598,-0.69571 -0.66631,-1.13525 -0.0683,-0.43813 -0.003,-0.89307 0.1394,-1.23742 0.0432,-0.10219 0.092,-0.19597 0.14636,-0.27576 0.13103,-0.19037 0.31921,-0.36115 0.56315,-0.48293 0.21746,-0.10919 0.47952,-0.17918 0.78479,-0.19177 1.25734,-0.0504 1.91388,1.19542 2.39758,2.1109 0.0711,0.13578 0.13939,0.26596 0.20491,0.38074 0.47394,0.84128 1.10121,1.38721 1.75358,1.66997 0.48648,0.21137 0.98691,0.27437 1.4483,0.20297 0.4614,-0.0714 0.88237,-0.27856 1.21134,-0.60751 0.34988,-0.34995 0.59521,-0.83988 0.67048,-1.4544 0.0739,-0.58931 0.0111,-1.17723 -0.21188,-1.67696 -0.20212,-0.44794 -0.53388,-0.82589 -1.01618,-1.06806 -0.23418,-0.11618 -0.53527,-0.21276 -0.84752,-0.25615 -0.27321,-0.0392 -0.55478,-0.0378 -0.80848,0.0224 -0.24812,0.0588 -0.51855,0.15538 -0.76667,0.28416 -0.21327,0.11199 -0.40982,0.25057 -0.56036,0.41014 -0.10455,0.11339 -0.18958,0.20018 -0.25649,0.26877 -0.11988,0.12178 -0.1826,0.18337 -0.19933,0.23657 -0.0181,0.0546 0.0112,0.10358 0.0739,0.20436 0.0265,0.0434 0.0585,0.0952 0.0934,0.15958 0.0279,0.0476 0.0502,0.091 0.0697,0.12739 0.0474,0.091 0.0781,0.14697 0.10454,0.16657 0.0335,0.0238 0.0669,-0.0126 0.14358,-0.11338 m -2.5537,2.28448 c -0.26067,0.13718 -0.38612,0.21977 -0.75412,0.25196 -0.31921,0.0266 -0.60079,-0.0224 -0.86564,-0.13158 -1.21551,-0.50533 -1.1263,-2.1277 -0.67048,-2.7912 0.24672,-0.35836 0.69557,-0.64532 1.33957,-0.67052 1.23922,-0.0504 1.89437,1.16884 2.37388,2.07872 l 0.001,0.002 c 0.0767,0.14558 0.14916,0.28276 0.21885,0.40594 1.56261,2.77022 4.78819,2.35868 5.10322,-0.19317 0.13939,-1.12405 -0.21188,-2.24389 -1.23503,-2.75483 -0.44188,-0.22117 -1.11655,-0.36674 -1.66298,-0.23656 -0.46278,0.11059 -1.00642,0.34995 -1.33121,0.6985 -0.58266,0.62571 -0.54224,0.42834 -0.28994,0.88188 0.099,0.17777 0.14219,0.27996 0.184,0.30235 0.003,0.002 0.007,0.002 0.01,0.002 0.0335,0.01 0.0711,-0.0308 0.14079,-0.12459 l 0.006,-0.007 v 0 l 0.32897,-0.38914 c 1.09006,-1.13384 2.74607,-0.7279 3.06249,0.53752 0.13661,0.54733 0.0892,1.24163 -0.15612,1.68817 -0.54782,0.99245 -1.81631,0.91687 -2.6917,0.23656 -0.51576,-0.40174 -0.79594,-0.96866 -1.11376,-1.56218 l -0.003,-0.004 c -0.14078,-0.26316 -0.28854,-0.53052 -0.46697,-0.79228 -0.28854,-0.41995 -0.56872,-0.7615 -0.95485,-1.03726 -1.29497,-0.92387 -3.28691,-0.50253 -3.78454,1.19263 -0.15055,0.51233 -0.16588,1.26822 -0.007,1.78055 0.41678,1.35221 1.94872,1.95693 3.16563,1.49219 0.26764,-0.10219 0.42376,-0.22677 0.62449,-0.34295 0.16867,0.0952 0.368,0.41714 0.43212,0.26737 l 0.13243,-0.7853 v -0.002 l 0.001,-0.008 c 0.15612,-0.95746 0.22303,-0.86648 -0.29273,-0.7237 l -0.007,0.002 h -0.003 c -0.13242,0.0364 -0.25927,0.0728 -0.39588,0.11199 -0.14218,0.0406 -0.70254,0.17637 -0.782,0.23377 10e-4,0.13018 0.26764,0.26595 0.34291,0.38914 z m 0.006,0.01 v 0 m 2.54812,-2.29567 v 0 l 0.33594,-0.39615 v 0 0 c 0.30946,-0.32195 0.66491,-0.52072 1.02176,-0.61171 0.30388,-0.0756 0.60776,-0.0742 0.88794,-0.004 0.28018,0.07 0.53528,0.20857 0.73879,0.40595 0.20352,0.19597 0.35546,0.44933 0.43073,0.75309 0.0711,0.27996 0.092,0.59912 0.0641,0.90427 -0.0265,0.29256 -0.10036,0.57112 -0.22164,0.79089 -0.0404,0.0728 -0.0836,0.13999 -0.13103,0.20158 -0.26345,0.34154 -0.63285,0.51232 -1.03151,0.54452 -0.39867,0.0322 -0.828,-0.0742 -1.21412,-0.28977 -0.11431,-0.063 -0.22443,-0.13577 -0.32897,-0.21696 -0.4837,-0.37655 -0.7611,-0.89588 -1.05522,-1.4474 -0.1603,-0.30096 -0.32479,-0.61172 -0.53249,-0.91407 -0.14357,-0.20857 -0.28436,-0.39894 -0.43909,-0.57112 -0.15333,-0.17218 -0.31921,-0.32475 -0.51157,-0.46194 -0.23558,-0.16797 -0.49346,-0.29115 -0.76109,-0.37095 -0.4851,-0.14417 -1.00225,-0.14277 -1.47479,0 -0.47116,0.14419 -0.89631,0.42834 -1.196,0.85389 -0.14358,0.20157 -0.25928,0.43673 -0.33734,0.7027 -0.0767,0.26036 -0.11709,0.58371 -0.11848,0.90567 -0.001,0.31076 0.0335,0.61871 0.11151,0.86928 0.0139,0.0462 0.0293,0.091 0.046,0.13578 0.22861,0.60051 0.68443,1.03865 1.22667,1.28222 0.54224,0.24356 1.17091,0.29256 1.74243,0.11478 0.046,-0.014 0.092,-0.0294 0.1366,-0.0476 0.19237,-0.0728 0.32618,-0.15817 0.46,-0.24356 0.053,-0.0336 0.10594,-0.0672 0.16309,-0.0994 0.003,-0.002 0.007,-0.002 0.01,0 0.0627,0.0364 0.12964,0.10219 0.19237,0.16378 0.0599,0.0602 0.11709,0.11619 0.16169,0.13578 0.0279,0.0112 0.0502,0.007 0.0641,-0.0266 l 0.13103,-0.78249 v 0 c 0.0237,-0.14278 0.0446,-0.26456 0.0627,-0.36535 0.0432,-0.24077 0.0655,-0.36535 0.0446,-0.41715 -0.0195,-0.049 -0.0906,-0.0266 -0.23697,0.0169 -0.0446,0.014 -0.0962,0.0294 -0.15751,0.0462 -0.10873,0.0308 -0.21746,0.0616 -0.33176,0.0938 l -0.0641,0.0182 c -0.0321,0.01 -0.0878,0.0238 -0.15333,0.042 -0.21467,0.056 -0.55061,0.14279 -0.62031,0.18758 0.004,0.07 0.0948,0.14698 0.18261,0.21977 0.0641,0.0546 0.12685,0.10638 0.15891,0.15818 0.003,0.006 0.001,0.0126 -0.004,0.0154 v 0 m 1.11933,-0.0154 c 0.001,-0.006 0.007,-0.01 0.0125,-0.008"
       style="fill:#000000;fill-opacity:1;fill-rule:evenodd;stroke:#030000;stroke-width:0.04801813;stroke-miterlimit:4;stroke-dasharray:none;stroke-opacity:1"
       inkscape:connector-curvature="0" />
    <g
       aria-label="Ответственное потребление 
и производство"
       style="font-style:normal;font-variant:normal;font-weight:normal;font-stretch:normal;font-size:2.11666656px;line-height:1.25;font-family:Montserrat;-inkscape-font-specification:Montserrat;text-align:center;letter-spacing:0px;word-spacing:0px;text-anchor:middle;fill:#000000;fill-opacity:1;stroke:none;stroke-width:0.26458332"
       id="text48564">
      <path
         d="m 137.63296,132.33534 c 0.44027,0 0.77047,-0.31962 0.77047,-0.75142 0,-0.4318 -0.3302,-0.75142 -0.77047,-0.75142 -0.44238,0 -0.77047,0.32174 -0.77047,0.75142 0,0.42968 0.32809,0.75142 0.77047,0.75142 z m 0,-0.0995 c -0.37888,0 -0.66252,-0.27728 -0.66252,-0.65193 0,-0.37465 0.28364,-0.65193 0.66252,-0.65193 0.37677,0 0.6604,0.27728 0.6604,0.65193 0,0.37465 -0.28363,0.65193 -0.6604,0.65193 z"
         style="font-style:normal;font-variant:normal;font-weight:300;font-stretch:normal;font-family:Montserrat;-inkscape-font-specification:'Montserrat Light';text-align:center;text-anchor:middle;stroke-width:0.26458332"
         id="path48730" />
      <path
         d="m 139.46798,131.21985 h -0.96944 v 0.0952 h 0.4318 v 1.00965 h 0.10584 v -1.00965 h 0.4318 z"
         style="font-style:normal;font-variant:normal;font-weight:300;font-stretch:normal;font-family:Montserrat;-inkscape-font-specification:'Montserrat Light';text-align:center;text-anchor:middle;stroke-width:0.26458332"
         id="path48732" />
      <path
         d="m 140.34656,131.75537 c 0.127,-0.036 0.20532,-0.12277 0.20532,-0.254 0,-0.18415 -0.15029,-0.28152 -0.3937,-0.28152 h -0.46567 v 1.1049 h 0.47837 c 0.28363,0 0.4191,-0.10583 0.4191,-0.29633 0,-0.15028 -0.0762,-0.24342 -0.24342,-0.27305 z m -0.55033,-0.44873 h 0.3556 c 0.18838,0 0.29421,0.0677 0.29421,0.20743 0,0.13758 -0.10583,0.20955 -0.29421,0.20955 h -0.3556 z m 0.37253,0.93133 h -0.37253 v -0.4318 h 0.38946 c 0.20744,0 0.29845,0.0677 0.29845,0.21802 0,0.14816 -0.11006,0.21378 -0.31538,0.21378 z"
         style="font-style:normal;font-variant:normal;font-weight:300;font-stretch:normal;font-family:Montserrat;-inkscape-font-specification:'Montserrat Light';text-align:center;text-anchor:middle;stroke-width:0.26458332"
         id="path48734" />
      <path
         d="m 141.90985,131.76807 c 0,-0.32808 -0.22437,-0.55668 -0.52705,-0.55668 -0.30268,0 -0.52917,0.23283 -0.52917,0.56091 0,0.32809 0.23495,0.56092 0.56939,0.56092 0.16721,0 0.31961,-0.0614 0.41698,-0.17992 l -0.0614,-0.0699 c -0.0847,0.10372 -0.21379,0.15452 -0.35349,0.15452 -0.26458,0 -0.4572,-0.1778 -0.46778,-0.44027 h 0.95038 c 0,-0.0106 0.002,-0.0212 0.002,-0.0296 z m -0.52705,-0.46355 c 0.23495,0 0.40852,0.17145 0.42333,0.41063 h -0.84666 c 0.0169,-0.2413 0.18838,-0.41063 0.42333,-0.41063 z"
         style="font-style:normal;font-variant:normal;font-weight:300;font-stretch:normal;font-family:Montserrat;-inkscape-font-specification:'Montserrat Light';text-align:center;text-anchor:middle;stroke-width:0.26458332"
         id="path48736" />
      <path
         d="m 142.94477,131.21985 h -0.96944 v 0.0952 h 0.4318 v 1.00965 h 0.10584 v -1.00965 h 0.4318 z"
         style="font-style:normal;font-variant:normal;font-weight:300;font-stretch:normal;font-family:Montserrat;-inkscape-font-specification:'Montserrat Light';text-align:center;text-anchor:middle;stroke-width:0.26458332"
         id="path48738" />
      <path
         d="m 143.56631,132.33322 c 0.17568,0 0.32808,-0.0699 0.4191,-0.2032 l -0.0783,-0.0572 c -0.0804,0.11218 -0.2032,0.1651 -0.34078,0.1651 -0.26035,0 -0.45085,-0.18627 -0.45085,-0.46567 0,-0.2794 0.1905,-0.46566 0.45085,-0.46566 0.13758,0 0.26035,0.0529 0.34078,0.1651 l 0.0783,-0.0572 c -0.091,-0.13547 -0.24342,-0.2032 -0.4191,-0.2032 -0.32385,0 -0.5588,0.23071 -0.5588,0.56091 0,0.32809 0.23495,0.56092 0.5588,0.56092 z"
         style="font-style:normal;font-variant:normal;font-weight:300;font-stretch:normal;font-family:Montserrat;-inkscape-font-specification:'Montserrat Light';text-align:center;text-anchor:middle;stroke-width:0.26458332"
         id="path48740" />
      <path
         d="m 145.01182,131.21985 h -0.96943 v 0.0952 h 0.4318 v 1.00965 h 0.10583 v -1.00965 h 0.4318 z"
         style="font-style:normal;font-variant:normal;font-weight:300;font-stretch:normal;font-family:Montserrat;-inkscape-font-specification:'Montserrat Light';text-align:center;text-anchor:middle;stroke-width:0.26458332"
         id="path48742" />
      <path
         d="m 145.89041,131.75537 c 0.127,-0.036 0.20531,-0.12277 0.20531,-0.254 0,-0.18415 -0.15028,-0.28152 -0.3937,-0.28152 h -0.46566 v 1.1049 h 0.47836 c 0.28364,0 0.4191,-0.10583 0.4191,-0.29633 0,-0.15028 -0.0762,-0.24342 -0.24341,-0.27305 z m -0.55034,-0.44873 h 0.3556 c 0.18839,0 0.29422,0.0677 0.29422,0.20743 0,0.13758 -0.10583,0.20955 -0.29422,0.20955 h -0.3556 z m 0.37254,0.93133 h -0.37254 v -0.4318 h 0.38947 c 0.20743,0 0.29845,0.0677 0.29845,0.21802 0,0.14816 -0.11007,0.21378 -0.31538,0.21378 z"
         style="font-style:normal;font-variant:normal;font-weight:300;font-stretch:normal;font-family:Montserrat;-inkscape-font-specification:'Montserrat Light';text-align:center;text-anchor:middle;stroke-width:0.26458332"
         id="path48744" />
      <path
         d="m 147.4537,131.76807 c 0,-0.32808 -0.22437,-0.55668 -0.52705,-0.55668 -0.30269,0 -0.52917,0.23283 -0.52917,0.56091 0,0.32809 0.23495,0.56092 0.56938,0.56092 0.16722,0 0.31962,-0.0614 0.41699,-0.17992 l -0.0614,-0.0699 c -0.0847,0.10372 -0.21378,0.15452 -0.35348,0.15452 -0.26458,0 -0.4572,-0.1778 -0.46778,-0.44027 h 0.95038 c 0,-0.0106 0.002,-0.0212 0.002,-0.0296 z m -0.52705,-0.46355 c 0.23495,0 0.40851,0.17145 0.42333,0.41063 h -0.84667 c 0.0169,-0.2413 0.18839,-0.41063 0.42334,-0.41063 z"
         style="font-style:normal;font-variant:normal;font-weight:300;font-stretch:normal;font-family:Montserrat;-inkscape-font-specification:'Montserrat Light';text-align:center;text-anchor:middle;stroke-width:0.26458332"
         id="path48746" />
      <path
         d="m 147.79951,132.32475 h 0.10583 v -0.508 h 0.7493 v 0.508 h 0.10583 v -1.1049 h -0.10583 v 0.50377 h -0.7493 v -0.50377 h -0.10583 z"
         style="font-style:normal;font-variant:normal;font-weight:300;font-stretch:normal;font-family:Montserrat;-inkscape-font-specification:'Montserrat Light';text-align:center;text-anchor:middle;stroke-width:0.26458332"
         id="path48748" />
      <path
         d="m 149.21751,132.32475 h 0.10583 v -0.508 h 0.7493 v 0.508 h 0.10584 v -1.1049 h -0.10584 v 0.50377 h -0.7493 v -0.50377 h -0.10583 z"
         style="font-style:normal;font-variant:normal;font-weight:300;font-stretch:normal;font-family:Montserrat;-inkscape-font-specification:'Montserrat Light';text-align:center;text-anchor:middle;stroke-width:0.26458332"
         id="path48750" />
      <path
         d="m 151.07578,132.33322 c 0.3175,0 0.55245,-0.23283 0.55245,-0.56092 0,-0.32808 -0.23495,-0.56091 -0.55245,-0.56091 -0.3175,0 -0.55245,0.23283 -0.55245,0.56091 0,0.32809 0.23495,0.56092 0.55245,0.56092 z m 0,-0.0953 c -0.254,0 -0.4445,-0.18838 -0.4445,-0.46567 0,-0.27728 0.1905,-0.46566 0.4445,-0.46566 0.254,0 0.4445,0.18838 0.4445,0.46566 0,0.27729 -0.1905,0.46567 -0.4445,0.46567 z"
         style="font-style:normal;font-variant:normal;font-weight:300;font-stretch:normal;font-family:Montserrat;-inkscape-font-specification:'Montserrat Light';text-align:center;text-anchor:middle;stroke-width:0.26458332"
         id="path48752" />
      <path
         d="m 152.919,131.76807 c 0,-0.32808 -0.22437,-0.55668 -0.52705,-0.55668 -0.30269,0 -0.52917,0.23283 -0.52917,0.56091 0,0.32809 0.23495,0.56092 0.56938,0.56092 0.16722,0 0.31962,-0.0614 0.41699,-0.17992 l -0.0614,-0.0699 c -0.0847,0.10372 -0.21378,0.15452 -0.35348,0.15452 -0.26458,0 -0.4572,-0.1778 -0.46778,-0.44027 h 0.95038 c 0,-0.0106 0.002,-0.0212 0.002,-0.0296 z m -0.52705,-0.46355 c 0.23495,0 0.40851,0.17145 0.42333,0.41063 h -0.84667 c 0.0169,-0.2413 0.18839,-0.41063 0.42334,-0.41063 z"
         style="font-style:normal;font-variant:normal;font-weight:300;font-stretch:normal;font-family:Montserrat;-inkscape-font-specification:'Montserrat Light';text-align:center;text-anchor:middle;stroke-width:0.26458332"
         id="path48754" />
      <path
         d="m 153.81051,131.21985 v 1.1049 h 0.10583 v -1.00965 h 0.75354 v 1.00965 h 0.10583 v -1.1049 z"
         style="font-style:normal;font-variant:normal;font-weight:300;font-stretch:normal;font-family:Montserrat;-inkscape-font-specification:'Montserrat Light';text-align:center;text-anchor:middle;stroke-width:0.26458332"
         id="path48756" />
      <path
         d="m 155.67291,132.33322 c 0.3175,0 0.55245,-0.23283 0.55245,-0.56092 0,-0.32808 -0.23495,-0.56091 -0.55245,-0.56091 -0.3175,0 -0.55245,0.23283 -0.55245,0.56091 0,0.32809 0.23495,0.56092 0.55245,0.56092 z m 0,-0.0953 c -0.254,0 -0.4445,-0.18838 -0.4445,-0.46567 0,-0.27728 0.1905,-0.46566 0.4445,-0.46566 0.254,0 0.4445,0.18838 0.4445,0.46566 0,0.27729 -0.1905,0.46567 -0.4445,0.46567 z"
         style="font-style:normal;font-variant:normal;font-weight:300;font-stretch:normal;font-family:Montserrat;-inkscape-font-specification:'Montserrat Light';text-align:center;text-anchor:middle;stroke-width:0.26458332"
         id="path48758" />
      <path
         d="m 157.26947,131.21985 h -0.96943 v 0.0952 h 0.4318 v 1.00965 h 0.10583 v -1.00965 h 0.4318 z"
         style="font-style:normal;font-variant:normal;font-weight:300;font-stretch:normal;font-family:Montserrat;-inkscape-font-specification:'Montserrat Light';text-align:center;text-anchor:middle;stroke-width:0.26458332"
         id="path48760" />
      <path
         d="m 158.05069,131.21139 c -0.19897,0 -0.36618,0.0995 -0.45297,0.26881 v -0.26035 h -0.1016 v 1.51554 h 0.10584 v -0.66252 c 0.0889,0.1651 0.254,0.26035 0.44873,0.26035 0.31115,0 0.5461,-0.2286 0.5461,-0.56092 0,-0.3302 -0.23495,-0.56091 -0.5461,-0.56091 z m -0.006,1.02658 c -0.254,0 -0.4445,-0.18838 -0.4445,-0.46567 0,-0.27728 0.1905,-0.46566 0.4445,-0.46566 0.254,0 0.44662,0.18838 0.44662,0.46566 0,0.27729 -0.19262,0.46567 -0.44662,0.46567 z"
         style="font-style:normal;font-variant:normal;font-weight:300;font-stretch:normal;font-family:Montserrat;-inkscape-font-specification:'Montserrat Light';text-align:center;text-anchor:middle;stroke-width:0.26458332"
         id="path48762" />
      <path
         d="m 159.88498,131.76807 c 0,-0.32808 -0.22437,-0.55668 -0.52705,-0.55668 -0.30268,0 -0.52917,0.23283 -0.52917,0.56091 0,0.32809 0.23495,0.56092 0.56939,0.56092 0.16721,0 0.31961,-0.0614 0.41698,-0.17992 l -0.0614,-0.0699 c -0.0847,0.10372 -0.21379,0.15452 -0.35349,0.15452 -0.26458,0 -0.4572,-0.1778 -0.46778,-0.44027 h 0.95038 c 0,-0.0106 0.002,-0.0212 0.002,-0.0296 z m -0.52705,-0.46355 c 0.23495,0 0.40852,0.17145 0.42333,0.41063 h -0.84666 c 0.0169,-0.2413 0.18838,-0.41063 0.42333,-0.41063 z"
         style="font-style:normal;font-variant:normal;font-weight:300;font-stretch:normal;font-family:Montserrat;-inkscape-font-specification:'Montserrat Light';text-align:center;text-anchor:middle;stroke-width:0.26458332"
         id="path48764" />
      <path
         d="m 160.74302,131.23679 c -0.23071,0 -0.41063,0.12488 -0.48471,0.32808 0.006,-0.41698 0.15875,-0.59055 0.49318,-0.66887 l 0.46567,-0.11006 -0.0169,-0.0995 -0.48895,0.11854 c -0.37253,0.0889 -0.55456,0.30691 -0.55456,0.80856 0,0.43604 0.2032,0.72179 0.5715,0.72179 0.31961,0 0.54398,-0.2286 0.54398,-0.55457 0,-0.32385 -0.21802,-0.54398 -0.52917,-0.54398 z m -0.0127,1.00753 c -0.25611,0 -0.43603,-0.1905 -0.43603,-0.46143 0,-0.27094 0.17992,-0.45085 0.43603,-0.45085 0.25612,0 0.43392,0.17991 0.43392,0.45085 0,0.27093 -0.17992,0.46143 -0.43392,0.46143 z"
         style="font-style:normal;font-variant:normal;font-weight:300;font-stretch:normal;font-family:Montserrat;-inkscape-font-specification:'Montserrat Light';text-align:center;text-anchor:middle;stroke-width:0.26458332"
         id="path48766" />
      <path
         d="m 161.70462,131.21985 -0.019,0.381 c -0.0169,0.31962 -0.0381,0.63924 -0.22648,0.63924 -0.0148,0 -0.0339,-0.004 -0.0508,-0.008 l -0.0106,0.091 c 0.0339,0.008 0.0635,0.0148 0.091,0.0148 0.23072,0 0.27305,-0.34078 0.29422,-0.72813 l 0.0148,-0.29422 h 0.57574 v 1.00965 h 0.10583 v -1.1049 z"
         style="font-style:normal;font-variant:normal;font-weight:300;font-stretch:normal;font-family:Montserrat;-inkscape-font-specification:'Montserrat Light';text-align:center;text-anchor:middle;stroke-width:0.26458332"
         id="path48768" />
      <path
         d="m 163.87853,131.76807 c 0,-0.32808 -0.22436,-0.55668 -0.52705,-0.55668 -0.30268,0 -0.52916,0.23283 -0.52916,0.56091 0,0.32809 0.23495,0.56092 0.56938,0.56092 0.16722,0 0.31962,-0.0614 0.41698,-0.17992 l -0.0614,-0.0699 c -0.0847,0.10372 -0.21378,0.15452 -0.35348,0.15452 -0.26459,0 -0.4572,-0.1778 -0.46779,-0.44027 h 0.95039 c 0,-0.0106 0.002,-0.0212 0.002,-0.0296 z m -0.52705,-0.46355 c 0.23495,0 0.40852,0.17145 0.42334,0.41063 h -0.84667 c 0.0169,-0.2413 0.18838,-0.41063 0.42333,-0.41063 z"
         style="font-style:normal;font-variant:normal;font-weight:300;font-stretch:normal;font-family:Montserrat;-inkscape-font-specification:'Montserrat Light';text-align:center;text-anchor:middle;stroke-width:0.26458332"
         id="path48770" />
      <path
         d="m 164.22434,132.32475 h 0.10584 v -0.508 h 0.7493 v 0.508 h 0.10583 v -1.1049 h -0.10583 v 0.50377 h -0.7493 v -0.50377 h -0.10584 z"
         style="font-style:normal;font-variant:normal;font-weight:300;font-stretch:normal;font-family:Montserrat;-inkscape-font-specification:'Montserrat Light';text-align:center;text-anchor:middle;stroke-width:0.26458332"
         id="path48772" />
      <path
         d="m 165.64235,132.32475 h 0.0931 l 0.7874,-0.94191 v 0.94191 h 0.10583 v -1.1049 h -0.0931 l -0.7874,0.94192 v -0.94192 h -0.10583 z"
         style="font-style:normal;font-variant:normal;font-weight:300;font-stretch:normal;font-family:Montserrat;-inkscape-font-specification:'Montserrat Light';text-align:center;text-anchor:middle;stroke-width:0.26458332"
         id="path48774" />
      <path
         d="m 168.02919,131.76807 c 0,-0.32808 -0.22437,-0.55668 -0.52705,-0.55668 -0.30269,0 -0.52917,0.23283 -0.52917,0.56091 0,0.32809 0.23495,0.56092 0.56938,0.56092 0.16722,0 0.31962,-0.0614 0.41699,-0.17992 l -0.0614,-0.0699 c -0.0847,0.10372 -0.21378,0.15452 -0.35348,0.15452 -0.26458,0 -0.4572,-0.1778 -0.46778,-0.44027 h 0.95038 c 0,-0.0106 0.002,-0.0212 0.002,-0.0296 z m -0.52705,-0.46355 c 0.23495,0 0.40851,0.17145 0.42333,0.41063 h -0.84667 c 0.0169,-0.2413 0.18839,-0.41063 0.42334,-0.41063 z"
         style="font-style:normal;font-variant:normal;font-weight:300;font-stretch:normal;font-family:Montserrat;-inkscape-font-specification:'Montserrat Light';text-align:center;text-anchor:middle;stroke-width:0.26458332"
         id="path48776" />
      <path
         d="m 143.96098,134.97059 h 0.0931 l 0.7874,-0.94192 v 0.94192 h 0.10583 v -1.1049 h -0.0931 l -0.7874,0.94191 v -0.94191 h -0.10584 z"
         style="font-style:normal;font-variant:normal;font-weight:300;font-stretch:normal;font-family:Montserrat;-inkscape-font-specification:'Montserrat Light';text-align:center;text-anchor:middle;stroke-width:0.26458332"
         id="path48778" />
      <path
         d="m 145.94949,133.86569 v 1.1049 h 0.10583 v -1.00965 h 0.75354 v 1.00965 h 0.10583 v -1.1049 z"
         style="font-style:normal;font-variant:normal;font-weight:300;font-stretch:normal;font-family:Montserrat;-inkscape-font-specification:'Montserrat Light';text-align:center;text-anchor:middle;stroke-width:0.26458332"
         id="path48780" />
      <path
         d="m 147.92831,133.85722 c -0.19897,0 -0.36618,0.0995 -0.45297,0.26882 v -0.26035 h -0.1016 v 1.51553 h 0.10584 v -0.66252 c 0.0889,0.1651 0.254,0.26035 0.44873,0.26035 0.31115,0 0.5461,-0.2286 0.5461,-0.56091 0,-0.3302 -0.23495,-0.56092 -0.5461,-0.56092 z m -0.006,1.02658 c -0.254,0 -0.4445,-0.18838 -0.4445,-0.46566 0,-0.27729 0.1905,-0.46567 0.4445,-0.46567 0.254,0 0.44662,0.18838 0.44662,0.46567 0,0.27728 -0.19262,0.46566 -0.44662,0.46566 z"
         style="font-style:normal;font-variant:normal;font-weight:300;font-stretch:normal;font-family:Montserrat;-inkscape-font-specification:'Montserrat Light';text-align:center;text-anchor:middle;stroke-width:0.26458332"
         id="path48782" />
      <path
         d="m 149.25883,134.97905 c 0.3175,0 0.55245,-0.23283 0.55245,-0.56091 0,-0.32809 -0.23495,-0.56092 -0.55245,-0.56092 -0.3175,0 -0.55245,0.23283 -0.55245,0.56092 0,0.32808 0.23495,0.56091 0.55245,0.56091 z m 0,-0.0952 c -0.254,0 -0.4445,-0.18838 -0.4445,-0.46566 0,-0.27729 0.1905,-0.46567 0.4445,-0.46567 0.254,0 0.4445,0.18838 0.4445,0.46567 0,0.27728 -0.1905,0.46566 -0.4445,0.46566 z"
         style="font-style:normal;font-variant:normal;font-weight:300;font-stretch:normal;font-family:Montserrat;-inkscape-font-specification:'Montserrat Light';text-align:center;text-anchor:middle;stroke-width:0.26458332"
         id="path48784" />
      <path
         d="m 150.15802,134.97059 h 0.0931 l 0.7874,-0.94192 v 0.94192 h 0.10584 v -1.1049 h -0.0931 l -0.7874,0.94191 v -0.94191 h -0.10583 z"
         style="font-style:normal;font-variant:normal;font-weight:300;font-stretch:normal;font-family:Montserrat;-inkscape-font-specification:'Montserrat Light';text-align:center;text-anchor:middle;stroke-width:0.26458332"
         id="path48786" />
      <path
         d="m 152.06084,134.39485 c 0.13335,-0.0381 0.22436,-0.12911 0.22436,-0.24765 0,-0.18626 -0.19261,-0.29421 -0.42968,-0.29421 -0.12912,0 -0.2667,0.0317 -0.39582,0.10371 l 0.0317,0.0847 c 0.1143,-0.0656 0.23919,-0.0952 0.35137,-0.0952 0.18415,0 0.33443,0.072 0.33443,0.2159 0,0.12065 -0.13123,0.19473 -0.3048,0.19473 h -0.17356 v 0.0804 h 0.1778 c 0.2032,0 0.33231,0.0783 0.33231,0.20955 0,0.1524 -0.17145,0.24341 -0.37253,0.24341 -0.13547,0 -0.28363,-0.0423 -0.38523,-0.13123 l -0.0423,0.0783 c 0.11642,0.0974 0.27729,0.14393 0.42969,0.14393 0.25823,0 0.47836,-0.12488 0.47836,-0.32597 0,-0.13335 -0.0931,-0.2286 -0.25611,-0.26035 z"
         style="font-style:normal;font-variant:normal;font-weight:300;font-stretch:normal;font-family:Montserrat;-inkscape-font-specification:'Montserrat Light';text-align:center;text-anchor:middle;stroke-width:0.26458332"
         id="path48788" />
      <path
         d="m 153.33801,134.4012 c 0.127,-0.036 0.20532,-0.12276 0.20532,-0.254 0,-0.18415 -0.15028,-0.28151 -0.3937,-0.28151 h -0.46567 v 1.1049 h 0.47837 c 0.28363,0 0.4191,-0.10584 0.4191,-0.29634 0,-0.15028 -0.0762,-0.24341 -0.24342,-0.27305 z m -0.55033,-0.44873 h 0.3556 c 0.18838,0 0.29422,0.0677 0.29422,0.20743 0,0.13759 -0.10584,0.20955 -0.29422,0.20955 h -0.3556 z m 0.37253,0.93133 h -0.37253 v -0.4318 h 0.38947 c 0.20743,0 0.29845,0.0677 0.29845,0.21802 0,0.14817 -0.11007,0.21378 -0.31539,0.21378 z"
         style="font-style:normal;font-variant:normal;font-weight:300;font-stretch:normal;font-family:Montserrat;-inkscape-font-specification:'Montserrat Light';text-align:center;text-anchor:middle;stroke-width:0.26458332"
         id="path48790" />
      <path
         d="m 154.39754,134.97905 c 0.3175,0 0.55245,-0.23283 0.55245,-0.56091 0,-0.32809 -0.23495,-0.56092 -0.55245,-0.56092 -0.3175,0 -0.55245,0.23283 -0.55245,0.56092 0,0.32808 0.23495,0.56091 0.55245,0.56091 z m 0,-0.0952 c -0.254,0 -0.4445,-0.18838 -0.4445,-0.46566 0,-0.27729 0.1905,-0.46567 0.4445,-0.46567 0.254,0 0.4445,0.18838 0.4445,0.46567 0,0.27728 -0.1905,0.46566 -0.4445,0.46566 z"
         style="font-style:normal;font-variant:normal;font-weight:300;font-stretch:normal;font-family:Montserrat;-inkscape-font-specification:'Montserrat Light';text-align:center;text-anchor:middle;stroke-width:0.26458332"
         id="path48792" />
      <path
         d="m 156.15407,134.87745 v -1.01176 h -0.77681 l -0.0148,0.36406 c -0.0169,0.3175 -0.0444,0.63712 -0.21167,0.6477 h -0.0656 v 0.3683 h 0.1016 v -0.27516 h 1.04563 v 0.27516 h 0.0995 v -0.3683 z m -0.69426,-0.64135 0.0127,-0.27516 h 0.57573 v 0.91651 h -0.74507 c 0.12065,-0.0825 0.14605,-0.37041 0.15664,-0.64135 z"
         style="font-style:normal;font-variant:normal;font-weight:300;font-stretch:normal;font-family:Montserrat;-inkscape-font-specification:'Montserrat Light';text-align:center;text-anchor:middle;stroke-width:0.26458332"
         id="path48794" />
      <path
         d="m 157.09106,134.97905 c 0.17569,0 0.32809,-0.0699 0.4191,-0.2032 l -0.0783,-0.0571 c -0.0804,0.11219 -0.2032,0.1651 -0.34079,0.1651 -0.26035,0 -0.45085,-0.18626 -0.45085,-0.46566 0,-0.2794 0.1905,-0.46567 0.45085,-0.46567 0.13759,0 0.26035,0.0529 0.34079,0.1651 l 0.0783,-0.0572 c -0.091,-0.13547 -0.24341,-0.2032 -0.4191,-0.2032 -0.32385,0 -0.5588,0.23072 -0.5588,0.56092 0,0.32808 0.23495,0.56091 0.5588,0.56091 z"
         style="font-style:normal;font-variant:normal;font-weight:300;font-stretch:normal;font-family:Montserrat;-inkscape-font-specification:'Montserrat Light';text-align:center;text-anchor:middle;stroke-width:0.26458332"
         id="path48796" />
      <path
         d="m 158.53658,133.86569 h -0.96943 v 0.0952 h 0.4318 v 1.00965 h 0.10583 v -1.00965 h 0.4318 z"
         style="font-style:normal;font-variant:normal;font-weight:300;font-stretch:normal;font-family:Montserrat;-inkscape-font-specification:'Montserrat Light';text-align:center;text-anchor:middle;stroke-width:0.26458332"
         id="path48798" />
      <path
         d="m 159.41516,134.4012 c 0.127,-0.036 0.20532,-0.12276 0.20532,-0.254 0,-0.18415 -0.15028,-0.28151 -0.3937,-0.28151 h -0.46567 v 1.1049 h 0.47837 c 0.28363,0 0.4191,-0.10584 0.4191,-0.29634 0,-0.15028 -0.0762,-0.24341 -0.24342,-0.27305 z m -0.55033,-0.44873 h 0.3556 c 0.18838,0 0.29422,0.0677 0.29422,0.20743 0,0.13759 -0.10584,0.20955 -0.29422,0.20955 h -0.3556 z m 0.37253,0.93133 h -0.37253 v -0.4318 h 0.38947 c 0.20743,0 0.29845,0.0677 0.29845,0.21802 0,0.14817 -0.11007,0.21378 -0.31539,0.21378 z"
         style="font-style:normal;font-variant:normal;font-weight:300;font-stretch:normal;font-family:Montserrat;-inkscape-font-specification:'Montserrat Light';text-align:center;text-anchor:middle;stroke-width:0.26458332"
         id="path48800" />
      <path
         d="m 160.47469,134.97905 c 0.3175,0 0.55245,-0.23283 0.55245,-0.56091 0,-0.32809 -0.23495,-0.56092 -0.55245,-0.56092 -0.3175,0 -0.55245,0.23283 -0.55245,0.56092 0,0.32808 0.23495,0.56091 0.55245,0.56091 z m 0,-0.0952 c -0.254,0 -0.4445,-0.18838 -0.4445,-0.46566 0,-0.27729 0.1905,-0.46567 0.4445,-0.46567 0.254,0 0.4445,0.18838 0.4445,0.46567 0,0.27728 -0.1905,0.46566 -0.4445,0.46566 z"
         style="font-style:normal;font-variant:normal;font-weight:300;font-stretch:normal;font-family:Montserrat;-inkscape-font-specification:'Montserrat Light';text-align:center;text-anchor:middle;stroke-width:0.26458332"
         id="path48802" />
    </g>
    <text
       xml:space="preserve"
       style="font-style:normal;font-variant:normal;font-weight:normal;font-stretch:normal;font-size:7.05555534px;line-height:1.25;font-family:Montserrat;-inkscape-font-specification:Montserrat;letter-spacing:0px;word-spacing:0px;fill:#000000;fill-opacity:1;stroke:none;stroke-width:0.26458332"
       x="141.00169"
       y="139.77853"
       id="text48570"><tspan
         sodipodi:role="line"
         id="tspan48568"
         x="141.00169"
         y="146.26324"
         style="stroke-width:0.26458332" /></text>
  </g>
</svg>
