<?xml version="1.0" encoding="UTF-8" standalone="no"?>
<!-- Created with Inkscape (http://www.inkscape.org/) -->

<svg
   xmlns:dc="http://purl.org/dc/elements/1.1/"
   xmlns:cc="http://creativecommons.org/ns#"
   xmlns:rdf="http://www.w3.org/1999/02/22-rdf-syntax-ns#"
   xmlns:svg="http://www.w3.org/2000/svg"
   xmlns="http://www.w3.org/2000/svg"
   xmlns:sodipodi="http://sodipodi.sourceforge.net/DTD/sodipodi-0.dtd"
   xmlns:inkscape="http://www.inkscape.org/namespaces/inkscape"
   width="96.774658mm"
   height="43.67997mm"
   viewBox="0 0 96.774659 43.679974"
   version="1.1"
   id="svg40794"
   inkscape:version="0.92.4 (5da689c313, 2019-01-14)"
   sodipodi:docname="emiia104.svg">
  <defs
     id="defs40788">
    <clipPath
       id="clipEmfPath1"
       clipPathUnits="userSpaceOnUse">
      <path
         id="path3250"
         d="M -0.27328498,6.5621088 H 33.993094 V 40.972618 H -0.27328498 Z"
         inkscape:connector-curvature="0" />
    </clipPath>
    <pattern
       y="0"
       x="0"
       height="6"
       width="6"
       patternUnits="userSpaceOnUse"
       id="EMFhbasepattern" />
    <clipPath
       id="clipEmfPath1-6"
       clipPathUnits="userSpaceOnUse">
      <path
         id="path3355"
         d="M -0.27328498,-0.26725306 H 81.694308 V 82.007214 H -0.27328498 Z"
         inkscape:connector-curvature="0" />
    </clipPath>
    <pattern
       y="0"
       x="0"
       height="6"
       width="6"
       patternUnits="userSpaceOnUse"
       id="EMFhbasepattern-5" />
    <clipPath
       id="clipEmfPath1-4"
       clipPathUnits="userSpaceOnUse">
      <path
         id="path3373"
         d="M -1.1335304,-16.486988 H 81.664305 L 100.83536,100.0085 H -16.493019 Z"
         inkscape:connector-curvature="0" />
    </clipPath>
    <pattern
       y="0"
       x="0"
       height="6"
       width="6"
       patternUnits="userSpaceOnUse"
       id="EMFhbasepattern-4" />
  </defs>
  <sodipodi:namedview
     id="base"
     pagecolor="#ffffff"
     bordercolor="#666666"
     borderopacity="1.0"
     inkscape:pageopacity="0.0"
     inkscape:pageshadow="2"
     inkscape:zoom="0.76015625"
     inkscape:cx="-28.18746"
     inkscape:cy="-87.37484"
     inkscape:document-units="mm"
     inkscape:current-layer="layer1"
     showgrid="false"
     fit-margin-top="0"
     fit-margin-left="0"
     fit-margin-right="0"
     fit-margin-bottom="0"
     inkscape:window-width="1366"
     inkscape:window-height="705"
     inkscape:window-x="-8"
     inkscape:window-y="-8"
     inkscape:window-maximized="1" />
  <metadata
     id="metadata40791">
    <rdf:RDF>
      <cc:Work
         rdf:about="">
        <dc:format>image/svg+xml</dc:format>
        <dc:type
           rdf:resource="http://purl.org/dc/dcmitype/StillImage" />
        <dc:title></dc:title>
      </cc:Work>
    </rdf:RDF>
  </metadata>
  <g
     inkscape:label="Layer 1"
     inkscape:groupmode="layer"
     id="layer1"
     transform="translate(-52.465864,-84.664128)">
    <path
       style="fill:#d4d4d4;fill-opacity:1;stroke:#d4d4d4;stroke-width:0.1665993;stroke-opacity:1"
       inkscape:connector-curvature="0"
       id="path916"
       d="m 65.352106,102.4484 3.686843,-5.319512 c 0.158273,-0.22823 0.31654,-0.351528 0.491468,-0.351528 h 0.94795 c 0.193258,0 0.298217,0.07009 0.298217,0.211584 a 0.54144774,0.54144774 0 0 1 -0.08664,0.22823 l -3.756811,5.354506 3.968392,6.05756 a 0.53811576,0.53811576 0 0 1 0.0883,0.22825 c 0,0.14159 -0.10496,0.21156 -0.29821,0.21156 h -0.949618 c -0.174929,0 -0.333194,-0.10499 -0.473139,-0.33319 l -3.915085,-6.07423"
       class="cls-1" />
    <path
       style="fill:#d4d4d4;fill-opacity:1;stroke:#d4d4d4;stroke-width:0.1665993;stroke-opacity:1"
       inkscape:connector-curvature="0"
       id="path918"
       d="m 64.948936,96.77736 h -0.666394 a 0.3581885,0.3581885 0 0 0 -0.403169,0.351528 v 3.242012 a 0.3581885,0.3581885 0 0 0 0.403169,0.35152 h 0.666394 a 0.3581885,0.3581885 0 0 0 0.40317,-0.35152 v -3.242012 a 0.3581885,0.3581885 0 0 0 -0.40317,-0.351528 z"
       class="cls-2" />
    <path
       style="fill:#d4d4d4;fill-opacity:1;stroke:#d4d4d4;stroke-width:0.1665993;stroke-opacity:1"
       inkscape:connector-curvature="0"
       id="path920"
       d="m 131.91187,102.4484 3.68682,-5.319512 c 0.15828,-0.22823 0.31655,-0.351528 0.49148,-0.351528 h 0.94795 c 0.19326,0 0.29821,0.07009 0.29821,0.211584 a 0.54144774,0.54144774 0 0 1 -0.0867,0.22823 l -3.7568,5.354506 3.9684,6.05756 a 0.53811576,0.53811576 0 0 1 0.0883,0.22825 c 0,0.14159 -0.10499,0.21156 -0.29822,0.21156 h -0.94795 c -0.17493,0 -0.33319,-0.10499 -0.47314,-0.33319 l -3.91507,-6.07423"
       class="cls-2" />
    <path
       style="fill:#d4d4d4;fill-opacity:1;stroke:#d4d4d4;stroke-width:0.1665993;stroke-opacity:1"
       inkscape:connector-curvature="0"
       id="path922"
       d="m 131.50869,96.772364 h -0.66639 a 0.3581885,0.3581885 0 0 0 -0.40318,0.351528 v 11.593628 a 0.3581885,0.3581885 0 0 0 0.40318,0.35153 h 0.66639 a 0.3581885,0.3581885 0 0 0 0.40318,-0.35153 V 97.122224 a 0.3581885,0.3581885 0 0 0 -0.40318,-0.34986 z"
       class="cls-2" />
    <path
       style="fill:#d4d4d4;fill-opacity:1;stroke:#d4d4d4;stroke-width:0.1665993;stroke-opacity:1"
       inkscape:connector-curvature="0"
       id="path924"
       d="m 126.56236,96.77736 h -0.6664 a 0.3581885,0.3581885 0 0 0 -0.40317,0.351528 V 99.2447 a 0.3581885,0.3581885 0 0 0 0.40317,0.351528 h 0.6664 a 0.3581885,0.3581885 0 0 0 0.40317,-0.351528 v -2.115812 a 0.3581885,0.3581885 0 0 0 -0.40317,-0.351528 z"
       class="cls-2" />
    <path
       style="fill:#d4d4d4;fill-opacity:1;stroke:#d4d4d4;stroke-width:0.1665993;stroke-opacity:1"
       inkscape:connector-curvature="0"
       id="path926"
       d="m 126.56236,101.22724 h -0.6664 a 0.3581885,0.3581885 0 0 0 -0.40317,0.35151 v 7.13877 a 0.3581885,0.3581885 0 0 0 0.40317,0.35153 h 0.6664 a 0.3581885,0.3581885 0 0 0 0.40317,-0.35153 v -7.13877 a 0.3581885,0.3581885 0 0 0 -0.40317,-0.35151 z"
       class="cls-2" />
    <path
       style="fill:#d4d4d4;fill-opacity:1;stroke:#d4d4d4;stroke-width:0.1665993;stroke-opacity:1"
       inkscape:connector-curvature="0"
       id="path928"
       d="m 146.77085,105.12398 h -0.66641 a 0.3581885,0.3581885 0 0 0 -0.40315,0.35153 v 3.24201 a 0.3581885,0.3581885 0 0 0 0.40315,0.35153 h 0.66641 a 0.3581885,0.3581885 0 0 0 0.40317,-0.35153 v -3.23869 a 0.3581885,0.3581885 0 0 0 -0.40317,-0.35485 z"
       class="cls-2" />
    <path
       style="fill:#d4d4d4;fill-opacity:1;stroke:#d4d4d4;stroke-width:0.1665993;stroke-opacity:1"
       inkscape:connector-curvature="0"
       id="path930"
       d="m 89.329077,96.815678 h -0.666395 a 0.3581885,0.3581885 0 0 0 -0.40317,0.351528 v 2.78054 a 0.3581885,0.3581885 0 0 0 0.40317,0.351524 h 0.666395 a 0.3581885,0.3581885 0 0 0 0.403169,-0.351524 v -2.787215 a 0.3581885,0.3581885 0 0 0 -0.403169,-0.344853 z"
       class="cls-2" />
    <path
       style="fill:#d4d4d4;fill-opacity:1;stroke:#d4d4d4;stroke-width:0.1665993;stroke-opacity:1"
       inkscape:connector-curvature="0"
       id="path932"
       d="m 84.331098,101.93693 v -4.776399 a 0.35652251,0.35652251 0 0 0 -0.40317,-0.351517 h -0.666395 a 0.3581885,0.3581885 0 0 0 -0.403169,0.351517 v 11.588649 a 0.3581885,0.3581885 0 0 0 0.403169,0.35152 h 0.666395 a 0.35652251,0.35652251 0 0 0 0.40317,-0.35152 v -5.43614 h 3.926745 v 5.44281 a 0.3581885,0.3581885 0 0 0 0.40317,0.35153 h 0.666402 a 0.3581885,0.3581885 0 0 0 0.403168,-0.35153 v -6.81892 z"
       class="cls-2" />
    <path
       style="fill:#d4d4d4;fill-opacity:1;stroke:#d4d4d4;stroke-width:0.1665993;stroke-opacity:1"
       inkscape:connector-curvature="0"
       id="path934"
       d="m 115.10366,96.815678 h -0.66638 a 0.3581885,0.3581885 0 0 0 -0.4032,0.351528 v 3.242014 0 8.34496 a 0.35652251,0.35652251 0 0 0 0.4032,0.35153 h 0.66638 a 0.35652251,0.35652251 0 0 0 0.40317,-0.35153 v -8.34994 0 -3.243709 a 0.3581885,0.3581885 0 0 0 -0.40317,-0.344853 z"
       class="cls-2" />
    <path
       style="fill:#d4d4d4;fill-opacity:1;stroke:#d4d4d4;stroke-width:0.1665993;stroke-opacity:1"
       inkscape:connector-curvature="0"
       id="path936"
       d="m 115.11365,96.815678 h -0.94794 c -0.17494,0 -0.33321,0.123288 -0.49148,0.351528 l -0.37152,0.536444 v 0 0 l -0.90128,1.289479 -2.85719,4.073351 a 0.54144774,0.54144774 0 0 0 -0.0867,0.22825 c 0,0.13994 0.105,0.21157 0.29822,0.21157 h 0.94794 c 0.17492,0 0.33319,-0.12328 0.49147,-0.35153 l 1.43441,-2.06915 v 0 l 2.69059,-3.831786 a 0.54144774,0.54144774 0 0 0 0.0867,-0.22824 c 0.004,-0.14494 -0.0999,-0.209916 -0.29321,-0.209916 z"
       class="cls-2" />
    <path
       style="fill:#d4d4d4;fill-opacity:1;stroke:#d4d4d4;stroke-width:0.1665993;stroke-opacity:1"
       inkscape:connector-curvature="0"
       id="path938"
       d="m 126.86557,101.4388 c 0,-0.13994 -0.10499,-0.21156 -0.29822,-0.21156 h -0.94794 c -0.17494,0 -0.33322,0.12327 -0.49149,0.35151 l -0.37151,0.53645 v 0 0 l -0.79134,1.1412 v 0 0 l -0.0999,0.14495 -2.86551,4.07669 c -0.0104,0.0167 -0.015,0.0316 -0.0249,0.0482 l -0.56979,0.81134 0.12496,0.69971 0.833,0.0249 c 0.17493,0 0.3332,-0.12329 0.49148,-0.35152 l 1.43608,-2.06583 v 0 l 2.69057,-3.83179 c 0.0104,-0.0167 0.015,-0.0316 0.0249,-0.0482 l 0.7697,-1.09788 a 0.54144774,0.54144774 0 0 0 0.0899,-0.22825 z"
       class="cls-1" />
    <path
       style="fill:#d4d4d4;fill-opacity:1;stroke:#d4d4d4;stroke-width:0.1665993;stroke-opacity:1"
       inkscape:connector-curvature="0"
       id="path940"
       d="m 105.30928,96.815678 h 0.94795 c 0.17494,0 0.3332,0.118292 0.49148,0.344853 l 0.37151,0.536465 v 0 0 l 0.89463,1.291148 2.85719,4.073336 a 0.54144774,0.54144774 0 0 1 0.0867,0.22824 c 0,0.13995 -0.10499,0.21158 -0.29821,0.21158 h -0.94796 c -0.17492,0 -0.33319,-0.12327 -0.49147,-0.35151 l -1.4344,-2.06916 v 0 l -2.69059,-3.831781 a 0.54144774,0.54144774 0 0 1 -0.0867,-0.228251 c 0.003,-0.139944 0.10826,-0.20492 0.29987,-0.20492 z"
       class="cls-1" />
    <path
       style="fill:#d4d4d4;fill-opacity:1;stroke:#d4d4d4;stroke-width:0.1665993;stroke-opacity:1"
       inkscape:connector-curvature="0"
       id="path942"
       d="M 106.22392,96.815678 H 103.53 a 0.3581885,0.3581885 0 0 0 -0.35152,0.403165 v 0.666407 a 0.3581885,0.3581885 0 0 0 0.35152,0.403164 h 1.621 v 2.119146 0 8.34495 a 0.35652251,0.35652251 0 0 0 0.40319,0.35153 h 0.6664 a 0.35652251,0.35652251 0 0 0 0.40316,-0.35153 v -8.34827 0 -3.243709 a 0.3581885,0.3581885 0 0 0 -0.39983,-0.344853 z"
       class="cls-3" />
    <path
       style="fill:#d4d4d4;fill-opacity:1;stroke:#d4d4d4;stroke-width:0.1665993;stroke-opacity:1"
       inkscape:connector-curvature="0"
       id="path944"
       d="m 121.14122,96.77736 h -2.69225 a 0.3581885,0.3581885 0 0 0 -0.35151,0.403175 v 0.666386 a 0.3581885,0.3581885 0 0 0 0.35151,0.403175 h 1.61602 v 2.119154 0 8.34495 a 0.35652251,0.35652251 0 0 0 0.40317,0.35151 h 0.66639 a 0.35652251,0.35652251 0 0 0 0.40318,-0.35151 v -8.34163 0 -3.243682 a 0.3581885,0.3581885 0 0 0 -0.39651,-0.351528 z"
       class="cls-3" />
    <path
       style="fill:#d4d4d4;fill-opacity:1;stroke:#d4d4d4;stroke-width:0.1665993;stroke-opacity:1"
       inkscape:connector-curvature="0"
       id="path946"
       d="m 79.819592,105.83704 a 3.0970811,3.0970811 0 0 1 -0.966274,2.26573 c -0.631417,0.64974 -1.474409,0.96628 -2.510658,0.96628 -1.071232,0 -1.914223,-0.31654 -2.545634,-0.96628 a 3.1887107,3.1887107 0 0 1 -0.946283,-2.29072 v -5.74768 a 3.1470608,3.1470608 0 0 1 0.947951,-2.249092 c 0.631412,-0.64973 1.474402,-0.966277 2.545635,-0.966277 1.03625,0 1.879241,0.333193 2.510651,0.982943 a 3.0587634,3.0587634 0 0 1 0.966273,2.247426 z m -1.499394,-5.78099 c 0,-0.982947 -0.771355,-1.832601 -1.984199,-1.832601 -1.24616,0 -1.999193,0.842989 -1.999193,1.832601 v 5.78099 c 0,0.99959 0.754694,1.84259 1.999193,1.84259 1.211177,0 1.984199,-0.843 1.984199,-1.83259 z"
       class="cls-3" />
    <path
       style="fill:#d4d4d4;fill-opacity:1;stroke:#d4d4d4;stroke-width:0.1665993;stroke-opacity:1"
       inkscape:connector-curvature="0"
       id="path948"
       d="m 100.53454,105.83704 a 3.0970811,3.0970811 0 0 1 -0.966268,2.26573 c -0.63142,0.64974 -1.474403,0.96628 -2.510655,0.96628 -1.071224,0 -1.91422,-0.31654 -2.545638,-0.96628 a 3.1887107,3.1887107 0 0 1 -0.947948,-2.2824 v -5.74768 a 3.1470608,3.1470608 0 0 1 0.947948,-2.257412 c 0.631418,-0.64973 1.474414,-0.966277 2.545638,-0.966277 1.036252,0 1.879235,0.333193 2.510655,0.982943 a 3.0587634,3.0587634 0 0 1 0.966268,2.247426 z m -1.499388,-5.78099 c 0,-0.982947 -0.771346,-1.832601 -1.984188,-1.832601 -1.246167,0 -1.999203,0.842989 -1.999203,1.832601 v 5.78099 c 0,0.99959 0.754702,1.84259 1.999203,1.84259 1.211175,0 1.984188,-0.843 1.984188,-1.83259 z"
       class="cls-3" />
    <path
       style="fill:#d4d4d4;fill-opacity:1;stroke:#d4d4d4;stroke-width:0.1665993;stroke-opacity:1"
       inkscape:connector-curvature="0"
       id="path950"
       d="m 146.22108,97.72865 a 3.2303605,3.2303605 0 0 0 -2.38736,-0.947952 h -0.14495 -0.17493 c -0.96962,0 -1.75263,0.321543 -2.34405,0.966266 a 3.4752614,3.4752614 0 0 0 -0.72971,1.104563 v 0 a 2.2524226,2.2524226 0 0 0 -0.1666,0.832998 c 0,0 0,0 0,0 v 0 9.032995 a 0.3581885,0.3581885 0 0 0 0.40316,0.35153 h 0.66641 a 0.3581885,0.3581885 0 0 0 0.40317,-0.35153 v -9.032995 0 c 0,0 0,0 0,0 a 1.5410435,1.5410435 0 0 1 0.37484,-0.832998 v 0 a 2.4989895,2.4989895 0 0 1 0.16661,-0.191591 1.689317,1.689317 0 0 1 1.22784,-0.499784 h 0.16659 0.15327 a 1.7959405,1.7959405 0 0 1 1.84259,1.832576 v 2.089162 h -2.68225 a 0.31320669,0.31320669 0 0 0 -0.31654,0.31651 v 0.73639 a 0.31487268,0.31487268 0 0 0 0.31654,0.31654 h 4.17831 v -3.44028 a 3.0737571,3.0737571 0 0 0 -0.95294,-2.2824 z"
       class="cls-2" />
    <path
       style="fill:#d4d4d4;fill-opacity:1;stroke:#d4d4d4;stroke-width:0.1665993;stroke-opacity:1"
       inkscape:connector-curvature="0"
       id="path952"
       d="m 61.275423,103.51296 v -3.44027 a 3.0737571,3.0737571 0 0 0 -0.947949,-2.282401 3.2303605,3.2303605 0 0 0 -2.387369,-0.947942 h -0.144943 -0.174927 c -0.969612,0 -1.752628,0.321532 -2.344055,0.966277 a 3.4752614,3.4752614 0 0 0 -0.729702,1.104541 v 0 a 2.2524226,2.2524226 0 0 0 -0.166603,0.832998 0.3581885,0.3581885 0 0 0 0.403175,0.351517 h 0.666396 a 0.35652251,0.35652251 0 0 0 0.403169,-0.351517 1.5427096,1.5427096 0 0 1 0.374847,-0.832998 v 0 a 2.4989895,2.4989895 0 0 1 0.166603,-0.19158 1.689317,1.689317 0 0 1 1.227838,-0.499805 h 0.166597 0.153273 a 1.7959405,1.7959405 0 0 1 1.842588,1.83259 v 2.09248 h -2.693915 a 0.31320669,0.31320669 0 0 0 -0.316534,0.31655 v 0.73636 a 0.31487268,0.31487268 0 0 0 0.316534,0.31653 h 2.692246 v 0 h 1.499393 z"
       class="cls-2" />
    <path
       style="fill:#d4d4d4;fill-opacity:1;stroke:#d4d4d4;stroke-width:0.1665993;stroke-opacity:1"
       inkscape:connector-curvature="0"
       id="path954"
       d="m 61.275423,106.09859 a 0.35652251,0.35652251 0 0 0 -0.403169,-0.35152 h -0.6664 a 0.35652251,0.35652251 0 0 0 -0.403171,0.35152 1.5393775,1.5393775 0 0 1 -0.374845,0.83299 v 0 a 2.4856617,2.4856617 0 0 1 -0.166598,0.19159 1.6859849,1.6859849 0 0 1 -1.222844,0.49146 h -0.40317 a 1.6859849,1.6859849 0 0 1 -1.226169,-0.49146 2.4856617,2.4856617 0 0 1 -0.166597,-0.19159 v 0 a 1.5393775,1.5393775 0 0 1 -0.374853,-0.83299 0.35652251,0.35652251 0 0 0 -0.403169,-0.35152 h -0.666395 a 0.35652251,0.35652251 0 0 0 -0.403169,0.35152 2.2474247,2.2474247 0 0 0 0.166597,0.83299 v 0 a 3.4702635,3.4702635 0 0 0 0.729701,1.10288 c 0.589766,0.6431 1.371119,0.95795 2.332393,0.96462 h 0.416499 c 0.967942,0 1.74929,-0.32152 2.332393,-0.96462 a 3.4702635,3.4702635 0 0 0 0.7297,-1.10288 v 0 a 2.2474247,2.2474247 0 0 0 0.173266,-0.83299 z"
       class="cls-2" />
    <path
       style="fill:#d4d4d4;fill-opacity:1;stroke:#d4d4d4;stroke-width:0.1665993;stroke-opacity:1"
       inkscape:connector-curvature="0"
       id="path956"
       d="m 56.911423,116.4809 a 0.40317033,0.40317033 0 0 1 -0.30987,-0.095 0.45315012,0.45315012 0 0 1 -0.08496,-0.30487 v -4.11834 a 0.45481609,0.45481609 0 0 1 0.08496,-0.30155 0.39317436,0.39317436 0 0 1 0.30987,-0.0983 h 1.299476 a 2.4756655,2.4756655 0 0 1 0.991266,0.18325 1.8675782,1.8675782 0 0 1 0.694718,0.49981 2.1074812,2.1074812 0 0 1 0.408169,0.76967 3.4152858,3.4152858 0 0 1 0.133281,0.97962 3.8800977,3.8800977 0 0 1 -0.119951,0.98293 2.1657909,2.1657909 0 0 1 -0.379848,0.78967 1.8092683,1.8092683 0 0 1 -0.666395,0.52647 2.3040684,2.3040684 0 0 1 -0.987934,0.19324 z m 2.642266,-2.48399 a 3.103745,3.103745 0 0 0 -0.06663,-0.66641 1.4444159,1.4444159 0 0 0 -0.228243,-0.53311 1.0978894,1.0978894 0 0 0 -0.436491,-0.3582 1.5876915,1.5876915 0 0 0 -0.681388,-0.12994 h -0.758029 v 3.40529 h 0.779685 a 1.5410435,1.5410435 0 0 0 0.666401,-0.12995 1.0795635,1.0795635 0 0 0 0.424823,-0.35819 1.4794018,1.4794018 0 0 0 0.22491,-0.53978 3.2753423,3.2753423 0 0 0 0.07497,-0.68306 z"
       class="cls-2" />
    <path
       style="fill:#d4d4d4;fill-opacity:1;stroke:#d4d4d4;stroke-width:0.1665993;stroke-opacity:1"
       inkscape:connector-curvature="0"
       id="path958"
       d="m 64.28178,116.08771 a 0.23323904,0.23323904 0 0 1 -0.133281,0.23159 2.2224347,2.2224347 0 0 1 -0.333201,0.11994 3.0987471,3.0987471 0 0 1 -0.368179,0.0767 q -0.189926,0.0283 -0.376514,0.0384 -0.186597,0.0104 -0.354864,0.0104 a 2.6389329,2.6389329 0 0 1 -0.769684,-0.095 1.3111365,1.3111365 0 0 1 -0.484806,-0.25322 0.83299651,0.83299651 0 0 1 -0.249895,-0.37152 1.4444159,1.4444159 0 0 1 -0.06997,-0.45315 1.411096,1.411096 0 0 1 0.08163,-0.47482 0.99959586,0.99959586 0 0 1 0.263226,-0.39982 1.3511203,1.3511203 0 0 1 0.474807,-0.27823 2.1108132,2.1108132 0 0 1 0.713046,-0.10499 h 0.786346 v -0.11996 a 1.0229198,1.0229198 0 0 0 -0.02834,-0.24656 0.4331582,0.4331582 0 0 0 -0.108295,-0.19659 0.52478781,0.52478781 0 0 0 -0.221574,-0.12994 1.209511,1.209511 0 0 0 -0.364854,-0.045 3.5152453,3.5152453 0 0 0 -0.519789,0.0417 3.0087834,3.0087834 0 0 0 -0.456483,0.0984 0.19158919,0.19158919 0 0 1 -0.111617,0 c -0.0233,-0.0104 -0.03999,-0.0349 -0.0483,-0.0767 l -0.09829,-0.39985 q -0.02834,-0.11164 0.06331,-0.14827 a 2.8421842,2.8421842 0 0 1 0.646404,-0.15825 5.1395885,5.1395885 0 0 1 0.666401,-0.045 q 0.731369,0 1.071232,0.32319 a 1.2361668,1.2361668 0 0 1 0.333194,0.94128 z m -0.832999,-1.33278 h -0.666396 a 2.5223136,2.5223136 0 0 0 -0.256563,0.0132 0.72637295,0.72637295 0 0 0 -0.259896,0.0768 0.54311373,0.54311373 0 0 0 -0.203249,0.18325 0.58309757,0.58309757 0 0 0 -0.07996,0.3332 0.44815213,0.44815213 0 0 0 0.203248,0.4215 1.0645696,1.0645696 0 0 0 0.54145,0.11995 h 0.136606 a 1.8325924,1.8325924 0 0 0 0.186597,-0.0182 q 0.09829,-0.0132 0.206581,-0.0349 a 1.177857,1.177857 0 0 0 0.199919,-0.0567 z"
       class="cls-2" />
    <path
       style="fill:#d4d4d4;fill-opacity:1;stroke:#d4d4d4;stroke-width:0.1665993;stroke-opacity:1"
       inkscape:connector-curvature="0"
       id="path960"
       d="m 67.432173,116.39926 c 0,0.0216 -0.025,0.0416 -0.06665,0.06 a 1.92089,1.92089 0 0 1 -0.478143,0.0917 q -0.238235,0.0132 -0.373186,0.0132 -0.576427,0 -0.814669,-0.24656 a 1.0412457,1.0412457 0 0 1 -0.238234,-0.75137 v -2.14245 h -0.499798 c -0.05164,0 -0.0833,-0.0104 -0.09495,-0.0317 a 0.17992724,0.17992724 0 0 1 -0.01832,-0.0883 v -0.28822 a 0.15493734,0.15493734 0 0 1 0.02166,-0.0917 0.15160537,0.15160537 0 0 1 0.09162,-0.0416 l 0.534782,-0.11995 0.09162,-0.66641 a 0.18325924,0.18325924 0 0 1 0.04496,-0.10498 0.34985853,0.34985853 0 0 1 0.108294,-0.0567 l 0.408169,-0.13994 a 0.10828955,0.10828955 0 0 1 0.09162,0.0104 0.1182855,0.1182855 0 0 1 0.03501,0.10158 v 0.89297 h 0.751364 q 0.07664,0 0.09495,0.0316 a 0.16659931,0.16659931 0 0 1 0.01833,0.08 v 0.39318 a 0.17992724,0.17992724 0 0 1 -0.01833,0.0917 q -0.01832,0.0284 -0.09495,0.0284 H 66.26596 v 2.03751 a 0.37818042,0.37818042 0 0 0 0.104959,0.30986 0.51312586,0.51312586 0 0 0 0.323202,0.0849 h 0.111617 l 0.143282,-0.0104 0.148267,-0.0167 0.123289,-0.0182 c 0.04666,-0.0104 0.07664,0 0.09162,0 a 0.10495756,0.10495756 0 0 1 0.02834,0.0666 l 0.07664,0.44981 a 0.27822084,0.27822084 0 0 1 0.015,0.0717 z"
       class="cls-2" />
    <path
       style="fill:#d4d4d4;fill-opacity:1;stroke:#d4d4d4;stroke-width:0.1665993;stroke-opacity:1"
       inkscape:connector-curvature="0"
       id="path962"
       d="m 70.955749,116.08771 a 0.23323904,0.23323904 0 0 1 -0.133282,0.23159 2.2224347,2.2224347 0 0 1 -0.333201,0.11994 3.0987471,3.0987471 0 0 1 -0.368184,0.0767 q -0.18992,0.0283 -0.376509,0.0384 -0.186595,0.0104 -0.354862,0.0104 a 2.6389329,2.6389329 0 0 1 -0.769686,-0.095 1.3111365,1.3111365 0 0 1 -0.484806,-0.25322 0.83299651,0.83299651 0 0 1 -0.249894,-0.37152 1.4444159,1.4444159 0 0 1 -0.06997,-0.45315 1.411096,1.411096 0 0 1 0.08164,-0.47482 0.99959586,0.99959586 0 0 1 0.263225,-0.39982 1.3511203,1.3511203 0 0 1 0.474806,-0.27823 2.1108132,2.1108132 0 0 1 0.713048,-0.10499 h 0.786347 v -0.11996 a 1.0229198,1.0229198 0 0 0 -0.02834,-0.24656 0.4331582,0.4331582 0 0 0 -0.108295,-0.19659 0.52478781,0.52478781 0 0 0 -0.221573,-0.12994 1.209511,1.209511 0 0 0 -0.364854,-0.045 3.5152453,3.5152453 0 0 0 -0.519789,0.0417 3.0087834,3.0087834 0 0 0 -0.456483,0.0984 0.19158919,0.19158919 0 0 1 -0.111617,0 c -0.0233,-0.0104 -0.03999,-0.0349 -0.0483,-0.0767 l -0.0983,-0.39985 q -0.02834,-0.11164 0.06331,-0.14827 a 2.8421842,2.8421842 0 0 1 0.646403,-0.15825 5.1395885,5.1395885 0 0 1 0.666395,-0.045 q 0.73137,0 1.071233,0.32319 a 1.2361668,1.2361668 0 0 1 0.333201,0.94128 z m -0.832999,-1.33278 h -0.666394 a 2.5223136,2.5223136 0 0 0 -0.256564,0.0132 0.72637295,0.72637295 0 0 0 -0.259895,0.0768 0.54311373,0.54311373 0 0 0 -0.203251,0.18325 0.58309757,0.58309757 0 0 0 -0.07996,0.3332 0.44815213,0.44815213 0 0 0 0.20325,0.4215 1.0645696,1.0645696 0 0 0 0.541444,0.11995 h 0.136614 a 1.8325924,1.8325924 0 0 0 0.186595,-0.0182 q 0.09829,-0.0132 0.206581,-0.0349 a 1.177857,1.177857 0 0 0 0.199918,-0.0567 z"
       class="cls-2" />
    <path
       style="fill:#d4d4d4;fill-opacity:1;stroke:#d4d4d4;stroke-width:0.1665993;stroke-opacity:1"
       inkscape:connector-curvature="0"
       id="path964"
       d="m 77.278188,116.44591 a 0.13494543,0.13494543 0 0 1 -0.119951,0.0417 h -1.999192 a 1.5243837,1.5243837 0 0 1 -0.611419,-0.10499 0.98293593,0.98293593 0 0 1 -0.583096,-0.68139 1.9275539,1.9275539 0 0 1 -0.05667,-0.47147 v -2.40236 a 1.6793209,1.6793209 0 0 1 0.06665,-0.47481 1.0495756,1.0495756 0 0 1 0.608087,-0.68472 1.4210921,1.4210921 0 0 1 0.576435,-0.105 h 1.960877 c 0.06165,0 0.09996,0.0132 0.116621,0.0384 a 0.23657102,0.23657102 0 0 1 0.025,0.12329 v 0.44315 a 0.21324711,0.21324711 0 0 1 -0.025,0.12329 q -0.025,0.0315 -0.116621,0.0315 h -1.872578 a 0.40983429,0.40983429 0 0 0 -0.4848,0.46314 v 0.73803 h 2.122474 q 0.09162,0 0.116621,0.035 a 0.25156496,0.25156496 0 0 1 0.025,0.13329 v 0.3865 a 0.23490502,0.23490502 0 0 1 -0.025,0.12329 q -0.025,0.0384 -0.116621,0.0384 h -2.122474 v 1.02125 a 0.45814808,0.45814808 0 0 0 0.116615,0.33319 0.49979792,0.49979792 0 0 0 0.368185,0.11496 h 1.910893 q 0.0983,0 0.123289,0.0349 a 0.25822892,0.25822892 0 0 1 0.025,0.13494 v 0.43983 a 0.2182451,0.2182451 0 0 1 -0.02833,0.12661 z"
       class="cls-2" />
    <path
       style="fill:#d4d4d4;fill-opacity:1;stroke:#d4d4d4;stroke-width:0.1665993;stroke-opacity:1"
       inkscape:connector-curvature="0"
       id="path966"
       d="m 79.645565,115.84781 a 1.8459202,1.8459202 0 0 0 0.44982,-0.0566 2.0075217,2.0075217 0 0 0 0.373179,-0.12661 0.15160537,0.15160537 0 0 1 0.108294,-0.0216 0.11661951,0.11661951 0 0 1 0.05333,0.0701 l 0.174934,0.40816 a 0.10995555,0.10995555 0 0 1 -0.04161,0.17495 1.8509182,1.8509182 0 0 1 -0.621418,0.21491 3.9983832,3.9983832 0 0 1 -0.621419,0.0533 q -0.786345,0 -1.204507,-0.47814 -0.418169,-0.47813 -0.418169,-1.41941 a 2.5539673,2.5539673 0 0 1 0.119952,-0.80469 1.7942745,1.7942745 0 0 1 0.333201,-0.61808 1.4810678,1.4810678 0 0 1 0.534782,-0.39318 1.7426288,1.7426288 0 0 1 0.70638,-0.13661 2.5906192,2.5906192 0 0 1 0.55811,0.06 2.0141857,2.0141857 0 0 1 0.509792,0.18659 0.16659931,0.16659931 0 0 1 0.07664,0.0701 0.13994341,0.13994341 0 0 1 -0.02166,0.10499 l -0.174928,0.41484 a 0.14160941,0.14160941 0 0 1 -0.06001,0.0701 0.16659931,0.16659931 0 0 1 -0.116621,-0.0216 3.2620145,3.2620145 0 0 0 -0.351525,-0.10826 1.5926894,1.5926894 0 0 0 -0.386508,-0.0449 0.79301271,0.79301271 0 0 0 -0.411499,0.10158 0.83299651,0.83299651 0 0 0 -0.281556,0.26989 1.181189,1.181189 0 0 0 -0.158266,0.38985 2.1108132,2.1108132 0 0 0 -0.0483,0.45983 2.3773722,2.3773722 0 0 0 0.04161,0.4598 1.0962233,1.0962233 0 0 0 0.143275,0.37651 0.70471506,0.70471506 0 0 0 0.278218,0.25325 0.97127391,0.97127391 0 0 0 0.456484,0.0917 z"
       class="cls-2" />
    <path
       style="fill:#d4d4d4;fill-opacity:1;stroke:#d4d4d4;stroke-width:0.1665993;stroke-opacity:1"
       inkscape:connector-curvature="0"
       id="path968"
       d="m 84.766826,114.62498 q 0,0.93463 -0.431492,1.43608 -0.431491,0.50147 -1.289475,0.4998 -0.84966,0 -1.267822,-0.48814 -0.418161,-0.48813 -0.418161,-1.42441 a 2.4640036,2.4640036 0 0 1 0.126614,-0.82133 1.7426288,1.7426288 0 0 1 0.351523,-0.60478 1.4993937,1.4993937 0 0 1 0.538113,-0.37649 1.7859445,1.7859445 0 0 1 0.691388,-0.12995 q 0.832999,0 1.26782,0.50979 0.434824,0.5098 0.431492,1.39943 z m -0.832992,0.0216 a 2.8571782,2.8571782 0 0 0 -0.03835,-0.4798 1.2694867,1.2694867 0 0 0 -0.133284,-0.39983 0.70804707,0.70804707 0 0 0 -0.259894,-0.27157 0.80467464,0.80467464 0 0 0 -0.418162,-0.0983 0.78634869,0.78634869 0 0 0 -0.393177,0.095 0.84465851,0.84465851 0 0 0 -0.281555,0.25822 1.1245453,1.1245453 0 0 0 -0.166597,0.38817 2.1441331,2.1441331 0 0 0 -0.05333,0.48815 1.8809061,1.8809061 0 0 0 0.189926,0.92129 0.70804707,0.70804707 0 0 0 0.666395,0.33319 0.75136284,0.75136284 0 0 0 0.684726,-0.37484 1.2394989,1.2394989 0 0 0 0.148273,-0.3915 2.3323904,2.3323904 0 0 0 0.04666,-0.46648 z"
       class="cls-2" />
    <path
       style="fill:#d4d4d4;fill-opacity:1;stroke:#d4d4d4;stroke-width:0.1665993;stroke-opacity:1"
       inkscape:connector-curvature="0"
       id="path970"
       d="m 86.91096,113.41713 h -0.221579 a 2.1657909,2.1657909 0 0 0 -0.333194,0.0383 v 2.90883 c 0,0.0516 -0.01001,0.0849 -0.02834,0.0983 a 0.18659123,0.18659123 0 0 1 -0.10496,0.0216 h -0.548111 a 0.18825721,0.18825721 0 0 1 -0.101626,-0.0216 c -0.02166,-0.0134 -0.03166,-0.0466 -0.03166,-0.0983 v -2.99879 a 0.719709,0.719709 0 0 1 0.09163,-0.39318 0.53811576,0.53811576 0 0 1 0.37818,-0.18993 l 0.189918,-0.0216 q 0.118291,-0.0134 0.251572,-0.0216 l 0.259895,-0.0132 q 0.126613,0 0.216573,0 a 2.9104898,2.9104898 0 0 1 0.803015,0.0983 1.3144685,1.3144685 0 0 1 0.561435,0.31322 1.2828148,1.2828148 0 0 1 0.333201,0.55809 2.86051,2.86051 0 0 1 0.10496,0.833 v 1.85427 c 0,0.0516 -0.01001,0.0849 -0.02834,0.0983 a 0.18325924,0.18325924 0 0 1 -0.10496,0.0216 h -0.549781 a 0.18492523,0.18492523 0 0 1 -0.101626,-0.0216 c -0.02166,-0.0132 -0.03167,-0.0466 -0.03167,-0.0983 v -1.88258 a 2.2074409,2.2074409 0 0 0 -0.04496,-0.47815 0.78135072,0.78135072 0 0 0 -0.158268,-0.33319 0.67972516,0.67972516 0 0 0 -0.304878,-0.19991 1.5193856,1.5193856 0 0 0 -0.496468,-0.0717 z"
       class="cls-2" />
    <path
       style="fill:#d4d4d4;fill-opacity:1;stroke:#d4d4d4;stroke-width:0.1665993;stroke-opacity:1"
       inkscape:connector-curvature="0"
       id="path972"
       d="m 92.910207,114.62498 q 0,0.93463 -0.4315,1.43608 -0.431492,0.50147 -1.289475,0.4998 -0.84966,0 -1.267822,-0.48814 -0.418163,-0.48813 -0.418163,-1.42441 a 2.4640036,2.4640036 0 0 1 0.126615,-0.82133 1.7426288,1.7426288 0 0 1 0.351524,-0.60478 1.4993937,1.4993937 0 0 1 0.538114,-0.37649 1.7859445,1.7859445 0 0 1 0.691392,-0.12995 q 0.832991,0 1.267815,0.50979 0.434832,0.5098 0.4315,1.39943 z m -0.833001,0.0216 a 2.8571782,2.8571782 0 0 0 -0.03835,-0.4798 1.2694867,1.2694867 0 0 0 -0.133275,-0.39983 0.70804707,0.70804707 0 0 0 -0.259894,-0.27157 0.80467464,0.80467464 0 0 0 -0.418168,-0.0983 0.78634869,0.78634869 0 0 0 -0.393171,0.095 0.84465851,0.84465851 0 0 0 -0.281555,0.25822 1.1245453,1.1245453 0 0 0 -0.166598,0.38817 2.1441331,2.1441331 0 0 0 -0.05333,0.48815 1.8809061,1.8809061 0 0 0 0.189927,0.92129 0.70804707,0.70804707 0 0 0 0.666395,0.33319 0.75136284,0.75136284 0 0 0 0.684725,-0.37484 1.2394989,1.2394989 0 0 0 0.148274,-0.3915 2.3323904,2.3323904 0 0 0 0.05164,-0.46648 z"
       class="cls-2" />
    <path
       style="fill:#d4d4d4;fill-opacity:1;stroke:#d4d4d4;stroke-width:0.1665993;stroke-opacity:1"
       inkscape:connector-curvature="0"
       id="path974"
       d="m 94.469575,116.46591 a 0.18659123,0.18659123 0 0 1 -0.10496,0.0216 h -0.54811 a 0.18825721,0.18825721 0 0 1 -0.101636,-0.0216 c -0.02169,-0.0133 -0.03169,-0.0466 -0.03169,-0.0983 v -2.98546 a 1.2894785,1.2894785 0 0 1 0.01827,-0.2249 0.44482015,0.44482015 0 0 1 0.06663,-0.1666 0.37651442,0.37651442 0 0 1 0.143273,-0.12328 1.0845614,1.0845614 0 0 1 0.243239,-0.085 l 0.154944,-0.0216 c 0.06996,-0.0104 0.146605,-0.0167 0.228228,-0.0216 l 0.241573,-0.0132 q 0.119952,0 0.20325,0 a 2.7505545,2.7505545 0 0 1 0.731372,0.0849 1.4993937,1.4993937 0 0 1 0.533127,0.26656 2.0908213,2.0908213 0 0 1 0.579759,-0.25656 2.5972833,2.5972833 0 0 1 0.713049,-0.095 1.9642058,1.9642058 0 0 1 0.744698,0.12661 1.2944767,1.2944767 0 0 1 0.499791,0.35153 1.4260899,1.4260899 0 0 1 0.28489,0.54478 2.5456374,2.5456374 0 0 1 0.0917,0.69972 v 1.93254 c 0,0.0516 -0.01,0.085 -0.0316,0.0983 a 0.20658313,0.20658313 0 0 1 -0.10829,0.0216 h -0.541443 a 0.18825721,0.18825721 0 0 1 -0.101636,-0.0216 c -0.02161,-0.0134 -0.0316,-0.0466 -0.0316,-0.0983 v -1.83259 a 1.411096,1.411096 0 0 0 -0.204915,-0.843 q -0.204928,-0.27322 -0.713049,-0.27322 a 2.0891553,2.0891553 0 0 0 -0.409843,0.045 1.3078045,1.3078045 0 0 0 -0.366504,0.12328 1.5560374,1.5560374 0 0 1 0.111617,0.42151 3.9850554,3.9850554 0 0 1 0.02837,0.49978 v 1.86258 c 0,0.0516 -0.01001,0.0849 -0.0316,0.0984 a 0.20325115,0.20325115 0 0 1 -0.108337,0.0214 h -0.543114 a 0.18492523,0.18492523 0 0 1 -0.101625,-0.0216 c -0.01998,-0.0133 -0.0316,-0.0466 -0.0316,-0.0984 v -1.89255 a 2.3123984,2.3123984 0 0 0 -0.03836,-0.44315 0.84632444,0.84632444 0 0 0 -0.139933,-0.33321 0.65640124,0.65640124 0 0 0 -0.288224,-0.21825 1.2694867,1.2694867 0 0 0 -0.481471,-0.0767 h -0.111617 -0.148281 q -0.07663,0 -0.151603,0.0134 l -0.123284,0.0182 v 2.90882 c 0.0047,0.0584 -0.0047,0.0917 -0.02332,0.105 z"
       class="cls-2" />
    <path
       style="fill:#d4d4d4;fill-opacity:1;stroke:#d4d4d4;stroke-width:0.1665993;stroke-opacity:1"
       inkscape:connector-curvature="0"
       id="path976"
       d="m 101.8116,117.08398 a 1.3128026,1.3128026 0 0 1 -0.44649,0.68472 1.2361668,1.2361668 0 0 1 -0.72803,0.19993 q -0.11165,0 -0.27822,-0.0132 a 1.5510395,1.5510395 0 0 1 -0.3332,-0.0717 c -0.0516,-0.0104 -0.0832,-0.0233 -0.095,-0.0433 a 0.12994745,0.12994745 0 0 1 0,-0.0917 l 0.0982,-0.43314 q 0.0133,-0.0701 0.045,-0.0817 a 0.18825721,0.18825721 0 0 1 0.095,0 c 0.08,0.0182 0.1416,0.0315 0.18659,0.0383 a 1.0329157,1.0329157 0 0 0 0.15827,0.0104 0.70638103,0.70638103 0 0 0 0.38984,-0.0932 0.63807536,0.63807536 0 0 0 0.22824,-0.34486 l 0.14827,-0.43983 h -0.1666 a 0.44648613,0.44648613 0 0 1 -0.20658,-0.0417 0.40983429,0.40983429 0 0 1 -0.14494,-0.24656 l -1.054578,-3.22536 q -0.0283,-0.0983 0.0766,-0.0983 h 0.634738 a 0.21991108,0.21991108 0 0 1 0.105,0.0167 0.1182855,0.1182855 0 0 1 0.0416,0.0733 l 0.47814,1.61603 0.36486,1.27114 h 0.0416 l 0.39317,-1.28614 0.51979,-1.59435 a 0.14827339,0.14827339 0 0 1 0.0384,-0.0767 0.16659931,0.16659931 0 0 1 0.10158,-0.0216 h 0.63973 q 0.10498,0 0.0701,0.0917 l -1.40444,4.20165 z"
       class="cls-2" />
    <path
       style="fill:#d4d4d4;fill-opacity:1;stroke:#d4d4d4;stroke-width:0.1665993;stroke-opacity:1"
       inkscape:connector-curvature="0"
       id="path978"
       d="m 110.3513,116.28772 a 0.14327541,0.14327541 0 0 1 0,0.0982 0.08329965,0.08329965 0 0 1 -0.085,0.0501 h -0.62474 a 0.37484844,0.37484844 0 0 1 -0.11164,-0.0183 0.13827742,0.13827742 0 0 1 -0.0849,-0.095 l -0.33322,-1.29949 a 0.87464632,0.87464632 0 0 0 -0.30154,-0.49978 1.0129237,1.0129237 0 0 0 -0.56976,-0.13329 h -0.833 v 1.90423 c 0,0.065 -0.0104,0.10668 -0.0316,0.12328 a 0.23157303,0.23157303 0 0 1 -0.12996,0.0249 h -0.5481 a 0.2149131,0.2149131 0 0 1 -0.11996,-0.0284 0.13494543,0.13494543 0 0 1 -0.0417,-0.11994 v -4.39155 a 0.45648209,0.45648209 0 0 1 0.085,-0.30154 0.39317436,0.39317436 0 0 1 0.30988,-0.0984 h 1.66599 a 1.9075621,1.9075621 0 0 1 0.63974,0.10158 1.3944362,1.3944362 0 0 1 0.49981,0.29155 1.2878126,1.2878126 0 0 1 0.3132,0.44983 1.4777358,1.4777358 0 0 1 0.10825,0.57643 1.2844806,1.2844806 0 0 1 -0.19992,0.71971 1.1328753,1.1328753 0 0 1 -0.52312,0.43981 v 0.0284 a 0.79467869,0.79467869 0 0 1 0.34487,0.29155 1.5527055,1.5527055 0 0 1 0.18992,0.43482 z m -1.08955,-3.32366 a 0.87797835,0.87797835 0 0 0 -0.0316,-0.22491 0.60642146,0.60642146 0 0 0 -0.11663,-0.22492 0.61475143,0.61475143 0 0 0 -0.23156,-0.16659 0.94628402,0.94628402 0 0 0 -0.38649,-0.0665 h -1.08959 v 1.39111 h 1.04126 a 0.83299651,0.83299651 0 0 0 0.62142,-0.20325 0.6980511,0.6980511 0 0 0 0.19324,-0.50314 z"
       class="cls-1" />
    <path
       style="fill:#d4d4d4;fill-opacity:1;stroke:#d4d4d4;stroke-width:0.1665993;stroke-opacity:1"
       inkscape:connector-curvature="0"
       id="path980"
       d="m 112.75366,115.81124 h 0.22159 a 2.1341371,2.1341371 0 0 0 0.33319,-0.0383 v -2.91216 c 0,-0.0516 0.0104,-0.085 0.0283,-0.0983 a 0.18659123,0.18659123 0 0 1 0.10826,-0.0267 h 0.5481 a 0.18825721,0.18825721 0 0 1 0.10159,0.0216 c 0.0216,0.0132 0.0315,0.0466 0.0315,0.0983 v 2.99878 a 0.61808342,0.61808342 0 0 1 -0.11163,0.38984 0.57809959,0.57809959 0 0 1 -0.35819,0.19325 l -0.21158,0.0284 q -0.11995,0.0132 -0.24658,0.0216 l -0.24656,0.0104 h -0.20992 a 2.8638421,2.8638421 0 0 1 -0.80799,-0.0984 1.1845211,1.1845211 0 0 1 -0.53479,-0.3132 1.2894785,1.2894785 0 0 1 -0.29822,-0.55812 3.152059,3.152059 0 0 1 -0.095,-0.833 v -1.83424 c 0,-0.0516 0.0104,-0.085 0.0284,-0.0983 a 0.18659123,0.18659123 0 0 1 0.105,-0.0216 h 0.5481 a 0.18992321,0.18992321 0 0 1 0.10158,0.0216 c 0.0216,0.0132 0.0316,0.0466 0.0316,0.0983 v 1.87423 a 2.8438501,2.8438501 0 0 0 0.0349,0.47814 0.75802686,0.75802686 0 0 0 0.13659,0.3332 0.60975346,0.60975346 0 0 0 0.28489,0.19993 1.4160941,1.4160941 0 0 0 0.47649,0.065 z"
       class="cls-1" />
    <path
       style="fill:#d4d4d4;fill-opacity:1;stroke:#d4d4d4;stroke-width:0.1665993;stroke-opacity:1"
       inkscape:connector-curvature="0"
       id="path982"
       d="m 117.70666,115.40141 a 1.0812295,1.0812295 0 0 1 -0.10499,0.4998 0.95628001,0.95628001 0 0 1 -0.29153,0.34819 1.2928107,1.2928107 0 0 1 -0.43983,0.20325 2.1657909,2.1657909 0 0 1 -0.54978,0.0665 q -0.1666,0 -0.35986,-0.0182 -0.19326,-0.0182 -0.37983,-0.0533 a 2.5972833,2.5972833 0 0 1 -0.36654,-0.095 1.8325924,1.8325924 0 0 1 -0.3232,-0.14329 0.11162153,0.11162153 0 0 1 -0.0482,-0.16659 l 0.16659,-0.39317 a 0.18992321,0.18992321 0 0 1 0.07,-0.08 0.14160941,0.14160941 0 0 1 0.11164,0.0182 2.5872871,2.5872871 0 0 0 0.56144,0.18659 2.6289369,2.6289369 0 0 0 0.54812,0.0665 0.70804707,0.70804707 0 0 0 0.44314,-0.11662 0.37318243,0.37318243 0 0 0 -0.0416,-0.62142 3.2253625,3.2253625 0 0 0 -0.56975,-0.25989 5.1845703,5.1845703 0 0 1 -0.49981,-0.21157 1.4794018,1.4794018 0 0 1 -0.35485,-0.23492 0.90963216,0.90963216 0 0 1 -0.21493,-0.29154 0.88797433,0.88797433 0 0 1 -0.0733,-0.37318 1.0445776,1.0445776 0 0 1 0.085,-0.42483 0.91296419,0.91296419 0 0 1 0.25156,-0.33321 1.2261707,1.2261707 0 0 1 0.41315,-0.22156 1.8325924,1.8325924 0 0 1 0.56978,-0.08 3.348646,3.348646 0 0 1 0.58976,0.0533 2.7872063,2.7872063 0 0 1 0.56977,0.1666 0.11328753,0.11328753 0 0 1 0.0666,0.0701 0.20491714,0.20491714 0 0 1 0,0.0984 l -0.16659,0.39984 q -0.0216,0.0567 -0.0533,0.0634 a 0.16659931,0.16659931 0 0 1 -0.0883,-0.0132 2.883834,2.883834 0 0 0 -0.48147,-0.13328 2.6655888,2.6655888 0 0 0 -0.44649,-0.0349 0.55310969,0.55310969 0 0 0 -0.37985,0.10826 0.32320265,0.32320265 0 0 0 -0.11995,0.24324 0.34486057,0.34486057 0 0 0 0.0384,0.16659 0.39817233,0.39817233 0 0 0 0.12328,0.12995 1.4127621,1.4127621 0 0 0 0.22157,0.12329 q 0.13661,0.0634 0.33319,0.13328 0.22491,0.0849 0.43983,0.17993 a 1.687651,1.687651 0 0 1 0.37985,0.22824 1.0828955,1.0828955 0 0 1 0.26656,0.31654 0.89797023,0.89797023 0 0 1 0.10499,0.42982 z"
       class="cls-1" />
    <path
       style="fill:#d4d4d4;fill-opacity:1;stroke:#d4d4d4;stroke-width:0.1665993;stroke-opacity:1"
       inkscape:connector-curvature="0"
       id="path984"
       d="m 121.09362,115.40141 a 1.0812295,1.0812295 0 0 1 -0.10499,0.4998 0.95628001,0.95628001 0 0 1 -0.29154,0.34819 1.2928107,1.2928107 0 0 1 -0.43983,0.20325 2.1657909,2.1657909 0 0 1 -0.54977,0.0665 q -0.1666,0 -0.35985,-0.0182 -0.19326,-0.0182 -0.37987,-0.0533 a 2.5972833,2.5972833 0 0 1 -0.3665,-0.095 1.8325924,1.8325924 0 0 1 -0.3232,-0.14329 0.11162153,0.11162153 0 0 1 -0.0482,-0.16659 l 0.16659,-0.39317 a 0.18992321,0.18992321 0 0 1 0.07,-0.08 0.14160941,0.14160941 0 0 1 0.11164,0.0182 2.5872871,2.5872871 0 0 0 0.56145,0.18659 2.6289369,2.6289369 0 0 0 0.5481,0.0665 0.70804707,0.70804707 0 0 0 0.44316,-0.11662 0.37318243,0.37318243 0 0 0 -0.0416,-0.62142 3.2253625,3.2253625 0 0 0 -0.56975,-0.25989 5.1845703,5.1845703 0 0 1 -0.49981,-0.21157 1.4794018,1.4794018 0 0 1 -0.35485,-0.23492 0.90963216,0.90963216 0 0 1 -0.21492,-0.29154 0.88797433,0.88797433 0 0 1 -0.0733,-0.37318 1.0445776,1.0445776 0 0 1 0.085,-0.42483 0.91296419,0.91296419 0 0 1 0.25156,-0.33321 1.2261707,1.2261707 0 0 1 0.41318,-0.22156 1.8325924,1.8325924 0 0 1 0.56977,-0.08 3.348646,3.348646 0 0 1 0.58976,0.0533 2.7872063,2.7872063 0 0 1 0.56977,0.1666 0.11328753,0.11328753 0 0 1 0.0665,0.0701 0.20491714,0.20491714 0 0 1 0,0.0984 l -0.1666,0.39984 q -0.0216,0.0567 -0.0533,0.0634 a 0.16659931,0.16659931 0 0 1 -0.0883,-0.0132 2.883834,2.883834 0 0 0 -0.48146,-0.13328 2.6655888,2.6655888 0 0 0 -0.4465,-0.0349 0.55310969,0.55310969 0 0 0 -0.37984,0.10826 0.32320265,0.32320265 0 0 0 -0.11995,0.24324 0.34486057,0.34486057 0 0 0 0.0384,0.16659 0.39817233,0.39817233 0 0 0 0.12326,0.12995 1.4127621,1.4127621 0 0 0 0.22159,0.12329 q 0.13661,0.0634 0.33318,0.13328 0.22492,0.0849 0.43983,0.17993 a 1.687651,1.687651 0 0 1 0.37985,0.22824 1.0828955,1.0828955 0 0 1 0.26656,0.31654 0.89797023,0.89797023 0 0 1 0.10499,0.42982 z"
       class="cls-1" />
    <path
       style="fill:#d4d4d4;fill-opacity:1;stroke:#d4d4d4;stroke-width:0.1665993;stroke-opacity:1"
       inkscape:connector-curvature="0"
       id="path986"
       d="m 122.87124,111.78454 a 0.49979792,0.49979792 0 1 1 -0.14662,-0.35819 0.48813596,0.48813596 0 0 1 0.14662,0.35819 z m -0.10499,4.5315 c 0,0.0516 -0.0104,0.0851 -0.0316,0.0983 a 0.20658313,0.20658313 0 0 1 -0.10825,0.0216 h -0.54145 a 0.18825721,0.18825721 0 0 1 -0.10159,-0.0216 c -0.0216,-0.0132 -0.0315,-0.0466 -0.0315,-0.0983 v -3.4486 c 0,-0.0516 0.0104,-0.0851 0.0315,-0.0983 a 0.18825721,0.18825721 0 0 1 0.10159,-0.0216 h 0.54145 a 0.20658313,0.20658313 0 0 1 0.10825,0.0216 c 0.0216,0.0132 0.0316,0.0466 0.0316,0.0983 z"
       class="cls-1" />
    <path
       style="fill:#d4d4d4;fill-opacity:1;stroke:#d4d4d4;stroke-width:0.1665993;stroke-opacity:1"
       inkscape:connector-curvature="0"
       id="path988"
       d="m 126.81964,116.03616 a 0.23323904,0.23323904 0 0 1 -0.13328,0.23156 2.2224347,2.2224347 0 0 1 -0.33319,0.11995 3.0987471,3.0987471 0 0 1 -0.3682,0.0768 q -0.18993,0.0283 -0.3765,0.0384 -0.18661,0.0104 -0.35487,0.0104 a 2.6389329,2.6389329 0 0 1 -0.76968,-0.095 1.3111365,1.3111365 0 0 1 -0.48481,-0.25324 0.83299651,0.83299651 0 0 1 -0.2499,-0.3715 1.4444159,1.4444159 0 0 1 -0.07,-0.45315 1.411096,1.411096 0 0 1 0.0817,-0.47481 0.99959586,0.99959586 0 0 1 0.26323,-0.39983 1.3511203,1.3511203 0 0 1 0.47482,-0.27823 2.1108132,2.1108132 0 0 1 0.71304,-0.105 h 0.78634 v -0.11995 a 1.0229198,1.0229198 0 0 0 -0.0283,-0.24655 0.4331582,0.4331582 0 0 0 -0.10826,-0.19659 0.52478781,0.52478781 0 0 0 -0.22158,-0.12995 1.209511,1.209511 0 0 0 -0.36486,-0.045 3.5152453,3.5152453 0 0 0 -0.5198,0.0416 3.0087834,3.0087834 0 0 0 -0.45647,0.0983 0.19158919,0.19158919 0 0 1 -0.11164,0 c -0.0232,-0.0104 -0.04,-0.035 -0.0482,-0.0765 l -0.0983,-0.39985 q -0.0283,-0.11164 0.0634,-0.14826 a 2.8421842,2.8421842 0 0 1 0.6464,-0.15827 5.1395885,5.1395885 0 0 1 0.6664,-0.045 q 0.73137,0 1.07124,0.3232 a 1.2361668,1.2361668 0 0 1 0.3332,0.94127 z m -0.83301,-1.33279 h -0.6664 a 2.5223136,2.5223136 0 0 0 -0.25655,0.0133 0.72637295,0.72637295 0 0 0 -0.2599,0.0768 0.54311373,0.54311373 0 0 0 -0.20324,0.18324 0.58309757,0.58309757 0 0 0 -0.08,0.33321 0.44815213,0.44815213 0 0 0 0.20324,0.42149 1.0645696,1.0645696 0 0 0 0.54146,0.11995 h 0.13662 a 1.8325924,1.8325924 0 0 0 0.18658,-0.0183 q 0.0982,-0.0132 0.20658,-0.0349 a 1.177857,1.177857 0 0 0 0.19991,-0.0567 z"
       class="cls-1" />
    <path
       style="fill:#d4d4d4;fill-opacity:1;stroke:#d4d4d4;stroke-width:0.1665993;stroke-opacity:1"
       inkscape:connector-curvature="0"
       id="path990"
       d="m 132.98715,116.401 c -0.0133,0.0183 -0.0466,0.0283 -0.0984,0.0283 h -2.63395 a 0.65640124,0.65640124 0 0 1 -0.4498,-0.12328 0.61641741,0.61641741 0 0 1 -0.13328,-0.45982 1.2245048,1.2245048 0 0 1 0.15827,-0.54145 2.6089452,2.6089452 0 0 1 0.46647,-0.62475 4.331582,4.331582 0 0 1 0.58977,-0.50978 q 0.30154,-0.2149 0.51979,-0.34819 0.21822,-0.13328 0.36484,-0.24323 a 1.436086,1.436086 0 0 0 0.23491,-0.21159 0.62974537,0.62974537 0 0 0 0.12327,-0.20325 0.66639719,0.66639719 0 0 0 0.035,-0.22157 0.49979792,0.49979792 0 0 0 -0.20325,-0.41483 0.99959586,0.99959586 0 0 0 -0.62474,-0.16661 1.7359647,1.7359647 0 0 0 -0.54477,0.0917 1.9425479,1.9425479 0 0 0 -0.52979,0.27321 0.22824105,0.22824105 0 0 1 -0.10158,0.0384 0.08829762,0.08829762 0 0 1 -0.08,-0.0533 l -0.27322,-0.38651 a 0.11328753,0.11328753 0 0 1 0.0284,-0.16661 2.5589652,2.5589652 0 0 1 0.73801,-0.3965 2.5223136,2.5223136 0 0 1 0.82134,-0.1366 2.4190219,2.4190219 0 0 1 0.62141,0.0766 1.5643674,1.5643674 0 0 1 0.51314,0.2349 1.1245453,1.1245453 0 0 1 0.48147,0.95962 1.3061385,1.3061385 0 0 1 -0.0817,0.47147 1.3544524,1.3544524 0 0 1 -0.23155,0.38984 2.1274731,2.1274731 0 0 1 -0.36486,0.3332 4.7497461,4.7497461 0 0 1 -0.47481,0.30488 4.6281287,4.6281287 0 0 0 -0.39317,0.25322 3.100413,3.100413 0 0 0 -0.36818,0.30988 2.7638825,2.7638825 0 0 0 -0.30987,0.35817 1.6526652,1.6526652 0 0 0 -0.21492,0.39986 h 2.31907 c 0.0516,0 0.0849,0.0104 0.0982,0.0284 a 0.18659123,0.18659123 0 0 1 0.0216,0.105 v 0.43482 a 0.18492523,0.18492523 0 0 1 -0.0233,0.11663 z"
       class="cls-3" />
    <path
       style="fill:#d4d4d4;fill-opacity:1;stroke:#d4d4d4;stroke-width:0.1665993;stroke-opacity:1"
       inkscape:connector-curvature="0"
       id="path992"
       d="m 137.66692,114.06862 a 3.9850554,3.9850554 0 0 1 -0.11662,0.99958 2.2091069,2.2091069 0 0 1 -0.35152,0.76802 1.6160132,1.6160132 0 0 1 -0.60144,0.49981 2.174121,2.174121 0 0 1 -1.71097,0 1.5627015,1.5627015 0 0 1 -0.59641,-0.49146 2.2091069,2.2091069 0 0 1 -0.35153,-0.76803 3.9833893,3.9833893 0 0 1 -0.11663,-0.9996 3.9167496,3.9167496 0 0 1 0.11997,-0.9996 2.2191027,2.2191027 0 0 1 0.35818,-0.77135 1.6226773,1.6226773 0 0 1 0.60142,-0.4998 1.92089,1.92089 0 0 1 0.84632,-0.17493 2.0308454,2.0308454 0 0 1 0.87132,0.1666 1.5293816,1.5293816 0 0 1 0.59642,0.49147 2.1657909,2.1657909 0 0 1 0.33321,0.76802 4.2316223,4.2316223 0 0 1 0.11828,1.01127 z m -0.833,0.0132 a 3.85011,3.85011 0 0 0 -0.0565,-0.66639 1.9392158,1.9392158 0 0 0 -0.18328,-0.5631 1.0429116,1.0429116 0 0 0 -0.33318,-0.38652 0.91296419,0.91296419 0 0 0 -0.52645,-0.14494 0.8829763,0.8829763 0 0 0 -0.51645,0.14494 1.0312496,1.0312496 0 0 0 -0.33321,0.38317 1.8859041,1.8859041 0 0 0 -0.17493,0.55646 4.1799766,4.1799766 0 0 0 0,1.32279 1.9325519,1.9325519 0 0 0 0.17493,0.55977 1.0412457,1.0412457 0 0 0 0.33321,0.38984 1.0112578,1.0112578 0 0 0 1.04624,0 1.0445776,1.0445776 0 0 0 0.3332,-0.3865 1.8709102,1.8709102 0 0 0 0.17992,-0.55977 3.9833893,3.9833893 0 0 0 0.06,-0.64641 z"
       class="cls-3" />
    <path
       style="fill:#d4d4d4;fill-opacity:1;stroke:#d4d4d4;stroke-width:0.1665993;stroke-opacity:1"
       inkscape:connector-curvature="0"
       id="path994"
       d="m 141.65697,116.401 c -0.0134,0.0183 -0.0466,0.0283 -0.0983,0.0283 h -2.6356 a 0.65640124,0.65640124 0 0 1 -0.44983,-0.12328 0.61641741,0.61641741 0 0 1 -0.13327,-0.45982 1.2245048,1.2245048 0 0 1 0.15827,-0.54145 2.6089452,2.6089452 0 0 1 0.46649,-0.62475 4.331582,4.331582 0 0 1 0.58976,-0.50978 q 0.30155,-0.2149 0.51978,-0.34819 0.21824,-0.13328 0.36486,-0.24323 a 1.436086,1.436086 0 0 0 0.23489,-0.21159 0.62974537,0.62974537 0 0 0 0.12329,-0.20325 0.66639719,0.66639719 0 0 0 0.0351,-0.22157 0.49979792,0.49979792 0 0 0 -0.20326,-0.41483 0.99959586,0.99959586 0 0 0 -0.62474,-0.16661 1.7359647,1.7359647 0 0 0 -0.54476,0.0917 1.9425479,1.9425479 0 0 0 -0.5248,0.28322 0.22824105,0.22824105 0 0 1 -0.10158,0.0383 0.08829762,0.08829762 0 0 1 -0.08,-0.0533 l -0.27321,-0.38653 a 0.11328753,0.11328753 0 0 1 0.0283,-0.16659 2.5589652,2.5589652 0 0 1 0.73802,-0.39651 2.5223136,2.5223136 0 0 1 0.82135,-0.1366 2.4190219,2.4190219 0 0 1 0.6214,0.0766 1.5643674,1.5643674 0 0 1 0.51313,0.23492 1.1245453,1.1245453 0 0 1 0.48147,0.95961 1.3061385,1.3061385 0 0 1 -0.0817,0.47146 1.3544524,1.3544524 0 0 1 -0.23155,0.38987 2.1274731,2.1274731 0 0 1 -0.36487,0.33318 4.7497461,4.7497461 0 0 1 -0.47481,0.30488 4.6281287,4.6281287 0 0 0 -0.39317,0.25323 3.100413,3.100413 0 0 0 -0.36819,0.30988 2.7638825,2.7638825 0 0 0 -0.30987,0.35819 1.6526652,1.6526652 0 0 0 -0.21491,0.39983 h 2.31908 c 0.0517,0 0.0849,0.0104 0.0982,0.0283 a 0.18659123,0.18659123 0 0 1 0.0216,0.10498 v 0.43484 a 0.18492523,0.18492523 0 0 1 -0.0266,0.10668 z"
       class="cls-3" />
    <path
       style="fill:#d4d4d4;fill-opacity:1;stroke:#d4d4d4;stroke-width:0.1665993;stroke-opacity:1"
       inkscape:connector-curvature="0"
       id="path996"
       d="m 146.33507,115.30479 a 0.13494543,0.13494543 0 0 1 -0.0283,0.10158 0.16659931,0.16659931 0 0 1 -0.105,0.0249 h -0.46982 v 0.88462 c 0,0.0516 -0.0104,0.0849 -0.0315,0.0983 a 0.20158515,0.20158515 0 0 1 -0.10826,0.0216 h -0.54312 a 0.16659931,0.16659931 0 0 1 -0.0967,-0.0216 c -0.0182,-0.0132 -0.0283,-0.0466 -0.0283,-0.0983 v -0.87798 h -2.06582 a 0.5714356,0.5714356 0 0 1 -0.27822,-0.0665 q -0.12329,-0.0666 -0.12329,-0.29821 v -0.11994 a 0.83299651,0.83299651 0 0 1 0.0351,-0.24325 0.74803089,0.74803089 0 0 1 0.1266,-0.23491 l 1.96088,-2.53564 a 1.5610355,1.5610355 0 0 1 0.19992,-0.21825 0.43482418,0.43482418 0 0 1 0.30488,-0.10499 h 0.26488 a 0.39484036,0.39484036 0 0 1 0.29989,0.0917 0.46814405,0.46814405 0 0 1 0.0832,0.31654 v 2.73223 h 0.47148 a 0.16659931,0.16659931 0 0 1 0.10499,0.0249 0.13661143,0.13661143 0 0 1 0.0283,0.10158 z m -1.41942,-2.58563 -0.0216,-0.0216 -1.55104,2.03751 0.0134,0.0284 h 1.55939 z"
       class="cls-3" />
    <path
       style="fill:#d4d4d4;fill-opacity:1;stroke:#d4d4d4;stroke-width:0.1665993;stroke-opacity:1"
       inkscape:connector-curvature="0"
       id="path918-7"
       d="m 65.020574,104.99404 h -0.666395 a 0.3581885,0.3581885 0 0 0 -0.40317,0.35152 v 3.24202 a 0.3581885,0.3581885 0 0 0 0.40317,0.35153 h 0.666395 a 0.3581885,0.3581885 0 0 0 0.403169,-0.35153 v -3.24202 a 0.3581885,0.3581885 0 0 0 -0.403169,-0.35152 z"
       class="cls-2" />
  </g>
</svg>
